<svg width="337" height="402" viewBox="0 0 337 402" fill="none" xmlns="http://www.w3.org/2000/svg">
<g filter="url(#filter0_ddd_123_11994)">
<g clip-path="url(#clip0_123_11994)">
<rect x="26" y="10" width="285" height="350" rx="24" fill="#F9FBFD"/>
<rect x="26" y="10" width="285" height="350" rx="24" fill="#F9FBFD"/>
<circle opacity="0.4" cx="172" cy="171" r="80" fill="url(#paint0_linear_123_11994)"/>
<circle opacity="0.4" cx="239" cy="83" r="12" fill="url(#paint1_linear_123_11994)"/>
<g opacity="0.5">
<g opacity="0.1" filter="url(#filter1_f_123_11994)">
<path d="M174.809 223.59C195.55 223.59 212.364 213.893 212.364 201.931C212.364 189.968 195.55 180.271 174.809 180.271C154.068 180.271 137.254 189.968 137.254 201.931C137.254 213.893 154.068 223.59 174.809 223.59Z" fill="#0F054C"/>
</g>
<g opacity="0.2" filter="url(#filter2_f_123_11994)">
<path d="M174.809 219.835C191.981 219.835 205.901 211.819 205.901 201.931C205.901 192.043 191.981 184.027 174.809 184.027C157.637 184.027 143.717 192.043 143.717 201.931C143.717 211.819 157.637 219.835 174.809 219.835Z" fill="#0F054C"/>
</g>
<g opacity="0.4" filter="url(#filter3_f_123_11994)">
<path d="M174.809 216.079C188.363 216.079 199.351 209.745 199.351 201.931C199.351 194.117 188.363 187.782 174.809 187.782C161.255 187.782 150.268 194.117 150.268 201.931C150.268 209.745 161.255 216.079 174.809 216.079Z" fill="#080344"/>
</g>
</g>
<path d="M134.722 166.734C133.412 170.926 126.687 179.136 122.407 177.826C118.215 176.516 118.215 166.297 119.438 162.105C120.748 157.913 125.115 155.468 129.394 156.778C133.586 158.088 136.032 162.542 134.722 166.734Z" fill="url(#paint2_radial_123_11994)"/>
<path d="M134.722 166.734C133.412 170.926 126.687 179.136 122.407 177.826C118.215 176.516 118.215 166.297 119.438 162.105C120.748 157.913 125.115 155.468 129.394 156.778C133.586 158.088 136.032 162.542 134.722 166.734Z" fill="url(#paint3_linear_123_11994)"/>
<path d="M126.599 156.865C128.783 156.69 131.665 158 132.887 159.834C134.198 161.668 133.411 163.24 131.228 163.502C129.045 163.677 126.163 162.367 124.94 160.533C123.63 158.699 124.416 157.04 126.599 156.865Z" fill="#251C72"/>
<path opacity="0.5" d="M126.599 156.865C128.783 156.69 131.665 158 132.887 159.834C134.198 161.668 133.411 163.24 131.228 163.502C129.045 163.677 126.163 162.367 124.94 160.533C123.63 158.699 124.416 157.04 126.599 156.865Z" fill="url(#paint4_radial_123_11994)"/>
<path d="M124.329 158.874C124.678 158.524 125.29 158.35 125.988 158.262C128.172 158.088 131.054 159.398 132.277 161.232C132.626 161.756 132.888 162.367 132.888 162.804C133.674 162.105 133.761 160.97 132.888 159.747C131.578 157.913 128.783 156.603 126.6 156.777C125.115 156.952 124.242 157.826 124.329 158.874Z" fill="#16E09E"/>
<path opacity="0.6" d="M134.023 154.682C133.673 154.682 133.411 154.944 133.411 155.293C133.411 155.642 133.673 155.904 134.023 155.904C134.372 155.904 134.634 155.642 134.634 155.293C134.634 155.031 134.372 154.682 134.023 154.682Z" fill="#16E09E"/>
<path d="M128.084 150.315C127.211 150.315 126.512 151.013 126.425 151.887C126.425 152.76 127.124 153.459 127.997 153.546C128.87 153.634 129.569 152.847 129.656 151.974C129.656 151.101 128.958 150.315 128.084 150.315Z" fill="#16E09E"/>
<path opacity="0.6" d="M137.167 146.734C136.643 146.734 136.294 147.083 136.294 147.607C136.294 148.131 136.643 148.481 137.167 148.481C137.691 148.481 138.041 148.131 138.041 147.607C138.041 147.083 137.691 146.734 137.167 146.734Z" fill="#16E09E"/>
<path d="M133.675 147.432C133.325 147.432 133.063 147.694 133.063 148.044C133.063 148.393 133.325 148.655 133.675 148.655C134.024 148.655 134.286 148.393 134.286 148.044C134.286 147.782 133.937 147.432 133.675 147.432Z" fill="#16E09E"/>
<path d="M134.284 146.122C134.022 146.122 133.848 146.297 133.848 146.559C133.848 146.821 134.022 146.996 134.284 146.996C134.546 146.996 134.721 146.821 134.721 146.559C134.721 146.297 134.546 146.122 134.284 146.122Z" fill="#16E09E"/>
<path opacity="0.6" d="M129.219 157.825C128.695 157.825 128.346 158.175 128.346 158.699C128.346 159.223 128.695 159.572 129.219 159.572C129.743 159.572 130.093 159.223 130.093 158.699C130.093 158.175 129.656 157.825 129.219 157.825Z" fill="#16E09E"/>
<path d="M131.84 157.476C131.141 157.476 130.529 158 130.529 158.786C130.529 159.485 131.053 160.096 131.84 160.096C132.538 160.096 133.15 159.572 133.15 158.786C133.15 158.087 132.626 157.476 131.84 157.476Z" fill="#16E09E"/>
<path d="M145.985 152.236C152.594 152.236 157.951 146.879 157.951 140.271C157.951 133.663 152.594 128.306 145.985 128.306C139.377 128.306 134.02 133.663 134.02 140.271C134.02 146.879 139.377 152.236 145.985 152.236Z" fill="url(#paint5_linear_123_11994)"/>
<path d="M152.449 130.14C158.039 133.721 159.698 141.144 156.117 146.734C152.536 152.323 145.113 153.983 139.523 150.402C133.934 146.821 132.274 139.397 135.855 133.808C139.436 128.218 146.859 126.559 152.449 130.14Z" fill="url(#paint6_linear_123_11994)"/>
<path d="M205.813 162.018C205.813 185.249 191.926 204.201 174.896 204.201C157.777 204.201 143.978 185.337 143.978 162.018C143.978 138.786 157.865 131.799 174.896 131.799C191.926 131.712 205.813 138.699 205.813 162.018Z" fill="url(#paint7_radial_123_11994)"/>
<path d="M205.813 162.018C205.813 185.249 191.926 204.201 174.896 204.201C157.777 204.201 143.978 185.337 143.978 162.018C143.978 138.786 157.865 131.799 174.896 131.799C191.926 131.712 205.813 138.699 205.813 162.018Z" fill="url(#paint8_linear_123_11994)"/>
<path d="M174.808 156.516C186.481 156.516 195.944 151.041 195.944 144.288C195.944 137.536 186.481 132.061 174.808 132.061C163.135 132.061 153.673 137.536 153.673 144.288C153.673 151.041 163.135 156.516 174.808 156.516Z" fill="#7C4EFF"/>
<path opacity="0.5" d="M174.808 156.516C186.481 156.516 195.944 151.041 195.944 144.288C195.944 137.536 186.481 132.061 174.808 132.061C163.135 132.061 153.673 137.536 153.673 144.288C153.673 151.041 163.135 156.516 174.808 156.516Z" fill="url(#paint9_radial_123_11994)"/>
<path d="M159.873 138.873C168.083 134.07 181.533 134.07 189.743 138.873C193.149 140.882 195.158 143.327 195.769 145.86C196.642 142.192 194.634 138.437 189.743 135.642C181.533 130.838 168.083 130.838 159.873 135.642C155.07 138.437 153.061 142.279 153.847 145.86C154.459 143.327 156.467 140.882 159.873 138.873Z" fill="#16E09E"/>
<path d="M163.016 107.964C166.489 101.949 166.494 95.4504 163.027 93.4486C159.56 91.4469 153.934 94.7003 150.461 100.715C146.988 106.731 146.983 113.229 150.45 115.231C153.917 117.233 159.543 113.979 163.016 107.964Z" fill="#BCBEFF"/>
<path d="M176.03 146.734C193.491 146.734 207.646 132.579 207.646 115.118C207.646 97.6567 193.491 83.5017 176.03 83.5017C158.569 83.5017 144.414 97.6567 144.414 115.118C144.414 132.579 158.569 146.734 176.03 146.734Z" fill="url(#paint10_radial_123_11994)"/>
<path d="M176.03 146.734C193.491 146.734 207.646 132.579 207.646 115.118C207.646 97.6567 193.491 83.5017 176.03 83.5017C158.569 83.5017 144.414 97.6567 144.414 115.118C144.414 132.579 158.569 146.734 176.03 146.734Z" fill="url(#paint11_linear_123_11994)"/>
<path d="M166.25 130.14C165.464 136.341 160.748 138.262 155.769 134.507C150.791 130.664 147.385 122.629 148.259 116.341C149.045 110.14 153.761 108.218 158.739 111.974C163.63 115.817 167.036 123.939 166.25 130.14Z" fill="#7C4EFF"/>
<path opacity="0.5" d="M166.25 130.14C165.464 136.341 160.748 138.262 155.769 134.507C150.791 130.664 147.385 122.629 148.259 116.341C149.045 110.14 153.761 108.218 158.739 111.974C163.63 115.817 167.036 123.939 166.25 130.14Z" fill="url(#paint12_radial_123_11994)"/>
<path d="M162.146 124.725C161.884 126.996 160.137 127.694 158.303 126.297C156.469 124.9 155.246 121.93 155.595 119.747C155.857 117.476 157.604 116.777 159.438 118.175C161.185 119.485 162.408 122.454 162.146 124.725Z" fill="#16E09E"/>
<path d="M158.128 133.546C153.15 129.703 149.744 121.668 150.617 115.38C150.967 112.847 151.928 111.013 153.325 110.052C150.705 110.314 148.783 112.498 148.259 116.34C147.473 122.541 150.792 130.664 155.77 134.507C158.74 136.777 161.535 136.952 163.543 135.555C161.884 135.642 160.05 135.031 158.128 133.546Z" fill="#16E09E"/>
<path d="M156.207 134.245C151.229 130.402 147.823 122.367 148.696 116.078C149.045 113.196 150.268 111.275 151.928 110.314C150.006 111.1 148.609 113.109 148.259 116.253C147.473 122.454 150.792 130.576 155.77 134.419C158.478 136.428 161.011 136.865 162.932 135.817C161.098 136.603 158.653 136.166 156.207 134.245Z" fill="#16E09E"/>
<path d="M208.868 182.018C215.477 182.018 220.834 176.661 220.834 170.053C220.834 163.445 215.477 158.088 208.868 158.088C202.26 158.088 196.903 163.445 196.903 170.053C196.903 176.661 202.26 182.018 208.868 182.018Z" fill="url(#paint13_radial_123_11994)"/>
<path d="M208.868 182.018C215.477 182.018 220.834 176.661 220.834 170.053C220.834 163.445 215.477 158.088 208.868 158.088C202.26 158.088 196.903 163.445 196.903 170.053C196.903 176.661 202.26 182.018 208.868 182.018Z" fill="url(#paint14_linear_123_11994)"/>
<path d="M220.399 170.227C220.399 173.634 218.041 177.738 215.072 179.398C212.102 181.057 209.744 179.747 209.744 176.341C209.744 172.935 212.102 168.83 215.072 167.171C218.041 165.511 220.399 166.821 220.399 170.227Z" fill="#7C4EFF"/>
<path opacity="0.5" d="M220.399 170.227C220.399 173.634 218.041 177.738 215.072 179.398C212.102 181.057 209.744 179.747 209.744 176.341C209.744 172.935 212.102 168.83 215.072 167.171C218.041 165.511 220.399 166.821 220.399 170.227Z" fill="url(#paint15_radial_123_11994)"/>
<path d="M217.604 166.472C218.041 167.083 218.303 167.957 218.303 169.092C218.303 172.498 215.945 176.603 212.976 178.262C212.102 178.786 211.229 179.048 210.53 178.961C211.404 180.271 213.15 180.533 215.159 179.398C218.128 177.738 220.487 173.634 220.487 170.227C220.399 167.869 219.264 166.559 217.604 166.472Z" fill="#16E09E"/>
<path d="M202.669 126.733L191.315 133.284V120.096L202.669 113.458V126.733Z" fill="#7C4EFF"/>
<path opacity="0.8" d="M201.01 114.506V125.773L191.315 131.362V133.284L202.669 126.733V113.458L201.01 114.506Z" fill="url(#paint16_radial_123_11994)"/>
<path d="M193.498 123.676L192.45 124.288V123.152L193.498 122.541V123.676Z" fill="#16E09E"/>
<path d="M195.595 120.969L194.634 121.493V120.358L195.595 119.746V120.969Z" fill="#16E09E"/>
<path d="M197.778 121.231L196.817 121.755V120.62L197.778 120.008V121.231Z" fill="#16E09E"/>
<path d="M197.778 124.288L196.817 124.899V123.676L197.778 123.152V124.288Z" fill="#16E09E"/>
<path d="M196.468 126.646L195.508 127.257V126.122L196.468 125.511V126.646Z" fill="#16E09E"/>
<path d="M200.047 122.978L198.999 123.589V122.454L200.047 121.843V122.978Z" fill="#16E09E"/>
<path d="M217.082 203.677C215.772 207.869 209.047 216.079 204.767 214.769C200.488 213.459 200.575 203.24 201.798 199.048C203.108 194.856 207.475 192.411 211.754 193.721C215.946 195.031 218.392 199.485 217.082 203.677Z" fill="url(#paint17_radial_123_11994)"/>
<path d="M217.082 203.677C215.772 207.869 209.047 216.079 204.767 214.769C200.488 213.459 200.575 203.24 201.798 199.048C203.108 194.856 207.475 192.411 211.754 193.721C215.946 195.031 218.392 199.485 217.082 203.677Z" fill="url(#paint18_linear_123_11994)"/>
<path d="M208.959 193.808C211.142 193.634 214.024 194.944 215.247 196.778C216.557 198.612 215.771 200.184 213.588 200.446C211.404 200.621 208.522 199.311 207.299 197.476C205.989 195.642 206.775 193.983 208.959 193.808Z" fill="#251C72"/>
<path opacity="0.5" d="M208.959 193.808C211.142 193.634 214.024 194.944 215.247 196.778C216.557 198.612 215.771 200.184 213.588 200.446C211.404 200.621 208.522 199.311 207.299 197.476C205.989 195.642 206.775 193.983 208.959 193.808Z" fill="url(#paint19_radial_123_11994)"/>
<path d="M206.688 195.904C207.038 195.555 207.649 195.38 208.348 195.293C210.531 195.118 213.413 196.428 214.636 198.262C214.985 198.786 215.247 199.398 215.247 199.834C216.033 199.136 216.121 198 215.247 196.778C213.937 194.944 211.143 193.634 208.959 193.808C207.474 193.983 206.601 194.769 206.688 195.904Z" fill="#16E09E"/>
<path opacity="0.6" d="M215.246 188.743C215.508 188.481 215.508 188.131 215.246 187.869C214.984 187.607 214.634 187.607 214.372 187.869C214.11 188.131 214.11 188.481 214.372 188.743C214.547 189.005 214.984 189.005 215.246 188.743Z" fill="#16E09E"/>
<path d="M222.495 187.694C223.106 187.083 223.193 186.122 222.582 185.424C221.971 184.812 221.01 184.725 220.311 185.336C219.7 185.948 219.613 186.908 220.224 187.607C220.923 188.306 221.883 188.306 222.495 187.694Z" fill="#16E09E"/>
<path opacity="0.6" d="M218.565 196.603C218.914 196.254 218.914 195.73 218.565 195.38C218.216 195.031 217.692 195.031 217.342 195.38C216.993 195.73 216.993 196.254 217.342 196.603C217.604 196.952 218.216 196.952 218.565 196.603Z" fill="#16E09E"/>
<path d="M220.573 193.634C220.835 193.372 220.835 193.022 220.573 192.76C220.311 192.498 219.962 192.498 219.7 192.76C219.438 193.022 219.438 193.372 219.7 193.634C219.962 193.808 220.311 193.896 220.573 193.634Z" fill="#16E09E"/>
<path d="M221.097 195.031C221.272 194.856 221.272 194.594 221.097 194.42C220.922 194.245 220.66 194.245 220.485 194.42C220.311 194.594 220.311 194.856 220.485 195.031C220.66 195.206 220.922 195.206 221.097 195.031Z" fill="#16E09E"/>
<path opacity="0.6" d="M216.556 183.153C216.905 182.804 216.905 182.28 216.556 181.93C216.207 181.581 215.683 181.581 215.333 181.93C214.984 182.28 214.984 182.804 215.333 183.153C215.595 183.502 216.207 183.502 216.556 183.153Z" fill="#16E09E"/>
<path d="M214.809 185.249C215.333 184.725 215.333 183.939 214.896 183.415C214.372 182.891 213.586 182.891 213.062 183.328C212.538 183.852 212.538 184.638 212.975 185.162C213.499 185.686 214.285 185.773 214.809 185.249Z" fill="#16E09E"/>
<path d="M188.782 103.327L123.542 65.9468C122.493 65.3355 121.533 65.3355 120.747 65.7722L116.729 68.1303L119.349 70.0517V72.1478L117.865 72.7591L117.952 152.323L122.406 156.603L137.515 165.249L183.804 191.014C183.804 191.014 185.551 191.014 185.813 191.014C185.9 191.014 185.988 190.751 186.075 190.489L188.084 191.625L187.472 194.682L191.577 192.324C192.45 191.8 193.062 190.664 193.062 188.917V111.362C192.974 108.218 191.14 104.637 188.782 103.327ZM187.036 186.647L124.24 150.664C123.716 150.402 123.28 149.528 123.28 148.83V72.2351L136.642 80.7941L185.027 109.266L186.424 111.449L187.21 146.122L187.036 186.647Z" fill="url(#paint20_linear_123_11994)"/>
<path opacity="0.6" d="M191.664 106.471L185.376 110.052L186.249 111.449L187.035 146.122L186.948 186.559L185.813 185.861C185.813 187.083 187.385 193.284 187.385 194.594L190.704 192.673L191.49 192.236C192.363 191.712 192.974 190.577 192.974 188.83V111.275C192.974 109.703 192.45 107.956 191.664 106.471Z" fill="#0F054C"/>
<path d="M184.59 105.773L119.35 68.3924C117.079 67.0824 115.157 68.4798 115.157 71.5366V149.092C115.157 152.149 116.992 155.729 119.35 157.127L184.59 194.507C186.861 195.817 188.783 194.42 188.783 191.363V113.808C188.783 110.664 186.861 107.083 184.59 105.773ZM184.94 189.005C184.94 189.704 184.503 190.053 183.979 189.704L119.961 153.022C119.437 152.76 119 151.887 119 151.188V73.8947C119 73.196 119.437 72.8466 119.961 73.196L183.979 109.878C184.503 110.14 184.94 111.013 184.94 111.712V189.005Z" fill="url(#paint21_linear_123_11994)"/>
<path d="M184.59 105.773L119.35 68.3924C117.079 67.0824 115.157 68.4798 115.157 71.5366V149.092C115.157 152.149 116.992 155.729 119.35 157.127L184.59 194.507C186.861 195.817 188.783 194.42 188.783 191.363V113.808C188.783 110.664 186.861 107.083 184.59 105.773ZM184.94 189.005C184.94 189.704 184.503 190.053 183.979 189.704L119.961 153.022C119.437 152.76 119 151.887 119 151.188V73.8947C119 73.196 119.437 72.8466 119.961 73.196L183.979 109.878C184.503 110.14 184.94 111.013 184.94 111.712V189.005Z" fill="url(#paint22_linear_123_11994)"/>
<path d="M124.153 150.576C123.629 150.314 123.192 149.441 123.192 148.742V75.0297L119.961 73.1083C119.437 72.8463 119 73.1083 119 73.807V151.188C119 151.886 119.437 152.672 119.961 153.022L183.979 189.703C184.503 189.965 184.94 189.703 184.94 189.005V185.424L124.153 150.576Z" fill="#251C72"/>
<path opacity="0.4" d="M184.94 189.005C184.94 189.703 184.503 190.053 183.979 189.703L119.961 153.022C119.437 152.76 119 151.886 119 151.188V73.8943C119 73.1956 119.437 72.8463 119.961 73.1956L183.979 109.877C184.503 110.139 184.94 111.013 184.94 111.711V189.005Z" fill="#16E09E"/>
<g opacity="0.4">
<path d="M138.737 107.694L132.536 104.113V102.541L138.737 106.122V107.694Z" fill="#16E09E"/>
<path d="M144.065 110.751L141.008 108.917V107.345L144.065 109.179V110.751Z" fill="#16E09E"/>
<path d="M140.571 112.41L137.951 110.838V109.266L140.571 110.838V112.41Z" fill="#16E09E"/>
<path d="M145.025 114.943L141.968 113.196V111.624L145.025 113.371V114.943Z" fill="#16E09E"/>
<path d="M150.178 121.581L137.951 114.506V113.022L150.178 120.009V121.581Z" fill="#16E09E"/>
<path d="M140.571 119.746L137.951 118.262V116.69L140.571 118.174V119.746Z" fill="#16E09E"/>
<path d="M145.025 122.367L141.968 120.533V118.96L145.025 120.795V122.367Z" fill="#16E09E"/>
<path d="M144.676 125.773L137.951 121.93V120.358L144.676 124.201V125.773Z" fill="#16E09E"/>
<path d="M149.216 128.393L146.072 126.559V124.987L149.216 126.821V128.393Z" fill="#16E09E"/>
<path d="M153.671 131.013L150.614 129.179V127.607L153.671 129.441V131.013Z" fill="#16E09E"/>
<path d="M161.008 135.205L155.156 131.799V130.227L161.008 133.633V135.205Z" fill="#16E09E"/>
<path d="M157.514 140.533L154.37 138.699V137.127L157.514 138.961V140.533Z" fill="#16E09E"/>
<path d="M164.763 144.725L158.911 141.319V139.747L164.763 143.153V144.725Z" fill="#16E09E"/>
<path d="M141.095 131.013L137.951 129.266V127.694L141.095 129.528V131.013Z" fill="#16E09E"/>
<path d="M145.549 133.633L142.492 131.887V130.314L145.549 132.061V133.633Z" fill="#16E09E"/>
<path d="M152.885 137.913L147.033 134.507V132.934L152.885 136.341V137.913Z" fill="#16E09E"/>
<path d="M161.881 139.397L158.824 137.651V136.079L161.881 137.825V139.397Z" fill="#16E09E"/>
<path d="M166.423 142.018L163.278 140.183V138.699L166.423 140.445V142.018Z" fill="#16E09E"/>
<path d="M173.759 146.21L167.82 142.804V141.232L173.759 144.638V146.21Z" fill="#16E09E"/>
<path d="M141.095 138.437L137.951 136.602V135.03L141.095 136.864V138.437Z" fill="#16E09E"/>
<path d="M148.344 142.629L142.492 139.223V137.651L148.344 141.057V142.629Z" fill="#16E09E"/>
<path d="M159.522 126.996L156.378 125.161V123.589L159.522 125.423V126.996Z" fill="#16E09E"/>
<path d="M154.807 124.288L151.663 122.454V120.882L154.807 122.716V124.288Z" fill="#16E09E"/>
<path d="M166.772 131.188L160.92 127.782V126.21L166.772 129.616V131.188Z" fill="#16E09E"/>
<path d="M140.746 127.17L137.951 125.598V124.026L140.746 125.598V127.17Z" fill="#16E09E"/>
<path d="M149.129 131.974L142.229 128.044V126.471L149.129 130.402V131.974Z" fill="#16E09E"/>
<path d="M157.427 136.864L150.614 132.847V131.275L157.427 135.292V136.864Z" fill="#16E09E"/>
<path d="M171.14 133.721L168.345 132.061V130.489L171.14 132.149V133.721Z" fill="#16E09E"/>
<path d="M144.85 136.952L138.038 132.934V131.362L144.85 135.38V136.952Z" fill="#16E09E"/>
<path d="M148.431 138.961L146.335 137.738V136.166L148.431 137.389V138.961Z" fill="#16E09E"/>
<path d="M152.011 141.057L149.915 139.834V138.262L152.011 139.485V141.057Z" fill="#16E09E"/>
<path d="M158.738 144.9L153.585 141.93V140.358L158.738 143.328V144.9Z" fill="#16E09E"/>
<path d="M160.134 145.773L154.981 142.716V141.144L160.134 144.201V145.773Z" fill="#16E09E"/>
<path d="M164.501 137.214L162.405 135.991V134.419L164.501 135.642V137.214Z" fill="#16E09E"/>
<path d="M171.138 141.057L165.985 138.087V136.515L171.138 139.484V141.057Z" fill="#16E09E"/>
<path d="M134.718 138.437L132.622 137.214V135.642L134.718 136.865V138.437Z" fill="#16E09E"/>
<path d="M141.357 142.28L136.204 139.31V137.738L141.357 140.707V142.28Z" fill="#16E09E"/>
<path d="M148.17 146.21L143.018 143.24V141.668L148.17 144.638V146.21Z" fill="#16E09E"/>
</g>
<path d="M92.1598 313L98.3998 299H101.6L107.86 313H104.46L99.3398 300.64H100.62L95.4798 313H92.1598ZM95.2798 310L96.1398 307.54H103.34L104.22 310H95.2798ZM113.615 313.16C112.601 313.16 111.688 312.933 110.875 312.48C110.061 312.013 109.415 311.367 108.935 310.54C108.468 309.713 108.235 308.74 108.235 307.62C108.235 306.487 108.468 305.507 108.935 304.68C109.415 303.853 110.061 303.213 110.875 302.76C111.688 302.307 112.601 302.08 113.615 302.08C114.521 302.08 115.315 302.28 115.995 302.68C116.675 303.08 117.201 303.687 117.575 304.5C117.948 305.313 118.135 306.353 118.135 307.62C118.135 308.873 117.955 309.913 117.595 310.74C117.235 311.553 116.715 312.16 116.035 312.56C115.368 312.96 114.561 313.16 113.615 313.16ZM114.155 310.6C114.661 310.6 115.121 310.48 115.535 310.24C115.948 310 116.275 309.66 116.515 309.22C116.768 308.767 116.895 308.233 116.895 307.62C116.895 306.993 116.768 306.46 116.515 306.02C116.275 305.58 115.948 305.24 115.535 305C115.121 304.76 114.661 304.64 114.155 304.64C113.635 304.64 113.168 304.76 112.755 305C112.341 305.24 112.008 305.58 111.755 306.02C111.515 306.46 111.395 306.993 111.395 307.62C111.395 308.233 111.515 308.767 111.755 309.22C112.008 309.66 112.341 310 112.755 310.24C113.168 310.48 113.635 310.6 114.155 310.6ZM116.975 313V310.8L117.035 307.6L116.835 304.42V298.16H119.955V313H116.975ZM131.426 313L126.906 302.24H130.126L133.886 311.5H132.286L136.186 302.24H139.186L134.646 313H131.426ZM145.507 313.16C144.28 313.16 143.2 312.92 142.267 312.44C141.347 311.96 140.633 311.307 140.127 310.48C139.62 309.64 139.367 308.687 139.367 307.62C139.367 306.54 139.613 305.587 140.107 304.76C140.613 303.92 141.3 303.267 142.167 302.8C143.033 302.32 144.013 302.08 145.107 302.08C146.16 302.08 147.107 302.307 147.947 302.76C148.8 303.2 149.473 303.84 149.967 304.68C150.46 305.507 150.707 306.5 150.707 307.66C150.707 307.78 150.7 307.92 150.687 308.08C150.673 308.227 150.66 308.367 150.647 308.5H141.907V306.68H149.007L147.807 307.22C147.807 306.66 147.693 306.173 147.467 305.76C147.24 305.347 146.927 305.027 146.527 304.8C146.127 304.56 145.66 304.44 145.127 304.44C144.593 304.44 144.12 304.56 143.707 304.8C143.307 305.027 142.993 305.353 142.767 305.78C142.54 306.193 142.427 306.687 142.427 307.26V307.74C142.427 308.327 142.553 308.847 142.807 309.3C143.073 309.74 143.44 310.08 143.907 310.32C144.387 310.547 144.947 310.66 145.587 310.66C146.16 310.66 146.66 310.573 147.087 310.4C147.527 310.227 147.927 309.967 148.287 309.62L149.947 311.42C149.453 311.98 148.833 312.413 148.087 312.72C147.34 313.013 146.48 313.16 145.507 313.16ZM152.784 313V302.24H155.764V305.28L155.344 304.4C155.664 303.64 156.177 303.067 156.884 302.68C157.59 302.28 158.45 302.08 159.464 302.08V304.96C159.33 304.947 159.21 304.94 159.104 304.94C158.997 304.927 158.884 304.92 158.764 304.92C157.91 304.92 157.217 305.167 156.684 305.66C156.164 306.14 155.904 306.893 155.904 307.92V313H152.784ZM161.338 313V302.24H164.458V313H161.338ZM162.898 300.74C162.325 300.74 161.858 300.573 161.498 300.24C161.138 299.907 160.958 299.493 160.958 299C160.958 298.507 161.138 298.093 161.498 297.76C161.858 297.427 162.325 297.26 162.898 297.26C163.472 297.26 163.938 297.42 164.298 297.74C164.658 298.047 164.838 298.447 164.838 298.94C164.838 299.46 164.658 299.893 164.298 300.24C163.952 300.573 163.485 300.74 162.898 300.74ZM167.734 313V302C167.734 300.787 168.094 299.82 168.814 299.1C169.534 298.367 170.561 298 171.894 298C172.347 298 172.781 298.047 173.194 298.14C173.621 298.233 173.981 298.38 174.274 298.58L173.454 300.84C173.281 300.72 173.087 300.627 172.874 300.56C172.661 300.493 172.434 300.46 172.194 300.46C171.741 300.46 171.387 300.593 171.134 300.86C170.894 301.113 170.774 301.5 170.774 302.02V303.02L170.854 304.36V313H167.734ZM166.074 304.88V302.48H173.534V304.88H166.074ZM175.294 313V302.24H178.414V313H175.294ZM176.854 300.74C176.281 300.74 175.814 300.573 175.454 300.24C175.094 299.907 174.914 299.493 174.914 299C174.914 298.507 175.094 298.093 175.454 297.76C175.814 297.427 176.281 297.26 176.854 297.26C177.427 297.26 177.894 297.42 178.254 297.74C178.614 298.047 178.794 298.447 178.794 298.94C178.794 299.46 178.614 299.893 178.254 300.24C177.907 300.573 177.441 300.74 176.854 300.74ZM186.499 313.16C185.339 313.16 184.306 312.927 183.399 312.46C182.493 311.98 181.779 311.32 181.259 310.48C180.753 309.64 180.499 308.687 180.499 307.62C180.499 306.54 180.753 305.587 181.259 304.76C181.779 303.92 182.493 303.267 183.399 302.8C184.306 302.32 185.339 302.08 186.499 302.08C187.633 302.08 188.619 302.32 189.459 302.8C190.299 303.267 190.919 303.94 191.319 304.82L188.899 306.12C188.619 305.613 188.266 305.24 187.839 305C187.426 304.76 186.973 304.64 186.479 304.64C185.946 304.64 185.466 304.76 185.039 305C184.613 305.24 184.273 305.58 184.019 306.02C183.779 306.46 183.659 306.993 183.659 307.62C183.659 308.247 183.779 308.78 184.019 309.22C184.273 309.66 184.613 310 185.039 310.24C185.466 310.48 185.946 310.6 186.479 310.6C186.973 310.6 187.426 310.487 187.839 310.26C188.266 310.02 188.619 309.64 188.899 309.12L191.319 310.44C190.919 311.307 190.299 311.98 189.459 312.46C188.619 312.927 187.633 313.16 186.499 313.16ZM199.716 313V310.9L199.516 310.44V306.68C199.516 306.013 199.309 305.493 198.896 305.12C198.496 304.747 197.876 304.56 197.036 304.56C196.462 304.56 195.896 304.653 195.336 304.84C194.789 305.013 194.322 305.253 193.936 305.56L192.816 303.38C193.402 302.967 194.109 302.647 194.936 302.42C195.762 302.193 196.602 302.08 197.456 302.08C199.096 302.08 200.369 302.467 201.276 303.24C202.182 304.013 202.636 305.22 202.636 306.86V313H199.716ZM196.436 313.16C195.596 313.16 194.876 313.02 194.276 312.74C193.676 312.447 193.216 312.053 192.896 311.56C192.576 311.067 192.416 310.513 192.416 309.9C192.416 309.26 192.569 308.7 192.876 308.22C193.196 307.74 193.696 307.367 194.376 307.1C195.056 306.82 195.942 306.68 197.036 306.68H199.896V308.5H197.376C196.642 308.5 196.136 308.62 195.856 308.86C195.589 309.1 195.456 309.4 195.456 309.76C195.456 310.16 195.609 310.48 195.916 310.72C196.236 310.947 196.669 311.06 197.216 311.06C197.736 311.06 198.202 310.94 198.616 310.7C199.029 310.447 199.329 310.08 199.516 309.6L199.996 311.04C199.769 311.733 199.356 312.26 198.756 312.62C198.156 312.98 197.382 313.16 196.436 313.16ZM209.86 313.16C208.593 313.16 207.606 312.84 206.9 312.2C206.193 311.547 205.84 310.58 205.84 309.3V299.86H208.96V309.26C208.96 309.713 209.08 310.067 209.32 310.32C209.56 310.56 209.886 310.68 210.3 310.68C210.793 310.68 211.213 310.547 211.56 310.28L212.4 312.48C212.08 312.707 211.693 312.88 211.24 313C210.8 313.107 210.34 313.16 209.86 313.16ZM204.18 304.88V302.48H211.64V304.88H204.18ZM214.151 313V302.24H217.271V313H214.151ZM215.711 300.74C215.138 300.74 214.671 300.573 214.311 300.24C213.951 299.907 213.771 299.493 213.771 299C213.771 298.507 213.951 298.093 214.311 297.76C214.671 297.427 215.138 297.26 215.711 297.26C216.284 297.26 216.751 297.42 217.111 297.74C217.471 298.047 217.651 298.447 217.651 298.94C217.651 299.46 217.471 299.893 217.111 300.24C216.764 300.573 216.298 300.74 215.711 300.74ZM225.287 313.16C224.14 313.16 223.12 312.92 222.227 312.44C221.347 311.96 220.647 311.307 220.127 310.48C219.62 309.64 219.367 308.687 219.367 307.62C219.367 306.54 219.62 305.587 220.127 304.76C220.647 303.92 221.347 303.267 222.227 302.8C223.12 302.32 224.14 302.08 225.287 302.08C226.42 302.08 227.433 302.32 228.327 302.8C229.22 303.267 229.92 303.913 230.427 304.74C230.933 305.567 231.187 306.527 231.187 307.62C231.187 308.687 230.933 309.64 230.427 310.48C229.92 311.307 229.22 311.96 228.327 312.44C227.433 312.92 226.42 313.16 225.287 313.16ZM225.287 310.6C225.807 310.6 226.273 310.48 226.687 310.24C227.1 310 227.427 309.66 227.667 309.22C227.907 308.767 228.027 308.233 228.027 307.62C228.027 306.993 227.907 306.46 227.667 306.02C227.427 305.58 227.1 305.24 226.687 305C226.273 304.76 225.807 304.64 225.287 304.64C224.767 304.64 224.3 304.76 223.887 305C223.473 305.24 223.14 305.58 222.887 306.02C222.647 306.46 222.527 306.993 222.527 307.62C222.527 308.233 222.647 308.767 222.887 309.22C223.14 309.66 223.473 310 223.887 310.24C224.3 310.48 224.767 310.6 225.287 310.6ZM239.812 302.08C240.665 302.08 241.425 302.253 242.092 302.6C242.772 302.933 243.305 303.453 243.692 304.16C244.079 304.853 244.272 305.747 244.272 306.84V313H241.152V307.32C241.152 306.453 240.959 305.813 240.572 305.4C240.199 304.987 239.665 304.78 238.972 304.78C238.479 304.78 238.032 304.887 237.632 305.1C237.245 305.3 236.939 305.613 236.712 306.04C236.499 306.467 236.392 307.013 236.392 307.68V313H233.272V302.24H236.252V305.22L235.692 304.32C236.079 303.6 236.632 303.047 237.352 302.66C238.072 302.273 238.892 302.08 239.812 302.08Z" fill="#202027"/>
</g>
<rect x="27" y="11" width="283" height="348" rx="23" stroke="url(#paint23_linear_123_11994)" stroke-opacity="0.1" stroke-width="2"/>
</g>
<defs>
<filter id="filter0_ddd_123_11994" x="0" y="0" width="337" height="402" filterUnits="userSpaceOnUse" color-interpolation-filters="sRGB">
<feFlood flood-opacity="0" result="BackgroundImageFix"/>
<feColorMatrix in="SourceAlpha" type="matrix" values="0 0 0 0 0 0 0 0 0 0 0 0 0 0 0 0 0 0 127 0" result="hardAlpha"/>
<feMorphology radius="1" operator="erode" in="SourceAlpha" result="effect1_dropShadow_123_11994"/>
<feOffset dy="4"/>
<feGaussianBlur stdDeviation="4"/>
<feComposite in2="hardAlpha" operator="out"/>
<feColorMatrix type="matrix" values="0 0 0 0 0.027451 0 0 0 0 0 0 0 0 0 0.109804 0 0 0 0.03 0"/>
<feBlend mode="normal" in2="BackgroundImageFix" result="effect1_dropShadow_123_11994"/>
<feColorMatrix in="SourceAlpha" type="matrix" values="0 0 0 0 0 0 0 0 0 0 0 0 0 0 0 0 0 0 127 0" result="hardAlpha"/>
<feMorphology radius="3" operator="erode" in="SourceAlpha" result="effect2_dropShadow_123_11994"/>
<feOffset dy="8"/>
<feGaussianBlur stdDeviation="8"/>
<feComposite in2="hardAlpha" operator="out"/>
<feColorMatrix type="matrix" values="0 0 0 0 0.027451 0 0 0 0 0 0 0 0 0 0.109804 0 0 0 0.03 0"/>
<feBlend mode="normal" in2="effect1_dropShadow_123_11994" result="effect2_dropShadow_123_11994"/>
<feColorMatrix in="SourceAlpha" type="matrix" values="0 0 0 0 0 0 0 0 0 0 0 0 0 0 0 0 0 0 127 0" result="hardAlpha"/>
<feMorphology radius="6" operator="erode" in="SourceAlpha" result="effect3_dropShadow_123_11994"/>
<feOffset dy="16"/>
<feGaussianBlur stdDeviation="16"/>
<feComposite in2="hardAlpha" operator="out"/>
<feColorMatrix type="matrix" values="0 0 0 0 0.027451 0 0 0 0 0 0 0 0 0 0.109804 0 0 0 0.02 0"/>
<feBlend mode="normal" in2="effect2_dropShadow_123_11994" result="effect3_dropShadow_123_11994"/>
<feBlend mode="normal" in="SourceGraphic" in2="effect3_dropShadow_123_11994" result="shape"/>
</filter>
<filter id="filter1_f_123_11994" x="84.8517" y="127.869" width="179.914" height="148.124" filterUnits="userSpaceOnUse" color-interpolation-filters="sRGB">
<feFlood flood-opacity="0" result="BackgroundImageFix"/>
<feBlend mode="normal" in="SourceGraphic" in2="BackgroundImageFix" result="shape"/>
<feGaussianBlur stdDeviation="26.2011" result="effect1_foregroundBlur_123_11994"/>
</filter>
<filter id="filter2_f_123_11994" x="108.782" y="149.092" width="132.054" height="105.678" filterUnits="userSpaceOnUse" color-interpolation-filters="sRGB">
<feFlood flood-opacity="0" result="BackgroundImageFix"/>
<feBlend mode="normal" in="SourceGraphic" in2="BackgroundImageFix" result="shape"/>
<feGaussianBlur stdDeviation="17.4674" result="effect1_foregroundBlur_123_11994"/>
</filter>
<filter id="filter3_f_123_11994" x="132.8" y="170.315" width="84.0182" height="63.2321" filterUnits="userSpaceOnUse" color-interpolation-filters="sRGB">
<feFlood flood-opacity="0" result="BackgroundImageFix"/>
<feBlend mode="normal" in="SourceGraphic" in2="BackgroundImageFix" result="shape"/>
<feGaussianBlur stdDeviation="8.73371" result="effect1_foregroundBlur_123_11994"/>
</filter>
<linearGradient id="paint0_linear_123_11994" x1="118" y1="67.1797" x2="211" y2="238.18" gradientUnits="userSpaceOnUse">
<stop stop-color="#7C4EFF"/>
<stop offset="0.904355" stop-color="#7C4EFF" stop-opacity="0"/>
</linearGradient>
<linearGradient id="paint1_linear_123_11994" x1="230.9" y1="67.427" x2="244.85" y2="93.077" gradientUnits="userSpaceOnUse">
<stop stop-color="#7C4EFF"/>
<stop offset="0.904355" stop-color="#7C4EFF" stop-opacity="0"/>
</linearGradient>
<radialGradient id="paint2_radial_123_11994" cx="0" cy="0" r="1" gradientUnits="userSpaceOnUse" gradientTransform="translate(132.079 160.443) rotate(16.7569) scale(22.6146 22.6146)">
<stop stop-color="#C0BFF6"/>
<stop offset="1" stop-color="#393091"/>
</radialGradient>
<linearGradient id="paint3_linear_123_11994" x1="128.414" y1="156.335" x2="122.505" y2="175.246" gradientUnits="userSpaceOnUse">
<stop stop-color="#2FD3C7"/>
<stop offset="0.0880899" stop-color="#31B6BD"/>
<stop offset="0.5206" stop-color="#3C57A5"/>
<stop offset="1" stop-color="#453C9E"/>
</linearGradient>
<radialGradient id="paint4_radial_123_11994" cx="0" cy="0" r="1" gradientUnits="userSpaceOnUse" gradientTransform="translate(127.826 161.719) rotate(-95.1062) scale(14.6761 14.6761)">
<stop stop-color="#16E09E"/>
<stop offset="0.1055" stop-color="#37BFA7"/>
<stop offset="0.338" stop-color="#2277B0"/>
<stop offset="0.776042" stop-color="#2043CC"/>
<stop offset="1" stop-color="#2D30FF"/>
</radialGradient>
<linearGradient id="paint5_linear_123_11994" x1="145.599" y1="128.439" x2="145.599" y2="152.227" gradientUnits="userSpaceOnUse">
<stop stop-color="#16E09E"/>
<stop offset="0.0880899" stop-color="#31BDA4"/>
<stop offset="0.5206" stop-color="#2752CC"/>
<stop offset="1" stop-color="#4C14EB"/>
</linearGradient>
<linearGradient id="paint6_linear_123_11994" x1="139.556" y1="150.341" x2="152.439" y2="130.116" gradientUnits="userSpaceOnUse">
<stop stop-color="#706EC4"/>
<stop offset="0.0222208" stop-color="#6D6BC2"/>
<stop offset="0.2509" stop-color="#5651AC"/>
<stop offset="0.4865" stop-color="#463F9D"/>
<stop offset="0.7314" stop-color="#3C3494"/>
<stop offset="1" stop-color="#393091"/>
</linearGradient>
<radialGradient id="paint7_radial_123_11994" cx="0" cy="0" r="1" gradientUnits="userSpaceOnUse" gradientTransform="translate(193.1 155.686) scale(53.2016 72.4215)">
<stop stop-color="#C0BFF6"/>
<stop offset="1" stop-color="#393091"/>
</radialGradient>
<linearGradient id="paint8_linear_123_11994" x1="180.613" y1="131.5" x2="162.629" y2="196.273" gradientUnits="userSpaceOnUse">
<stop stop-color="#2FD3C7"/>
<stop offset="0.0880899" stop-color="#31B6BD"/>
<stop offset="0.5206" stop-color="#3C57A5"/>
<stop offset="1" stop-color="#453C9E"/>
</linearGradient>
<radialGradient id="paint9_radial_123_11994" cx="0" cy="0" r="1" gradientUnits="userSpaceOnUse" gradientTransform="translate(174.014 155.986) scale(41.1792 41.1792)">
<stop stop-color="#16E09E"/>
<stop offset="0.1055" stop-color="#37BFA7"/>
<stop offset="0.4587" stop-color="#2A76E4"/>
<stop offset="0.7105" stop-color="#6951FD"/>
<stop offset="0.8458" stop-color="#7C4EFF"/>
<stop offset="1" stop-color="#3C04DB"/>
</radialGradient>
<radialGradient id="paint10_radial_123_11994" cx="0" cy="0" r="1" gradientUnits="userSpaceOnUse" gradientTransform="translate(195.765 110.473) scale(53.3647)">
<stop stop-color="#C0BFF6"/>
<stop offset="1" stop-color="#393091"/>
</radialGradient>
<linearGradient id="paint11_linear_123_11994" x1="181.877" y1="83.2415" x2="168.198" y2="140.927" gradientUnits="userSpaceOnUse">
<stop stop-color="#2FD3C7"/>
<stop offset="0.0880899" stop-color="#31B6BD"/>
<stop offset="0.5206" stop-color="#3C57A5"/>
<stop offset="1" stop-color="#453C9E"/>
</linearGradient>
<radialGradient id="paint12_radial_123_11994" cx="0" cy="0" r="1" gradientUnits="userSpaceOnUse" gradientTransform="translate(166.231 118.062) scale(26.2114 26.2114)">
<stop stop-color="#16E09E"/>
<stop offset="0.05911" stop-color="#3CCDB3"/>
<stop offset="0.359375" stop-color="#2277B0"/>
<stop offset="0.770833" stop-color="#2043CC"/>
<stop offset="1" stop-color="#2D30FF"/>
</radialGradient>
<radialGradient id="paint13_radial_123_11994" cx="0" cy="0" r="1" gradientUnits="userSpaceOnUse" gradientTransform="translate(215.964 162.185) rotate(11.1976) scale(25.0148 25.0148)">
<stop stop-color="#C0BFF6"/>
<stop offset="1" stop-color="#393091"/>
</radialGradient>
<linearGradient id="paint14_linear_123_11994" x1="211.081" y1="157.989" x2="205.905" y2="179.821" gradientUnits="userSpaceOnUse">
<stop stop-color="#2FD3C7"/>
<stop offset="0.0880899" stop-color="#31B6BD"/>
<stop offset="0.5206" stop-color="#3C57A5"/>
<stop offset="1" stop-color="#453C9E"/>
</linearGradient>
<radialGradient id="paint15_radial_123_11994" cx="0" cy="0" r="1" gradientUnits="userSpaceOnUse" gradientTransform="translate(212.843 171.413) scale(22.34 22.34)">
<stop stop-color="#16E09E"/>
<stop offset="0.1055" stop-color="#37BFAF"/>
<stop offset="0.338" stop-color="#2277B0"/>
<stop offset="0.78125" stop-color="#2043CC"/>
<stop offset="1" stop-color="#2D30FF"/>
</radialGradient>
<radialGradient id="paint16_radial_123_11994" cx="0" cy="0" r="1" gradientUnits="userSpaceOnUse" gradientTransform="translate(194.858 100.833) scale(21.0572 27.0522)">
<stop stop-color="#7C4EFF"/>
<stop offset="0.31" stop-color="#612CF8"/>
<stop offset="1" stop-color="#4012C4"/>
</radialGradient>
<radialGradient id="paint17_radial_123_11994" cx="0" cy="0" r="1" gradientUnits="userSpaceOnUse" gradientTransform="translate(214.451 197.396) rotate(16.7569) scale(22.6146 22.6146)">
<stop stop-color="#C0BFF6"/>
<stop offset="1" stop-color="#393091"/>
</radialGradient>
<linearGradient id="paint18_linear_123_11994" x1="210.766" y1="193.278" x2="204.862" y2="212.193" gradientUnits="userSpaceOnUse">
<stop stop-color="#2FD3C7"/>
<stop offset="0.0880899" stop-color="#31B6BD"/>
<stop offset="0.5206" stop-color="#3C57A5"/>
<stop offset="1" stop-color="#453C9E"/>
</linearGradient>
<radialGradient id="paint19_radial_123_11994" cx="0" cy="0" r="1" gradientUnits="userSpaceOnUse" gradientTransform="translate(210.197 198.673) rotate(-95.1063) scale(14.6761 14.6761)">
<stop stop-color="#16E09E"/>
<stop offset="0.1055" stop-color="#37BFA7"/>
<stop offset="0.338542" stop-color="#2277B0"/>
<stop offset="0.75" stop-color="#2043CC"/>
<stop offset="1" stop-color="#2D30FF"/>
</radialGradient>
<linearGradient id="paint20_linear_123_11994" x1="131.792" y1="130.055" x2="193.58" y2="130.055" gradientUnits="userSpaceOnUse">
<stop stop-color="#BCBEFF"/>
<stop offset="0.1659" stop-color="#B6B8FC"/>
<stop offset="0.3956" stop-color="#A4A8F5"/>
<stop offset="0.6625" stop-color="#868DEA"/>
<stop offset="0.9554" stop-color="#5E67DA"/>
<stop offset="1" stop-color="#5761D7"/>
</linearGradient>
<linearGradient id="paint21_linear_123_11994" x1="115.199" y1="131.441" x2="188.777" y2="131.441" gradientUnits="userSpaceOnUse">
<stop stop-color="#BCBEFF"/>
<stop offset="0.1659" stop-color="#B6B8FC"/>
<stop offset="0.3956" stop-color="#A4A8F5"/>
<stop offset="0.6625" stop-color="#868DEA"/>
<stop offset="0.9554" stop-color="#5E67DA"/>
<stop offset="1" stop-color="#5761D7"/>
</linearGradient>
<linearGradient id="paint22_linear_123_11994" x1="105.037" y1="131.441" x2="237.782" y2="131.441" gradientUnits="userSpaceOnUse">
<stop stop-color="#706EC4"/>
<stop offset="0.0222208" stop-color="#6D6BC2"/>
<stop offset="0.2509" stop-color="#5651AC"/>
<stop offset="0.4865" stop-color="#463F9D"/>
<stop offset="0.7314" stop-color="#3C3494"/>
<stop offset="1" stop-color="#393091"/>
</linearGradient>
<linearGradient id="paint23_linear_123_11994" x1="154.5" y1="10" x2="222.5" y2="372.5" gradientUnits="userSpaceOnUse">
<stop stop-color="#F6FCFF"/>
<stop offset="0.998764" stop-color="#7C4EFF"/>
</linearGradient>
<clipPath id="clip0_123_11994">
<rect x="26" y="10" width="285" height="350" rx="24" fill="white"/>
</clipPath>
</defs>
</svg>
