<svg width="139" height="22" viewBox="0 0 139 22" fill="none" xmlns="http://www.w3.org/2000/svg">
<path d="M18.9598 0.555634H3.7425C2.06164 0.555634 0.699036 1.91824 0.699036 3.59909V18.8164C0.699036 20.4973 2.06164 21.8599 3.7425 21.8599H18.9598C20.6407 21.8599 22.0033 20.4973 22.0033 18.8164V3.59909C22.0033 1.91824 20.6407 0.555634 18.9598 0.555634Z" fill="#1E4DFF"/>
<path opacity="0.8" d="M11.3104 14.0274L5.62677 9.66313V3.97946L11.3104 8.34379V14.0274Z" fill="white"/>
<path opacity="0.45" d="M17.3784 18.4357L12.7752 14.7561V9.07248L17.3784 12.752V18.4357Z" fill="white"/>
<path opacity="0.65" d="M11.3123 14.0274L16.996 9.66313V3.97946L11.3123 8.34379V14.0274Z" fill="white"/>
<path opacity="0.6" d="M5.62677 18.3855L11.3104 14.0227V8.33908L5.62677 12.7034V18.3855Z" fill="white"/>
<path opacity="0.4" d="M13.0133 12.7186L15.34 10.9321L13.0574 9.10449L13.0133 12.7186Z" fill="white"/>
<path opacity="0.2" d="M11.3123 11.7295L16.996 7.36521V6.71848L11.3123 11.0813V11.7295Z" fill="white"/>
<path d="M11.3122 14.0276L7.60834 11.1835L11.3122 8.34393V14.0276Z" fill="white"/>
<path opacity="0.4" d="M5.62677 16.106L11.3104 11.7417V11.0813L5.62677 15.4456V16.106Z" fill="white"/>
<path d="M31.6643 17.0237L30.4697 19.9774H26.9286L33.5314 4.77228H37.0695L43.5642 19.9774H39.8953L38.7008 17.0237H31.6643ZM35.2038 8.35748L32.7934 14.2648H37.5929L35.2038 8.35748Z" fill="#1F2542"/>
<path d="M56.098 19.9773H52.7746V18.2608C51.9483 19.4554 50.6883 20.1082 49.0813 20.1082C45.7579 20.1082 43.5651 17.6963 43.5651 14.0913C43.5651 10.5289 45.7366 8.15653 48.9946 8.15653C50.6457 8.15653 51.927 8.80783 52.7746 10.0024V3.86069H56.098V19.9773ZM52.0533 14.178C52.0533 12.2667 50.8587 10.9413 49.1422 10.9413C47.4257 10.9413 46.2098 12.288 46.1885 14.178C46.2098 16.0893 47.3831 17.4147 49.1422 17.4147C50.8587 17.4147 52.0533 16.0893 52.0533 14.178Z" fill="#1F2542"/>
<path d="M67.9575 9.44254L66.8056 11.7251C65.5228 11.0069 64.2202 10.5991 63.2402 10.5991C62.458 10.5991 61.8934 10.8593 61.8934 11.468C61.8934 13.2271 68.061 12.3369 68.0397 16.4638C68.0397 18.8529 65.9336 20.116 63.2828 20.116C61.3928 20.116 59.5469 19.5514 58.2215 18.4862L59.308 16.2279C60.5254 17.1608 62.0882 17.6827 63.3695 17.6827C64.2171 17.6827 64.8471 17.3997 64.8471 16.7697C64.8471 14.9025 58.7861 15.9023 58.7861 11.7967C58.7861 9.38471 60.8495 8.1445 63.3908 8.1445C65.0038 8.14638 66.5847 8.59572 67.9575 9.44254V9.44254Z" fill="#1F2542"/>
<path d="M76.7981 4.77228C80.6649 4.77228 82.8851 6.68357 82.8851 10.0512C82.8851 13.5922 80.6694 15.6329 76.7981 15.6329H73.779V19.9774H70.3475V4.77228H76.7981ZM73.779 12.7659H76.6247C78.536 12.7659 79.6225 11.897 79.6225 10.1592C79.6225 8.46552 78.536 7.61791 76.6247 7.61791H73.779V12.7659Z" fill="#1F2542"/>
<path d="M96.5426 14.1338C96.5426 17.6962 94.0226 20.1081 90.2867 20.1081C86.5509 20.1081 84.0096 17.6962 84.0096 14.1338C84.0096 10.5715 86.525 8.18234 90.2867 8.18234C94.0484 8.18234 96.5426 10.5502 96.5426 14.1338ZM87.3757 14.178C87.3757 16.0893 88.5489 17.3919 90.2867 17.3919C92.0245 17.3919 93.1978 16.0893 93.1978 14.178C93.1978 12.2667 92.0032 10.9625 90.2867 10.9625C88.5702 10.9625 87.3757 12.2728 87.3757 14.178V14.178Z" fill="#1F2542"/>
<path d="M109.333 19.9772L106.813 12.2727L104.316 19.9833H100.979L96.6922 8.3162L100.102 8.29489L102.709 16.6644L105.228 8.3025H108.508L111.071 16.672L113.634 8.31011H116.936L112.675 19.9955L109.333 19.9772Z" fill="#1F2542"/>
<path d="M128.776 15.1551H120.391C120.782 16.6327 121.913 17.5016 123.41 17.5016C123.961 17.5015 124.505 17.3919 125.012 17.1792C125.52 16.9666 125.98 16.6551 126.366 16.2629L128.125 18.0449C126.951 19.3475 125.233 20.1083 123.129 20.1083C119.393 20.1083 117.025 17.7192 117.025 14.1736C117.025 10.5671 119.48 8.17795 123.042 8.17795C127.155 8.18251 129.059 10.9034 128.776 15.1551ZM125.649 13.186C125.605 11.6445 124.605 10.6447 123.062 10.6447C121.584 10.6447 120.586 11.6445 120.323 13.186H125.649Z" fill="#1F2542"/>
<path d="M134.336 10.3982C135.139 8.96473 136.466 8.18256 138.202 8.16125V11.3112C135.812 11.0936 134.336 12.3764 134.336 14.3547V19.9851H130.988V8.29212H134.336V10.3982Z" fill="#1F2542"/>
</svg>
