<svg width="171" height="115" viewBox="0 0 171 115" fill="none" xmlns="http://www.w3.org/2000/svg">
<g filter="url(#filter0_bddd_123_11501)">
<rect x="-36.5028" y="0.406677" width="187.057" height="74.5784" rx="16" fill="url(#paint0_radial_123_11501)" fill-opacity="0.1" shape-rendering="crispEdges"/>
<rect x="-36.5028" y="0.406677" width="187.057" height="74.5784" rx="16" fill="url(#paint1_radial_123_11501)" fill-opacity="0.1" shape-rendering="crispEdges"/>
<rect x="-36.5028" y="0.406677" width="187.057" height="74.5784" rx="16" fill="url(#paint2_radial_123_11501)" fill-opacity="0.1" shape-rendering="crispEdges"/>
<g clip-path="url(#clip0_123_11501)">
<path d="M6.85946 27.5554H-8.35784C-10.0387 27.5554 -11.4013 28.918 -11.4013 30.5989V45.8162C-11.4013 47.497 -10.0387 48.8596 -8.35784 48.8596H6.85946C8.54032 48.8596 9.90292 47.497 9.90292 45.8162V30.5989C9.90292 28.918 8.54032 27.5554 6.85946 27.5554Z" fill="#1E4DFF"/>
<path opacity="0.45" d="M5.27908 45.4357L0.675842 41.7561V36.0725L5.27908 39.752V45.4357Z" fill="white"/>
<path opacity="0.65" d="M-0.788025 41.0272L4.89564 36.6629V30.9792L-0.788025 35.3435V41.0272Z" fill="white"/>
<path opacity="0.4" d="M0.913025 39.7184L3.23975 37.9319L0.957155 36.1043L0.913025 39.7184Z" fill="white"/>
<path opacity="0.2" d="M-0.788025 38.7293L4.89564 34.365V33.7182L-0.788025 38.081V38.7293Z" fill="white"/>
<path d="M19.5641 44.0235L18.3695 46.9772H14.8284L21.4312 31.7721H24.9692L31.464 46.9772H27.7951L26.6005 44.0235H19.5641ZM23.1036 35.3573L20.6932 41.2646H25.4927L23.1036 35.3573Z" fill="#1F2542"/>
<path d="M43.9978 46.9771H40.6743V45.2606C39.848 46.4552 38.588 47.108 36.9811 47.108C33.6576 47.108 31.4648 44.6961 31.4648 41.0911C31.4648 37.5287 33.6363 35.1563 36.8943 35.1563C38.5454 35.1563 39.8267 35.8077 40.6743 37.0022V30.8605H43.9978V46.9771ZM39.953 41.1778C39.953 39.2665 38.7584 37.9411 37.0419 37.9411C35.3254 37.9411 34.1095 39.2878 34.0882 41.1778C34.1095 43.0891 35.2828 44.4146 37.0419 44.4146C38.7584 44.4146 39.953 43.0891 39.953 41.1778Z" fill="#1F2542"/>
<path d="M55.8572 36.4425L54.7052 38.7251C53.4224 38.0069 52.1198 37.5991 51.1398 37.5991C50.3577 37.5991 49.7931 37.8593 49.7931 38.468C49.7931 40.2271 55.9607 39.3369 55.9394 43.4638C55.9394 45.8529 53.8333 47.116 51.1824 47.116C49.2924 47.116 47.4466 46.5514 46.1212 45.4862L47.2077 43.2279C48.4251 44.1608 49.9879 44.6827 51.2692 44.6827C52.1168 44.6827 52.7468 44.3997 52.7468 43.7697C52.7468 41.9025 46.6857 42.9023 46.6857 38.7967C46.6857 36.3847 48.7492 35.1445 51.2905 35.1445C52.9035 35.1464 54.4843 35.5957 55.8572 36.4425Z" fill="#1F2542"/>
<path d="M64.6979 31.7721C68.5646 31.7721 70.7849 33.6834 70.7849 37.051C70.7849 40.592 68.5692 42.6327 64.6979 42.6327H61.6788V46.9772H58.2473V31.7721H64.6979ZM61.6788 39.7657H64.5245C66.4357 39.7657 67.5223 38.8968 67.5223 37.159C67.5223 35.4653 66.4357 34.6177 64.5245 34.6177H61.6788V39.7657Z" fill="#1F2542"/>
<path d="M84.4422 41.1338C84.4422 44.6962 81.9222 47.1081 78.1864 47.1081C74.4505 47.1081 71.9092 44.6962 71.9092 41.1338C71.9092 37.5715 74.4247 35.1823 78.1864 35.1823C81.9481 35.1823 84.4422 37.5502 84.4422 41.1338ZM75.2753 41.178C75.2753 43.0893 76.4486 44.3919 78.1864 44.3919C79.9242 44.3919 81.0974 43.0893 81.0974 41.178C81.0974 39.2667 79.9029 37.9625 78.1864 37.9625C76.4699 37.9625 75.2753 39.2728 75.2753 41.178Z" fill="#1F2542"/>
<path d="M97.2329 46.9772L94.7129 39.2727L92.2157 46.9833H88.8786L84.5919 35.3162L88.0021 35.2949L90.6088 43.6644L93.1272 35.3025H96.4081L98.9707 43.672L101.533 35.3101H104.835L100.575 46.9955L97.2329 46.9772Z" fill="#1F2542"/>
<path d="M116.676 42.1548H108.291C108.682 43.6324 109.813 44.5013 111.31 44.5013C111.86 44.5012 112.405 44.3916 112.912 44.179C113.419 43.9663 113.879 43.6548 114.265 43.2627L116.024 45.0446C114.851 46.3472 113.133 47.1081 111.029 47.1081C107.293 47.1081 104.925 44.719 104.925 41.1733C104.925 37.5668 107.379 35.1777 110.942 35.1777C115.055 35.1823 116.959 37.9031 116.676 42.1548ZM113.549 40.1857C113.504 38.6442 112.505 37.6444 110.962 37.6444C109.484 37.6444 108.486 38.6442 108.222 40.1857H113.549Z" fill="#1F2542"/>
<path d="M122.235 37.398C123.039 35.9646 124.366 35.1824 126.102 35.1611V38.3111C123.711 38.0935 122.235 39.3763 122.235 41.3545V46.9849H118.888V35.292H122.235V37.398Z" fill="#1F2542"/>
</g>
<rect x="-36.0028" y="0.906677" width="186.057" height="73.5784" rx="15.5" stroke="url(#paint3_linear_123_11501)" stroke-opacity="0.1" shape-rendering="crispEdges"/>
</g>
<defs>
<filter id="filter0_bddd_123_11501" x="-60.9547" y="-24.0452" width="235.961" height="138.153" filterUnits="userSpaceOnUse" color-interpolation-filters="sRGB">
<feFlood flood-opacity="0" result="BackgroundImageFix"/>
<feGaussianBlur in="BackgroundImageFix" stdDeviation="12.226"/>
<feComposite in2="SourceAlpha" operator="in" result="effect1_backgroundBlur_123_11501"/>
<feColorMatrix in="SourceAlpha" type="matrix" values="0 0 0 0 0 0 0 0 0 0 0 0 0 0 0 0 0 0 127 0" result="hardAlpha"/>
<feMorphology radius="4.89039" operator="erode" in="SourceAlpha" result="effect2_dropShadow_123_11501"/>
<feOffset dy="4.89039"/>
<feGaussianBlur stdDeviation="4.89039"/>
<feComposite in2="hardAlpha" operator="out"/>
<feColorMatrix type="matrix" values="0 0 0 0 0.0281666 0 0 0 0 0 0 0 0 0 0.108333 0 0 0 0.08 0"/>
<feBlend mode="normal" in2="effect1_backgroundBlur_123_11501" result="effect2_dropShadow_123_11501"/>
<feColorMatrix in="SourceAlpha" type="matrix" values="0 0 0 0 0 0 0 0 0 0 0 0 0 0 0 0 0 0 127 0" result="hardAlpha"/>
<feMorphology radius="9.78077" operator="erode" in="SourceAlpha" result="effect3_dropShadow_123_11501"/>
<feOffset dy="9.78077"/>
<feGaussianBlur stdDeviation="9.78077"/>
<feComposite in2="hardAlpha" operator="out"/>
<feColorMatrix type="matrix" values="0 0 0 0 0.027451 0 0 0 0 0 0 0 0 0 0.109804 0 0 0 0.08 0"/>
<feBlend mode="normal" in2="effect2_dropShadow_123_11501" result="effect3_dropShadow_123_11501"/>
<feColorMatrix in="SourceAlpha" type="matrix" values="0 0 0 0 0 0 0 0 0 0 0 0 0 0 0 0 0 0 127 0" result="hardAlpha"/>
<feMorphology radius="19.5615" operator="erode" in="SourceAlpha" result="effect4_dropShadow_123_11501"/>
<feOffset dy="19.5615"/>
<feGaussianBlur stdDeviation="19.5615"/>
<feComposite in2="hardAlpha" operator="out"/>
<feColorMatrix type="matrix" values="0 0 0 0 0.027451 0 0 0 0 0 0 0 0 0 0.109804 0 0 0 0.08 0"/>
<feBlend mode="normal" in2="effect3_dropShadow_123_11501" result="effect4_dropShadow_123_11501"/>
<feBlend mode="normal" in="SourceGraphic" in2="effect4_dropShadow_123_11501" result="shape"/>
</filter>
<radialGradient id="paint0_radial_123_11501" cx="0" cy="0" r="1" gradientUnits="userSpaceOnUse" gradientTransform="translate(49.2814 74.9851) rotate(-101.029) scale(31.14 78.2568)">
<stop stop-color="#00FF19"/>
<stop offset="1" stop-color="#00FF19" stop-opacity="0"/>
</radialGradient>
<radialGradient id="paint1_radial_123_11501" cx="0" cy="0" r="1" gradientUnits="userSpaceOnUse" gradientTransform="translate(-36.5028 27.3038) rotate(38.9547) scale(50.5602 130.877)">
<stop stop-color="#7000FE"/>
<stop offset="1" stop-color="#4200FF" stop-opacity="0"/>
</radialGradient>
<radialGradient id="paint2_radial_123_11501" cx="0" cy="0" r="1" gradientUnits="userSpaceOnUse" gradientTransform="translate(136.257 6.51967) rotate(124.841) scale(62.5645 159.637)">
<stop stop-color="#FBD300"/>
<stop offset="1" stop-color="#FFA800" stop-opacity="0"/>
</radialGradient>
<linearGradient id="paint3_linear_123_11501" x1="57.6215" y1="0.406676" x2="76.4596" y2="73.8199" gradientUnits="userSpaceOnUse">
<stop stop-color="#F6FCFF"/>
<stop offset="1" stop-color="#7C4EFF"/>
</linearGradient>
<clipPath id="clip0_123_11501">
<rect width="137.504" height="21.3042" fill="white" transform="translate(-11.4022 27.5556)"/>
</clipPath>
</defs>
</svg>
