<svg width="60" height="20" viewBox="0 0 60 20" fill="none" xmlns="http://www.w3.org/2000/svg">
<path d="M4.91445 19.4001V0.600121H6.55445V19.4001H4.91445ZM5.53445 17.2001C4.44112 17.2001 3.39445 17.0468 2.39445 16.7401C1.39445 16.4201 0.60112 16.0135 0.0144531 15.5201L0.914453 13.5001C1.47445 13.9401 2.16779 14.3068 2.99445 14.6001C3.82112 14.8935 4.66779 15.0401 5.53445 15.0401C6.26779 15.0401 6.86112 14.9601 7.31445 14.8001C7.76779 14.6401 8.10112 14.4268 8.31445 14.1601C8.52779 13.8801 8.63445 13.5668 8.63445 13.2201C8.63445 12.7935 8.48112 12.4535 8.17445 12.2001C7.86779 11.9335 7.46779 11.7268 6.97445 11.5801C6.49445 11.4201 5.95445 11.2735 5.35445 11.1401C4.76779 11.0068 4.17445 10.8535 3.57445 10.6801C2.98779 10.4935 2.44779 10.2601 1.95445 9.98012C1.47445 9.68679 1.08112 9.30012 0.774453 8.82012C0.467787 8.34012 0.314453 7.72679 0.314453 6.98012C0.314453 6.22012 0.514453 5.52679 0.914453 4.90012C1.32779 4.26012 1.94779 3.75345 2.77445 3.38012C3.61445 2.99345 4.67445 2.80012 5.95445 2.80012C6.79445 2.80012 7.62779 2.90679 8.45445 3.12012C9.28112 3.33345 10.0011 3.64012 10.6145 4.04012L9.79445 6.06012C9.16779 5.68679 8.52112 5.41345 7.85445 5.24012C7.18779 5.05345 6.54779 4.96012 5.93445 4.96012C5.21445 4.96012 4.62779 5.04679 4.17445 5.22012C3.73445 5.39345 3.40779 5.62012 3.19445 5.90012C2.99445 6.18012 2.89445 6.50012 2.89445 6.86012C2.89445 7.28679 3.04112 7.63345 3.33445 7.90012C3.64112 8.15346 4.03445 8.35346 4.51445 8.50012C5.00779 8.64679 5.55445 8.79345 6.15445 8.94012C6.75445 9.07346 7.34779 9.22679 7.93445 9.40012C8.53445 9.57346 9.07445 9.80012 9.55445 10.0801C10.0478 10.3601 10.4411 10.7401 10.7345 11.2201C11.0411 11.7001 11.1945 12.3068 11.1945 13.0401C11.1945 13.7868 10.9878 14.4801 10.5745 15.1201C10.1745 15.7468 9.55445 16.2535 8.71445 16.6401C7.87445 17.0135 6.81445 17.2001 5.53445 17.2001ZM15.0173 17.0001V4.00012L16.1573 5.18012H12.0573V3.00012H17.6173V17.0001H15.0173ZM28.2684 2.80012C29.5484 2.80012 30.635 3.07345 31.5284 3.62012C32.435 4.15346 33.1284 4.93345 33.6084 5.96012C34.0884 6.98679 34.3284 8.25345 34.3284 9.76012C34.3284 11.3601 34.035 12.7135 33.4484 13.8201C32.875 14.9268 32.075 15.7668 31.0484 16.3401C30.0217 16.9135 28.8284 17.2001 27.4684 17.2001C26.7617 17.2001 26.0884 17.1268 25.4484 16.9801C24.8084 16.8335 24.255 16.6068 23.7884 16.3001L24.7484 14.3401C25.135 14.5935 25.555 14.7735 26.0084 14.8801C26.4617 14.9735 26.9284 15.0201 27.4084 15.0201C28.7284 15.0201 29.775 14.6135 30.5484 13.8001C31.3217 12.9868 31.7084 11.7868 31.7084 10.2001C31.7084 9.94679 31.7017 9.65346 31.6884 9.32012C31.675 8.97346 31.6284 8.62679 31.5484 8.28012L32.3484 9.16012C32.1217 9.70679 31.795 10.1668 31.3684 10.5401C30.9417 10.9001 30.4417 11.1735 29.8684 11.3601C29.295 11.5468 28.6617 11.6401 27.9684 11.6401C27.0617 11.6401 26.2417 11.4668 25.5084 11.1201C24.7884 10.7601 24.215 10.2601 23.7884 9.62012C23.3617 8.96679 23.1484 8.20679 23.1484 7.34012C23.1484 6.40679 23.375 5.60679 23.8284 4.94012C24.2817 4.26012 24.895 3.73345 25.6684 3.36012C26.455 2.98679 27.3217 2.80012 28.2684 2.80012ZM28.4084 4.84012C27.875 4.84012 27.4017 4.94012 26.9884 5.14012C26.575 5.32679 26.2484 5.60012 26.0084 5.96012C25.7817 6.30679 25.6684 6.72679 25.6684 7.22012C25.6684 7.95346 25.9217 8.53346 26.4284 8.96012C26.935 9.38679 27.615 9.60012 28.4684 9.60012C29.0284 9.60012 29.5217 9.50012 29.9484 9.30012C30.375 9.08679 30.7084 8.80012 30.9484 8.44012C31.1884 8.06679 31.3084 7.65345 31.3084 7.20012C31.3084 6.76012 31.195 6.36679 30.9684 6.02012C30.7417 5.66012 30.415 5.37345 29.9884 5.16012C29.5617 4.94679 29.035 4.84012 28.4084 4.84012ZM36.0879 17.0001V15.2601L41.6479 9.98012C42.1146 9.54012 42.4612 9.15346 42.6879 8.82012C42.9146 8.48679 43.0612 8.18012 43.1279 7.90012C43.2079 7.60679 43.2479 7.33345 43.2479 7.08012C43.2479 6.44012 43.0279 5.94679 42.5879 5.60012C42.1479 5.24012 41.5012 5.06012 40.6479 5.06012C39.9679 5.06012 39.3479 5.18012 38.7879 5.42012C38.2412 5.66012 37.7679 6.02679 37.3679 6.52012L35.5479 5.12012C36.0946 4.38679 36.8279 3.82012 37.7479 3.42012C38.6812 3.00679 39.7212 2.80012 40.8679 2.80012C41.8812 2.80012 42.7612 2.96679 43.5079 3.30012C44.2679 3.62012 44.8479 4.08012 45.2479 4.68012C45.6612 5.28012 45.8679 5.99345 45.8679 6.82012C45.8679 7.27346 45.8079 7.72679 45.6879 8.18012C45.5679 8.62012 45.3412 9.08679 45.0079 9.58012C44.6746 10.0735 44.1879 10.6268 43.5479 11.2401L38.7679 15.7801L38.2279 14.8001H46.4079V17.0001H36.0879ZM53.9485 17.2001C52.8418 17.2001 51.8418 16.9201 50.9485 16.3601C50.0685 15.8001 49.3752 14.9868 48.8685 13.9201C48.3618 12.8401 48.1085 11.5335 48.1085 10.0001C48.1085 8.46679 48.3618 7.16679 48.8685 6.10012C49.3752 5.02012 50.0685 4.20012 50.9485 3.64012C51.8418 3.08012 52.8418 2.80012 53.9485 2.80012C55.0685 2.80012 56.0685 3.08012 56.9485 3.64012C57.8285 4.20012 58.5218 5.02012 59.0285 6.10012C59.5485 7.16679 59.8085 8.46679 59.8085 10.0001C59.8085 11.5335 59.5485 12.8401 59.0285 13.9201C58.5218 14.9868 57.8285 15.8001 56.9485 16.3601C56.0685 16.9201 55.0685 17.2001 53.9485 17.2001ZM53.9485 14.9401C54.6018 14.9401 55.1685 14.7668 55.6485 14.4201C56.1285 14.0601 56.5018 13.5135 56.7685 12.7801C57.0485 12.0468 57.1885 11.1201 57.1885 10.0001C57.1885 8.86679 57.0485 7.94012 56.7685 7.22012C56.5018 6.48679 56.1285 5.94679 55.6485 5.60012C55.1685 5.24012 54.6018 5.06012 53.9485 5.06012C53.3218 5.06012 52.7618 5.24012 52.2685 5.60012C51.7885 5.94679 51.4085 6.48679 51.1285 7.22012C50.8618 7.94012 50.7285 8.86679 50.7285 10.0001C50.7285 11.1201 50.8618 12.0468 51.1285 12.7801C51.4085 13.5135 51.7885 14.0601 52.2685 14.4201C52.7618 14.7668 53.3218 14.9401 53.9485 14.9401Z" fill="#7C4EFF"/>
</svg>
