<svg width="337" height="402" viewBox="0 0 337 402" fill="none" xmlns="http://www.w3.org/2000/svg">
<g filter="url(#filter0_ddd_123_11957)">
<rect x="26" y="10" width="285" height="350" rx="24" fill="#F9FBFD"/>
<rect x="27" y="11" width="283" height="348" rx="23" stroke="url(#paint0_linear_123_11957)" stroke-opacity="0.1" stroke-width="2"/>
</g>
<circle opacity="0.4" cx="168" cy="171" r="80" fill="url(#paint1_linear_123_11957)"/>
<circle opacity="0.4" cx="115" cy="83" r="12" fill="url(#paint2_linear_123_11957)"/>
<path opacity="0.4" d="M239.492 136.678C246.4 132.689 246.388 119.735 239.465 107.744C232.542 95.7527 221.329 89.2656 214.421 93.2543C207.512 97.243 207.524 110.197 214.447 122.188C221.371 134.179 232.583 140.666 239.492 136.678Z" fill="#16E09E"/>
<path d="M234.918 138.064C232.442 138.064 229.76 137.238 226.871 135.587C217.069 129.913 209.022 116.087 209.022 104.635C209.022 99.0638 210.879 94.9368 214.284 92.9765C217.688 91.0162 222.228 91.4289 227.077 94.2146C236.879 99.8892 244.926 113.714 244.926 125.167C244.926 130.738 243.069 134.865 239.664 136.825C238.22 137.754 236.672 138.064 234.918 138.064ZM219.03 92.2543C217.379 92.2543 215.831 92.667 214.49 93.3892C211.188 95.2463 209.434 99.2701 209.434 104.738C209.434 115.984 217.379 129.706 227.077 135.278C231.72 137.96 236.157 138.373 239.355 136.516C242.656 134.659 244.41 130.635 244.41 125.167C244.41 113.921 236.466 100.199 226.768 94.6273C224.085 93.0797 221.403 92.2543 219.03 92.2543Z" fill="#16E09E"/>
<path d="M225.014 143.636C222.537 143.636 219.855 142.81 216.966 141.159C207.165 135.485 199.117 121.659 199.117 110.207C199.117 104.636 200.974 100.509 204.379 98.5485C207.784 96.5882 212.323 97.0009 217.172 99.7866C226.974 105.461 235.021 119.286 235.021 130.739C235.021 136.31 233.164 140.437 229.76 142.397C228.315 143.326 226.768 143.636 225.014 143.636ZM209.125 97.8263C207.474 97.8263 205.926 98.239 204.585 98.9612C201.284 100.818 199.53 104.842 199.53 110.207C199.53 121.453 207.474 135.175 217.172 140.747C221.815 143.429 226.252 143.842 229.45 141.985C232.752 140.128 234.506 136.104 234.506 130.636C234.506 119.39 226.561 105.668 216.863 100.096C214.18 98.6517 211.601 97.8263 209.125 97.8263Z" fill="#16E09E"/>
<path d="M195.403 187.382V182.223L201.49 151.58L195.506 147.866L183.434 154.572V194.088C183.434 196.77 184.466 198.524 185.911 199.143L191.276 202.548L191.895 199.969L192.823 195.326C194.371 193.056 195.403 190.064 195.403 187.382Z" fill="url(#paint3_linear_123_11957)"/>
<path d="M195.299 202.341C191.998 204.198 189.315 202.135 189.315 197.802V158.286L201.387 151.58V191.095C201.387 195.532 198.704 200.484 195.299 202.341Z" fill="url(#paint4_linear_123_11957)"/>
<path d="M186.84 175.516L186.634 175.413C186.221 175.206 185.911 175.206 185.705 175.413L184.364 176.238L185.292 176.444C185.292 176.548 185.292 176.548 185.292 176.651V184.286C185.292 185.317 185.911 186.556 186.737 186.968L186.427 188L187.768 187.175C188.078 187.071 188.284 186.556 188.284 185.936V178.302C188.181 177.167 187.562 175.929 186.84 175.516Z" fill="url(#paint5_linear_123_11957)"/>
<path opacity="0.3" d="M186.84 175.516L186.634 175.413C186.221 175.206 185.911 175.206 185.705 175.413L184.364 176.238L185.292 176.444C185.292 176.548 185.292 176.548 185.292 176.651V184.286C185.292 185.317 185.911 186.556 186.737 186.968L186.427 188L187.768 187.175C188.078 187.071 188.284 186.556 188.284 185.936V178.302C188.181 177.167 187.562 175.929 186.84 175.516Z" fill="#0F054C"/>
<path d="M185.395 187.69L185.188 187.587C184.363 187.175 183.744 185.936 183.744 184.905V177.27C183.744 176.238 184.363 175.722 185.188 176.135L185.395 176.238C186.22 176.651 186.839 177.889 186.839 178.921V186.555C186.839 187.69 186.22 188.206 185.395 187.69Z" fill="white"/>
<path opacity="0.5" d="M195.3 202.342C198.602 200.485 201.284 195.429 201.284 191.096V158.08V153.541L195.507 154.779L189.935 157.874L188.697 156.429L183.538 158.39L183.023 168.81V169.017C183.023 172.215 185.396 174.898 188.491 175.413L189.11 175.517V197.802C189.316 202.135 191.999 204.199 195.3 202.342Z" fill="#120083"/>
<path d="M222.434 135.382C222.744 125.477 216.038 113.199 207.577 108.04C203.038 105.255 198.911 105.048 196.022 107.009L168.268 122.072L188.8 160.969L217.379 145.493C217.482 145.389 217.585 145.389 217.688 145.286L217.792 145.183C220.68 143.532 222.331 140.128 222.434 135.382Z" fill="url(#paint6_radial_123_11957)"/>
<path opacity="0.3" d="M222.433 135.382C222.64 129.501 220.37 122.795 216.656 117.223C212.529 119.596 204.172 124.239 188.489 133.215C184.568 135.485 180.854 137.445 177.346 139.096L188.902 160.866L217.481 145.39C217.584 145.286 217.687 145.286 217.791 145.183L217.894 145.08C220.679 143.533 222.33 140.128 222.433 135.382Z" fill="#0F054C"/>
<path d="M193.958 150.754C193.648 160.659 186.633 164.476 178.172 159.318C169.712 154.159 163.109 141.881 163.315 131.977C163.625 122.072 170.641 118.254 179.101 123.413C187.561 128.572 194.267 140.849 193.958 150.754Z" fill="url(#paint7_radial_123_11957)"/>
<path d="M194.166 151.374C194.476 141.056 187.563 128.366 178.793 122.898C174.769 120.422 171.055 119.906 168.269 121.041H168.166C168.166 121.041 168.166 121.041 168.063 121.041C167.96 121.144 167.857 121.144 167.65 121.247C150.524 129.088 135.151 128.263 116.373 127.025L111.008 126.715L152.381 202.239L154.857 197.802C163.833 181.501 173.325 171.905 189.007 161.794C192.103 160.247 194.063 156.636 194.166 151.374Z" fill="url(#paint8_linear_123_11957)"/>
<path opacity="0.3" d="M154.959 197.802C163.935 181.5 173.427 171.905 189.11 161.794C192.102 160.246 194.062 156.635 194.165 151.373C194.372 145.492 192.102 138.786 188.594 133.112C188.594 133.112 188.594 133.112 188.491 133.112C162.594 147.865 147.015 150.238 147.015 150.238L139.793 173.143L141.959 183.254L152.38 202.238L154.959 197.802Z" fill="#0F054C"/>
<path d="M157.953 185.627C158.469 165.818 145.263 141.365 128.446 131.048C119.985 125.889 112.35 125.167 106.573 128.262L101.414 131.151L103.168 130.842C99.4536 134.556 97.1838 140.437 96.9774 148.175C96.4616 167.984 109.668 192.437 126.485 202.754C133.088 206.778 139.279 208.119 144.437 206.984L143.612 208.119L148.358 205.54C148.358 205.54 148.358 205.54 148.461 205.54L148.668 205.436C154.136 202.238 157.747 195.429 157.953 185.627Z" fill="url(#paint9_linear_123_11957)"/>
<path d="M154.342 187.691C154.858 167.882 141.652 143.43 124.834 133.112C116.58 128.057 108.946 127.231 103.271 130.223L102.446 130.636C102.136 130.842 101.93 130.946 101.62 131.152L103.168 130.842C99.4536 134.557 97.1838 140.438 96.9774 148.176C96.4616 167.985 109.668 192.437 126.485 202.755C133.088 206.778 139.279 208.12 144.437 206.985L143.715 208.017C149.906 205.231 154.033 198.112 154.342 187.691Z" fill="white"/>
<path d="M153.309 188.206C152.793 208.016 138.658 215.651 121.841 205.23C105.023 194.913 91.7139 170.461 92.3329 150.651C92.8488 130.842 106.984 123.207 123.801 133.627C140.618 144.048 153.825 168.5 153.309 188.206Z" fill="url(#paint10_linear_123_11957)"/>
<path d="M149.493 185.937C148.977 203.27 136.596 209.976 121.842 200.897C107.088 191.818 95.4296 170.358 95.9454 153.024C96.4613 135.691 108.842 128.985 123.596 138.064C138.35 147.143 150.009 168.604 149.493 185.937Z" fill="url(#paint11_radial_123_11957)"/>
<path opacity="0.3" d="M126.586 198.627C124.317 197.286 122.253 195.635 120.19 193.778C115.96 189.857 115.65 183.254 119.467 178.921C124.11 173.865 131.436 167.056 142.785 159.73C138.039 150.754 131.332 142.707 123.594 137.961C117.094 133.937 111.007 133.008 106.261 134.659C106.055 134.762 105.952 134.762 105.745 134.865H105.642C105.436 134.969 105.333 134.969 105.126 135.072H105.023C104.817 135.175 104.714 135.278 104.507 135.278C104.095 135.484 103.785 135.691 103.476 135.897C103.269 136 103.166 136.103 103.063 136.207C103.063 136.207 102.96 136.207 102.96 136.31C102.856 136.413 102.65 136.516 102.547 136.619L102.444 136.723C102.341 136.826 102.134 136.929 102.031 137.032C102.031 137.032 102.031 137.032 101.928 137.135C101.618 137.445 101.309 137.754 100.999 138.064C100.896 138.167 100.793 138.373 100.587 138.476L100.483 138.58C100.38 138.683 100.277 138.786 100.174 138.992L100.071 139.096C99.9676 139.199 99.8644 139.405 99.7613 139.508L99.6581 139.611C99.5549 139.818 99.4517 139.921 99.3485 140.127C99.2454 140.334 99.1422 140.54 99.039 140.746C99.039 140.746 99.039 140.746 99.039 140.849C98.9359 141.056 98.8327 141.159 98.7295 141.365C98.7295 141.469 98.6263 141.469 98.6263 141.572C98.5232 141.675 98.5232 141.881 98.42 141.984C98.42 142.088 98.3168 142.088 98.3168 142.191C98.2136 142.294 98.2136 142.5 98.1105 142.603C98.1105 142.707 98.0073 142.707 98.0073 142.81C97.9041 143.016 97.9041 143.119 97.8009 143.326V143.429C97.6978 143.635 97.5946 143.842 97.5946 144.151V144.254C97.4914 144.461 97.4914 144.667 97.3882 144.873C97.3882 144.976 97.3882 144.976 97.2851 145.08C97.2851 145.286 97.1819 145.389 97.1819 145.595C97.1819 145.699 97.1819 145.802 97.0787 145.905C97.0787 146.111 96.9756 146.215 96.9756 146.421C96.9756 146.524 96.9756 146.627 96.8724 146.73C96.8724 146.937 96.7692 147.143 96.7692 147.246C96.7692 147.349 96.7692 147.349 96.7692 147.453C96.666 147.762 96.666 147.968 96.666 148.278V148.381C96.666 148.588 96.5629 148.897 96.5629 149.103C96.5629 149.207 96.5629 149.31 96.5629 149.413C96.5629 149.619 96.5629 149.826 96.4597 149.929C96.4597 150.032 96.4597 150.135 96.4597 150.238C96.4597 150.445 96.4597 150.651 96.3565 150.754C96.3565 150.857 96.3565 150.961 96.3565 151.064C96.3565 151.27 96.3565 151.476 96.3565 151.683C96.3565 151.786 96.3565 151.889 96.3565 151.992C96.3565 152.302 96.3565 152.611 96.3565 152.921C96.3565 153.437 96.3565 153.953 96.3565 154.365C96.3565 154.572 96.3565 154.675 96.3565 154.881C96.3565 155.191 96.3565 155.5 96.3565 155.913C96.3565 156.119 96.3565 156.222 96.3565 156.429C96.3565 156.841 96.4597 157.151 96.4597 157.564C96.4597 157.667 96.4597 157.77 96.4597 157.976C96.4597 158.492 96.5629 158.905 96.666 159.421C96.666 159.627 96.7692 159.833 96.7692 160.04C96.7692 160.349 96.8724 160.659 96.8724 160.968C96.8724 161.175 96.9756 161.484 96.9756 161.691C96.9756 162 97.0787 162.207 97.0787 162.516C97.0787 162.722 97.1819 163.032 97.1819 163.238C97.2851 163.651 97.3883 164.064 97.4914 164.373C97.5946 164.683 97.6978 165.095 97.8009 165.405C97.8009 165.611 97.9041 165.818 97.9041 166.024C98.0073 166.333 98.1105 166.643 98.2136 166.953C98.2136 167.159 98.3168 167.262 98.3168 167.468C98.6263 168.603 99.039 169.841 99.4517 170.976C99.4517 171.079 99.4517 171.079 99.5549 171.183C99.6581 171.595 99.8644 171.905 99.9676 172.318C99.9676 172.421 100.071 172.524 100.071 172.627C104.61 184.183 112.761 195.016 122.15 200.897C130.404 205.952 137.832 206.159 142.991 202.238C138.142 203.373 132.571 202.341 126.586 198.627Z" fill="#0F054C"/>
<path d="M118.848 162.826L137.11 150.341C137.11 150.341 140.205 154.984 142.785 159.627C145.364 164.27 146.912 169.429 146.912 169.429L125.967 176.445L118.848 162.826Z" fill="url(#paint12_linear_123_11957)"/>
<path d="M128.031 172.73C127.928 176.238 125.451 177.579 122.459 175.722C119.467 173.865 117.197 169.635 117.301 166.127C117.404 162.619 119.88 161.278 122.872 163.135C125.864 164.992 128.134 169.325 128.031 172.73Z" fill="url(#paint13_radial_123_11957)"/>
<path opacity="0.4" d="M141.099 203.339C151.923 197.481 152.474 177.539 142.33 158.798C132.186 140.057 115.188 129.614 104.364 135.472C93.5407 141.331 92.9897 161.273 103.134 180.014C113.278 198.755 130.276 209.198 141.099 203.339Z" fill="#16E09E"/>
<path d="M107.087 304.64H113.827V307.16H107.087V304.64ZM107.327 310.4H114.947V313H104.107V299H114.687V301.6H107.327V310.4ZM116.515 308.62V306.12H122.175V308.62H116.515ZM130.025 313.16C128.865 313.16 127.831 312.927 126.925 312.46C126.018 311.98 125.305 311.32 124.785 310.48C124.278 309.64 124.025 308.687 124.025 307.62C124.025 306.54 124.278 305.587 124.785 304.76C125.305 303.92 126.018 303.267 126.925 302.8C127.831 302.32 128.865 302.08 130.025 302.08C131.158 302.08 132.145 302.32 132.985 302.8C133.825 303.267 134.445 303.94 134.845 304.82L132.425 306.12C132.145 305.613 131.791 305.24 131.365 305C130.951 304.76 130.498 304.64 130.005 304.64C129.471 304.64 128.991 304.76 128.565 305C128.138 305.24 127.798 305.58 127.545 306.02C127.305 306.46 127.185 306.993 127.185 307.62C127.185 308.247 127.305 308.78 127.545 309.22C127.798 309.66 128.138 310 128.565 310.24C128.991 310.48 129.471 310.6 130.005 310.6C130.498 310.6 130.951 310.487 131.365 310.26C131.791 310.02 132.145 309.64 132.425 309.12L134.845 310.44C134.445 311.307 133.825 311.98 132.985 312.46C132.145 312.927 131.158 313.16 130.025 313.16ZM141.624 313.16C140.478 313.16 139.458 312.92 138.564 312.44C137.684 311.96 136.984 311.307 136.464 310.48C135.958 309.64 135.704 308.687 135.704 307.62C135.704 306.54 135.958 305.587 136.464 304.76C136.984 303.92 137.684 303.267 138.564 302.8C139.458 302.32 140.478 302.08 141.624 302.08C142.758 302.08 143.771 302.32 144.664 302.8C145.558 303.267 146.258 303.913 146.764 304.74C147.271 305.567 147.524 306.527 147.524 307.62C147.524 308.687 147.271 309.64 146.764 310.48C146.258 311.307 145.558 311.96 144.664 312.44C143.771 312.92 142.758 313.16 141.624 313.16ZM141.624 310.6C142.144 310.6 142.611 310.48 143.024 310.24C143.438 310 143.764 309.66 144.004 309.22C144.244 308.767 144.364 308.233 144.364 307.62C144.364 306.993 144.244 306.46 144.004 306.02C143.764 305.58 143.438 305.24 143.024 305C142.611 304.76 142.144 304.64 141.624 304.64C141.104 304.64 140.638 304.76 140.224 305C139.811 305.24 139.478 305.58 139.224 306.02C138.984 306.46 138.864 306.993 138.864 307.62C138.864 308.233 138.984 308.767 139.224 309.22C139.478 309.66 139.811 310 140.224 310.24C140.638 310.48 141.104 310.6 141.624 310.6ZM163.39 302.08C164.243 302.08 164.997 302.253 165.65 302.6C166.317 302.933 166.837 303.453 167.21 304.16C167.597 304.853 167.79 305.747 167.79 306.84V313H164.67V307.32C164.67 306.453 164.49 305.813 164.13 305.4C163.77 304.987 163.263 304.78 162.61 304.78C162.157 304.78 161.75 304.887 161.39 305.1C161.03 305.3 160.75 305.607 160.55 306.02C160.35 306.433 160.25 306.96 160.25 307.6V313H157.13V307.32C157.13 306.453 156.95 305.813 156.59 305.4C156.243 304.987 155.743 304.78 155.09 304.78C154.637 304.78 154.23 304.887 153.87 305.1C153.51 305.3 153.23 305.607 153.03 306.02C152.83 306.433 152.73 306.96 152.73 307.6V313H149.61V302.24H152.59V305.18L152.03 304.32C152.403 303.587 152.93 303.033 153.61 302.66C154.303 302.273 155.09 302.08 155.97 302.08C156.957 302.08 157.817 302.333 158.55 302.84C159.297 303.333 159.79 304.093 160.03 305.12L158.93 304.82C159.29 303.98 159.863 303.313 160.65 302.82C161.45 302.327 162.363 302.08 163.39 302.08ZM184.366 302.08C185.22 302.08 185.973 302.253 186.626 302.6C187.293 302.933 187.813 303.453 188.186 304.16C188.573 304.853 188.766 305.747 188.766 306.84V313H185.646V307.32C185.646 306.453 185.466 305.813 185.106 305.4C184.746 304.987 184.24 304.78 183.586 304.78C183.133 304.78 182.726 304.887 182.366 305.1C182.006 305.3 181.726 305.607 181.526 306.02C181.326 306.433 181.226 306.96 181.226 307.6V313H178.106V307.32C178.106 306.453 177.926 305.813 177.566 305.4C177.22 304.987 176.72 304.78 176.066 304.78C175.613 304.78 175.206 304.887 174.846 305.1C174.486 305.3 174.206 305.607 174.006 306.02C173.806 306.433 173.706 306.96 173.706 307.6V313H170.586V302.24H173.566V305.18L173.006 304.32C173.38 303.587 173.906 303.033 174.586 302.66C175.28 302.273 176.066 302.08 176.946 302.08C177.933 302.08 178.793 302.333 179.526 302.84C180.273 303.333 180.766 304.093 181.006 305.12L179.906 304.82C180.266 303.98 180.84 303.313 181.626 302.82C182.426 302.327 183.34 302.08 184.366 302.08ZM196.981 313.16C195.755 313.16 194.675 312.92 193.741 312.44C192.821 311.96 192.108 311.307 191.601 310.48C191.095 309.64 190.841 308.687 190.841 307.62C190.841 306.54 191.088 305.587 191.581 304.76C192.088 303.92 192.775 303.267 193.641 302.8C194.508 302.32 195.488 302.08 196.581 302.08C197.635 302.08 198.581 302.307 199.421 302.76C200.275 303.2 200.948 303.84 201.441 304.68C201.935 305.507 202.181 306.5 202.181 307.66C202.181 307.78 202.175 307.92 202.161 308.08C202.148 308.227 202.135 308.367 202.121 308.5H193.381V306.68H200.481L199.281 307.22C199.281 306.66 199.168 306.173 198.941 305.76C198.715 305.347 198.401 305.027 198.001 304.8C197.601 304.56 197.135 304.44 196.601 304.44C196.068 304.44 195.595 304.56 195.181 304.8C194.781 305.027 194.468 305.353 194.241 305.78C194.015 306.193 193.901 306.687 193.901 307.26V307.74C193.901 308.327 194.028 308.847 194.281 309.3C194.548 309.74 194.915 310.08 195.381 310.32C195.861 310.547 196.421 310.66 197.061 310.66C197.635 310.66 198.135 310.573 198.561 310.4C199.001 310.227 199.401 309.967 199.761 309.62L201.421 311.42C200.928 311.98 200.308 312.413 199.561 312.72C198.815 313.013 197.955 313.16 196.981 313.16ZM204.258 313V302.24H207.238V305.28L206.818 304.4C207.138 303.64 207.652 303.067 208.358 302.68C209.065 302.28 209.925 302.08 210.938 302.08V304.96C210.805 304.947 210.685 304.94 210.578 304.94C210.472 304.927 210.358 304.92 210.238 304.92C209.385 304.92 208.692 305.167 208.158 305.66C207.638 306.14 207.378 306.893 207.378 307.92V313H204.258ZM217.896 313.16C216.736 313.16 215.703 312.927 214.796 312.46C213.889 311.98 213.176 311.32 212.656 310.48C212.149 309.64 211.896 308.687 211.896 307.62C211.896 306.54 212.149 305.587 212.656 304.76C213.176 303.92 213.889 303.267 214.796 302.8C215.703 302.32 216.736 302.08 217.896 302.08C219.029 302.08 220.016 302.32 220.856 302.8C221.696 303.267 222.316 303.94 222.716 304.82L220.296 306.12C220.016 305.613 219.663 305.24 219.236 305C218.823 304.76 218.369 304.64 217.876 304.64C217.343 304.64 216.863 304.76 216.436 305C216.009 305.24 215.669 305.58 215.416 306.02C215.176 306.46 215.056 306.993 215.056 307.62C215.056 308.247 215.176 308.78 215.416 309.22C215.669 309.66 216.009 310 216.436 310.24C216.863 310.48 217.343 310.6 217.876 310.6C218.369 310.6 218.823 310.487 219.236 310.26C219.663 310.02 220.016 309.64 220.296 309.12L222.716 310.44C222.316 311.307 221.696 311.98 220.856 312.46C220.016 312.927 219.029 313.16 217.896 313.16ZM229.716 313.16C228.489 313.16 227.409 312.92 226.476 312.44C225.556 311.96 224.842 311.307 224.336 310.48C223.829 309.64 223.576 308.687 223.576 307.62C223.576 306.54 223.822 305.587 224.316 304.76C224.822 303.92 225.509 303.267 226.376 302.8C227.242 302.32 228.222 302.08 229.316 302.08C230.369 302.08 231.316 302.307 232.156 302.76C233.009 303.2 233.682 303.84 234.176 304.68C234.669 305.507 234.916 306.5 234.916 307.66C234.916 307.78 234.909 307.92 234.896 308.08C234.882 308.227 234.869 308.367 234.856 308.5H226.116V306.68H233.216L232.016 307.22C232.016 306.66 231.902 306.173 231.676 305.76C231.449 305.347 231.136 305.027 230.736 304.8C230.336 304.56 229.869 304.44 229.336 304.44C228.802 304.44 228.329 304.56 227.916 304.8C227.516 305.027 227.202 305.353 226.976 305.78C226.749 306.193 226.636 306.687 226.636 307.26V307.74C226.636 308.327 226.762 308.847 227.016 309.3C227.282 309.74 227.649 310.08 228.116 310.32C228.596 310.547 229.156 310.66 229.796 310.66C230.369 310.66 230.869 310.573 231.296 310.4C231.736 310.227 232.136 309.967 232.496 309.62L234.156 311.42C233.662 311.98 233.042 312.413 232.296 312.72C231.549 313.013 230.689 313.16 229.716 313.16Z" fill="#202027"/>
<defs>
<filter id="filter0_ddd_123_11957" x="0" y="0" width="337" height="402" filterUnits="userSpaceOnUse" color-interpolation-filters="sRGB">
<feFlood flood-opacity="0" result="BackgroundImageFix"/>
<feColorMatrix in="SourceAlpha" type="matrix" values="0 0 0 0 0 0 0 0 0 0 0 0 0 0 0 0 0 0 127 0" result="hardAlpha"/>
<feMorphology radius="1" operator="erode" in="SourceAlpha" result="effect1_dropShadow_123_11957"/>
<feOffset dy="4"/>
<feGaussianBlur stdDeviation="4"/>
<feComposite in2="hardAlpha" operator="out"/>
<feColorMatrix type="matrix" values="0 0 0 0 0.027451 0 0 0 0 0 0 0 0 0 0.109804 0 0 0 0.03 0"/>
<feBlend mode="normal" in2="BackgroundImageFix" result="effect1_dropShadow_123_11957"/>
<feColorMatrix in="SourceAlpha" type="matrix" values="0 0 0 0 0 0 0 0 0 0 0 0 0 0 0 0 0 0 127 0" result="hardAlpha"/>
<feMorphology radius="3" operator="erode" in="SourceAlpha" result="effect2_dropShadow_123_11957"/>
<feOffset dy="8"/>
<feGaussianBlur stdDeviation="8"/>
<feComposite in2="hardAlpha" operator="out"/>
<feColorMatrix type="matrix" values="0 0 0 0 0.027451 0 0 0 0 0 0 0 0 0 0.109804 0 0 0 0.03 0"/>
<feBlend mode="normal" in2="effect1_dropShadow_123_11957" result="effect2_dropShadow_123_11957"/>
<feColorMatrix in="SourceAlpha" type="matrix" values="0 0 0 0 0 0 0 0 0 0 0 0 0 0 0 0 0 0 127 0" result="hardAlpha"/>
<feMorphology radius="6" operator="erode" in="SourceAlpha" result="effect3_dropShadow_123_11957"/>
<feOffset dy="16"/>
<feGaussianBlur stdDeviation="16"/>
<feComposite in2="hardAlpha" operator="out"/>
<feColorMatrix type="matrix" values="0 0 0 0 0.027451 0 0 0 0 0 0 0 0 0 0.109804 0 0 0 0.02 0"/>
<feBlend mode="normal" in2="effect2_dropShadow_123_11957" result="effect3_dropShadow_123_11957"/>
<feBlend mode="normal" in="SourceGraphic" in2="effect3_dropShadow_123_11957" result="shape"/>
</filter>
<linearGradient id="paint0_linear_123_11957" x1="154.5" y1="10" x2="222.5" y2="372.5" gradientUnits="userSpaceOnUse">
<stop stop-color="#F6FCFF"/>
<stop offset="0.998764" stop-color="#7C4EFF"/>
</linearGradient>
<linearGradient id="paint1_linear_123_11957" x1="114" y1="67.1797" x2="207" y2="238.18" gradientUnits="userSpaceOnUse">
<stop stop-color="#7C4EFF"/>
<stop offset="0.904355" stop-color="#7C4EFF" stop-opacity="0"/>
</linearGradient>
<linearGradient id="paint2_linear_123_11957" x1="106.9" y1="67.427" x2="120.85" y2="93.077" gradientUnits="userSpaceOnUse">
<stop stop-color="#7C4EFF"/>
<stop offset="0.904355" stop-color="#7C4EFF" stop-opacity="0"/>
</linearGradient>
<linearGradient id="paint3_linear_123_11957" x1="182.804" y1="174.9" x2="200.76" y2="175.394" gradientUnits="userSpaceOnUse">
<stop stop-color="#CDBCFF"/>
<stop offset="0.2271" stop-color="#BEAAF8"/>
<stop offset="0.6802" stop-color="#8B7CE5"/>
<stop offset="1" stop-color="#6957D7"/>
</linearGradient>
<linearGradient id="paint4_linear_123_11957" x1="150.821" y1="176.043" x2="207.833" y2="177.611" gradientUnits="userSpaceOnUse">
<stop stop-color="#BCBEFF"/>
<stop offset="0.2271" stop-color="#AAADF8"/>
<stop offset="0.6802" stop-color="#7C83E5"/>
<stop offset="1" stop-color="#5761D7"/>
</linearGradient>
<linearGradient id="paint5_linear_123_11957" x1="184.233" y1="181.492" x2="188.262" y2="181.492" gradientUnits="userSpaceOnUse">
<stop stop-color="#BCBEFF"/>
<stop offset="0.2271" stop-color="#AAADF8"/>
<stop offset="0.6802" stop-color="#7C83E5"/>
<stop offset="1" stop-color="#5761D7"/>
</linearGradient>
<radialGradient id="paint6_radial_123_11957" cx="0" cy="0" r="1" gradientUnits="userSpaceOnUse" gradientTransform="translate(170.322 105.368) rotate(1.57587) scale(62.7819 62.7819)">
<stop stop-color="#EDE9FD"/>
<stop offset="0.3601" stop-color="#DED2F9"/>
<stop offset="0.7062" stop-color="#D4C4F7"/>
<stop offset="1" stop-color="#CABFF6"/>
</radialGradient>
<radialGradient id="paint7_radial_123_11957" cx="0" cy="0" r="1" gradientUnits="userSpaceOnUse" gradientTransform="translate(178.63 141.387) rotate(31.576) scale(17.9812 15.5727)">
<stop stop-color="#F9636B"/>
<stop offset="1" stop-color="#B6246E"/>
</radialGradient>
<linearGradient id="paint8_linear_123_11957" x1="144.129" y1="117.24" x2="173.223" y2="179.716" gradientUnits="userSpaceOnUse">
<stop stop-color="#C9BCFF"/>
<stop offset="0.1237" stop-color="#CBB4FC"/>
<stop offset="0.3207" stop-color="#A586FD"/>
<stop offset="0.5651" stop-color="#7C4EFF"/>
<stop offset="0.744" stop-color="#5036BA"/>
</linearGradient>
<linearGradient id="paint9_linear_123_11957" x1="106.168" y1="137.611" x2="152.068" y2="200.687" gradientUnits="userSpaceOnUse">
<stop stop-color="#C9BCFF"/>
<stop offset="0.2271" stop-color="#C3AAF8"/>
<stop offset="0.6802" stop-color="#5B38C8"/>
<stop offset="1" stop-color="#3D289A"/>
</linearGradient>
<linearGradient id="paint10_linear_123_11957" x1="91.703" y1="168.616" x2="153.751" y2="170.323" gradientUnits="userSpaceOnUse">
<stop stop-color="#E9E9FD"/>
<stop offset="0.3601" stop-color="#D3D2F9"/>
<stop offset="0.7062" stop-color="#C5C4F7"/>
<stop offset="1" stop-color="#C0BFF6"/>
</linearGradient>
<radialGradient id="paint11_radial_123_11957" cx="0" cy="0" r="1" gradientUnits="userSpaceOnUse" gradientTransform="translate(137.397 192.097) rotate(1.57587) scale(70.8754 70.8754)">
<stop stop-color="#BCBEFF"/>
<stop offset="0.2271" stop-color="#AAADF8"/>
<stop offset="0.6802" stop-color="#7C83E5"/>
<stop offset="1" stop-color="#5761D7"/>
</radialGradient>
<linearGradient id="paint12_linear_123_11957" x1="118.831" y1="154.911" x2="169.39" y2="154.911" gradientUnits="userSpaceOnUse">
<stop stop-color="#E9E9FD"/>
<stop offset="0.3601" stop-color="#D3D2F9"/>
<stop offset="0.7062" stop-color="#C5C4F7"/>
<stop offset="1" stop-color="#C0BFF6"/>
</linearGradient>
<radialGradient id="paint13_radial_123_11957" cx="0" cy="0" r="1" gradientUnits="userSpaceOnUse" gradientTransform="translate(108.214 159.014) scale(40.4454 40.4453)">
<stop stop-color="#BCBEFF"/>
<stop offset="0.2271" stop-color="#AAADF8"/>
<stop offset="0.6802" stop-color="#7C83E5"/>
<stop offset="1" stop-color="#5761D7"/>
</radialGradient>
</defs>
</svg>
