<svg width="393" height="444" viewBox="0 0 393 444" fill="none" xmlns="http://www.w3.org/2000/svg">
<g opacity="0.1" filter="url(#filter0_f_123_1080)">
<path d="M178.089 401.974L44.5447 324.863C34.3325 319.052 35.7465 308.844 47.3727 302.091L175.261 228.278C187.044 221.525 204.641 220.74 214.853 226.708L348.397 303.819C358.609 309.629 357.195 319.838 345.569 326.591L217.681 400.404C206.055 407.157 188.301 407.942 178.089 401.974Z" fill="#0D0A2D"/>
</g>
<g opacity="0.1" filter="url(#filter1_f_123_1080)">
<path d="M182.102 367.704L77.7097 306.928C69.7268 302.349 70.8322 294.303 79.9204 288.98L179.891 230.803C189.102 225.481 202.857 224.862 210.84 229.566L315.232 290.342C323.215 294.922 322.109 302.967 313.021 308.29L213.051 366.467C203.962 371.789 190.084 372.408 182.102 367.704Z" fill="#0D0A2D"/>
</g>
<path d="M372.28 235.501V207.86H301.108L216.897 159.332C205.585 152.893 186.103 153.678 173.063 161.217L91.9937 208.017H20.6653V237.228C20.3511 241.626 22.8648 245.866 28.2066 249.007L176.048 334.442C187.36 340.881 206.842 340.095 219.882 332.557L361.439 250.892C369.137 246.337 372.751 240.683 372.28 235.501Z" fill="#7C4EFF"/>
<path opacity="0.5" d="M372.28 235.501V207.86H301.108L216.897 159.332C205.585 152.893 186.103 153.678 173.063 161.217L91.9937 208.017H20.6653V237.228C20.3511 241.626 22.8648 245.866 28.2066 249.007L176.048 334.442C187.36 340.881 206.842 340.095 219.882 332.557L361.439 250.892C369.137 246.337 372.751 240.683 372.28 235.501Z" fill="url(#paint0_linear_123_1080)"/>
<path d="M216.894 159.333C211.552 156.192 204.168 154.779 196.47 154.936V338.526C204.639 338.369 213.281 336.327 220.036 332.401L361.593 250.735C369.135 246.338 372.748 240.841 372.277 235.659V208.018H301.106L216.894 159.333Z" fill="url(#paint1_linear_123_1080)"/>
<path d="M176.203 304.918L28.362 219.483C17.05 213.044 18.464 201.736 31.5042 194.198L173.061 112.533C186.101 104.994 205.74 104.209 216.895 110.648L364.737 196.083C376.049 202.522 374.635 213.829 361.594 221.367L220.037 303.033C206.997 310.728 187.358 311.514 176.203 304.918Z" fill="#7C4EFF"/>
<path opacity="0.5" d="M176.203 304.918L28.362 219.483C17.05 213.044 18.464 201.736 31.5042 194.198L173.061 112.533C186.101 104.994 205.74 104.209 216.895 110.648L364.737 196.083C376.049 202.522 374.635 213.829 361.594 221.367L220.037 303.033C206.997 310.728 187.358 311.514 176.203 304.918Z" fill="url(#paint2_linear_123_1080)"/>
<path d="M180.132 286.072L60.885 217.285C51.7726 212.102 53.0295 202.993 63.3988 196.868L177.461 131.065C187.988 125.097 203.699 124.312 212.811 129.651L332.059 198.439C341.171 203.621 339.914 212.73 329.545 218.855L215.482 284.659C204.956 290.627 189.245 291.412 180.132 286.072Z" fill="#16E09E"/>
<path d="M63.5566 205.82L177.619 140.016C188.146 134.049 203.857 133.263 212.969 138.603L332.216 207.39C334.416 208.647 335.987 210.217 337.087 211.945C339.758 207.076 338.187 202.051 332.216 198.596L212.969 129.808C203.857 124.626 188.146 125.254 177.619 131.222L63.5566 197.025C55.7011 201.58 53.0302 207.862 56.1724 212.887C57.4293 210.374 59.9431 207.862 63.5566 205.82Z" fill="#42E8C0"/>
<path opacity="0.5" d="M181.074 304.917L33.2328 219.483C21.9208 213.044 19.2499 203.464 36.375 194.198L177.932 112.533C184.374 108.92 192.229 106.722 200.085 106.408C190.815 105.937 180.76 108.135 172.904 112.533L31.3474 194.198C18.3072 201.736 16.8932 213.044 28.2052 219.483L176.047 304.917C181.703 308.216 189.715 309.629 197.728 309.158C191.601 309.001 185.63 307.587 181.074 304.917Z" fill="url(#paint3_linear_123_1080)"/>
<path opacity="0.5" d="M361.595 233.774L220.038 315.44C206.998 322.978 187.359 323.763 176.204 317.324L28.3626 231.89C23.0208 228.749 20.5071 224.508 20.8213 220.111V226.079C20.5071 230.476 23.0208 234.716 28.3626 237.857L176.204 323.292C187.516 329.731 206.998 328.946 220.038 321.407L361.595 239.742C369.136 235.345 372.75 229.848 372.278 224.665V218.698C372.75 223.88 369.136 229.377 361.595 233.774Z" fill="url(#paint4_linear_123_1080)"/>
<path d="M335.989 225.765C337.561 226.707 337.561 228.277 335.989 229.063C334.418 230.005 331.747 230.005 330.176 229.063C328.605 228.12 328.605 226.55 330.176 225.765C331.747 224.979 334.261 224.822 335.989 225.765Z" fill="#FCCC6B"/>
<path d="M345.1 220.425C346.671 221.368 346.671 222.938 345.1 223.723C343.529 224.509 340.858 224.666 339.287 223.723C337.716 222.781 337.716 221.21 339.287 220.425C340.858 219.483 343.372 219.483 345.1 220.425Z" fill="#FCCC6B"/>
<path d="M354.213 215.242C355.784 216.184 355.784 217.755 354.213 218.54C352.642 219.483 349.971 219.483 348.4 218.54C346.829 217.598 346.829 216.027 348.4 215.242C349.971 214.457 352.485 214.3 354.213 215.242Z" fill="#FCCC6B"/>
<path opacity="0.5" d="M183.587 269.424L90.1058 215.399C83.0358 211.316 83.8214 204.092 92.1483 199.38L181.701 147.711C189.871 143 202.283 142.529 209.353 146.612L302.834 200.637C309.904 204.72 309.118 211.944 300.792 216.656L211.238 268.325C203.226 273.036 190.814 273.508 183.587 269.424Z" fill="#0B0244"/>
<path opacity="0.5" d="M372.28 207.86C372.28 207.389 372.28 206.761 372.28 206.29V129.179L249.733 129.65L216.897 110.804C205.585 104.365 186.103 105.15 173.063 112.689L142.426 130.278L20.6653 130.749V207.86C20.3511 212.258 22.8648 216.498 28.2066 219.639L176.048 305.074C187.36 311.513 206.842 310.728 219.882 303.189L361.439 221.524C368.352 217.598 371.965 212.572 372.28 207.86Z" fill="#16E09E"/>
<path d="M372.28 129.18V101.539H301.108L216.897 53.011C205.585 46.572 186.103 47.3573 173.063 54.8956L91.9937 101.696H20.6653V130.907C20.3511 135.305 22.8648 139.545 28.2066 142.686L176.048 228.121C187.36 234.56 206.842 233.774 219.882 226.236L361.439 144.571C369.137 140.016 372.751 134.362 372.28 129.18Z" fill="#7C4EFF"/>
<path opacity="0.5" d="M372.28 129.18V101.539H301.108L216.897 53.011C205.585 46.572 186.103 47.3573 173.063 54.8956L91.9937 101.696H20.6653V130.907C20.3511 135.305 22.8648 139.545 28.2066 142.686L176.048 228.121C187.36 234.56 206.842 233.774 219.882 226.236L361.439 144.571C369.137 140.016 372.751 134.362 372.28 129.18Z" fill="url(#paint5_linear_123_1080)"/>
<path d="M216.894 53.0109C211.552 49.87 204.168 48.4565 196.47 48.6136V232.204C204.639 232.047 213.281 230.005 220.036 226.079L361.593 144.413C369.135 140.016 372.748 134.519 372.277 129.337V101.696H301.106L216.894 53.0109Z" fill="url(#paint6_linear_123_1080)"/>
<path d="M176.204 198.752L28.2052 113.318C16.8932 106.879 18.3072 95.5711 31.3474 88.0327L172.904 6.36731C185.945 -1.17104 205.583 -1.95629 216.738 4.48271L364.58 89.9173C375.892 96.3563 374.478 107.664 361.438 115.202L219.881 196.868C206.997 204.406 187.359 205.191 176.204 198.752Z" fill="#7C4EFF"/>
<path opacity="0.4" d="M176.204 198.752L28.2052 113.318C16.8932 106.879 18.3072 95.5711 31.3474 88.0327L172.904 6.36731C185.945 -1.17104 205.583 -1.95629 216.738 4.48271L364.58 89.9173C375.892 96.3563 374.478 107.664 361.438 115.202L219.881 196.868C206.997 204.406 187.359 205.191 176.204 198.752Z" fill="#42E8C0"/>
<path opacity="0.5" d="M361.595 127.452L220.038 209.117C206.998 216.655 187.359 217.441 176.204 211.002L28.3626 125.567C23.0208 122.426 20.5071 118.186 20.8213 113.788V119.756C20.5071 124.154 23.0208 128.394 28.3626 131.535L176.204 216.97C187.516 223.409 206.998 222.623 220.038 215.085L361.595 133.42C369.136 129.022 372.75 123.525 372.278 118.343V112.375C372.75 117.558 369.136 123.211 361.595 127.452Z" fill="url(#paint7_linear_123_1080)"/>
<path opacity="0.2" d="M184.689 107.82C187.831 109.548 187.831 112.532 184.689 114.259C181.547 115.987 176.676 115.987 173.534 114.259C170.392 112.532 170.392 109.548 173.534 107.82C176.676 106.093 181.704 106.093 184.689 107.82Z" fill="#16E09E"/>
<path opacity="0.6" d="M202.128 97.77C205.271 99.4976 205.271 102.481 202.128 104.209C198.986 105.937 194.116 105.937 190.973 104.209C187.831 102.481 187.831 99.4976 190.973 97.77C193.959 96.0425 198.986 96.0425 202.128 97.77Z" fill="#16E09E"/>
<path d="M219.411 87.8754C222.553 89.6029 222.553 92.5868 219.411 94.3143C216.269 96.0419 211.398 96.0419 208.256 94.3143C205.114 92.5868 205.114 89.6029 208.256 87.8754C211.398 85.9908 216.269 85.9908 219.411 87.8754Z" fill="#16E09E"/>
<path d="M195.527 177.708C190.028 177.708 184.843 176.609 180.916 174.41L71.5663 111.277C67.6385 108.921 65.439 105.78 65.439 102.168C65.439 97.9274 68.5812 93.687 73.9229 90.5461L178.559 30.0822C188.457 24.4285 203.539 23.8003 212.023 28.6688L321.373 91.8025C325.3 94.1582 327.5 97.2992 327.5 100.911C327.5 105.152 324.358 109.392 319.016 112.533L214.38 172.997C209.038 176.138 202.125 177.708 195.527 177.708ZM182.015 172.526C190.028 177.08 204.011 176.609 213.28 171.112L317.916 110.648C322.63 107.979 325.3 104.366 325.3 101.068C325.3 98.3985 323.572 95.7287 320.273 93.8441L210.924 30.7104C202.911 26.156 188.928 26.6272 179.659 32.1239L75.0227 92.5877C70.3094 95.2575 67.6385 98.8696 67.6385 102.168C67.6385 104.838 69.3667 107.507 72.6661 109.392L182.015 172.526Z" fill="#42E8C0"/>
<defs>
<filter id="filter0_f_123_1080" x="0.164246" y="185.154" width="392.613" height="258.374" filterUnits="userSpaceOnUse" color-interpolation-filters="sRGB">
<feFlood flood-opacity="0" result="BackgroundImageFix"/>
<feBlend mode="normal" in="SourceGraphic" in2="BackgroundImageFix" result="shape"/>
<feGaussianBlur stdDeviation="18.764" result="effect1_foregroundBlur_123_1080"/>
</filter>
<filter id="filter1_f_123_1080" x="53.5892" y="207.629" width="285.763" height="182.013" filterUnits="userSpaceOnUse" color-interpolation-filters="sRGB">
<feFlood flood-opacity="0" result="BackgroundImageFix"/>
<feBlend mode="normal" in="SourceGraphic" in2="BackgroundImageFix" result="shape"/>
<feGaussianBlur stdDeviation="9.38198" result="effect1_foregroundBlur_123_1080"/>
</filter>
<linearGradient id="paint0_linear_123_1080" x1="-57.0627" y1="246.708" x2="294.599" y2="246.708" gradientUnits="userSpaceOnUse">
<stop stop-color="#16E09E"/>
<stop offset="0.1022" stop-color="#3CCEAB"/>
<stop offset="0.3445" stop-color="#2FA5A5"/>
<stop offset="0.564" stop-color="#255385"/>
<stop offset="0.7534" stop-color="#1E2D6E"/>
<stop offset="0.905" stop-color="#201660"/>
<stop offset="1" stop-color="#210D5B"/>
</linearGradient>
<linearGradient id="paint1_linear_123_1080" x1="196.498" y1="246.701" x2="372.329" y2="246.701" gradientUnits="userSpaceOnUse">
<stop stop-color="#3A237C"/>
<stop offset="1" stop-color="#210D5B"/>
</linearGradient>
<linearGradient id="paint2_linear_123_1080" x1="20.6684" y1="207.876" x2="372.355" y2="207.876" gradientUnits="userSpaceOnUse">
<stop stop-color="#16E09E"/>
<stop offset="0.1022" stop-color="#3CCEAB"/>
<stop offset="0.3445" stop-color="#2FA5A5"/>
<stop offset="0.564" stop-color="#255385"/>
<stop offset="0.7534" stop-color="#1E2D6E"/>
<stop offset="0.905" stop-color="#251660"/>
<stop offset="1" stop-color="#210D5B"/>
</linearGradient>
<linearGradient id="paint3_linear_123_1080" x1="20.6686" y1="207.882" x2="200.162" y2="207.882" gradientUnits="userSpaceOnUse">
<stop stop-color="#16E09E"/>
<stop offset="0.1022" stop-color="#3CCEB4"/>
<stop offset="0.3445" stop-color="#2FA5A5"/>
<stop offset="0.564" stop-color="#255385"/>
<stop offset="0.7534" stop-color="#1E2D6E"/>
<stop offset="0.905" stop-color="#1A1660"/>
<stop offset="1" stop-color="#180D5B"/>
</linearGradient>
<linearGradient id="paint4_linear_123_1080" x1="68.5016" y1="310.169" x2="362.793" y2="117.737" gradientUnits="userSpaceOnUse">
<stop stop-color="#16E09E"/>
<stop offset="0.1022" stop-color="#3CCEB4"/>
<stop offset="0.3445" stop-color="#2FA5A5"/>
<stop offset="0.564" stop-color="#255385"/>
<stop offset="0.7534" stop-color="#1E2D6E"/>
<stop offset="0.905" stop-color="#251660"/>
<stop offset="1" stop-color="#210D5B"/>
</linearGradient>
<linearGradient id="paint5_linear_123_1080" x1="-57.0627" y1="140.455" x2="294.599" y2="140.455" gradientUnits="userSpaceOnUse">
<stop stop-color="#16E09E"/>
<stop offset="0.1022" stop-color="#3CCEB4"/>
<stop offset="0.3445" stop-color="#2FA5A5"/>
<stop offset="0.564" stop-color="#255385"/>
<stop offset="0.7534" stop-color="#1E2D6E"/>
<stop offset="0.905" stop-color="#1A1660"/>
<stop offset="1" stop-color="#180D5B"/>
</linearGradient>
<linearGradient id="paint6_linear_123_1080" x1="196.498" y1="140.447" x2="372.329" y2="140.447" gradientUnits="userSpaceOnUse">
<stop stop-color="#3A237C"/>
<stop offset="1" stop-color="#210D5B"/>
</linearGradient>
<linearGradient id="paint7_linear_123_1080" x1="68.5016" y1="203.915" x2="362.793" y2="11.4829" gradientUnits="userSpaceOnUse">
<stop stop-color="#16E09E"/>
<stop offset="0.1022" stop-color="#3CCEAB"/>
<stop offset="0.3445" stop-color="#2FA5A5"/>
<stop offset="0.564" stop-color="#255385"/>
<stop offset="0.7534" stop-color="#1E2D6E"/>
<stop offset="0.905" stop-color="#1A1660"/>
<stop offset="1" stop-color="#180D5B"/>
</linearGradient>
</defs>
</svg>
