<svg width="620" height="371" viewBox="0 0 620 371" fill="none" xmlns="http://www.w3.org/2000/svg">
<path d="M461.9 361C455.93 361 450.117 359.743 445.875 357.386L258.442 249.134C254.2 246.777 252 243.321 252 239.707C252 235.308 255.299 230.751 261.112 227.452L443.204 122.185C454.045 115.9 470.698 115.271 480.125 120.613L667.558 228.866C671.8 231.223 674 234.679 674 238.293C674 242.692 670.701 247.248 664.888 250.548L482.796 355.658C476.826 359.272 469.127 361 461.9 361ZM464.1 117.785C457.03 117.785 449.488 119.514 443.675 122.97L261.584 228.08C256.085 231.223 252.786 235.465 252.786 239.707C252.786 243.163 254.985 246.306 258.913 248.505L446.189 356.601C455.459 361.943 471.641 361.314 482.325 355.03L664.573 250.076C670.072 246.934 673.372 242.692 673.372 238.45C673.372 234.993 671.172 231.851 667.244 229.651L479.811 121.399C475.569 118.885 469.913 117.785 464.1 117.785Z" fill="#6EFCC9"/>
<path opacity="0.7" d="M461.598 394C453.987 394 446.576 392.398 441.168 389.394L202.212 251.416C196.804 248.413 194 244.007 194 239.401C194 233.794 198.206 227.986 205.617 223.781L437.762 89.6081C451.583 81.5978 472.815 80.7968 484.832 87.6055L723.788 225.583C729.196 228.587 732 232.993 732 237.599C732 243.206 727.794 249.013 720.383 253.219L488.238 387.191C480.626 391.797 470.812 394 461.598 394ZM464.402 84.0009C455.389 84.0009 445.774 86.2037 438.363 90.6094L206.218 224.582C199.208 228.587 195.001 233.994 195.001 239.401C195.001 243.807 197.806 247.812 202.813 250.615L441.568 388.393C453.386 395.202 474.016 394.401 487.637 386.39L719.982 252.618C726.993 248.613 731.199 243.206 731.199 237.799C731.199 233.393 728.395 229.388 723.387 226.584L484.432 88.6068C479.024 85.4027 471.813 84.0009 464.402 84.0009Z" fill="#6EFCC9"/>
<path opacity="0.5" d="M461.28 429C451.943 429 442.851 427.037 436.217 423.357L143.074 254.324C136.44 250.644 133 245.246 133 239.604C133 232.734 138.16 225.62 147.252 220.468L432.039 56.0955C448.994 46.2822 475.04 45.3009 489.783 53.6422L782.926 222.676C789.56 226.356 793 231.753 793 237.396C793 244.265 787.84 251.38 778.748 256.532L493.961 420.659C484.623 426.301 472.583 429 461.28 429ZM464.72 49.2262C453.663 49.2262 441.868 51.9248 432.777 57.3221L147.989 221.449C139.389 226.356 134.229 232.98 134.229 239.604C134.229 245.001 137.669 249.908 143.812 253.342L436.708 422.131C451.206 430.472 476.515 429.491 493.223 419.677L778.257 255.796C786.857 250.889 792.017 244.265 792.017 237.641C792.017 232.244 788.577 227.337 782.434 223.903L489.292 54.8688C482.657 50.9435 473.812 49.2262 464.72 49.2262Z" fill="#6EFCC9"/>
<path opacity="0.3" d="M460.952 466C449.832 466 439.004 463.656 431.103 459.261L81.9978 257.397C74.0968 253.002 70 246.557 70 239.818C70 231.615 76.1452 223.118 86.9725 216.966L426.129 20.6678C446.32 8.94857 477.339 7.77664 494.897 17.738L844.002 219.602C851.903 223.997 856 230.443 856 237.181C856 245.385 849.855 253.881 839.028 260.034L499.871 456.039C488.751 462.777 474.413 466 460.952 466ZM465.048 12.4643C451.88 12.4643 437.834 15.6872 427.007 22.1327L87.8504 218.137C77.6084 223.997 71.4631 231.908 71.4631 239.818C71.4631 246.264 75.56 252.123 82.8757 256.225L431.689 457.797C448.954 467.758 479.095 466.586 498.993 454.867L838.442 259.155C848.684 253.295 854.829 245.385 854.829 237.474C854.829 231.029 850.733 225.169 843.417 221.067L494.311 19.2029C486.41 14.5152 475.876 12.4643 465.048 12.4643Z" fill="#6EFCC9"/>
<path opacity="0.1" d="M460.587 507C447.486 507 434.73 504.234 425.422 499.047L14.1348 260.803C4.82653 255.616 0 248.009 0 240.056C0 230.374 7.23977 220.346 19.9955 213.085L419.561 -18.5898C443.349 -32.4211 479.893 -33.8043 500.578 -22.0477L911.865 216.197C921.173 221.383 926 228.991 926 236.944C926 246.626 918.76 256.653 906.005 263.915L506.439 495.243C493.338 503.196 476.445 507 460.587 507ZM465.413 -28.2718C449.899 -28.2718 433.351 -24.4681 420.596 -16.8609L21.0298 214.468C8.96354 221.383 1.72375 230.72 1.72375 240.056C1.72375 247.663 6.55029 254.579 15.1691 259.42L426.112 497.318C446.452 509.075 481.961 507.692 505.404 493.86L905.315 262.877C917.381 255.962 924.621 246.626 924.621 237.289C924.621 229.682 919.795 222.767 911.176 217.926L499.888 -20.3187C490.58 -25.8513 478.169 -28.2718 465.413 -28.2718Z" fill="#6EFCC9"/>
</svg>
