<svg width="337" height="402" viewBox="0 0 337 402" fill="none" xmlns="http://www.w3.org/2000/svg">
<g filter="url(#filter0_ddd_123_12328)">
<rect x="26" y="10" width="285" height="350" rx="24" fill="#F9FBFD"/>
<rect x="27" y="11" width="283" height="348" rx="23" stroke="url(#paint0_linear_123_12328)" stroke-opacity="0.1" stroke-width="2"/>
</g>
<circle opacity="0.4" cx="168" cy="171" r="80" fill="url(#paint1_linear_123_12328)"/>
<circle opacity="0.4" cx="105" cy="73" r="12" fill="url(#paint2_linear_123_12328)"/>
<g clip-path="url(#clip0_123_12328)">
<path d="M201.607 72.795C201.074 72.4392 200.362 72.3502 199.473 72.6171L155.354 84.892L117.639 117.981L111.324 123.496C109.189 125.364 107.677 128.566 107.944 131.057L113.103 188.784C113.993 198.48 117.906 205.596 123.955 209.243L133.917 215.024L133.739 212L137.386 212.445L155.354 214.491L179.192 184.337C189.599 171.173 196.448 154.717 197.694 140.04L202.497 80.5335L210.68 78.1319L201.607 72.795Z" fill="#CFCEF9"/>
<path d="M117.729 117.981L111.414 123.496C109.279 125.364 107.767 128.566 108.033 131.056L113.193 188.784C114.082 198.48 117.996 205.596 124.044 209.243L134.007 215.024L133.829 212L137.476 212.445C138.276 203.105 141.389 194.566 143.969 185.404C149.84 159.609 131.071 139.685 117.729 117.981Z" fill="#5036BA"/>
<path d="M201.608 72.795C201.074 72.4392 200.363 72.3502 199.473 72.6171L155.355 84.892L117.64 117.981C130.983 139.685 149.751 159.52 143.88 185.404C141.301 194.477 138.187 203.105 137.387 212.445L155.355 214.491L179.193 184.337C189.6 171.173 196.449 154.717 197.694 140.04L202.498 80.5335L210.681 78.1319L201.608 72.795Z" fill="#CFCEF9"/>
<path d="M109.011 126.787L118.974 132.925L164.605 90.229L155.443 84.8921L111.324 123.496C110.346 124.385 109.545 125.542 109.011 126.787Z" fill="#ABAFF9"/>
<path d="M124.578 209.599C118.707 205.952 114.971 198.925 114.171 189.496L109.011 131.768C108.834 129.278 110.257 126.076 112.392 124.208L118.707 118.693L156.421 85.6039L200.54 73.3289C201.341 73.0621 202.052 73.151 202.675 73.5068L210.769 78.2211H210.858L201.785 72.8842C201.252 72.5284 200.54 72.4395 199.65 72.7063L155.532 84.9813L117.817 118.07L111.502 123.585C109.367 125.453 107.855 128.655 108.122 131.146L113.281 188.874C114.171 198.569 118.084 205.685 124.133 209.332L124.578 209.599Z" fill="#9A9EF2"/>
<path d="M164.605 90.229L120.486 128.833C118.351 130.701 116.839 133.903 117.106 136.394L122.265 194.121C123.421 207.375 130.27 215.914 140.766 217.07L164.605 219.739L188.443 189.585C198.85 176.421 205.699 159.965 206.944 145.288L212.103 81.512C212.281 78.8435 210.858 77.2424 208.723 77.8651L164.605 90.229Z" fill="#7C4EFF"/>
<path d="M122.265 194.21L117.106 136.482C116.928 133.992 118.351 130.79 120.486 128.922L164.605 90.3178L208.723 78.0429C209.524 77.865 210.147 77.865 210.68 78.1318C210.058 77.3313 209.079 76.9755 207.923 77.3313L163.804 89.6062L119.686 128.21C117.551 130.078 116.039 133.28 116.305 135.771L121.465 193.499C122.265 201.949 125.289 208.442 130.093 212.356C125.734 208.353 122.977 202.127 122.265 194.21Z" fill="#9A9EF2"/>
<path d="M136.408 129.545L131.427 133.904C129.737 135.416 128.58 137.906 128.758 139.863L132.85 185.316C133.562 192.966 136.586 198.57 141.389 201.416L149.217 205.952L149.039 203.551L151.974 203.907C152.597 196.613 154.998 189.853 157.044 182.648C161.758 162.278 146.904 146.623 136.408 129.545Z" fill="#352784"/>
<path d="M202.497 93.9654C202.052 93.6985 201.519 93.6096 200.807 93.7875L166.117 103.394L136.408 129.456C146.904 146.534 161.759 162.189 157.044 182.559C154.998 189.763 152.508 196.524 151.974 203.817L166.117 205.418L184.885 181.669C193.069 171.262 198.494 158.364 199.384 146.801L203.209 99.925L209.613 98.0571L202.497 93.9654Z" fill="#3D3BA8"/>
<path d="M129.559 136.483L137.386 141.286L173.322 107.663L166.117 103.483L131.427 133.903C130.626 134.615 130.004 135.504 129.559 136.483Z" fill="#4947BA"/>
<path d="M173.322 107.664L138.631 138.084C136.941 139.596 135.785 142.087 135.963 144.044L140.055 189.497C141.033 199.904 146.37 206.664 154.553 207.553L173.322 209.688L192.09 185.939C200.273 175.532 205.699 162.634 206.588 151.071L210.68 100.904C210.858 98.7688 209.702 97.5235 208.012 98.0572L173.322 107.664Z" fill="#2F2D85"/>
<g opacity="0.3">
<path opacity="0.4" d="M180.704 114.868L146.014 145.289C144.324 146.801 143.167 149.291 143.345 151.248L147.437 196.701C148.415 207.108 153.752 213.868 161.935 214.758L180.704 216.893L199.472 193.143C207.655 182.736 213.081 169.839 213.971 158.275L218.062 108.108C218.24 105.973 217.084 104.728 215.394 105.262L180.704 114.868Z" fill="#16E09E"/>
</g>
<path d="M180.971 217.426L161.935 215.291C153.485 214.313 147.882 207.375 146.903 196.701L142.811 151.248C142.634 149.113 143.79 146.445 145.658 144.844L180.437 114.334L215.305 104.639C216.194 104.372 217.084 104.55 217.706 105.083C218.418 105.706 218.774 106.773 218.685 108.108L214.593 158.275C213.615 169.838 208.189 183.003 199.917 193.41L180.971 217.426ZM180.971 115.312L146.369 145.644C144.768 147.067 143.701 149.38 143.879 151.159L147.97 196.612C148.86 206.752 154.108 213.334 162.024 214.224L180.526 216.27L199.116 192.698C207.21 182.469 212.636 169.482 213.526 158.097L217.618 107.93C217.706 106.951 217.44 106.24 216.995 105.795C216.55 105.439 216.016 105.528 215.661 105.617L180.971 115.312Z" fill="url(#paint3_linear_123_12328)"/>
<mask id="mask0_123_12328" style="mask-type:alpha" maskUnits="userSpaceOnUse" x="179" y="159" width="79" height="46">
<path d="M256.311 204.884C256.133 204.884 256.044 204.884 255.866 204.795L179.548 160.765C179.103 160.499 179.014 159.965 179.192 159.52C179.459 159.075 179.993 158.986 180.437 159.164L256.756 203.194C257.2 203.461 257.289 203.995 257.111 204.439C256.933 204.706 256.578 204.884 256.311 204.884Z" fill="url(#paint4_linear_123_12328)"/>
</mask>
<g mask="url(#mask0_123_12328)">
<path d="M256.311 204.884C256.133 204.884 256.044 204.884 255.867 204.795L179.548 160.766C179.104 160.499 179.015 159.965 179.193 159.52C179.459 159.076 179.993 158.987 180.438 159.165L256.756 203.194C257.201 203.461 257.29 203.995 257.112 204.44C256.934 204.706 256.578 204.884 256.311 204.884Z" fill="url(#paint5_linear_123_12328)"/>
</g>
</g>
<path d="M104.635 313.24C103.555 313.24 102.549 313.067 101.615 312.72C100.695 312.36 99.8954 311.853 99.2154 311.2C98.5354 310.547 98.0021 309.78 97.6154 308.9C97.2421 308.02 97.0554 307.053 97.0554 306C97.0554 304.947 97.2421 303.98 97.6154 303.1C98.0021 302.22 98.5354 301.453 99.2154 300.8C99.9087 300.147 100.715 299.647 101.635 299.3C102.555 298.94 103.562 298.76 104.655 298.76C105.869 298.76 106.962 298.973 107.935 299.4C108.922 299.813 109.749 300.427 110.415 301.24L108.335 303.16C107.855 302.613 107.322 302.207 106.735 301.94C106.149 301.66 105.509 301.52 104.815 301.52C104.162 301.52 103.562 301.627 103.015 301.84C102.469 302.053 101.995 302.36 101.595 302.76C101.195 303.16 100.882 303.633 100.655 304.18C100.442 304.727 100.335 305.333 100.335 306C100.335 306.667 100.442 307.273 100.655 307.82C100.882 308.367 101.195 308.84 101.595 309.24C101.995 309.64 102.469 309.947 103.015 310.16C103.562 310.373 104.162 310.48 104.815 310.48C105.509 310.48 106.149 310.347 106.735 310.08C107.322 309.8 107.855 309.38 108.335 308.82L110.415 310.74C109.749 311.553 108.922 312.173 107.935 312.6C106.962 313.027 105.862 313.24 104.635 313.24ZM113.743 317.04C113.183 317.04 112.63 316.953 112.083 316.78C111.537 316.607 111.09 316.367 110.743 316.06L111.883 313.84C112.123 314.053 112.397 314.22 112.703 314.34C113.023 314.46 113.337 314.52 113.643 314.52C114.083 314.52 114.43 314.413 114.683 314.2C114.95 314 115.19 313.66 115.403 313.18L115.963 311.86L116.203 311.52L120.063 302.24H123.063L118.203 313.66C117.857 314.527 117.457 315.207 117.003 315.7C116.563 316.193 116.07 316.54 115.523 316.74C114.99 316.94 114.397 317.04 113.743 317.04ZM115.583 313.42L110.783 302.24H114.003L117.723 311.24L115.583 313.42ZM130.696 313.16C129.75 313.16 128.936 312.96 128.256 312.56C127.576 312.16 127.056 311.553 126.696 310.74C126.336 309.913 126.156 308.873 126.156 307.62C126.156 306.353 126.343 305.313 126.716 304.5C127.103 303.687 127.636 303.08 128.316 302.68C128.996 302.28 129.79 302.08 130.696 302.08C131.71 302.08 132.616 302.307 133.416 302.76C134.23 303.213 134.87 303.853 135.336 304.68C135.816 305.507 136.056 306.487 136.056 307.62C136.056 308.74 135.816 309.713 135.336 310.54C134.87 311.367 134.23 312.013 133.416 312.48C132.616 312.933 131.71 313.16 130.696 313.16ZM124.336 313V298.16H127.456V304.42L127.256 307.6L127.316 310.8V313H124.336ZM130.156 310.6C130.676 310.6 131.136 310.48 131.536 310.24C131.95 310 132.276 309.66 132.516 309.22C132.77 308.767 132.896 308.233 132.896 307.62C132.896 306.993 132.77 306.46 132.516 306.02C132.276 305.58 131.95 305.24 131.536 305C131.136 304.76 130.676 304.64 130.156 304.64C129.636 304.64 129.17 304.76 128.756 305C128.343 305.24 128.016 305.58 127.776 306.02C127.536 306.46 127.416 306.993 127.416 307.62C127.416 308.233 127.536 308.767 127.776 309.22C128.016 309.66 128.343 310 128.756 310.24C129.17 310.48 129.636 310.6 130.156 310.6ZM143.485 313.16C142.258 313.16 141.178 312.92 140.245 312.44C139.325 311.96 138.612 311.307 138.105 310.48C137.598 309.64 137.345 308.687 137.345 307.62C137.345 306.54 137.592 305.587 138.085 304.76C138.592 303.92 139.278 303.267 140.145 302.8C141.012 302.32 141.992 302.08 143.085 302.08C144.138 302.08 145.085 302.307 145.925 302.76C146.778 303.2 147.452 303.84 147.945 304.68C148.438 305.507 148.685 306.5 148.685 307.66C148.685 307.78 148.678 307.92 148.665 308.08C148.652 308.227 148.638 308.367 148.625 308.5H139.885V306.68H146.985L145.785 307.22C145.785 306.66 145.672 306.173 145.445 305.76C145.218 305.347 144.905 305.027 144.505 304.8C144.105 304.56 143.638 304.44 143.105 304.44C142.572 304.44 142.098 304.56 141.685 304.8C141.285 305.027 140.972 305.353 140.745 305.78C140.518 306.193 140.405 306.687 140.405 307.26V307.74C140.405 308.327 140.532 308.847 140.785 309.3C141.052 309.74 141.418 310.08 141.885 310.32C142.365 310.547 142.925 310.66 143.565 310.66C144.138 310.66 144.638 310.573 145.065 310.4C145.505 310.227 145.905 309.967 146.265 309.62L147.925 311.42C147.432 311.98 146.812 312.413 146.065 312.72C145.318 313.013 144.458 313.16 143.485 313.16ZM150.762 313V302.24H153.742V305.28L153.322 304.4C153.642 303.64 154.156 303.067 154.862 302.68C155.569 302.28 156.429 302.08 157.442 302.08V304.96C157.309 304.947 157.189 304.94 157.082 304.94C156.976 304.927 156.862 304.92 156.742 304.92C155.889 304.92 155.196 305.167 154.662 305.66C154.142 306.14 153.882 306.893 153.882 307.92V313H150.762ZM162.996 313.16C162.076 313.16 161.189 313.053 160.336 312.84C159.496 312.613 158.829 312.333 158.336 312L159.376 309.76C159.869 310.067 160.449 310.32 161.116 310.52C161.796 310.707 162.462 310.8 163.116 310.8C163.836 310.8 164.342 310.713 164.636 310.54C164.942 310.367 165.096 310.127 165.096 309.82C165.096 309.567 164.976 309.38 164.736 309.26C164.509 309.127 164.202 309.027 163.816 308.96C163.429 308.893 163.002 308.827 162.536 308.76C162.082 308.693 161.622 308.607 161.156 308.5C160.689 308.38 160.262 308.207 159.876 307.98C159.489 307.753 159.176 307.447 158.936 307.06C158.709 306.673 158.596 306.173 158.596 305.56C158.596 304.88 158.789 304.28 159.176 303.76C159.576 303.24 160.149 302.833 160.896 302.54C161.642 302.233 162.536 302.08 163.576 302.08C164.309 302.08 165.056 302.16 165.816 302.32C166.576 302.48 167.209 302.713 167.716 303.02L166.676 305.24C166.156 304.933 165.629 304.727 165.096 304.62C164.576 304.5 164.069 304.44 163.576 304.44C162.882 304.44 162.376 304.533 162.056 304.72C161.736 304.907 161.576 305.147 161.576 305.44C161.576 305.707 161.689 305.907 161.916 306.04C162.156 306.173 162.469 306.28 162.856 306.36C163.242 306.44 163.662 306.513 164.116 306.58C164.582 306.633 165.049 306.72 165.516 306.84C165.982 306.96 166.402 307.133 166.776 307.36C167.162 307.573 167.476 307.873 167.716 308.26C167.956 308.633 168.076 309.127 168.076 309.74C168.076 310.407 167.876 311 167.476 311.52C167.076 312.027 166.496 312.427 165.736 312.72C164.989 313.013 164.076 313.16 162.996 313.16ZM175.341 313.16C174.114 313.16 173.034 312.92 172.101 312.44C171.181 311.96 170.467 311.307 169.961 310.48C169.454 309.64 169.201 308.687 169.201 307.62C169.201 306.54 169.447 305.587 169.941 304.76C170.447 303.92 171.134 303.267 172.001 302.8C172.867 302.32 173.847 302.08 174.941 302.08C175.994 302.08 176.941 302.307 177.781 302.76C178.634 303.2 179.307 303.84 179.801 304.68C180.294 305.507 180.541 306.5 180.541 307.66C180.541 307.78 180.534 307.92 180.521 308.08C180.507 308.227 180.494 308.367 180.481 308.5H171.741V306.68H178.841L177.641 307.22C177.641 306.66 177.527 306.173 177.301 305.76C177.074 305.347 176.761 305.027 176.361 304.8C175.961 304.56 175.494 304.44 174.961 304.44C174.427 304.44 173.954 304.56 173.541 304.8C173.141 305.027 172.827 305.353 172.601 305.78C172.374 306.193 172.261 306.687 172.261 307.26V307.74C172.261 308.327 172.387 308.847 172.641 309.3C172.907 309.74 173.274 310.08 173.741 310.32C174.221 310.547 174.781 310.66 175.421 310.66C175.994 310.66 176.494 310.573 176.921 310.4C177.361 310.227 177.761 309.967 178.121 309.62L179.781 311.42C179.287 311.98 178.667 312.413 177.921 312.72C177.174 313.013 176.314 313.16 175.341 313.16ZM187.818 313.16C186.658 313.16 185.624 312.927 184.718 312.46C183.811 311.98 183.098 311.32 182.578 310.48C182.071 309.64 181.818 308.687 181.818 307.62C181.818 306.54 182.071 305.587 182.578 304.76C183.098 303.92 183.811 303.267 184.718 302.8C185.624 302.32 186.658 302.08 187.818 302.08C188.951 302.08 189.938 302.32 190.778 302.8C191.618 303.267 192.238 303.94 192.638 304.82L190.218 306.12C189.938 305.613 189.584 305.24 189.158 305C188.744 304.76 188.291 304.64 187.798 304.64C187.264 304.64 186.784 304.76 186.358 305C185.931 305.24 185.591 305.58 185.338 306.02C185.098 306.46 184.978 306.993 184.978 307.62C184.978 308.247 185.098 308.78 185.338 309.22C185.591 309.66 185.931 310 186.358 310.24C186.784 310.48 187.264 310.6 187.798 310.6C188.291 310.6 188.744 310.487 189.158 310.26C189.584 310.02 189.938 309.64 190.218 309.12L192.638 310.44C192.238 311.307 191.618 311.98 190.778 312.46C189.938 312.927 188.951 313.16 187.818 313.16ZM198.974 313.16C198.081 313.16 197.281 312.987 196.574 312.64C195.881 312.293 195.341 311.767 194.954 311.06C194.567 310.34 194.374 309.427 194.374 308.32V302.24H197.494V307.86C197.494 308.753 197.681 309.413 198.054 309.84C198.441 310.253 198.981 310.46 199.674 310.46C200.154 310.46 200.581 310.36 200.954 310.16C201.327 309.947 201.621 309.627 201.834 309.2C202.047 308.76 202.154 308.213 202.154 307.56V302.24H205.274V313H202.314V310.04L202.854 310.9C202.494 311.647 201.961 312.213 201.254 312.6C200.561 312.973 199.801 313.16 198.974 313.16ZM208.165 313V302.24H211.145V305.28L210.725 304.4C211.045 303.64 211.558 303.067 212.265 302.68C212.971 302.28 213.831 302.08 214.845 302.08V304.96C214.711 304.947 214.591 304.94 214.485 304.94C214.378 304.927 214.265 304.92 214.145 304.92C213.291 304.92 212.598 305.167 212.065 305.66C211.545 306.14 211.285 306.893 211.285 307.92V313H208.165ZM216.7 313V302.24H219.82V313H216.7ZM218.26 300.74C217.686 300.74 217.22 300.573 216.86 300.24C216.5 299.907 216.32 299.493 216.32 299C216.32 298.507 216.5 298.093 216.86 297.76C217.22 297.427 217.686 297.26 218.26 297.26C218.833 297.26 219.3 297.42 219.66 297.74C220.02 298.047 220.2 298.447 220.2 298.94C220.2 299.46 220.02 299.893 219.66 300.24C219.313 300.573 218.846 300.74 218.26 300.74ZM227.115 313.16C225.849 313.16 224.862 312.84 224.155 312.2C223.449 311.547 223.095 310.58 223.095 309.3V299.86H226.215V309.26C226.215 309.713 226.335 310.067 226.575 310.32C226.815 310.56 227.142 310.68 227.555 310.68C228.049 310.68 228.469 310.547 228.815 310.28L229.655 312.48C229.335 312.707 228.949 312.88 228.495 313C228.055 313.107 227.595 313.16 227.115 313.16ZM221.435 304.88V302.48H228.895V304.88H221.435ZM232.571 317.04C232.011 317.04 231.458 316.953 230.911 316.78C230.365 316.607 229.918 316.367 229.571 316.06L230.711 313.84C230.951 314.053 231.225 314.22 231.531 314.34C231.851 314.46 232.165 314.52 232.471 314.52C232.911 314.52 233.258 314.413 233.511 314.2C233.778 314 234.018 313.66 234.231 313.18L234.791 311.86L235.031 311.52L238.891 302.24H241.891L237.031 313.66C236.685 314.527 236.285 315.207 235.831 315.7C235.391 316.193 234.898 316.54 234.351 316.74C233.818 316.94 233.225 317.04 232.571 317.04ZM234.411 313.42L229.611 302.24H232.831L236.551 311.24L234.411 313.42Z" fill="#202027"/>
<defs>
<filter id="filter0_ddd_123_12328" x="0" y="0" width="337" height="402" filterUnits="userSpaceOnUse" color-interpolation-filters="sRGB">
<feFlood flood-opacity="0" result="BackgroundImageFix"/>
<feColorMatrix in="SourceAlpha" type="matrix" values="0 0 0 0 0 0 0 0 0 0 0 0 0 0 0 0 0 0 127 0" result="hardAlpha"/>
<feMorphology radius="1" operator="erode" in="SourceAlpha" result="effect1_dropShadow_123_12328"/>
<feOffset dy="4"/>
<feGaussianBlur stdDeviation="4"/>
<feComposite in2="hardAlpha" operator="out"/>
<feColorMatrix type="matrix" values="0 0 0 0 0.027451 0 0 0 0 0 0 0 0 0 0.109804 0 0 0 0.03 0"/>
<feBlend mode="normal" in2="BackgroundImageFix" result="effect1_dropShadow_123_12328"/>
<feColorMatrix in="SourceAlpha" type="matrix" values="0 0 0 0 0 0 0 0 0 0 0 0 0 0 0 0 0 0 127 0" result="hardAlpha"/>
<feMorphology radius="3" operator="erode" in="SourceAlpha" result="effect2_dropShadow_123_12328"/>
<feOffset dy="8"/>
<feGaussianBlur stdDeviation="8"/>
<feComposite in2="hardAlpha" operator="out"/>
<feColorMatrix type="matrix" values="0 0 0 0 0.027451 0 0 0 0 0 0 0 0 0 0.109804 0 0 0 0.03 0"/>
<feBlend mode="normal" in2="effect1_dropShadow_123_12328" result="effect2_dropShadow_123_12328"/>
<feColorMatrix in="SourceAlpha" type="matrix" values="0 0 0 0 0 0 0 0 0 0 0 0 0 0 0 0 0 0 127 0" result="hardAlpha"/>
<feMorphology radius="6" operator="erode" in="SourceAlpha" result="effect3_dropShadow_123_12328"/>
<feOffset dy="16"/>
<feGaussianBlur stdDeviation="16"/>
<feComposite in2="hardAlpha" operator="out"/>
<feColorMatrix type="matrix" values="0 0 0 0 0.027451 0 0 0 0 0 0 0 0 0 0.109804 0 0 0 0.02 0"/>
<feBlend mode="normal" in2="effect2_dropShadow_123_12328" result="effect3_dropShadow_123_12328"/>
<feBlend mode="normal" in="SourceGraphic" in2="effect3_dropShadow_123_12328" result="shape"/>
</filter>
<linearGradient id="paint0_linear_123_12328" x1="154.5" y1="10" x2="222.5" y2="372.5" gradientUnits="userSpaceOnUse">
<stop stop-color="#F6FCFF"/>
<stop offset="0.998764" stop-color="#7C4EFF"/>
</linearGradient>
<linearGradient id="paint1_linear_123_12328" x1="114" y1="67.1797" x2="207" y2="238.18" gradientUnits="userSpaceOnUse">
<stop stop-color="#7C4EFF"/>
<stop offset="0.904355" stop-color="#7C4EFF" stop-opacity="0"/>
</linearGradient>
<linearGradient id="paint2_linear_123_12328" x1="96.9" y1="57.427" x2="110.85" y2="83.077" gradientUnits="userSpaceOnUse">
<stop stop-color="#7C4EFF"/>
<stop offset="0.904355" stop-color="#7C4EFF" stop-opacity="0"/>
</linearGradient>
<linearGradient id="paint3_linear_123_12328" x1="142.8" y1="160.765" x2="218.715" y2="160.765" gradientUnits="userSpaceOnUse">
<stop stop-color="#5472D8"/>
<stop offset="0.2791" stop-color="#4E9CDB"/>
<stop offset="0.4801" stop-color="#49BDDD"/>
<stop offset="0.6715" stop-color="#45DFBA"/>
<stop offset="0.8493" stop-color="#43E3A9"/>
<stop offset="1" stop-color="#16E09E"/>
</linearGradient>
<linearGradient id="paint4_linear_123_12328" x1="257.203" y1="181.92" x2="179.085" y2="181.92" gradientUnits="userSpaceOnUse">
<stop/>
<stop offset="1" stop-color="white"/>
</linearGradient>
<linearGradient id="paint5_linear_123_12328" x1="179.113" y1="181.898" x2="257.215" y2="181.898" gradientUnits="userSpaceOnUse">
<stop stop-color="#5472D8"/>
<stop offset="0.2791" stop-color="#4E9CDB"/>
<stop offset="0.4801" stop-color="#49BDDD"/>
<stop offset="0.6715" stop-color="#45DFBA"/>
<stop offset="0.8493" stop-color="#43E3A9"/>
<stop offset="1" stop-color="#16E09E"/>
</linearGradient>
<clipPath id="clip0_123_12328">
<rect width="150.324" height="147.655" fill="white" transform="translate(107.676 72.1721)"/>
</clipPath>
</defs>
</svg>
