<svg width="343" height="196" viewBox="0 0 343 196" fill="none" xmlns="http://www.w3.org/2000/svg">
<g filter="url(#filter0_bdddd_123_11527)">
<rect x="21.0468" width="301" height="135.392" rx="20" fill="#7C4EFF" fill-opacity="0.1" shape-rendering="crispEdges"/>
<path d="M83.584 30.4401H88.3553C90.637 30.4401 92.3657 31.0175 93.5412 32.171C94.7165 33.3255 95.3044 34.9737 95.3044 37.1154V38.2763C95.3044 40.3909 94.7096 42.0328 93.5201 43.2003C92.3306 44.3682 90.609 44.9522 88.355 44.9522H83.584V30.4401ZM86.0733 32.6374V42.7543H88.3553C89.7934 42.7543 90.8755 42.3881 91.6015 41.6559C92.3279 40.9232 92.6904 39.7968 92.6904 38.2763V37.1154C92.6904 35.6097 92.324 34.4863 91.5911 33.7465C90.8582 33.0078 89.7791 32.6374 88.355 32.6374H86.0733Z" fill="#28334A"/>
<path d="M101.938 45.1387C100.375 45.1387 99.1549 44.6964 98.2768 43.8119C97.3983 42.9275 96.9597 41.6901 96.9597 40.1009V39.4371C96.9597 38.6494 97.0738 37.9449 97.3018 37.3225C97.5299 36.7007 97.862 36.172 98.2975 35.7368C98.7331 35.3016 99.2552 34.9698 99.8637 34.7417C100.472 34.5138 101.163 34.3993 101.938 34.3993C103.501 34.3993 104.721 34.8422 105.599 35.7262C106.478 36.6106 106.917 37.8479 106.917 39.4371V40.1009C106.917 40.8887 106.803 41.5932 106.575 42.2155C106.346 42.8373 106.015 43.366 105.579 43.8013C105.143 44.2365 104.617 44.5682 104.002 44.7963C103.387 45.024 102.699 45.1387 101.938 45.1387ZM101.938 42.8992C102.726 42.8992 103.331 42.6713 103.753 42.2153C104.175 41.7589 104.386 41.0544 104.386 40.1006V39.4369C104.386 38.4974 104.168 37.7958 103.733 37.3329C103.297 36.87 102.699 36.6385 101.938 36.6385C101.15 36.6385 100.545 36.8664 100.123 37.3225C99.7011 37.7789 99.4907 38.4834 99.4907 39.4371V40.1009C99.4907 41.0404 99.708 41.7419 100.144 42.2048C100.58 42.6678 101.178 42.8992 101.938 42.8992Z" fill="#28334A"/>
<path d="M109.871 44.0713C109.283 43.4838 108.99 42.6376 108.99 41.5315V30.4401H111.396V41.2828C111.396 41.8213 111.513 42.2158 111.749 42.4645C111.984 42.7132 112.343 42.8379 112.827 42.8379H113.346V44.9525H112.392C111.299 44.9522 110.459 44.6583 109.871 44.0713Z" fill="#28334A"/>
<path d="M120.339 45.1388C119.039 45.1388 118.029 44.7307 117.31 43.9152V49.0983H114.904V34.5858H116.792L117.02 35.996C117.379 35.4569 117.839 35.0559 118.399 34.793C118.959 34.5308 119.606 34.399 120.339 34.399C120.934 34.399 121.484 34.5064 121.989 34.7204C122.493 34.9354 122.925 35.2531 123.285 35.6741C123.644 36.0963 123.927 36.6214 124.135 37.2503C124.342 37.8792 124.446 38.6078 124.446 39.4369V40.1006C124.446 40.9298 124.342 41.6554 124.135 42.2774C123.927 42.8992 123.641 43.4249 123.274 43.8531C122.908 44.2818 122.476 44.603 121.977 44.8167C121.48 45.0312 120.934 45.1388 120.339 45.1388ZM119.613 42.8992C120.346 42.8992 120.913 42.6785 121.314 42.2361C121.715 41.7938 121.916 41.0821 121.916 40.1006V39.4369C121.916 38.4832 121.708 37.7787 121.293 37.3223C120.879 36.8665 120.319 36.6383 119.613 36.6383C118.95 36.6383 118.407 36.8662 117.985 37.3223C117.563 37.7787 117.338 38.4421 117.31 39.3129V40.1006C117.31 41.0126 117.528 41.7069 117.964 42.1841C118.399 42.6609 118.949 42.8992 119.613 42.8992Z" fill="#28334A"/>
<path d="M126.518 30.4401H128.924V35.4779C129.615 34.7592 130.576 34.3995 131.807 34.3995C133.08 34.3995 134.072 34.7762 134.784 35.5297C135.496 36.2832 135.852 37.4195 135.852 38.94V44.9522H133.446V38.94C133.446 38.1799 133.263 37.606 132.896 37.2193C132.529 36.8324 132.029 36.6388 131.393 36.6388C130.645 36.6388 130.054 36.8391 129.619 37.2401C129.183 37.6411 128.951 38.173 128.924 38.8362V44.9522H126.518V30.4401Z" fill="#28334A"/>
<path d="M139.759 33.3424C139.316 33.3424 138.946 33.1942 138.649 32.8965C138.351 32.5996 138.203 32.2298 138.203 31.7874C138.203 31.345 138.351 30.9755 138.649 30.6783C138.946 30.3814 139.316 30.2324 139.759 30.2324C140.187 30.2324 140.554 30.3811 140.859 30.6783C141.162 30.9752 141.314 31.345 141.314 31.7874C141.314 32.2298 141.162 32.5993 140.859 32.8965C140.554 33.1942 140.187 33.3424 139.759 33.3424ZM138.556 34.586H140.962V44.9521H138.556V34.586Z" fill="#28334A"/>
<path d="M143.762 34.5858H145.65L145.836 35.7467C146.61 34.8486 147.682 34.399 149.052 34.399C150.323 34.399 151.316 34.7757 152.028 35.5293C152.74 36.2828 153.097 37.419 153.097 38.9395V44.952H150.69V38.9398C150.69 38.1796 150.507 37.6058 150.14 37.219C149.774 36.8323 149.272 36.6386 148.637 36.6386C147.89 36.6386 147.299 36.8388 146.863 37.2399C146.427 37.6409 146.195 38.1728 146.168 38.836V44.952H143.762V34.5858Z" fill="#28334A"/>
<path d="M161.804 31.7672H160.849C159.273 31.7672 158.484 32.5964 158.484 34.2552V36.9497C158.484 37.5721 158.392 38.1284 158.204 38.6187C158.018 39.1101 157.606 39.4933 156.97 39.7697C157.288 39.922 157.548 40.0945 157.748 40.2882C157.949 40.4819 158.104 40.6991 158.214 40.9407C158.325 41.1828 158.398 41.442 158.433 41.7183C158.467 41.9947 158.484 42.2854 158.484 42.5889V45.2839C158.484 46.9428 159.273 47.7719 160.849 47.7719H161.804V49.0987H160.849C158.305 49.0987 157.033 47.8267 157.033 45.2839V42.5886C157.033 41.8564 156.87 41.3277 156.545 41.0029C156.22 40.678 155.829 40.4813 155.373 40.4118V39.1268C155.829 39.0578 156.22 38.8605 156.545 38.5357C156.87 38.2108 157.033 37.6825 157.033 36.9494V34.2549C157.033 31.7121 158.305 30.4401 160.849 30.4401H161.804V31.7672Z" fill="#28334A"/>
<path d="M166.889 45.097C165.852 45.097 165.056 44.8313 164.504 44.299C163.951 43.7671 163.674 43.0311 163.674 42.091C163.674 41.5933 163.754 41.1408 163.913 40.7326C164.072 40.325 164.327 39.9832 164.68 39.7068C165.033 39.4305 165.485 39.216 166.039 39.0636C166.592 38.9119 167.256 38.8358 168.03 38.8358H170.395V37.9028C170.395 37.1569 170.211 36.6072 169.846 36.2546C169.478 35.9026 168.874 35.726 168.03 35.726C167.27 35.726 166.699 35.8747 166.318 36.1719C165.939 36.4696 165.72 36.8734 165.666 37.3848H164.193C164.22 36.9562 164.317 36.5628 164.482 36.2032C164.648 35.8435 164.89 35.5328 165.209 35.2702C165.527 35.0075 165.921 34.8037 166.392 34.6585C166.862 34.5139 167.407 34.4413 168.03 34.4413C169.261 34.4413 170.191 34.7453 170.821 35.3532C171.449 35.9615 171.764 36.8118 171.764 37.9031V44.9521H170.706L170.499 43.0034C170.139 43.6666 169.645 44.1816 169.016 44.5478C168.386 44.9138 167.677 45.097 166.889 45.097ZM166.993 43.8118C167.463 43.8118 167.906 43.7255 168.32 43.5526C168.735 43.3801 169.099 43.145 169.409 42.8476C169.72 42.5506 169.962 42.2049 170.136 41.811C170.309 41.4172 170.395 40.9992 170.395 40.5568V40.0802H168.03C166.964 40.0802 166.207 40.2668 165.758 40.6395C165.309 41.0129 165.084 41.4969 165.084 42.091C165.084 42.6161 165.246 43.0341 165.572 43.3453C165.897 43.6559 166.37 43.8118 166.993 43.8118Z" fill="#28334A"/>
<path d="M175.185 34.5859H176.243L176.409 36.2861C176.755 35.692 177.221 35.2363 177.809 34.9179C178.397 34.6002 179.078 34.4413 179.852 34.4413C181.042 34.4413 181.978 34.801 182.663 35.5189C183.348 36.2377 183.689 37.3087 183.689 38.7325V44.9521H182.321V38.7328C182.321 37.7242 182.086 36.9707 181.615 36.4727C181.145 35.975 180.488 35.7263 179.645 35.7263C178.732 35.7263 177.996 35.9889 177.436 36.5141C176.875 37.0397 176.581 37.7371 176.554 38.6082V44.9521H175.185V34.5859Z" fill="#28334A"/>
<path d="M185.66 34.5864H187.526V31.6846H188.896V34.5864H191.675V35.8305H188.896V42.0501C188.896 43.1556 189.407 43.7084 190.43 43.7084H191.883V44.9525H190.265C189.366 44.9525 188.684 44.7211 188.222 44.2582C187.758 43.7952 187.526 43.1143 187.526 42.2161V35.8308H185.66V34.5864Z" fill="#28334A"/>
<path d="M197.836 44.9524L193.541 34.5863H195.077L198.582 43.2522L201.84 34.5863H203.291L197.691 49.0988H196.238L197.836 44.9524Z" fill="#28334A"/>
<path d="M204.616 47.7713H205.571C207.147 47.7713 207.935 46.9422 207.935 45.2834V42.5883C207.935 41.9665 208.028 41.4102 208.215 40.9193C208.402 40.4293 208.813 40.0453 209.45 39.7688C209.131 39.6171 208.872 39.444 208.672 39.2504C208.471 39.0573 208.316 38.8395 208.205 38.5973C208.094 38.3557 208.022 38.0966 207.988 37.8202C207.953 37.5439 207.935 37.2541 207.935 36.9492V34.2547C207.935 32.5958 207.147 31.7666 205.571 31.7666H204.616V30.4401H205.571C208.115 30.4401 209.388 31.7122 209.388 34.2549V36.9495C209.388 37.6822 209.55 38.2114 209.875 38.5362C210.2 38.8606 210.591 39.0578 211.047 39.1268V40.4118C210.591 40.4813 210.2 40.678 209.875 41.0028C209.55 41.3272 209.388 41.8561 209.388 42.5886V45.2836C209.388 47.8264 208.115 49.0985 205.571 49.0985H204.616V47.7713Z" fill="#28334A"/>
<path d="M45.0468 37.6959C45.0468 24 45.0468 24 58.751 24C72.4552 24 72.4552 24 72.4552 37.6959C72.4552 51.3918 72.4552 51.3918 58.751 51.3918C45.0468 51.3918 45.0468 51.3918 45.0468 37.6959Z" fill="url(#paint0_linear_123_11527)"/>
<path d="M64.3824 37.1172V38.2836C64.3824 40.3911 63.7861 42.0324 62.5935 43.207C61.4092 44.3733 59.6893 44.9524 57.4333 44.9524H53.6217C54.624 44.5205 55.1252 43.5875 55.1252 42.1535V39.9767C55.1252 39.3806 55.2549 38.9572 55.5144 38.6898C55.7825 38.4304 56.0936 38.2748 56.465 38.2146V37.1783C56.0936 37.1175 55.7825 36.9625 55.5144 36.7031C55.2549 36.4352 55.1252 36.0123 55.1252 35.4162V33.2389C55.1252 31.8052 54.624 30.8722 53.6217 30.4402H57.4331C59.7151 30.4402 61.4438 31.019 62.619 32.1766C63.7951 33.3248 64.3824 34.975 64.3824 37.1172Z" fill="white"/>
<path d="M46.9348 84.3918V73.1918H56.3588V84.3918H55.1908V73.8958L55.4948 74.2158H47.7988L48.1028 73.8958V84.3918H46.9348ZM64.2019 84.4718C63.4765 84.4718 62.8205 84.3064 62.2339 83.9758C61.6472 83.6344 61.1779 83.1491 60.8259 82.5198C60.4845 81.8798 60.3139 81.1011 60.3139 80.1838C60.3139 79.2664 60.4845 78.4931 60.8259 77.8638C61.1672 77.2238 61.6312 76.7384 62.2179 76.4078C62.8045 76.0771 63.4659 75.9118 64.2019 75.9118C65.0019 75.9118 65.7165 76.0931 66.3459 76.4558C66.9859 76.8078 67.4872 77.3091 67.8499 77.9598C68.2125 78.5998 68.3939 79.3411 68.3939 80.1838C68.3939 81.0371 68.2125 81.7838 67.8499 82.4238C67.4872 83.0638 66.9859 83.5651 66.3459 83.9278C65.7165 84.2904 65.0019 84.4718 64.2019 84.4718ZM59.8659 87.4958V75.9918H60.9539V78.5198L60.8419 80.1998L61.0019 81.8958V87.4958H59.8659ZM64.1219 83.4638C64.7192 83.4638 65.2525 83.3304 65.7219 83.0638C66.1912 82.7864 66.5645 82.4024 66.8419 81.9118C67.1192 81.4104 67.2579 80.8344 67.2579 80.1838C67.2579 79.5331 67.1192 78.9624 66.8419 78.4718C66.5645 77.9811 66.1912 77.5971 65.7219 77.3198C65.2525 77.0424 64.7192 76.9038 64.1219 76.9038C63.5245 76.9038 62.9859 77.0424 62.5059 77.3198C62.0365 77.5971 61.6632 77.9811 61.3859 78.4718C61.1192 78.9624 60.9859 79.5331 60.9859 80.1838C60.9859 80.8344 61.1192 81.4104 61.3859 81.9118C61.6632 82.4024 62.0365 82.7864 62.5059 83.0638C62.9859 83.3304 63.5245 83.4638 64.1219 83.4638ZM74.2906 84.4718C73.48 84.4718 72.7493 84.2904 72.0986 83.9278C71.4586 83.5544 70.952 83.0478 70.5786 82.4078C70.2053 81.7571 70.0186 81.0158 70.0186 80.1838C70.0186 79.3411 70.2053 78.5998 70.5786 77.9598C70.952 77.3198 71.4586 76.8184 72.0986 76.4558C72.7386 76.0931 73.4693 75.9118 74.2906 75.9118C75.1226 75.9118 75.8586 76.0931 76.4986 76.4558C77.1493 76.8184 77.656 77.3198 78.0186 77.9598C78.392 78.5998 78.5786 79.3411 78.5786 80.1838C78.5786 81.0158 78.392 81.7571 78.0186 82.4078C77.656 83.0478 77.1493 83.5544 76.4986 83.9278C75.848 84.2904 75.112 84.4718 74.2906 84.4718ZM74.2906 83.4638C74.8986 83.4638 75.4373 83.3304 75.9066 83.0638C76.376 82.7864 76.744 82.4024 77.0106 81.9118C77.288 81.4104 77.4266 80.8344 77.4266 80.1838C77.4266 79.5224 77.288 78.9464 77.0106 78.4558C76.744 77.9651 76.376 77.5864 75.9066 77.3198C75.4373 77.0424 74.904 76.9038 74.3066 76.9038C73.7093 76.9038 73.176 77.0424 72.7066 77.3198C72.2373 77.5864 71.864 77.9651 71.5866 78.4558C71.3093 78.9464 71.1706 79.5224 71.1706 80.1838C71.1706 80.8344 71.3093 81.4104 71.5866 81.9118C71.864 82.4024 72.2373 82.7864 72.7066 83.0638C73.176 83.3304 73.704 83.4638 74.2906 83.4638ZM81.0065 84.3918V75.9918H88.5585V84.3918H87.4225V76.6798L87.7105 76.9838H81.8545L82.1425 76.6798V84.3918H81.0065ZM96.1238 84.4718C95.3984 84.4718 94.7424 84.3064 94.1558 83.9758C93.5691 83.6344 93.0998 83.1491 92.7478 82.5198C92.4064 81.8798 92.2358 81.1011 92.2358 80.1838C92.2358 79.2664 92.4064 78.4931 92.7478 77.8638C93.0891 77.2238 93.5531 76.7384 94.1398 76.4078C94.7264 76.0771 95.3878 75.9118 96.1238 75.9118C96.9238 75.9118 97.6384 76.0931 98.2678 76.4558C98.9078 76.8078 99.4091 77.3091 99.7718 77.9598C100.134 78.5998 100.316 79.3411 100.316 80.1838C100.316 81.0371 100.134 81.7838 99.7718 82.4238C99.4091 83.0638 98.9078 83.5651 98.2678 83.9278C97.6384 84.2904 96.9238 84.4718 96.1238 84.4718ZM91.7878 87.4958V75.9918H92.8758V78.5198L92.7638 80.1998L92.9238 81.8958V87.4958H91.7878ZM96.0438 83.4638C96.6411 83.4638 97.1744 83.3304 97.6438 83.0638C98.1131 82.7864 98.4864 82.4024 98.7638 81.9118C99.0411 81.4104 99.1798 80.8344 99.1798 80.1838C99.1798 79.5331 99.0411 78.9624 98.7638 78.4718C98.4864 77.9811 98.1131 77.5971 97.6438 77.3198C97.1744 77.0424 96.6411 76.9038 96.0438 76.9038C95.4464 76.9038 94.9078 77.0424 94.4278 77.3198C93.9584 77.5971 93.5851 77.9811 93.3078 78.4718C93.0411 78.9624 92.9078 79.5331 92.9078 80.1838C92.9078 80.8344 93.0411 81.4104 93.3078 81.9118C93.5851 82.4024 93.9584 82.7864 94.4278 83.0638C94.9078 83.3304 95.4464 83.4638 96.0438 83.4638ZM102.757 84.3918V75.9918H103.893V82.6638L109.509 75.9918H110.517V84.3918H109.381V77.7038L103.781 84.3918H102.757ZM117.372 84.4718C116.497 84.4718 115.729 84.2904 115.068 83.9278C114.407 83.5544 113.889 83.0478 113.516 82.4078C113.143 81.7571 112.956 81.0158 112.956 80.1838C112.956 79.3518 113.132 78.6158 113.484 77.9758C113.847 77.3358 114.337 76.8344 114.956 76.4718C115.585 76.0984 116.289 75.9118 117.068 75.9118C117.857 75.9118 118.556 76.0931 119.164 76.4558C119.783 76.8078 120.268 77.3091 120.62 77.9598C120.972 78.5998 121.148 79.3411 121.148 80.1838C121.148 80.2371 121.143 80.2958 121.132 80.3598C121.132 80.4131 121.132 80.4718 121.132 80.5358H113.82V79.6878H120.524L120.076 80.0238C120.076 79.4158 119.943 78.8771 119.676 78.4078C119.42 77.9278 119.068 77.5544 118.62 77.2878C118.172 77.0211 117.655 76.8878 117.068 76.8878C116.492 76.8878 115.975 77.0211 115.516 77.2878C115.057 77.5544 114.7 77.9278 114.444 78.4078C114.188 78.8878 114.06 79.4371 114.06 80.0558V80.2318C114.06 80.8718 114.199 81.4371 114.476 81.9278C114.764 82.4078 115.159 82.7864 115.66 83.0638C116.172 83.3304 116.753 83.4638 117.404 83.4638C117.916 83.4638 118.391 83.3731 118.828 83.1918C119.276 83.0104 119.66 82.7331 119.98 82.3598L120.62 83.0958C120.247 83.5438 119.777 83.8851 119.212 84.1198C118.657 84.3544 118.044 84.4718 117.372 84.4718ZM124.888 84.3918V76.6798L125.176 76.9838H121.704V75.9918H129.208V76.9838H125.736L126.024 76.6798V84.3918H124.888ZM136.066 84.3918V82.5358L136.018 82.2318V79.1278C136.018 78.4131 135.816 77.8638 135.41 77.4798C135.016 77.0958 134.424 76.9038 133.634 76.9038C133.09 76.9038 132.573 76.9944 132.082 77.1758C131.592 77.3571 131.176 77.5971 130.834 77.8958L130.322 77.0478C130.749 76.6851 131.261 76.4078 131.858 76.2158C132.456 76.0131 133.085 75.9118 133.746 75.9118C134.834 75.9118 135.672 76.1838 136.258 76.7278C136.856 77.2611 137.154 78.0771 137.154 79.1758V84.3918H136.066ZM133.17 84.4718C132.541 84.4718 131.992 84.3704 131.522 84.1678C131.064 83.9544 130.712 83.6664 130.466 83.3038C130.221 82.9304 130.098 82.5038 130.098 82.0238C130.098 81.5864 130.2 81.1918 130.402 80.8398C130.616 80.4771 130.957 80.1891 131.426 79.9758C131.906 79.7518 132.546 79.6398 133.346 79.6398H136.242V80.4878H133.378C132.568 80.4878 132.002 80.6318 131.682 80.9198C131.373 81.2078 131.218 81.5651 131.218 81.9918C131.218 82.4718 131.405 82.8558 131.778 83.1438C132.152 83.4318 132.674 83.5758 133.346 83.5758C133.986 83.5758 134.536 83.4318 134.994 83.1438C135.464 82.8451 135.805 82.4184 136.018 81.8638L136.274 82.6478C136.061 83.2024 135.688 83.6451 135.154 83.9758C134.632 84.3064 133.97 84.4718 133.17 84.4718ZM144.514 84.4718C143.789 84.4718 143.133 84.3064 142.546 83.9758C141.96 83.6344 141.49 83.1491 141.138 82.5198C140.797 81.8798 140.626 81.1011 140.626 80.1838C140.626 79.2664 140.797 78.4931 141.138 77.8638C141.48 77.2238 141.944 76.7384 142.53 76.4078C143.117 76.0771 143.778 75.9118 144.514 75.9118C145.314 75.9118 146.029 76.0931 146.658 76.4558C147.298 76.8078 147.8 77.3091 148.162 77.9598C148.525 78.5998 148.706 79.3411 148.706 80.1838C148.706 81.0371 148.525 81.7838 148.162 82.4238C147.8 83.0638 147.298 83.5651 146.658 83.9278C146.029 84.2904 145.314 84.4718 144.514 84.4718ZM140.178 87.4958V75.9918H141.266V78.5198L141.154 80.1998L141.314 81.8958V87.4958H140.178ZM144.434 83.4638C145.032 83.4638 145.565 83.3304 146.034 83.0638C146.504 82.7864 146.877 82.4024 147.154 81.9118C147.432 81.4104 147.57 80.8344 147.57 80.1838C147.57 79.5331 147.432 78.9624 147.154 78.4718C146.877 77.9811 146.504 77.5971 146.034 77.3198C145.565 77.0424 145.032 76.9038 144.434 76.9038C143.837 76.9038 143.298 77.0424 142.818 77.3198C142.349 77.5971 141.976 77.9811 141.698 78.4718C141.432 78.9624 141.298 79.5331 141.298 80.1838C141.298 80.8344 141.432 81.4104 141.698 81.9118C141.976 82.4024 142.349 82.7864 142.818 83.0638C143.298 83.3304 143.837 83.4638 144.434 83.4638ZM151.147 84.3918V75.9918H152.283V79.7038H157.579V75.9918H158.715V84.3918H157.579V80.6798H152.283V84.3918H151.147ZM170.136 84.3918V75.9918H171.272V84.3918H170.136ZM165.48 78.9518C166.536 78.9624 167.341 79.1971 167.896 79.6558C168.451 80.1144 168.728 80.7758 168.728 81.6398C168.728 82.5358 168.429 83.2238 167.832 83.7038C167.235 84.1838 166.381 84.4184 165.272 84.4078L161.944 84.3918V75.9918H163.08V78.9198L165.48 78.9518ZM165.192 83.5438C165.981 83.5544 166.573 83.3998 166.968 83.0798C167.373 82.7491 167.576 82.2691 167.576 81.6398C167.576 81.0104 167.379 80.5518 166.984 80.2638C166.589 79.9651 165.992 79.8104 165.192 79.7998L163.08 79.7678V83.5118L165.192 83.5438ZM174.507 84.3918V75.9918H175.643V82.6638L181.259 75.9918H182.267V84.3918H181.131V77.7038L175.531 84.3918H174.507ZM178.315 74.7758C177.611 74.7758 177.04 74.5998 176.603 74.2478C176.176 73.8851 175.952 73.3678 175.931 72.6958H176.747C176.757 73.1224 176.907 73.4584 177.195 73.7038C177.483 73.9491 177.856 74.0718 178.315 74.0718C178.773 74.0718 179.147 73.9491 179.435 73.7038C179.733 73.4584 179.888 73.1224 179.899 72.6958H180.715C180.704 73.3678 180.48 73.8851 180.043 74.2478C179.605 74.5998 179.029 74.7758 178.315 74.7758ZM189.71 84.3918V75.9918H193.422C194.371 75.9918 195.118 76.1731 195.662 76.5358C196.216 76.8984 196.494 77.4318 196.494 78.1358C196.494 78.8184 196.232 79.3464 195.71 79.7198C195.187 80.0824 194.499 80.2638 193.646 80.2638L193.87 79.9278C194.872 79.9278 195.608 80.1144 196.078 80.4878C196.547 80.8611 196.782 81.3998 196.782 82.1038C196.782 82.8291 196.515 83.3944 195.982 83.7998C195.459 84.1944 194.643 84.3918 193.534 84.3918H189.71ZM190.814 83.4958H193.486C194.2 83.4958 194.739 83.3838 195.102 83.1598C195.475 82.9251 195.662 82.5518 195.662 82.0398C195.662 81.5278 195.496 81.1544 195.166 80.9198C194.835 80.6851 194.312 80.5678 193.598 80.5678H190.814V83.4958ZM190.814 79.7198H193.342C193.992 79.7198 194.488 79.5971 194.83 79.3518C195.182 79.1064 195.358 78.7491 195.358 78.2798C195.358 77.8104 195.182 77.4584 194.83 77.2238C194.488 76.9891 193.992 76.8718 193.342 76.8718H190.814V79.7198ZM203.044 84.4718C202.169 84.4718 201.401 84.2904 200.74 83.9278C200.079 83.5544 199.561 83.0478 199.188 82.4078C198.815 81.7571 198.628 81.0158 198.628 80.1838C198.628 79.3518 198.804 78.6158 199.156 77.9758C199.519 77.3358 200.009 76.8344 200.628 76.4718C201.257 76.0984 201.961 75.9118 202.74 75.9118C203.529 75.9118 204.228 76.0931 204.836 76.4558C205.455 76.8078 205.94 77.3091 206.292 77.9598C206.644 78.5998 206.82 79.3411 206.82 80.1838C206.82 80.2371 206.815 80.2958 206.804 80.3598C206.804 80.4131 206.804 80.4718 206.804 80.5358H199.492V79.6878H206.196L205.748 80.0238C205.748 79.4158 205.615 78.8771 205.348 78.4078C205.092 77.9278 204.74 77.5544 204.292 77.2878C203.844 77.0211 203.327 76.8878 202.74 76.8878C202.164 76.8878 201.647 77.0211 201.188 77.2878C200.729 77.5544 200.372 77.9278 200.116 78.4078C199.86 78.8878 199.732 79.4371 199.732 80.0558V80.2318C199.732 80.8718 199.871 81.4371 200.148 81.9278C200.436 82.4078 200.831 82.7864 201.332 83.0638C201.844 83.3304 202.425 83.4638 203.076 83.4638C203.588 83.4638 204.063 83.3731 204.5 83.1918C204.948 83.0104 205.332 82.7331 205.652 82.3598L206.292 83.0958C205.919 83.5438 205.449 83.8851 204.884 84.1198C204.329 84.3544 203.716 84.4718 203.044 84.4718ZM213.111 84.4878C212.428 84.4878 211.82 84.3758 211.287 84.1518C210.764 83.9278 210.316 83.5864 209.943 83.1278C209.569 82.6691 209.287 82.1038 209.095 81.4318C208.903 80.7491 208.807 79.9598 208.807 79.0638C208.807 78.2638 208.881 77.5651 209.031 76.9678C209.18 76.3598 209.388 75.8371 209.655 75.3998C209.921 74.9624 210.231 74.5944 210.583 74.2958C210.945 73.9864 211.335 73.7411 211.751 73.5598C212.177 73.3678 212.615 73.2238 213.063 73.1278L216.839 72.2478L217.031 73.3038L213.479 74.1038C213.255 74.1571 212.983 74.2318 212.663 74.3278C212.353 74.4238 212.033 74.5678 211.703 74.7598C211.383 74.9518 211.084 75.2184 210.807 75.5598C210.529 75.9011 210.305 76.3438 210.135 76.8878C209.975 77.4211 209.895 78.0878 209.895 78.8878C209.895 79.0584 209.9 79.1971 209.911 79.3038C209.921 79.3998 209.932 79.5064 209.943 79.6238C209.964 79.7304 209.98 79.8904 209.991 80.1038L209.495 79.6878C209.612 79.0371 209.852 78.4718 210.215 77.9918C210.577 77.5011 211.031 77.1224 211.575 76.8558C212.129 76.5784 212.743 76.4398 213.415 76.4398C214.193 76.4398 214.887 76.6104 215.495 76.9518C216.103 77.2824 216.577 77.7464 216.919 78.3438C217.271 78.9411 217.447 79.6344 217.447 80.4238C217.447 81.2024 217.265 81.9011 216.903 82.5198C216.551 83.1384 216.049 83.6238 215.399 83.9758C214.748 84.3171 213.985 84.4878 213.111 84.4878ZM213.239 83.5438C213.836 83.5438 214.364 83.4104 214.823 83.1438C215.281 82.8664 215.639 82.4931 215.895 82.0238C216.161 81.5544 216.295 81.0264 216.295 80.4398C216.295 79.8638 216.161 79.3518 215.895 78.9038C215.639 78.4558 215.281 78.1038 214.823 77.8478C214.364 77.5811 213.831 77.4478 213.223 77.4478C212.625 77.4478 212.097 77.5758 211.639 77.8318C211.18 78.0771 210.817 78.4238 210.551 78.8718C210.295 79.3198 210.167 79.8371 210.167 80.4238C210.167 81.0104 210.295 81.5384 210.551 82.0078C210.817 82.4771 211.18 82.8504 211.639 83.1278C212.108 83.4051 212.641 83.5438 213.239 83.5438ZM219.382 80.5518V79.5598H223.574V80.5518H219.382ZM230.048 84.4878C229.365 84.4878 228.757 84.3758 228.224 84.1518C227.701 83.9278 227.253 83.5864 226.88 83.1278C226.507 82.6691 226.224 82.1038 226.032 81.4318C225.84 80.7491 225.744 79.9598 225.744 79.0638C225.744 78.2638 225.819 77.5651 225.968 76.9678C226.117 76.3598 226.325 75.8371 226.592 75.3998C226.859 74.9624 227.168 74.5944 227.52 74.2958C227.883 73.9864 228.272 73.7411 228.688 73.5598C229.115 73.3678 229.552 73.2238 230 73.1278L233.776 72.2478L233.968 73.3038L230.416 74.1038C230.192 74.1571 229.92 74.2318 229.6 74.3278C229.291 74.4238 228.971 74.5678 228.64 74.7598C228.32 74.9518 228.021 75.2184 227.744 75.5598C227.467 75.9011 227.243 76.3438 227.072 76.8878C226.912 77.4211 226.832 78.0878 226.832 78.8878C226.832 79.0584 226.837 79.1971 226.848 79.3038C226.859 79.3998 226.869 79.5064 226.88 79.6238C226.901 79.7304 226.917 79.8904 226.928 80.1038L226.432 79.6878C226.549 79.0371 226.789 78.4718 227.152 77.9918C227.515 77.5011 227.968 77.1224 228.512 76.8558C229.067 76.5784 229.68 76.4398 230.352 76.4398C231.131 76.4398 231.824 76.6104 232.432 76.9518C233.04 77.2824 233.515 77.7464 233.856 78.3438C234.208 78.9411 234.384 79.6344 234.384 80.4238C234.384 81.2024 234.203 81.9011 233.84 82.5198C233.488 83.1384 232.987 83.6238 232.336 83.9758C231.685 84.3171 230.923 84.4878 230.048 84.4878ZM230.176 83.5438C230.773 83.5438 231.301 83.4104 231.76 83.1438C232.219 82.8664 232.576 82.4931 232.832 82.0238C233.099 81.5544 233.232 81.0264 233.232 80.4398C233.232 79.8638 233.099 79.3518 232.832 78.9038C232.576 78.4558 232.219 78.1038 231.76 77.8478C231.301 77.5811 230.768 77.4478 230.16 77.4478C229.563 77.4478 229.035 77.5758 228.576 77.8318C228.117 78.0771 227.755 78.4238 227.488 78.8718C227.232 79.3198 227.104 79.8371 227.104 80.4238C227.104 81.0104 227.232 81.5384 227.488 82.0078C227.755 82.4771 228.117 82.8504 228.576 83.1278C229.045 83.4051 229.579 83.5438 230.176 83.5438ZM241.155 84.4718C240.43 84.4718 239.774 84.3064 239.187 83.9758C238.6 83.6344 238.131 83.1491 237.779 82.5198C237.438 81.8798 237.267 81.1011 237.267 80.1838C237.267 79.2664 237.438 78.4931 237.779 77.8638C238.12 77.2238 238.584 76.7384 239.171 76.4078C239.758 76.0771 240.419 75.9118 241.155 75.9118C241.955 75.9118 242.67 76.0931 243.299 76.4558C243.939 76.8078 244.44 77.3091 244.803 77.9598C245.166 78.5998 245.347 79.3411 245.347 80.1838C245.347 81.0371 245.166 81.7838 244.803 82.4238C244.44 83.0638 243.939 83.5651 243.299 83.9278C242.67 84.2904 241.955 84.4718 241.155 84.4718ZM236.819 87.4958V75.9918H237.907V78.5198L237.795 80.1998L237.955 81.8958V87.4958H236.819ZM241.075 83.4638C241.672 83.4638 242.206 83.3304 242.675 83.0638C243.144 82.7864 243.518 82.4024 243.795 81.9118C244.072 81.4104 244.211 80.8344 244.211 80.1838C244.211 79.5331 244.072 78.9624 243.795 78.4718C243.518 77.9811 243.144 77.5971 242.675 77.3198C242.206 77.0424 241.672 76.9038 241.075 76.9038C240.478 76.9038 239.939 77.0424 239.459 77.3198C238.99 77.5971 238.616 77.9811 238.339 78.4718C238.072 78.9624 237.939 79.5331 237.939 80.1838C237.939 80.8344 238.072 81.4104 238.339 81.9118C238.616 82.4024 238.99 82.7864 239.459 83.0638C239.939 83.3304 240.478 83.4638 241.075 83.4638ZM252.957 84.3918V82.5358L252.909 82.2318V79.1278C252.909 78.4131 252.706 77.8638 252.301 77.4798C251.906 77.0958 251.314 76.9038 250.525 76.9038C249.981 76.9038 249.464 76.9944 248.973 77.1758C248.482 77.3571 248.066 77.5971 247.725 77.8958L247.213 77.0478C247.64 76.6851 248.152 76.4078 248.749 76.2158C249.346 76.0131 249.976 75.9118 250.637 75.9118C251.725 75.9118 252.562 76.1838 253.149 76.7278C253.746 77.2611 254.045 78.0771 254.045 79.1758V84.3918H252.957ZM250.061 84.4718C249.432 84.4718 248.882 84.3704 248.413 84.1678C247.954 83.9544 247.602 83.6664 247.357 83.3038C247.112 82.9304 246.989 82.5038 246.989 82.0238C246.989 81.5864 247.09 81.1918 247.293 80.8398C247.506 80.4771 247.848 80.1891 248.317 79.9758C248.797 79.7518 249.437 79.6398 250.237 79.6398H253.133V80.4878H250.269C249.458 80.4878 248.893 80.6318 248.573 80.9198C248.264 81.2078 248.109 81.5651 248.109 81.9918C248.109 82.4718 248.296 82.8558 248.669 83.1438C249.042 83.4318 249.565 83.5758 250.237 83.5758C250.877 83.5758 251.426 83.4318 251.885 83.1438C252.354 82.8451 252.696 82.4184 252.909 81.8638L253.165 82.6478C252.952 83.2024 252.578 83.6451 252.045 83.9758C251.522 84.3064 250.861 84.4718 250.061 84.4718ZM257.213 87.5758C256.818 87.5758 256.44 87.5118 256.077 87.3838C255.725 87.2558 255.421 87.0638 255.165 86.8078L255.693 85.9598C255.906 86.1624 256.136 86.3171 256.381 86.4238C256.637 86.5411 256.92 86.5998 257.229 86.5998C257.602 86.5998 257.922 86.4931 258.189 86.2798C258.466 86.0771 258.728 85.7144 258.973 85.1918L259.517 83.9598L259.645 83.7838L263.101 75.9918H264.221L260.013 85.3998C259.778 85.9438 259.517 86.3758 259.229 86.6958C258.952 87.0158 258.648 87.2398 258.317 87.3678C257.986 87.5064 257.618 87.5758 257.213 87.5758ZM259.453 84.6318L255.581 75.9918H256.765L260.189 83.7038L259.453 84.6318ZM268.028 84.4878C268.721 84.4878 269.345 84.3811 269.9 84.1678C270.465 83.9544 270.913 83.6611 271.244 83.2878C271.575 82.9038 271.74 82.4611 271.74 81.9598C271.74 81.3198 271.468 80.8131 270.924 80.4398C270.391 80.0664 269.644 79.8798 268.684 79.8798L268.636 80.1838C269.18 80.1838 269.665 80.0984 270.092 79.9278C270.519 79.7571 270.86 79.5171 271.116 79.2078C271.372 78.8984 271.5 78.5358 271.5 78.1198C271.5 77.6504 271.34 77.2504 271.02 76.9198C270.7 76.5784 270.268 76.3171 269.724 76.1358C269.191 75.9544 268.588 75.8744 267.916 75.8958C267.425 75.8958 266.935 75.9651 266.444 76.1038C265.964 76.2318 265.479 76.4238 264.988 76.6798L265.308 77.5598C265.745 77.3358 266.188 77.1704 266.636 77.0638C267.084 76.9464 267.516 76.8824 267.932 76.8718C268.391 76.8718 268.801 76.9251 269.164 77.0318C269.527 77.1384 269.809 77.2984 270.012 77.5118C270.225 77.7251 270.332 77.9811 270.332 78.2798C270.332 78.5571 270.241 78.7971 270.06 78.9998C269.889 79.2024 269.644 79.3571 269.324 79.4638C269.004 79.5704 268.636 79.6238 268.22 79.6238H266.86V80.4558H268.3C269.004 80.4558 269.559 80.5838 269.964 80.8398C270.369 81.0851 270.572 81.4318 270.572 81.8798C270.572 82.1891 270.465 82.4664 270.252 82.7118C270.039 82.9571 269.74 83.1491 269.356 83.2878C268.972 83.4264 268.519 83.5011 267.996 83.5118C267.473 83.5118 266.945 83.4371 266.412 83.2878C265.879 83.1278 265.409 82.8984 265.004 82.5998L264.636 83.4478C265.095 83.7998 265.623 84.0611 266.22 84.2318C266.817 84.4024 267.42 84.4878 268.028 84.4878ZM277.919 84.4718C277.044 84.4718 276.276 84.2904 275.615 83.9278C274.954 83.5544 274.436 83.0478 274.063 82.4078C273.69 81.7571 273.503 81.0158 273.503 80.1838C273.503 79.3518 273.679 78.6158 274.031 77.9758C274.394 77.3358 274.884 76.8344 275.503 76.4718C276.132 76.0984 276.836 75.9118 277.615 75.9118C278.404 75.9118 279.103 76.0931 279.711 76.4558C280.33 76.8078 280.815 77.3091 281.167 77.9598C281.519 78.5998 281.695 79.3411 281.695 80.1838C281.695 80.2371 281.69 80.2958 281.679 80.3598C281.679 80.4131 281.679 80.4718 281.679 80.5358H274.367V79.6878H281.071L280.623 80.0238C280.623 79.4158 280.49 78.8771 280.223 78.4078C279.967 77.9278 279.615 77.5544 279.167 77.2878C278.719 77.0211 278.202 76.8878 277.615 76.8878C277.039 76.8878 276.522 77.0211 276.063 77.2878C275.604 77.5544 275.247 77.9278 274.991 78.4078C274.735 78.8878 274.607 79.4371 274.607 80.0558V80.2318C274.607 80.8718 274.746 81.4371 275.023 81.9278C275.311 82.4078 275.706 82.7864 276.207 83.0638C276.719 83.3304 277.3 83.4638 277.951 83.4638C278.463 83.4638 278.938 83.3731 279.375 83.1918C279.823 83.0104 280.207 82.7331 280.527 82.3598L281.167 83.0958C280.794 83.5438 280.324 83.8851 279.759 84.1198C279.204 84.3544 278.591 84.4718 277.919 84.4718ZM288.546 84.4718C287.82 84.4718 287.164 84.3064 286.578 83.9758C285.991 83.6344 285.522 83.1491 285.17 82.5198C284.828 81.8798 284.658 81.1011 284.658 80.1838C284.658 79.2664 284.828 78.4931 285.17 77.8638C285.511 77.2238 285.975 76.7384 286.562 76.4078C287.148 76.0771 287.81 75.9118 288.546 75.9118C289.346 75.9118 290.06 76.0931 290.69 76.4558C291.33 76.8078 291.831 77.3091 292.194 77.9598C292.556 78.5998 292.738 79.3411 292.738 80.1838C292.738 81.0371 292.556 81.7838 292.194 82.4238C291.831 83.0638 291.33 83.5651 290.69 83.9278C290.06 84.2904 289.346 84.4718 288.546 84.4718ZM284.21 87.4958V75.9918H285.298V78.5198L285.186 80.1998L285.346 81.8958V87.4958H284.21ZM288.466 83.4638C289.063 83.4638 289.596 83.3304 290.066 83.0638C290.535 82.7864 290.908 82.4024 291.186 81.9118C291.463 81.4104 291.602 80.8344 291.602 80.1838C291.602 79.5331 291.463 78.9624 291.186 78.4718C290.908 77.9811 290.535 77.5971 290.066 77.3198C289.596 77.0424 289.063 76.9038 288.466 76.9038C287.868 76.9038 287.33 77.0424 286.85 77.3198C286.38 77.5971 286.007 77.9811 285.73 78.4718C285.463 78.9624 285.33 79.5331 285.33 80.1838C285.33 80.8344 285.463 81.4104 285.73 81.9118C286.007 82.4024 286.38 82.7864 286.85 83.0638C287.33 83.3304 287.868 83.4638 288.466 83.4638ZM52.8228 106.392L49.3668 102.232L50.3108 101.672L54.1668 106.392H52.8228ZM46.6628 106.392V97.9918H47.7988V106.392H46.6628ZM47.4468 102.648V101.672H50.1508V102.648H47.4468ZM50.4068 102.312L49.3508 102.152L52.6948 97.9918H53.9268L50.4068 102.312ZM59.1188 106.472C58.3081 106.472 57.5774 106.29 56.9268 105.928C56.2868 105.554 55.7801 105.048 55.4068 104.408C55.0334 103.757 54.8468 103.016 54.8468 102.184C54.8468 101.341 55.0334 100.6 55.4068 99.9598C55.7801 99.3198 56.2868 98.8184 56.9268 98.4558C57.5668 98.0931 58.2974 97.9118 59.1188 97.9118C59.9508 97.9118 60.6868 98.0931 61.3268 98.4558C61.9774 98.8184 62.4841 99.3198 62.8468 99.9598C63.2201 100.6 63.4068 101.341 63.4068 102.184C63.4068 103.016 63.2201 103.757 62.8468 104.408C62.4841 105.048 61.9774 105.554 61.3268 105.928C60.6761 106.29 59.9401 106.472 59.1188 106.472ZM59.1188 105.464C59.7268 105.464 60.2654 105.33 60.7348 105.064C61.2041 104.786 61.5721 104.402 61.8388 103.912C62.1161 103.41 62.2548 102.834 62.2548 102.184C62.2548 101.522 62.1161 100.946 61.8388 100.456C61.5721 99.9651 61.2041 99.5864 60.7348 99.3198C60.2654 99.0424 59.7321 98.9038 59.1348 98.9038C58.5374 98.9038 58.0041 99.0424 57.5348 99.3198C57.0654 99.5864 56.6921 99.9651 56.4148 100.456C56.1374 100.946 55.9988 101.522 55.9988 102.184C55.9988 102.834 56.1374 103.41 56.4148 103.912C56.6921 104.402 57.0654 104.786 57.5348 105.064C58.0041 105.33 58.5321 105.464 59.1188 105.464ZM65.8346 106.392V97.9918H66.9866L70.7946 104.44H70.3146L74.1866 97.9918H75.2426V106.392H74.2026V99.2878L74.4106 99.3838L70.7946 105.368H70.2826L66.6346 99.3198L66.8746 99.2718V106.392H65.8346ZM78.4753 106.392V97.9918H86.0273V106.392H84.8913V98.6798L85.1793 98.9838H79.3233L79.6113 98.6798V106.392H78.4753ZM94.4725 106.392V104.536L94.4245 104.232V101.128C94.4245 100.413 94.2218 99.8638 93.8165 99.4798C93.4218 99.0958 92.8298 98.9038 92.0405 98.9038C91.4965 98.9038 90.9792 98.9944 90.4885 99.1758C89.9978 99.3571 89.5818 99.5971 89.2405 99.8958L88.7285 99.0478C89.1552 98.6851 89.6672 98.4078 90.2645 98.2158C90.8618 98.0131 91.4912 97.9118 92.1525 97.9118C93.2405 97.9118 94.0778 98.1838 94.6645 98.7278C95.2618 99.2611 95.5605 100.077 95.5605 101.176V106.392H94.4725ZM91.5765 106.472C90.9472 106.472 90.3978 106.37 89.9285 106.168C89.4698 105.954 89.1178 105.666 88.8725 105.304C88.6272 104.93 88.5045 104.504 88.5045 104.024C88.5045 103.586 88.6058 103.192 88.8085 102.84C89.0218 102.477 89.3632 102.189 89.8325 101.976C90.3125 101.752 90.9525 101.64 91.7525 101.64H94.6485V102.488H91.7845C90.9738 102.488 90.4085 102.632 90.0885 102.92C89.7792 103.208 89.6245 103.565 89.6245 103.992C89.6245 104.472 89.8112 104.856 90.1845 105.144C90.5578 105.432 91.0805 105.576 91.7525 105.576C92.3925 105.576 92.9418 105.432 93.4005 105.144C93.8698 104.845 94.2112 104.418 94.4245 103.864L94.6805 104.648C94.4672 105.202 94.0938 105.645 93.5605 105.976C93.0378 106.306 92.3765 106.472 91.5765 106.472ZM98.5846 106.392V97.9918H99.7206V101.704H105.017V97.9918H106.153V106.392H105.017V102.68H99.7206V106.392H98.5846ZM109.382 106.392V97.9918H110.518V104.664L116.134 97.9918H117.142V106.392H116.006V99.7038L110.406 106.392H109.382ZM120.397 106.392V97.9918H121.533V104.664L127.149 97.9918H128.157V106.392H127.021V99.7038L121.421 106.392H120.397ZM135.808 106.392V95.1918H136.784L141.904 103.928H141.392L146.464 95.1918H147.44V106.392H146.304V96.9678H146.576L141.904 104.968H141.344L136.64 96.9678H136.944V106.392H135.808ZM154.274 106.472C153.463 106.472 152.732 106.29 152.082 105.928C151.442 105.554 150.935 105.048 150.562 104.408C150.188 103.757 150.002 103.016 150.002 102.184C150.002 101.341 150.188 100.6 150.562 99.9598C150.935 99.3198 151.442 98.8184 152.082 98.4558C152.722 98.0931 153.452 97.9118 154.274 97.9118C155.106 97.9118 155.842 98.0931 156.482 98.4558C157.132 98.8184 157.639 99.3198 158.002 99.9598C158.375 100.6 158.562 101.341 158.562 102.184C158.562 103.016 158.375 103.757 158.002 104.408C157.639 105.048 157.132 105.554 156.482 105.928C155.831 106.29 155.095 106.472 154.274 106.472ZM154.274 105.464C154.882 105.464 155.42 105.33 155.89 105.064C156.359 104.786 156.727 104.402 156.994 103.912C157.271 103.41 157.41 102.834 157.41 102.184C157.41 101.522 157.271 100.946 156.994 100.456C156.727 99.9651 156.359 99.5864 155.89 99.3198C155.42 99.0424 154.887 98.9038 154.29 98.9038C153.692 98.9038 153.159 99.0424 152.69 99.3198C152.22 99.5864 151.847 99.9651 151.57 100.456C151.292 100.946 151.154 101.522 151.154 102.184C151.154 102.834 151.292 103.41 151.57 103.912C151.847 104.402 152.22 104.786 152.69 105.064C153.159 105.33 153.687 105.464 154.274 105.464ZM165.217 106.472C164.481 106.472 163.819 106.306 163.233 105.976C162.646 105.634 162.182 105.144 161.841 104.504C161.499 103.864 161.329 103.09 161.329 102.184C161.329 101.266 161.499 100.493 161.841 99.8638C162.193 99.2238 162.662 98.7384 163.249 98.4078C163.835 98.0771 164.491 97.9118 165.217 97.9118C166.017 97.9118 166.731 98.0931 167.361 98.4558C168.001 98.8078 168.502 99.3038 168.865 99.9438C169.227 100.584 169.409 101.33 169.409 102.184C169.409 103.026 169.227 103.773 168.865 104.424C168.502 105.064 168.001 105.565 167.361 105.928C166.731 106.29 166.017 106.472 165.217 106.472ZM160.881 106.392V94.5198H162.017V100.472L161.857 102.168L161.969 103.864V106.392H160.881ZM165.137 105.464C165.734 105.464 166.267 105.33 166.737 105.064C167.206 104.786 167.579 104.402 167.857 103.912C168.134 103.41 168.273 102.834 168.273 102.184C168.273 101.522 168.134 100.946 167.857 100.456C167.579 99.9651 167.206 99.5864 166.737 99.3198C166.267 99.0424 165.734 98.9038 165.137 98.9038C164.539 98.9038 164.001 99.0424 163.521 99.3198C163.051 99.5864 162.678 99.9651 162.401 100.456C162.134 100.946 162.001 101.522 162.001 102.184C162.001 102.834 162.134 103.41 162.401 103.912C162.678 104.402 163.051 104.786 163.521 105.064C164.001 105.33 164.539 105.464 165.137 105.464ZM175.149 106.472C174.338 106.472 173.607 106.29 172.957 105.928C172.317 105.554 171.81 105.048 171.437 104.408C171.063 103.757 170.877 103.016 170.877 102.184C170.877 101.341 171.063 100.6 171.437 99.9598C171.81 99.3198 172.317 98.8184 172.957 98.4558C173.597 98.0931 174.327 97.9118 175.149 97.9118C175.981 97.9118 176.717 98.0931 177.357 98.4558C178.007 98.8184 178.514 99.3198 178.877 99.9598C179.25 100.6 179.437 101.341 179.437 102.184C179.437 103.016 179.25 103.757 178.877 104.408C178.514 105.048 178.007 105.554 177.357 105.928C176.706 106.29 175.97 106.472 175.149 106.472ZM175.149 105.464C175.757 105.464 176.295 105.33 176.765 105.064C177.234 104.786 177.602 104.402 177.869 103.912C178.146 103.41 178.285 102.834 178.285 102.184C178.285 101.522 178.146 100.946 177.869 100.456C177.602 99.9651 177.234 99.5864 176.765 99.3198C176.295 99.0424 175.762 98.9038 175.165 98.9038C174.567 98.9038 174.034 99.0424 173.565 99.3198C173.095 99.5864 172.722 99.9651 172.445 100.456C172.167 100.946 172.029 101.522 172.029 102.184C172.029 102.834 172.167 103.41 172.445 103.912C172.722 104.402 173.095 104.786 173.565 105.064C174.034 105.33 174.562 105.464 175.149 105.464ZM182.828 106.392V96.2158H178.892V95.1918H187.948V96.2158H184.012V106.392H182.828ZM194.395 106.392V104.536L194.347 104.232V101.128C194.347 100.413 194.144 99.8638 193.739 99.4798C193.344 99.0958 192.752 98.9038 191.963 98.9038C191.419 98.9038 190.901 98.9944 190.411 99.1758C189.92 99.3571 189.504 99.5971 189.163 99.8958L188.651 99.0478C189.077 98.6851 189.589 98.4078 190.187 98.2158C190.784 98.0131 191.413 97.9118 192.075 97.9118C193.163 97.9118 194 98.1838 194.587 98.7278C195.184 99.2611 195.483 100.077 195.483 101.176V106.392H194.395ZM191.499 106.472C190.869 106.472 190.32 106.37 189.851 106.168C189.392 105.954 189.04 105.666 188.795 105.304C188.549 104.93 188.427 104.504 188.427 104.024C188.427 103.586 188.528 103.192 188.731 102.84C188.944 102.477 189.285 102.189 189.755 101.976C190.235 101.752 190.875 101.64 191.675 101.64H194.571V102.488H191.707C190.896 102.488 190.331 102.632 190.011 102.92C189.701 103.208 189.547 103.565 189.547 103.992C189.547 104.472 189.733 104.856 190.107 105.144C190.48 105.432 191.003 105.576 191.675 105.576C192.315 105.576 192.864 105.432 193.323 105.144C193.792 104.845 194.133 104.418 194.347 103.864L194.603 104.648C194.389 105.202 194.016 105.645 193.483 105.976C192.96 106.306 192.299 106.472 191.499 106.472ZM202.904 106.472C202.179 106.472 201.523 106.306 200.936 105.976C200.35 105.634 199.88 105.149 199.528 104.52C199.187 103.88 199.016 103.101 199.016 102.184C199.016 101.266 199.187 100.493 199.528 99.8638C199.87 99.2238 200.334 98.7384 200.92 98.4078C201.507 98.0771 202.168 97.9118 202.904 97.9118C203.704 97.9118 204.419 98.0931 205.048 98.4558C205.688 98.8078 206.19 99.3091 206.552 99.9598C206.915 100.6 207.096 101.341 207.096 102.184C207.096 103.037 206.915 103.784 206.552 104.424C206.19 105.064 205.688 105.565 205.048 105.928C204.419 106.29 203.704 106.472 202.904 106.472ZM198.568 109.496V97.9918H199.656V100.52L199.544 102.2L199.704 103.896V109.496H198.568ZM202.824 105.464C203.422 105.464 203.955 105.33 204.424 105.064C204.894 104.786 205.267 104.402 205.544 103.912C205.822 103.41 205.96 102.834 205.96 102.184C205.96 101.533 205.822 100.962 205.544 100.472C205.267 99.9811 204.894 99.5971 204.424 99.3198C203.955 99.0424 203.422 98.9038 202.824 98.9038C202.227 98.9038 201.688 99.0424 201.208 99.3198C200.739 99.5971 200.366 99.9811 200.088 100.472C199.822 100.962 199.688 101.533 199.688 102.184C199.688 102.834 199.822 103.41 200.088 103.912C200.366 104.402 200.739 104.786 201.208 105.064C201.688 105.33 202.227 105.464 202.824 105.464ZM213.84 106.392V95.1918H215.024V106.392H213.84ZM222.716 97.9118C223.398 97.9118 223.996 98.0451 224.508 98.3118C225.03 98.5678 225.436 98.9624 225.724 99.4958C226.022 100.029 226.172 100.701 226.172 101.512V106.392H225.036V101.624C225.036 100.738 224.812 100.072 224.364 99.6238C223.926 99.1651 223.308 98.9358 222.508 98.9358C221.91 98.9358 221.388 99.0584 220.94 99.3038C220.502 99.5384 220.161 99.8851 219.916 100.344C219.681 100.792 219.564 101.336 219.564 101.976V106.392H218.428V97.9918H219.516V100.296L219.34 99.8638C219.606 99.2558 220.033 98.7811 220.62 98.4398C221.206 98.0878 221.905 97.9118 222.716 97.9118ZM232.728 106.472C231.896 106.472 231.149 106.29 230.488 105.928C229.837 105.554 229.325 105.048 228.952 104.408C228.579 103.757 228.392 103.016 228.392 102.184C228.392 101.341 228.579 100.6 228.952 99.9598C229.325 99.3198 229.837 98.8184 230.488 98.4558C231.149 98.0931 231.896 97.9118 232.728 97.9118C233.443 97.9118 234.088 98.0504 234.664 98.3278C235.24 98.6051 235.693 99.0211 236.024 99.5758L235.176 100.152C234.888 99.7251 234.531 99.4104 234.104 99.2078C233.677 99.0051 233.213 98.9038 232.712 98.9038C232.115 98.9038 231.576 99.0424 231.096 99.3198C230.616 99.5864 230.237 99.9651 229.96 100.456C229.683 100.946 229.544 101.522 229.544 102.184C229.544 102.845 229.683 103.421 229.96 103.912C230.237 104.402 230.616 104.786 231.096 105.064C231.576 105.33 232.115 105.464 232.712 105.464C233.213 105.464 233.677 105.362 234.104 105.16C234.531 104.957 234.888 104.648 235.176 104.232L236.024 104.808C235.693 105.352 235.24 105.768 234.664 106.056C234.088 106.333 233.443 106.472 232.728 106.472ZM238.68 106.472C238.446 106.472 238.243 106.386 238.072 106.216C237.912 106.045 237.832 105.837 237.832 105.592C237.832 105.336 237.912 105.128 238.072 104.968C238.243 104.808 238.446 104.728 238.68 104.728C238.915 104.728 239.112 104.808 239.272 104.968C239.443 105.128 239.528 105.336 239.528 105.592C239.528 105.837 239.443 106.045 239.272 106.216C239.112 106.386 238.915 106.472 238.68 106.472Z" fill="#485064"/>
<rect x="22.0468" y="1" width="299" height="133.392" rx="19" stroke="url(#paint1_linear_123_11527)" stroke-opacity="0.1" stroke-width="2" shape-rendering="crispEdges"/>
</g>
<defs>
<filter id="filter0_bdddd_123_11527" x="-8.95325" y="-30" width="361" height="225.83" filterUnits="userSpaceOnUse" color-interpolation-filters="sRGB">
<feFlood flood-opacity="0" result="BackgroundImageFix"/>
<feGaussianBlur in="BackgroundImageFix" stdDeviation="15"/>
<feComposite in2="SourceAlpha" operator="in" result="effect1_backgroundBlur_123_11527"/>
<feColorMatrix in="SourceAlpha" type="matrix" values="0 0 0 0 0 0 0 0 0 0 0 0 0 0 0 0 0 0 127 0" result="hardAlpha"/>
<feMorphology radius="19.5615" operator="erode" in="SourceAlpha" result="effect2_dropShadow_123_11527"/>
<feOffset dy="40"/>
<feGaussianBlur stdDeviation="20"/>
<feComposite in2="hardAlpha" operator="out"/>
<feColorMatrix type="matrix" values="0 0 0 0 0.486353 0 0 0 0 0.305882 0 0 0 0 1 0 0 0 0.08 0"/>
<feBlend mode="normal" in2="effect1_backgroundBlur_123_11527" result="effect2_dropShadow_123_11527"/>
<feColorMatrix in="SourceAlpha" type="matrix" values="0 0 0 0 0 0 0 0 0 0 0 0 0 0 0 0 0 0 127 0" result="hardAlpha"/>
<feMorphology radius="9.78077" operator="erode" in="SourceAlpha" result="effect3_dropShadow_123_11527"/>
<feOffset dy="20"/>
<feGaussianBlur stdDeviation="10"/>
<feComposite in2="hardAlpha" operator="out"/>
<feColorMatrix type="matrix" values="0 0 0 0 0.486353 0 0 0 0 0.305882 0 0 0 0 1 0 0 0 0.08 0"/>
<feBlend mode="normal" in2="effect2_dropShadow_123_11527" result="effect3_dropShadow_123_11527"/>
<feColorMatrix in="SourceAlpha" type="matrix" values="0 0 0 0 0 0 0 0 0 0 0 0 0 0 0 0 0 0 127 0" result="hardAlpha"/>
<feMorphology radius="4.89039" operator="erode" in="SourceAlpha" result="effect4_dropShadow_123_11527"/>
<feOffset dy="10"/>
<feGaussianBlur stdDeviation="5"/>
<feComposite in2="hardAlpha" operator="out"/>
<feColorMatrix type="matrix" values="0 0 0 0 0.486353 0 0 0 0 0.305882 0 0 0 0 1 0 0 0 0.08 0"/>
<feBlend mode="normal" in2="effect3_dropShadow_123_11527" result="effect4_dropShadow_123_11527"/>
<feColorMatrix in="SourceAlpha" type="matrix" values="0 0 0 0 0 0 0 0 0 0 0 0 0 0 0 0 0 0 127 0" result="hardAlpha"/>
<feMorphology radius="2.44519" operator="erode" in="SourceAlpha" result="effect5_dropShadow_123_11527"/>
<feOffset dy="5"/>
<feGaussianBlur stdDeviation="2.5"/>
<feComposite in2="hardAlpha" operator="out"/>
<feColorMatrix type="matrix" values="0 0 0 0 0.486353 0 0 0 0 0.305882 0 0 0 0 1 0 0 0 0.08 0"/>
<feBlend mode="normal" in2="effect4_dropShadow_123_11527" result="effect5_dropShadow_123_11527"/>
<feBlend mode="normal" in="SourceGraphic" in2="effect5_dropShadow_123_11527" result="shape"/>
</filter>
<linearGradient id="paint0_linear_123_11527" x1="58.751" y1="24" x2="58.751" y2="51.3918" gradientUnits="userSpaceOnUse">
<stop offset="0.0056" stop-color="#B645EE"/>
<stop offset="1" stop-color="#9B26B6"/>
</linearGradient>
<linearGradient id="paint1_linear_123_11527" x1="172.505" y1="-2.58973e-06" x2="210.449" y2="131.067" gradientUnits="userSpaceOnUse">
<stop stop-color="#F6FCFF"/>
<stop offset="1" stop-color="#7C4EFF"/>
</linearGradient>
</defs>
</svg>
