<svg width="255" height="117" viewBox="0 0 255 117" fill="none" xmlns="http://www.w3.org/2000/svg">
<g filter="url(#filter0_bddd_123_11522)">
<rect x="20.5544" y="0.999969" width="214" height="75.3918" rx="16" fill="url(#paint0_radial_123_11522)" fill-opacity="0.1" shape-rendering="crispEdges"/>
<rect x="20.5544" y="0.999969" width="214" height="75.3918" rx="16" fill="url(#paint1_radial_123_11522)" fill-opacity="0.1" shape-rendering="crispEdges"/>
<rect x="20.5544" y="0.999969" width="214" height="75.3918" rx="16" fill="url(#paint2_radial_123_11522)" fill-opacity="0.1" shape-rendering="crispEdges"/>
<path d="M83.0917 31.44H87.863C90.1447 31.44 91.8734 32.0174 93.0489 33.1709C94.2242 34.3255 94.8121 35.9736 94.8121 38.1154V39.2762C94.8121 41.3909 94.2174 43.0327 93.0278 44.2002C91.8383 45.3682 90.1167 45.9521 87.8627 45.9521H83.0917V31.44ZM85.581 33.6373V43.7543H87.863C89.3011 43.7543 90.3832 43.388 91.1092 42.6558C91.8356 41.9231 92.1981 40.7968 92.1981 39.2762V38.1154C92.1981 36.6096 91.8317 35.4863 91.0988 34.7465C90.3659 34.0077 89.2868 33.6373 87.8627 33.6373H85.581Z" fill="#28334A"/>
<path d="M101.446 46.1387C99.8828 46.1387 98.6626 45.6963 97.7845 44.8119C96.906 43.9274 96.4674 42.6901 96.4674 41.1008V40.4371C96.4674 39.6494 96.5815 38.9449 96.8095 38.3225C97.0376 37.7007 97.3697 37.172 97.8052 36.7368C98.2408 36.3016 98.7629 35.9698 99.3713 35.7416C99.9796 35.5137 100.671 35.3992 101.446 35.3992C103.008 35.3992 104.229 35.8421 105.107 36.7261C105.985 37.6106 106.425 38.8479 106.425 40.4371V41.1008C106.425 41.8886 106.311 42.5931 106.082 43.2155C105.854 43.8373 105.522 44.3659 105.087 44.8012C104.651 45.2364 104.125 45.5682 103.51 45.7963C102.894 46.024 102.206 46.1387 101.446 46.1387ZM101.446 43.8992C102.234 43.8992 102.839 43.6713 103.261 43.2152C103.683 42.7589 103.894 42.0544 103.894 41.1006V40.4369C103.894 39.4973 103.676 38.7958 103.24 38.3329C102.805 37.87 102.206 37.6385 101.446 37.6385C100.658 37.6385 100.052 37.8664 99.631 38.3225C99.2088 38.7788 98.9984 39.4833 98.9984 40.4371V41.1008C98.9984 42.0404 99.2157 42.7419 99.6515 43.2048C100.087 43.6677 100.685 43.8992 101.446 43.8992Z" fill="#28334A"/>
<path d="M109.379 45.0713C108.791 44.4837 108.497 43.6375 108.497 42.5314V31.44H110.904V42.2828C110.904 42.8213 111.021 43.2157 111.256 43.4644C111.491 43.7132 111.851 43.8378 112.335 43.8378H112.854V45.9524H111.899C110.807 45.9521 109.967 45.6582 109.379 45.0713Z" fill="#28334A"/>
<path d="M119.847 46.1388C118.547 46.1388 117.537 45.7307 116.818 44.9152V50.0983H114.412V35.5858H116.299L116.528 36.996C116.887 36.4569 117.347 36.0559 117.907 35.793C118.467 35.5308 119.113 35.399 119.847 35.399C120.441 35.399 120.991 35.5064 121.496 35.7204C122.001 35.9354 122.432 36.2531 122.792 36.6741C123.152 37.0963 123.435 37.6214 123.643 38.2503C123.85 38.8792 123.954 39.6078 123.954 40.4369V41.1006C123.954 41.9298 123.85 42.6554 123.643 43.2774C123.435 43.8992 123.148 44.4249 122.782 44.8531C122.416 45.2818 121.983 45.603 121.485 45.8167C120.987 46.0312 120.441 46.1388 119.847 46.1388ZM119.121 43.8992C119.853 43.8992 120.421 43.6785 120.822 43.2361C121.223 42.7938 121.423 42.0821 121.423 41.1006V40.4369C121.423 39.4832 121.216 38.7787 120.801 38.3223C120.386 37.8665 119.826 37.6383 119.121 37.6383C118.457 37.6383 117.914 37.8662 117.492 38.3223C117.07 38.7787 116.846 39.4421 116.818 40.3129V41.1006C116.818 42.0126 117.036 42.7069 117.471 43.1841C117.907 43.6609 118.457 43.8992 119.121 43.8992Z" fill="#28334A"/>
<path d="M126.025 31.44H128.432V36.4779C129.123 35.7591 130.084 35.3995 131.315 35.3995C132.587 35.3995 133.579 35.7761 134.292 36.5297C135.004 37.2832 135.36 38.4194 135.36 39.94V45.9521H132.954V39.94C132.954 39.1798 132.771 38.606 132.404 38.2192C132.037 37.8324 131.536 37.6387 130.9 37.6387C130.153 37.6387 129.562 37.839 129.127 38.24C128.691 38.6411 128.459 39.173 128.432 39.8361V45.9521H126.025V31.44Z" fill="#28334A"/>
<path d="M139.267 34.3424C138.824 34.3424 138.454 34.1942 138.157 33.8964C137.859 33.5995 137.711 33.2297 137.711 32.7874C137.711 32.345 137.859 31.9754 138.157 31.6782C138.454 31.3813 138.824 31.2323 139.267 31.2323C139.695 31.2323 140.062 31.381 140.366 31.6782C140.67 31.9752 140.822 32.345 140.822 32.7874C140.822 33.2297 140.67 33.5992 140.366 33.8964C140.062 34.1942 139.695 34.3424 139.267 34.3424ZM138.064 35.586H140.47V45.9521H138.064V35.586Z" fill="#28334A"/>
<path d="M143.27 35.5858H145.158L145.344 36.7467C146.118 35.8486 147.19 35.399 148.559 35.399C149.831 35.399 150.824 35.7757 151.536 36.5293C152.248 37.2828 152.604 38.419 152.604 39.9395V45.952H150.198V39.9398C150.198 39.1796 150.014 38.6058 149.647 38.219C149.282 37.8323 148.78 37.6386 148.145 37.6386C147.398 37.6386 146.806 37.8388 146.37 38.2399C145.934 38.6409 145.703 39.1728 145.676 39.836V45.952H143.27V35.5858Z" fill="#28334A"/>
<path d="M161.312 32.7672H160.357C158.78 32.7672 157.992 33.5963 157.992 35.2551V37.9497C157.992 38.572 157.899 39.1283 157.712 39.6186C157.526 40.1101 157.114 40.4932 156.478 40.7697C156.796 40.9219 157.055 41.0945 157.256 41.2881C157.456 41.4819 157.612 41.699 157.722 41.9407C157.833 42.1828 157.905 42.4419 157.94 42.7183C157.975 42.9946 157.992 43.2853 157.992 43.5888V46.2839C157.992 47.9427 158.78 48.7719 160.357 48.7719H161.312V50.0987H160.357C157.813 50.0987 156.54 48.8266 156.54 46.2839V43.5885C156.54 42.8563 156.378 42.3276 156.053 42.0028C155.728 41.6779 155.337 41.4812 154.881 41.4117V40.1267C155.337 40.0577 155.728 39.8605 156.053 39.5357C156.378 39.2108 156.54 38.6824 156.54 37.9494V35.2549C156.54 32.7121 157.813 31.44 160.357 31.44H161.312V32.7672Z" fill="#28334A"/>
<path d="M166.397 46.097C165.36 46.097 164.564 45.8313 164.011 45.299C163.458 44.7671 163.181 44.0311 163.181 43.091C163.181 42.5932 163.261 42.1407 163.42 41.7326C163.579 41.325 163.835 40.9832 164.188 40.7068C164.54 40.4304 164.993 40.2159 165.547 40.0636C166.099 39.9119 166.764 39.8357 167.538 39.8357H169.903V38.9028C169.903 38.1569 169.719 37.6072 169.354 37.2546C168.986 36.9026 168.381 36.7259 167.538 36.7259C166.777 36.7259 166.207 36.8747 165.826 37.1719C165.447 37.4696 165.228 37.8734 165.173 38.3848H163.7C163.728 37.9561 163.825 37.5627 163.99 37.2032C164.156 36.8435 164.398 36.5328 164.717 36.2702C165.035 36.0075 165.429 35.8037 165.899 35.6585C166.369 35.5138 166.915 35.4413 167.538 35.4413C168.769 35.4413 169.698 35.7453 170.328 36.3532C170.957 36.9615 171.272 37.8118 171.272 38.903V45.9521H170.213L170.006 44.0034C169.647 44.6666 169.153 45.1815 168.524 45.5477C167.894 45.9137 167.185 46.097 166.397 46.097ZM166.5 44.8117C166.971 44.8117 167.413 44.7255 167.828 44.5526C168.243 44.38 168.606 44.145 168.917 43.8476C169.228 43.5506 169.47 43.2049 169.644 42.811C169.816 42.4172 169.902 41.9991 169.902 41.5568V41.0802H167.538C166.472 41.0802 165.715 41.2667 165.266 41.6395C164.817 42.0128 164.592 42.4968 164.592 43.091C164.592 43.6161 164.754 44.034 165.08 44.3452C165.405 44.6558 165.878 44.8117 166.5 44.8117Z" fill="#28334A"/>
<path d="M174.693 35.5859H175.75L175.916 37.2861C176.263 36.692 176.729 36.2362 177.317 35.9179C177.904 35.6001 178.585 35.4413 179.36 35.4413C180.549 35.4413 181.486 35.8009 182.171 36.5189C182.856 37.2376 183.197 38.3086 183.197 39.7325V45.9521H181.828V39.7328C181.828 38.7242 181.593 37.9707 181.123 37.4727C180.653 36.975 179.996 36.7262 179.152 36.7262C178.24 36.7262 177.504 36.9889 176.944 37.514C176.383 38.0397 176.089 38.7371 176.062 39.6081V45.9521H174.693V35.5859Z" fill="#28334A"/>
<path d="M185.167 35.5864H187.034V32.6845H188.403V35.5864H191.183V36.8305H188.403V43.0501C188.403 44.1556 188.915 44.7084 189.938 44.7084H191.391V45.9525H189.772C188.874 45.9525 188.192 45.721 187.729 45.2581C187.266 44.7952 187.034 44.1143 187.034 43.2161V36.8308H185.167V35.5864Z" fill="#28334A"/>
<path d="M197.344 45.9524L193.049 35.5863H194.585L198.09 44.2522L201.347 35.5863H202.799L197.198 50.0987H195.746L197.344 45.9524Z" fill="#28334A"/>
<path d="M204.124 48.7713H205.078C206.655 48.7713 207.443 47.9422 207.443 46.2834V43.5882C207.443 42.9664 207.536 42.4102 207.723 41.9192C207.909 41.4292 208.321 41.0452 208.957 40.7688C208.638 40.6171 208.38 40.444 208.18 40.2503C207.979 40.0572 207.823 39.8394 207.713 39.5973C207.602 39.3557 207.53 39.0965 207.496 38.8202C207.461 38.5438 207.443 38.254 207.443 37.9491V35.2546C207.443 33.5957 206.655 32.7666 205.078 32.7666H204.124V31.44H205.078C207.623 31.44 208.896 32.7121 208.896 35.2548V37.9494C208.896 38.6821 209.058 39.2113 209.383 39.5362C209.707 39.8605 210.099 40.0577 210.554 40.1268V41.4117C210.099 41.4813 209.707 41.678 209.383 42.0028C209.058 42.3271 208.896 42.856 208.896 43.5885V46.2836C208.896 48.8264 207.623 50.0984 205.078 50.0984H204.124V48.7713Z" fill="#28334A"/>
<path d="M44.5544 38.6958C44.5544 25 44.5544 25 58.2587 25C71.9629 25 71.9629 25 71.9629 38.6958C71.9629 52.3917 71.9629 52.3917 58.2587 52.3917C44.5544 52.3917 44.5544 52.3917 44.5544 38.6958Z" fill="url(#paint3_linear_123_11522)"/>
<path d="M63.8901 38.1172V39.2835C63.8901 41.3911 63.2937 43.0324 62.1012 44.207C60.9169 45.3733 59.197 45.9524 56.941 45.9524H53.1293C54.1316 45.5204 54.6329 44.5874 54.6329 43.1535V40.9767C54.6329 40.3806 54.7626 39.9572 55.0221 39.6898C55.2902 39.4304 55.6013 39.2748 55.9727 39.2145V38.1783C55.6013 38.1175 55.2902 37.9624 55.0221 37.703C54.7626 37.4351 54.6329 37.0122 54.6329 36.4162V34.2388C54.6329 32.8052 54.1316 31.8722 53.1293 31.4402H56.9407C59.2228 31.4402 60.9514 32.019 62.1267 33.1766C63.3028 34.3248 63.8901 35.9749 63.8901 38.1172Z" fill="white"/>
<rect x="21.0544" y="1.49997" width="213" height="74.3918" rx="15.5" stroke="url(#paint4_linear_123_11522)" stroke-opacity="0.1" shape-rendering="crispEdges"/>
</g>
<defs>
<filter id="filter0_bddd_123_11522" x="-9.44556" y="-29" width="274" height="145.83" filterUnits="userSpaceOnUse" color-interpolation-filters="sRGB">
<feFlood flood-opacity="0" result="BackgroundImageFix"/>
<feGaussianBlur in="BackgroundImageFix" stdDeviation="15"/>
<feComposite in2="SourceAlpha" operator="in" result="effect1_backgroundBlur_123_11522"/>
<feColorMatrix in="SourceAlpha" type="matrix" values="0 0 0 0 0 0 0 0 0 0 0 0 0 0 0 0 0 0 127 0" result="hardAlpha"/>
<feMorphology radius="4.89039" operator="erode" in="SourceAlpha" result="effect2_dropShadow_123_11522"/>
<feOffset dy="5"/>
<feGaussianBlur stdDeviation="5"/>
<feComposite in2="hardAlpha" operator="out"/>
<feColorMatrix type="matrix" values="0 0 0 0 0.0281666 0 0 0 0 0 0 0 0 0 0.108333 0 0 0 0.03 0"/>
<feBlend mode="normal" in2="effect1_backgroundBlur_123_11522" result="effect2_dropShadow_123_11522"/>
<feColorMatrix in="SourceAlpha" type="matrix" values="0 0 0 0 0 0 0 0 0 0 0 0 0 0 0 0 0 0 127 0" result="hardAlpha"/>
<feMorphology radius="9.78077" operator="erode" in="SourceAlpha" result="effect3_dropShadow_123_11522"/>
<feOffset dy="10"/>
<feGaussianBlur stdDeviation="10"/>
<feComposite in2="hardAlpha" operator="out"/>
<feColorMatrix type="matrix" values="0 0 0 0 0.027451 0 0 0 0 0 0 0 0 0 0.109804 0 0 0 0.03 0"/>
<feBlend mode="normal" in2="effect2_dropShadow_123_11522" result="effect3_dropShadow_123_11522"/>
<feColorMatrix in="SourceAlpha" type="matrix" values="0 0 0 0 0 0 0 0 0 0 0 0 0 0 0 0 0 0 127 0" result="hardAlpha"/>
<feMorphology radius="19.5615" operator="erode" in="SourceAlpha" result="effect4_dropShadow_123_11522"/>
<feOffset dy="20"/>
<feGaussianBlur stdDeviation="20"/>
<feComposite in2="hardAlpha" operator="out"/>
<feColorMatrix type="matrix" values="0 0 0 0 0.027451 0 0 0 0 0 0 0 0 0 0.109804 0 0 0 0.03 0"/>
<feBlend mode="normal" in2="effect3_dropShadow_123_11522" result="effect4_dropShadow_123_11522"/>
<feBlend mode="normal" in="SourceGraphic" in2="effect4_dropShadow_123_11522" result="shape"/>
</filter>
<radialGradient id="paint0_radial_123_11522" cx="0" cy="0" r="1" gradientUnits="userSpaceOnUse" gradientTransform="translate(118.695 76.3917) rotate(-102.439) scale(31.641 89.0721)">
<stop stop-color="#00FF19"/>
<stop offset="1" stop-color="#00FF19" stop-opacity="0"/>
</radialGradient>
<radialGradient id="paint1_radial_123_11522" cx="0" cy="0" r="1" gradientUnits="userSpaceOnUse" gradientTransform="translate(20.5544 28.1904) rotate(35.5419) scale(55.2801 138.438)">
<stop stop-color="#7000FE"/>
<stop offset="1" stop-color="#4200FF" stop-opacity="0"/>
</radialGradient>
<radialGradient id="paint2_radial_123_11522" cx="0" cy="0" r="1" gradientUnits="userSpaceOnUse" gradientTransform="translate(218.198 7.17964) rotate(128.23) scale(66.0809 174.798)">
<stop stop-color="#FBD300"/>
<stop offset="1" stop-color="#FFA800" stop-opacity="0"/>
</radialGradient>
<linearGradient id="paint3_linear_123_11522" x1="58.2587" y1="25" x2="58.2587" y2="52.3917" gradientUnits="userSpaceOnUse">
<stop offset="0.0056" stop-color="#B645EE"/>
<stop offset="1" stop-color="#9B26B6"/>
</linearGradient>
<linearGradient id="paint4_linear_123_11522" x1="128.236" y1="0.999968" x2="145.294" y2="76.2326" gradientUnits="userSpaceOnUse">
<stop stop-color="#F6FCFF"/>
<stop offset="1" stop-color="#7C4EFF"/>
</linearGradient>
</defs>
</svg>
