<svg width="16" height="16" viewBox="0 0 16 16" fill="none" xmlns="http://www.w3.org/2000/svg">
    <path d="M7.95956 15.2682C12.1592 15.2682 15.5636 12.0184 15.5636 8.0097C15.5636 4.00095 12.1592 0.751221 7.95956 0.751221C3.75993 0.751221 0.355438 4.00095 0.355438 8.0097C0.355438 12.0184 3.75993 15.2682 7.95956 15.2682Z" fill="#FF492C"/>
    <path d="M11.2517 6.31309H9.95295C9.98793 6.11856 10.1142 6.00969 10.3697 5.88629L10.6084 5.77015C11.0358 5.56111 11.2639 5.32448 11.2639 4.93833C11.2639 4.69591 11.1651 4.50428 10.9688 4.36637C10.7727 4.22846 10.5415 4.16023 10.2708 4.16023C10.0614 4.15787 9.85578 4.21388 9.6792 4.32137C9.50126 4.42589 9.36895 4.56089 9.28683 4.72929L9.66247 5.08931C9.80847 4.80768 10.0199 4.66977 10.2982 4.66977C10.5339 4.66977 10.6784 4.78591 10.6784 4.94705C10.6784 5.08205 10.6084 5.19383 10.3377 5.32448L10.1841 5.39562C9.85105 5.55676 9.61989 5.74113 9.48606 5.95016C9.35222 6.15921 9.28683 6.42197 9.28683 6.73989V6.82698H11.2517V6.31309ZM11.0784 7.41929H8.92791L7.85269 9.19615H10.0031L11.0784 10.9745L12.1536 9.19615L11.0784 7.41929Z" fill="white"/>
    <path d="M8.03533 10.3733C6.66658 10.3733 5.55182 9.30924 5.55182 8.00272C5.55182 6.69619 6.66658 5.6321 8.03533 5.6321L8.88547 3.93507C8.60552 3.88192 8.32075 3.85518 8.03533 3.85522C5.63547 3.85522 3.69034 5.71194 3.69034 8.00272C3.69034 10.2935 5.63547 12.1502 8.03533 12.1502C8.955 12.1519 9.8512 11.8731 10.5934 11.3546L9.65348 9.79847C9.20384 10.1692 8.62949 10.3733 8.03533 10.3733Z" fill="white"/>
</svg>