<svg width="71" height="16" viewBox="0 0 71 16" fill="none" xmlns="http://www.w3.org/2000/svg">
<path d="M6.19781 15.2C4.93115 15.2 3.84448 14.9333 2.93781 14.4C2.03115 13.8533 1.33781 13.0667 0.857813 12.04C0.377813 11.0133 0.137813 9.74667 0.137813 8.24C0.137813 6.64 0.424479 5.28667 0.997813 4.18C1.58448 3.07333 2.39115 2.23333 3.41781 1.66C4.45781 1.08667 5.65115 0.799999 6.99781 0.799999C7.70448 0.799999 8.37781 0.873332 9.01781 1.02C9.67115 1.16667 10.2245 1.39333 10.6778 1.7L9.71781 3.66C9.33115 3.40667 8.91115 3.23333 8.45781 3.14C8.01781 3.03333 7.55115 2.98 7.05781 2.98C5.73781 2.98 4.69115 3.38667 3.91781 4.2C3.14448 5.01333 2.75781 6.21333 2.75781 7.8C2.75781 8.05333 2.76448 8.35333 2.77781 8.7C2.79115 9.03333 2.83781 9.37333 2.91781 9.72L2.11781 8.84C2.35781 8.29333 2.68448 7.84 3.09781 7.48C3.52448 7.10667 4.02448 6.82667 4.59781 6.64C5.18448 6.45333 5.81781 6.36 6.49781 6.36C7.41781 6.36 8.23781 6.54 8.95781 6.9C9.67781 7.24667 10.2511 7.74667 10.6778 8.4C11.1045 9.04 11.3178 9.79333 11.3178 10.66C11.3178 11.58 11.0911 12.38 10.6378 13.06C10.1845 13.74 9.57115 14.2667 8.79781 14.64C8.02448 15.0133 7.15781 15.2 6.19781 15.2ZM6.05781 13.16C6.59115 13.16 7.06448 13.0667 7.47781 12.88C7.89115 12.68 8.21115 12.4 8.43781 12.04C8.67781 11.68 8.79781 11.26 8.79781 10.78C8.79781 10.0467 8.54448 9.46667 8.03781 9.04C7.53115 8.61333 6.85115 8.4 5.99781 8.4C5.43781 8.4 4.94448 8.50667 4.51781 8.72C4.10448 8.92 3.77115 9.2 3.51781 9.56C3.27781 9.92 3.15781 10.3333 3.15781 10.8C3.15781 11.2267 3.27115 11.62 3.49781 11.98C3.72448 12.34 4.05115 12.6267 4.47781 12.84C4.91781 13.0533 5.44448 13.16 6.05781 13.16ZM12.4769 11.82V10.02L19.3769 0.999999H22.1569L15.3569 10.02L14.0569 9.62H25.1569V11.82H12.4769ZM20.1569 15V11.82L20.2369 9.62V6.8H22.6769V15H20.1569ZM32.0911 15.2C30.9844 15.2 29.9844 14.92 29.0911 14.36C28.2111 13.8 27.5178 12.9867 27.0111 11.92C26.5044 10.84 26.2511 9.53333 26.2511 8C26.2511 6.46667 26.5044 5.16667 27.0111 4.1C27.5178 3.02 28.2111 2.2 29.0911 1.64C29.9844 1.08 30.9844 0.799999 32.0911 0.799999C33.2111 0.799999 34.2111 1.08 35.0911 1.64C35.9711 2.2 36.6644 3.02 37.1711 4.1C37.6911 5.16667 37.9511 6.46667 37.9511 8C37.9511 9.53333 37.6911 10.84 37.1711 11.92C36.6644 12.9867 35.9711 13.8 35.0911 14.36C34.2111 14.92 33.2111 15.2 32.0911 15.2ZM32.0911 12.94C32.7444 12.94 33.3111 12.7667 33.7911 12.42C34.2711 12.06 34.6444 11.5133 34.9111 10.78C35.1911 10.0467 35.3311 9.12 35.3311 8C35.3311 6.86667 35.1911 5.94 34.9111 5.22C34.6444 4.48667 34.2711 3.94667 33.7911 3.6C33.3111 3.24 32.7444 3.06 32.0911 3.06C31.4644 3.06 30.9044 3.24 30.4111 3.6C29.9311 3.94667 29.5511 4.48667 29.2711 5.22C29.0044 5.94 28.8711 6.86667 28.8711 8C28.8711 9.12 29.0044 10.0467 29.2711 10.78C29.5511 11.5133 29.9311 12.06 30.4111 12.42C30.9044 12.7667 31.4644 12.94 32.0911 12.94ZM50.002 15.2C48.9087 15.2 47.902 15.0267 46.982 14.68C46.0754 14.32 45.282 13.82 44.602 13.18C43.922 12.5267 43.3954 11.76 43.022 10.88C42.6487 10 42.462 9.04 42.462 8C42.462 6.96 42.6487 6 43.022 5.12C43.3954 4.24 43.922 3.48 44.602 2.84C45.2954 2.18667 46.102 1.68667 47.022 1.34C47.942 0.979999 48.9487 0.799999 50.042 0.799999C51.2287 0.799999 52.2954 0.993332 53.242 1.38C54.202 1.76667 55.0087 2.33333 55.662 3.08L54.022 4.68C53.4754 4.13333 52.882 3.73333 52.242 3.48C51.6154 3.21333 50.922 3.08 50.162 3.08C49.4287 3.08 48.7487 3.2 48.122 3.44C47.4954 3.68 46.9554 4.02 46.502 4.46C46.0487 4.9 45.6954 5.42 45.442 6.02C45.202 6.62 45.082 7.28 45.082 8C45.082 8.70667 45.202 9.36 45.442 9.96C45.6954 10.56 46.0487 11.0867 46.502 11.54C46.9554 11.98 47.4887 12.32 48.102 12.56C48.7154 12.8 49.3954 12.92 50.142 12.92C50.8354 12.92 51.502 12.8133 52.142 12.6C52.7954 12.3733 53.4154 12 54.002 11.48L55.482 13.42C54.7487 14.0067 53.8954 14.4533 52.922 14.76C51.962 15.0533 50.9887 15.2 50.002 15.2ZM53.022 13.08V7.84H55.482V13.42L53.022 13.08ZM64.5913 15.14C63.6846 15.14 62.8779 14.94 62.1712 14.54C61.4646 14.14 60.9046 13.54 60.4913 12.74C60.0913 11.9267 59.8913 10.9 59.8913 9.66C59.8913 8.40667 60.0979 7.38 60.5113 6.58C60.9379 5.78 61.5046 5.18667 62.2113 4.8C62.9313 4.4 63.7246 4.2 64.5913 4.2C65.6446 4.2 66.5713 4.42667 67.3713 4.88C68.1846 5.33333 68.8246 5.96667 69.2913 6.78C69.7713 7.59333 70.0113 8.55333 70.0113 9.66C70.0113 10.7667 69.7713 11.7267 69.2913 12.54C68.8246 13.3533 68.1846 13.9933 67.3713 14.46C66.5713 14.9133 65.6446 15.14 64.5913 15.14ZM58.6713 15V0.159999H61.1713V6.8L60.9713 9.64L61.0513 12.48V15H58.6713ZM64.3113 13C64.9113 13 65.4446 12.8667 65.9113 12.6C66.3913 12.3333 66.7713 11.9467 67.0513 11.44C67.3313 10.9333 67.4713 10.34 67.4713 9.66C67.4713 8.96667 67.3313 8.37333 67.0513 7.88C66.7713 7.37333 66.3913 6.98667 65.9113 6.72C65.4446 6.45333 64.9113 6.32 64.3113 6.32C63.7113 6.32 63.1713 6.45333 62.6913 6.72C62.2113 6.98667 61.8313 7.37333 61.5513 7.88C61.2713 8.37333 61.1313 8.96667 61.1313 9.66C61.1313 10.34 61.2713 10.9333 61.5513 11.44C61.8313 11.9467 62.2113 12.3333 62.6913 12.6C63.1713 12.8667 63.7113 13 64.3113 13Z" fill="#7C4EFF"/>
</svg>
