<svg width="168" height="180" viewBox="0 0 168 180" fill="none" xmlns="http://www.w3.org/2000/svg">
<circle opacity="0.4" cx="84" cy="100" r="80" fill="url(#paint0_linear_0_1)"/>
<circle opacity="0.4" cx="31" cy="12" r="12" fill="url(#paint1_linear_0_1)"/>
<path opacity="0.4" d="M155.492 65.6777C162.4 61.689 162.388 48.7349 155.465 36.7438C148.542 24.7527 137.329 18.2656 130.421 22.2543C123.512 26.243 123.524 39.1971 130.447 51.1882C137.371 63.1792 148.583 69.6664 155.492 65.6777Z" fill="#16E09E"/>
<path d="M150.918 67.0635C148.442 67.0635 145.76 66.2381 142.871 64.5873C133.069 58.9128 125.022 45.0875 125.022 33.6352C125.022 28.0638 126.879 23.9368 130.284 21.9765C133.688 20.0162 138.228 20.4289 143.077 23.2146C152.879 28.8892 160.926 42.7145 160.926 54.1668C160.926 59.7382 159.069 63.8651 155.664 65.8254C154.22 66.754 152.672 67.0635 150.918 67.0635ZM135.03 21.2543C133.379 21.2543 131.831 21.667 130.49 22.3892C127.188 24.2463 125.434 28.2701 125.434 33.7383C125.434 44.9843 133.379 58.7064 143.077 64.2778C147.72 66.9604 152.157 67.373 155.355 65.5159C158.656 63.6588 160.41 59.635 160.41 54.1668C160.41 42.9208 152.466 29.1987 142.768 23.6273C140.085 22.0797 137.403 21.2543 135.03 21.2543Z" fill="#16E09E"/>
<path d="M141.014 72.6356C138.537 72.6356 135.855 71.8102 132.966 70.1594C123.165 64.4848 115.117 50.6595 115.117 39.2072C115.117 33.6358 116.974 29.5088 120.379 27.5485C123.784 25.5882 128.323 26.0009 133.172 28.7866C142.974 34.4612 151.021 48.2865 151.021 59.7388C151.021 65.3102 149.164 69.4372 145.76 71.3975C144.315 72.326 142.768 72.6356 141.014 72.6356ZM125.125 26.8263C123.474 26.8263 121.926 27.239 120.585 27.9612C117.284 29.8184 115.53 33.8421 115.53 39.2072C115.53 50.4531 123.474 64.1753 133.172 69.7467C137.815 72.4292 142.252 72.8419 145.45 70.9848C148.752 69.1276 150.506 65.1039 150.506 59.6356C150.506 48.3897 142.561 34.6675 132.863 29.0961C130.18 27.6517 127.601 26.8263 125.125 26.8263Z" fill="#16E09E"/>
<path d="M111.403 116.382V111.223L117.49 80.5802L111.506 76.866L99.4344 83.5723V123.088C99.4344 125.77 100.466 127.524 101.911 128.143L107.276 131.548L107.895 128.969L108.823 124.326C110.371 122.056 111.403 119.064 111.403 116.382Z" fill="url(#paint2_linear_0_1)"/>
<path d="M111.299 131.341C107.998 133.198 105.315 131.135 105.315 126.802V87.286L117.387 80.5797V120.095C117.387 124.532 114.704 129.484 111.299 131.341Z" fill="url(#paint3_linear_0_1)"/>
<path d="M102.84 104.516L102.634 104.413C102.221 104.206 101.911 104.206 101.705 104.413L100.364 105.238L101.292 105.444C101.292 105.548 101.292 105.548 101.292 105.651V113.286C101.292 114.317 101.911 115.556 102.737 115.968L102.427 117L103.768 116.175C104.078 116.071 104.284 115.556 104.284 114.936V107.302C104.181 106.167 103.562 104.929 102.84 104.516Z" fill="url(#paint4_linear_0_1)"/>
<path opacity="0.3" d="M102.84 104.516L102.634 104.413C102.221 104.206 101.911 104.206 101.705 104.413L100.364 105.238L101.292 105.444C101.292 105.548 101.292 105.548 101.292 105.651V113.286C101.292 114.317 101.911 115.556 102.737 115.968L102.427 117L103.768 116.175C104.078 116.071 104.284 115.556 104.284 114.936V107.302C104.181 106.167 103.562 104.929 102.84 104.516Z" fill="#0F054C"/>
<path d="M101.395 116.69L101.188 116.587C100.363 116.175 99.744 114.936 99.744 113.905V106.27C99.744 105.238 100.363 104.722 101.188 105.135L101.395 105.238C102.22 105.651 102.839 106.889 102.839 107.921V115.555C102.839 116.69 102.22 117.206 101.395 116.69Z" fill="white"/>
<path opacity="0.5" d="M111.3 131.342C114.602 129.485 117.284 124.429 117.284 120.096V87.0802V82.5405L111.507 83.7786L105.935 86.8738L104.697 85.4294L99.5385 87.3897L99.0226 97.8103V98.0166C99.0226 101.215 101.396 103.898 104.491 104.413L105.11 104.517V126.802C105.316 131.135 107.999 133.199 111.3 131.342Z" fill="#120083"/>
<path d="M138.434 64.3816C138.744 54.4769 132.038 42.1992 123.577 37.0405C119.038 34.2548 114.911 34.0484 112.022 36.0088L84.268 51.0722L104.8 89.9687L133.379 74.4927C133.482 74.3895 133.585 74.3895 133.688 74.2863L133.792 74.1831C136.68 72.5323 138.331 69.1276 138.434 64.3816Z" fill="url(#paint5_radial_0_1)"/>
<path opacity="0.3" d="M138.433 64.3818C138.64 58.5008 136.37 51.7945 132.656 46.2231C128.529 48.5961 120.172 53.239 104.489 62.2151C100.568 64.4849 96.8542 66.4452 93.3463 68.096L104.902 89.8657L133.481 74.3896C133.584 74.2865 133.687 74.2865 133.791 74.1833L133.894 74.0801C136.679 72.5325 138.33 69.1278 138.433 64.3818Z" fill="#0F054C"/>
<path d="M109.958 79.7542C109.648 89.6589 102.633 93.4763 94.1723 88.3176C85.712 83.1589 79.1089 70.8812 79.3152 60.9765C79.6247 51.0718 86.6406 47.2544 95.1009 52.4131C103.561 57.5718 110.267 69.8495 109.958 79.7542Z" fill="url(#paint6_radial_0_1)"/>
<path d="M110.166 80.3738C110.476 70.0564 103.563 57.366 94.7932 51.8977C90.7694 49.4216 87.0551 48.9057 84.2694 50.0406H84.1663C84.1663 50.0406 84.1663 50.0406 84.0631 50.0406C83.9599 50.1438 83.8567 50.1438 83.6504 50.2469C66.5235 58.0882 51.1506 57.2628 32.3729 56.0247L27.0079 55.7152L68.3806 131.239L70.8568 126.802C79.833 110.501 89.325 100.905 105.007 90.7943C108.103 89.2467 110.063 85.6356 110.166 80.3738Z" fill="url(#paint7_linear_0_1)"/>
<path opacity="0.3" d="M70.9593 126.802C79.9354 110.5 89.4274 100.905 105.11 90.7939C108.102 89.2463 110.062 85.6352 110.165 80.3734C110.372 74.4924 108.102 67.7861 104.594 62.1116C104.594 62.1116 104.594 62.1116 104.491 62.1116C78.5942 76.8654 63.0149 79.2384 63.0149 79.2384L55.7927 102.143L57.9594 112.254L68.3799 131.238L70.9593 126.802Z" fill="#0F054C"/>
<path d="M73.9533 114.627C74.4691 94.8176 61.2629 70.3654 44.4455 60.048C35.9852 54.8893 28.3504 54.1671 22.5726 57.2623L17.4139 60.1512L19.1679 59.8417C15.4536 63.5559 13.1838 69.4369 12.9774 77.1749C12.4616 96.9843 25.6679 121.437 42.4852 131.754C49.0883 135.778 55.2788 137.119 60.4375 135.984L59.6121 137.119L64.3581 134.54C64.3581 134.54 64.3581 134.54 64.4613 134.54L64.6676 134.436C70.1358 131.238 73.7469 124.429 73.9533 114.627Z" fill="url(#paint8_linear_0_1)"/>
<path d="M70.3422 116.691C70.8581 96.8818 57.6518 72.4296 40.8344 62.1122C32.5805 57.0567 24.9456 56.2313 19.271 59.2233L18.4457 59.636C18.1361 59.8424 17.9298 59.9456 17.6203 60.1519L19.1679 59.8424C15.4536 63.5566 13.1838 69.4376 12.9774 77.1756C12.4616 96.985 25.6679 121.437 42.4852 131.755C49.0883 135.778 55.2788 137.12 60.4375 135.985L59.7152 137.017C65.9057 134.231 70.0327 127.112 70.3422 116.691Z" fill="white"/>
<path d="M69.3088 117.206C68.7929 137.016 54.6581 144.651 37.8407 134.23C21.0233 123.913 7.7139 99.4605 8.33295 79.6511C8.84882 59.8417 22.9837 52.2069 39.801 62.6274C56.6184 73.048 69.8246 97.5002 69.3088 117.206Z" fill="url(#paint9_linear_0_1)"/>
<path d="M65.4927 114.937C64.9769 132.27 52.596 138.976 37.8421 129.897C23.0882 120.818 11.4296 99.3576 11.9454 82.0244C12.4613 64.6911 24.8422 57.9848 39.5961 67.0641C54.3499 76.1435 66.0086 97.6036 65.4927 114.937Z" fill="url(#paint10_radial_0_1)"/>
<path opacity="0.3" d="M42.5865 127.627C40.3166 126.286 38.2532 124.635 36.1897 122.778C31.9596 118.857 31.65 112.254 35.4675 107.921C40.1103 102.865 47.4357 96.0557 58.7848 88.7303C54.0388 79.7542 47.3325 71.7066 39.5944 66.9606C33.0945 62.9368 27.0072 62.0083 22.2612 63.659C22.0549 63.7622 21.9517 63.7622 21.7453 63.8654H21.6422C21.4358 63.9686 21.3326 63.9686 21.1263 64.0717H21.0231C20.8168 64.1749 20.7136 64.2781 20.5072 64.2781C20.0945 64.4844 19.785 64.6908 19.4755 64.8971C19.2692 65.0003 19.166 65.1035 19.0628 65.2067C19.0628 65.2067 18.9596 65.2067 18.9596 65.3098C18.8565 65.413 18.6501 65.5162 18.5469 65.6193L18.4438 65.7225C18.3406 65.8257 18.1342 65.9289 18.0311 66.032C18.0311 66.032 18.0311 66.032 17.9279 66.1352C17.6184 66.4447 17.3089 66.7543 16.9993 67.0638C16.8962 67.167 16.793 67.3733 16.5866 67.4765L16.4835 67.5797C16.3803 67.6828 16.2771 67.786 16.1739 67.9924L16.0708 68.0955C15.9676 68.1987 15.8644 68.405 15.7613 68.5082L15.6581 68.6114C15.5549 68.8177 15.4517 68.9209 15.3485 69.1273C15.2454 69.3336 15.1422 69.54 15.039 69.7463C15.039 69.7463 15.039 69.7463 15.039 69.8495C14.9359 70.0558 14.8327 70.159 14.7295 70.3654C14.7295 70.4685 14.6263 70.4685 14.6263 70.5717C14.5232 70.6749 14.5232 70.8812 14.42 70.9844C14.42 71.0876 14.3168 71.0876 14.3168 71.1907C14.2136 71.2939 14.2136 71.5003 14.1105 71.6034C14.1105 71.7066 14.0073 71.7066 14.0073 71.8098C13.9041 72.0161 13.9041 72.1193 13.8009 72.3257V72.4288C13.6978 72.6352 13.5946 72.8415 13.5946 73.1511V73.2542C13.4914 73.4606 13.4914 73.6669 13.3882 73.8733C13.3882 73.9764 13.3882 73.9764 13.2851 74.0796C13.2851 74.286 13.1819 74.3891 13.1819 74.5955C13.1819 74.6987 13.1819 74.8018 13.0787 74.905C13.0787 75.1114 12.9756 75.2145 12.9756 75.4209C12.9756 75.5241 12.9756 75.6272 12.8724 75.7304C12.8724 75.9367 12.7692 76.1431 12.7692 76.2463C12.7692 76.3494 12.7692 76.3494 12.7692 76.4526C12.666 76.7621 12.666 76.9685 12.666 77.278V77.3812C12.666 77.5875 12.5629 77.8971 12.5629 78.1034C12.5629 78.2066 12.5629 78.3097 12.5629 78.4129C12.5629 78.6193 12.5629 78.8256 12.4597 78.9288C12.4597 79.032 12.4597 79.1351 12.4597 79.2383C12.4597 79.4447 12.4597 79.651 12.3565 79.7542C12.3565 79.8574 12.3565 79.9605 12.3565 80.0637C12.3565 80.2701 12.3565 80.4764 12.3565 80.6828C12.3565 80.7859 12.3565 80.8891 12.3565 80.9923C12.3565 81.3018 12.3565 81.6113 12.3565 81.9208C12.3565 82.4367 12.3565 82.9526 12.3565 83.3653C12.3565 83.5716 12.3565 83.6748 12.3565 83.8811C12.3565 84.1907 12.3565 84.5002 12.3565 84.9129C12.3565 85.1192 12.3565 85.2224 12.3565 85.4288C12.3565 85.8415 12.4597 86.151 12.4597 86.5637C12.4597 86.6668 12.4597 86.77 12.4597 86.9764C12.4597 87.4922 12.5629 87.9049 12.666 88.4208C12.666 88.6272 12.7692 88.8335 12.7692 89.0398C12.7692 89.3494 12.8724 89.6589 12.8724 89.9684C12.8724 90.1748 12.9756 90.4843 12.9756 90.6906C12.9756 91.0002 13.0787 91.2065 13.0787 91.516C13.0787 91.7224 13.1819 92.0319 13.1819 92.2382C13.2851 92.6509 13.3883 93.0636 13.4914 93.3732C13.5946 93.6827 13.6978 94.0954 13.8009 94.4049C13.8009 94.6112 13.9041 94.8176 13.9041 95.0239C14.0073 95.3335 14.1105 95.643 14.2136 95.9525C14.2136 96.1588 14.3168 96.262 14.3168 96.4684C14.6263 97.6033 15.039 98.8414 15.4517 99.9763C15.4517 100.079 15.4517 100.079 15.5549 100.183C15.6581 100.595 15.8644 100.905 15.9676 101.318C15.9676 101.421 16.0708 101.524 16.0708 101.627C20.6104 113.183 28.7612 124.016 38.15 129.897C46.4039 134.952 53.8325 135.159 58.9912 131.238C54.142 132.373 48.5706 131.341 42.5865 127.627Z" fill="#0F054C"/>
<path d="M34.8481 91.8256L53.1101 79.3414C53.1101 79.3414 56.2053 83.9842 58.7846 88.627C61.364 93.2699 62.9116 98.4286 62.9116 98.4286L41.9671 105.445L34.8481 91.8256Z" fill="url(#paint11_linear_0_1)"/>
<path d="M44.0307 101.73C43.9276 105.238 41.4514 106.579 38.4593 104.722C35.4673 102.865 33.1974 98.6349 33.3006 95.127C33.4038 91.6191 35.88 90.2778 38.872 92.135C41.8641 93.9921 44.1339 98.3254 44.0307 101.73Z" fill="url(#paint12_radial_0_1)"/>
<path opacity="0.4" d="M57.0992 132.339C67.9228 126.481 68.4738 106.539 58.3297 87.798C48.1856 69.057 31.1879 58.6138 20.3643 64.4724C9.54066 70.331 8.98974 90.2729 19.1338 109.014C29.2779 127.755 46.2756 138.198 57.0992 132.339Z" fill="#16E09E"/>
<defs>
<linearGradient id="paint0_linear_0_1" x1="30" y1="-3.82031" x2="123" y2="167.18" gradientUnits="userSpaceOnUse">
<stop stop-color="#7C4EFF"/>
<stop offset="0.904355" stop-color="#7C4EFF" stop-opacity="0"/>
</linearGradient>
<linearGradient id="paint1_linear_0_1" x1="22.9" y1="-3.57305" x2="36.85" y2="22.077" gradientUnits="userSpaceOnUse">
<stop stop-color="#7C4EFF"/>
<stop offset="0.904355" stop-color="#7C4EFF" stop-opacity="0"/>
</linearGradient>
<linearGradient id="paint2_linear_0_1" x1="98.8041" y1="103.9" x2="116.76" y2="104.394" gradientUnits="userSpaceOnUse">
<stop stop-color="#CDBCFF"/>
<stop offset="0.2271" stop-color="#BEAAF8"/>
<stop offset="0.6802" stop-color="#8B7CE5"/>
<stop offset="1" stop-color="#6957D7"/>
</linearGradient>
<linearGradient id="paint3_linear_0_1" x1="66.8215" y1="105.043" x2="123.833" y2="106.611" gradientUnits="userSpaceOnUse">
<stop stop-color="#BCBEFF"/>
<stop offset="0.2271" stop-color="#AAADF8"/>
<stop offset="0.6802" stop-color="#7C83E5"/>
<stop offset="1" stop-color="#5761D7"/>
</linearGradient>
<linearGradient id="paint4_linear_0_1" x1="100.233" y1="110.492" x2="104.262" y2="110.492" gradientUnits="userSpaceOnUse">
<stop stop-color="#BCBEFF"/>
<stop offset="0.2271" stop-color="#AAADF8"/>
<stop offset="0.6802" stop-color="#7C83E5"/>
<stop offset="1" stop-color="#5761D7"/>
</linearGradient>
<radialGradient id="paint5_radial_0_1" cx="0" cy="0" r="1" gradientUnits="userSpaceOnUse" gradientTransform="translate(86.3225 34.3684) rotate(1.57587) scale(62.7819 62.7819)">
<stop stop-color="#EDE9FD"/>
<stop offset="0.3601" stop-color="#DED2F9"/>
<stop offset="0.7062" stop-color="#D4C4F7"/>
<stop offset="1" stop-color="#CABFF6"/>
</radialGradient>
<radialGradient id="paint6_radial_0_1" cx="0" cy="0" r="1" gradientUnits="userSpaceOnUse" gradientTransform="translate(94.6302 70.3869) rotate(31.576) scale(17.9812 15.5727)">
<stop stop-color="#F9636B"/>
<stop offset="1" stop-color="#B6246E"/>
</radialGradient>
<linearGradient id="paint7_linear_0_1" x1="60.129" y1="46.2396" x2="89.2227" y2="108.716" gradientUnits="userSpaceOnUse">
<stop stop-color="#C9BCFF"/>
<stop offset="0.1237" stop-color="#CBB4FC"/>
<stop offset="0.3207" stop-color="#A586FD"/>
<stop offset="0.5651" stop-color="#7C4EFF"/>
<stop offset="0.744" stop-color="#5036BA"/>
</linearGradient>
<linearGradient id="paint8_linear_0_1" x1="22.1684" y1="66.6113" x2="68.0682" y2="129.687" gradientUnits="userSpaceOnUse">
<stop stop-color="#C9BCFF"/>
<stop offset="0.2271" stop-color="#C3AAF8"/>
<stop offset="0.6802" stop-color="#5B38C8"/>
<stop offset="1" stop-color="#3D289A"/>
</linearGradient>
<linearGradient id="paint9_linear_0_1" x1="7.70301" y1="97.6161" x2="69.7509" y2="99.3231" gradientUnits="userSpaceOnUse">
<stop stop-color="#E9E9FD"/>
<stop offset="0.3601" stop-color="#D3D2F9"/>
<stop offset="0.7062" stop-color="#C5C4F7"/>
<stop offset="1" stop-color="#C0BFF6"/>
</linearGradient>
<radialGradient id="paint10_radial_0_1" cx="0" cy="0" r="1" gradientUnits="userSpaceOnUse" gradientTransform="translate(53.3975 121.097) rotate(1.57587) scale(70.8754 70.8754)">
<stop stop-color="#BCBEFF"/>
<stop offset="0.2271" stop-color="#AAADF8"/>
<stop offset="0.6802" stop-color="#7C83E5"/>
<stop offset="1" stop-color="#5761D7"/>
</radialGradient>
<linearGradient id="paint11_linear_0_1" x1="34.8315" y1="83.9109" x2="85.3904" y2="83.9109" gradientUnits="userSpaceOnUse">
<stop stop-color="#E9E9FD"/>
<stop offset="0.3601" stop-color="#D3D2F9"/>
<stop offset="0.7062" stop-color="#C5C4F7"/>
<stop offset="1" stop-color="#C0BFF6"/>
</linearGradient>
<radialGradient id="paint12_radial_0_1" cx="0" cy="0" r="1" gradientUnits="userSpaceOnUse" gradientTransform="translate(24.2138 88.014) scale(40.4454 40.4453)">
<stop stop-color="#BCBEFF"/>
<stop offset="0.2271" stop-color="#AAADF8"/>
<stop offset="0.6802" stop-color="#7C83E5"/>
<stop offset="1" stop-color="#5761D7"/>
</radialGradient>
</defs>
</svg>
