<svg width="197" height="115" viewBox="0 0 197 115" fill="none" xmlns="http://www.w3.org/2000/svg">
<g filter="url(#filter0_bddd_123_11533)">
<rect x="20.104" y="0.406677" width="156.492" height="74.5784" rx="16" fill="url(#paint0_radial_123_11533)" fill-opacity="0.1" shape-rendering="crispEdges"/>
<rect x="20.104" y="0.406677" width="156.492" height="74.5784" rx="16" fill="url(#paint1_radial_123_11533)" fill-opacity="0.1" shape-rendering="crispEdges"/>
<rect x="20.104" y="0.406677" width="156.492" height="74.5784" rx="16" fill="url(#paint2_radial_123_11533)" fill-opacity="0.1" shape-rendering="crispEdges"/>
<g clip-path="url(#clip0_123_11533)">
<path d="M85.5345 45.8936C85.3829 45.8936 85.2541 45.8406 85.148 45.7344C85.0418 45.6283 84.9888 45.4995 84.9888 45.3479V30.5212C84.9888 30.3544 85.0418 30.2255 85.148 30.1346C85.2541 30.0284 85.3829 29.9754 85.5345 29.9754H87.6494C87.8161 29.9754 87.945 30.0284 88.036 30.1346C88.1421 30.2255 88.1952 30.3544 88.1952 30.5212V43.1875H95.4038C95.5706 43.1875 95.707 43.2406 95.8132 43.3467C95.9193 43.4528 95.9723 43.5893 95.9723 43.756V45.3479C95.9723 45.5146 95.9193 45.651 95.8132 45.7572C95.707 45.8481 95.5706 45.8936 95.4038 45.8936H85.5345ZM104.097 46.121C102.035 46.121 100.428 45.598 99.2763 44.5519C98.1241 43.5059 97.5177 41.952 97.4571 39.8902C97.4419 39.4505 97.4343 38.8062 97.4343 37.9572C97.4343 37.0931 97.4419 36.4412 97.4571 36.0016C97.5177 33.9852 98.1393 32.4389 99.3218 31.3625C100.504 30.2862 102.096 29.748 104.097 29.748C106.099 29.748 107.69 30.2862 108.873 31.3625C110.07 32.4389 110.7 33.9852 110.76 36.0016C110.791 36.8809 110.806 37.5327 110.806 37.9572C110.806 38.3666 110.791 39.0109 110.76 39.8902C110.684 41.952 110.07 43.5059 108.918 44.5519C107.766 45.598 106.159 46.121 104.097 46.121ZM104.097 43.5059C105.113 43.5059 105.924 43.2027 106.531 42.5963C107.137 41.9747 107.463 41.0347 107.509 39.7765C107.539 38.8669 107.554 38.2529 107.554 37.9345C107.554 37.5858 107.539 36.9718 107.509 36.0925C107.463 34.8343 107.137 33.9019 106.531 33.2955C105.924 32.6739 105.113 32.3631 104.097 32.3631C103.097 32.3631 102.293 32.6739 101.687 33.2955C101.08 33.9019 100.754 34.8343 100.709 36.0925C100.694 36.5322 100.686 37.1462 100.686 37.9345C100.686 38.7077 100.694 39.3217 100.709 39.7765C100.754 41.0347 101.073 41.9747 101.664 42.5963C102.27 43.2027 103.082 43.5059 104.097 43.5059ZM119.977 46.121C117.9 46.121 116.278 45.5828 115.111 44.5065C113.958 43.4301 113.344 41.9292 113.269 40.0039C113.253 39.5642 113.246 38.8593 113.246 37.889C113.246 36.9188 113.253 36.2138 113.269 35.7742C113.344 33.8943 113.966 32.4238 115.133 31.3625C116.316 30.2862 117.93 29.748 119.977 29.748C121.372 29.748 122.569 29.983 123.57 30.4529C124.571 30.9229 125.328 31.5142 125.844 32.2267C126.36 32.9241 126.633 33.6138 126.663 34.2961V34.3415C126.663 34.4628 126.617 34.5689 126.526 34.6599C126.435 34.7357 126.322 34.7736 126.185 34.7736H123.843C123.691 34.7736 123.577 34.7509 123.502 34.7054C123.426 34.6447 123.358 34.5462 123.297 34.4098C123.085 33.8488 122.713 33.3713 122.183 32.9771C121.652 32.5678 120.917 32.3631 119.977 32.3631C118.916 32.3631 118.082 32.6512 117.476 33.2273C116.884 33.8033 116.566 34.6902 116.521 35.8879C116.505 36.3275 116.498 36.9946 116.498 37.889C116.498 38.7683 116.505 39.4354 116.521 39.8902C116.611 42.3006 117.779 43.5059 120.023 43.5059C121.099 43.5059 121.963 43.2178 122.615 42.6418C123.267 42.0505 123.593 41.1788 123.593 40.0266V39.3217H120.818C120.652 39.3217 120.515 39.2686 120.409 39.1625C120.318 39.0563 120.273 38.9199 120.273 38.7532V37.5479C120.273 37.3812 120.318 37.2447 120.409 37.1386C120.515 37.0325 120.652 36.9794 120.818 36.9794H126.253C126.42 36.9794 126.549 37.0325 126.64 37.1386C126.746 37.2447 126.799 37.3812 126.799 37.5479V39.9357C126.799 41.1939 126.519 42.2931 125.958 43.233C125.412 44.1578 124.623 44.8703 123.593 45.3706C122.562 45.8709 121.357 46.121 119.977 46.121ZM130.26 45.8936C130.108 45.8936 129.98 45.8406 129.874 45.7344C129.767 45.6283 129.714 45.4995 129.714 45.3479V30.5212C129.714 30.3544 129.767 30.2255 129.874 30.1346C129.98 30.0284 130.108 29.9754 130.26 29.9754H132.398C132.564 29.9754 132.693 30.0284 132.784 30.1346C132.891 30.2255 132.944 30.3544 132.944 30.5212V45.3479C132.944 45.4995 132.891 45.6283 132.784 45.7344C132.693 45.8406 132.564 45.8936 132.398 45.8936H130.26ZM137.056 45.8936C136.904 45.8936 136.775 45.8406 136.669 45.7344C136.563 45.6283 136.51 45.4995 136.51 45.3479V30.5439C136.51 30.3771 136.555 30.2407 136.646 30.1346C136.753 30.0284 136.889 29.9754 137.056 29.9754H138.807C138.989 29.9754 139.125 30.0133 139.216 30.0891C139.307 30.1497 139.39 30.2331 139.466 30.3392L146.015 40.5269V30.5439C146.015 30.3771 146.061 30.2407 146.152 30.1346C146.258 30.0284 146.394 29.9754 146.561 29.9754H148.471C148.638 29.9754 148.774 30.0284 148.881 30.1346C148.987 30.2407 149.04 30.3771 149.04 30.5439V45.3251C149.04 45.4919 148.987 45.6283 148.881 45.7344C148.774 45.8406 148.646 45.8936 148.494 45.8936H146.72C146.463 45.8936 146.243 45.7724 146.061 45.5298L139.534 35.5695V45.3479C139.534 45.5146 139.481 45.651 139.375 45.7572C139.269 45.8481 139.132 45.8936 138.966 45.8936H137.056Z" fill="#36364F"/>
<path d="M51.5134 46.5929C48.5305 45.9619 46.262 44.168 45.2092 41.6069C44.3695 39.5409 44.3319 36.8561 45.134 34.8643C46.1116 32.3898 48.4929 30.3361 51.175 29.6309C52.4283 29.2968 55.1606 29.334 56.5643 29.7051C57.7675 30.0268 59.284 30.7567 59.9733 31.363C60.4872 31.8207 66.4153 38.4892 67.1298 39.4295C67.769 40.2708 69.298 41.7926 69.9121 42.2132C71.5415 43.3267 72.9577 43.5865 74.5745 43.0916C78.9987 41.7307 79.3621 35.3344 75.126 33.2682C74.5102 32.9741 74.3037 32.8244 73.5959 32.7749C73.4105 32.7619 73.1907 32.7558 72.9201 32.7558C72.5771 32.7558 72.3155 32.7658 72.1014 32.7874C71.5099 32.8471 71.2815 32.9957 70.7017 33.2682C69.1602 33.9858 68.145 35.3591 67.8442 37.1654C67.7564 37.6479 67.7314 38.2542 67.769 38.514C67.8065 38.7862 67.8191 38.9965 67.794 38.9965C67.7188 38.9965 64.4477 35.3962 64.385 35.2354C64.197 34.7653 65.4503 32.8229 66.6159 31.7589C68.5209 30.0144 70.8772 29.2226 73.6094 29.3958C76.1035 29.5443 78.2592 30.5217 79.7757 32.1919C83.6987 36.4726 82.4328 43.2153 77.219 45.8134C75.8779 46.4815 74.7249 46.729 72.9201 46.729C71.0777 46.729 70.2004 46.5434 68.7841 45.8753C67.1674 45.1082 66.7663 44.7247 62.317 39.5532C57.8176 34.3322 57.216 33.7384 55.7872 33.1816C55.1104 32.9218 54.7971 32.8723 53.619 32.8723C52.3155 32.8723 52.1902 32.8971 51.4131 33.2682C50.3854 33.7755 49.5331 34.6415 49.0068 35.755C48.6308 36.5344 48.6057 36.6582 48.6057 38.0067C48.6057 39.6769 48.7436 40.1842 49.4329 41.211C50.0345 42.1142 51.0622 42.8812 52.0523 43.1658C53.5062 43.6112 56.0629 43.3019 56.9904 42.572C57.3163 42.3245 57.3288 42.275 57.2912 41.174L57.2536 40.0481L55.3485 40.011L53.431 39.9738V38.3779V36.7695H56.1632L58.8829 36.7819L59.9231 37.9944L60.9509 39.2191V41.6812V44.1308L60.2239 44.6504C57.8051 46.4196 54.3333 47.1867 51.5134 46.5929Z" fill="#36364F"/>
</g>
<rect x="20.604" y="0.906677" width="155.492" height="73.5784" rx="15.5" stroke="url(#paint3_linear_123_11533)" stroke-opacity="0.1" shape-rendering="crispEdges"/>
</g>
<defs>
<filter id="filter0_bddd_123_11533" x="-4.34792" y="-24.0452" width="205.396" height="138.153" filterUnits="userSpaceOnUse" color-interpolation-filters="sRGB">
<feFlood flood-opacity="0" result="BackgroundImageFix"/>
<feGaussianBlur in="BackgroundImageFix" stdDeviation="12.226"/>
<feComposite in2="SourceAlpha" operator="in" result="effect1_backgroundBlur_123_11533"/>
<feColorMatrix in="SourceAlpha" type="matrix" values="0 0 0 0 0 0 0 0 0 0 0 0 0 0 0 0 0 0 127 0" result="hardAlpha"/>
<feMorphology radius="4.89039" operator="erode" in="SourceAlpha" result="effect2_dropShadow_123_11533"/>
<feOffset dy="4.89039"/>
<feGaussianBlur stdDeviation="4.89039"/>
<feComposite in2="hardAlpha" operator="out"/>
<feColorMatrix type="matrix" values="0 0 0 0 0.0281666 0 0 0 0 0 0 0 0 0 0.108333 0 0 0 0.08 0"/>
<feBlend mode="normal" in2="effect1_backgroundBlur_123_11533" result="effect2_dropShadow_123_11533"/>
<feColorMatrix in="SourceAlpha" type="matrix" values="0 0 0 0 0 0 0 0 0 0 0 0 0 0 0 0 0 0 127 0" result="hardAlpha"/>
<feMorphology radius="9.78077" operator="erode" in="SourceAlpha" result="effect3_dropShadow_123_11533"/>
<feOffset dy="9.78077"/>
<feGaussianBlur stdDeviation="9.78077"/>
<feComposite in2="hardAlpha" operator="out"/>
<feColorMatrix type="matrix" values="0 0 0 0 0.027451 0 0 0 0 0 0 0 0 0 0.109804 0 0 0 0.08 0"/>
<feBlend mode="normal" in2="effect2_dropShadow_123_11533" result="effect3_dropShadow_123_11533"/>
<feColorMatrix in="SourceAlpha" type="matrix" values="0 0 0 0 0 0 0 0 0 0 0 0 0 0 0 0 0 0 127 0" result="hardAlpha"/>
<feMorphology radius="19.5615" operator="erode" in="SourceAlpha" result="effect4_dropShadow_123_11533"/>
<feOffset dy="19.5615"/>
<feGaussianBlur stdDeviation="19.5615"/>
<feComposite in2="hardAlpha" operator="out"/>
<feColorMatrix type="matrix" values="0 0 0 0 0.027451 0 0 0 0 0 0 0 0 0 0.109804 0 0 0 0.08 0"/>
<feBlend mode="normal" in2="effect3_dropShadow_123_11533" result="effect4_dropShadow_123_11533"/>
<feBlend mode="normal" in="SourceGraphic" in2="effect4_dropShadow_123_11533" result="shape"/>
</filter>
<radialGradient id="paint0_radial_123_11533" cx="0" cy="0" r="1" gradientUnits="userSpaceOnUse" gradientTransform="translate(91.8712 74.9851) rotate(-99.261) scale(30.9686 65.8322)">
<stop stop-color="#00FF19"/>
<stop offset="1" stop-color="#00FF19" stop-opacity="0"/>
</radialGradient>
<radialGradient id="paint1_radial_123_11533" cx="0" cy="0" r="1" gradientUnits="userSpaceOnUse" gradientTransform="translate(20.104 27.3038) rotate(44.0206) scale(45.7429 121.023)">
<stop stop-color="#7000FE"/>
<stop offset="1" stop-color="#4200FF" stop-opacity="0"/>
</radialGradient>
<radialGradient id="paint2_radial_123_11533" cx="0" cy="0" r="1" gradientUnits="userSpaceOnUse" gradientTransform="translate(164.635 6.51967) rotate(120.214) scale(59.4215 140.617)">
<stop stop-color="#FBD300"/>
<stop offset="1" stop-color="#FFA800" stop-opacity="0"/>
</radialGradient>
<linearGradient id="paint3_linear_123_11533" x1="98.8486" y1="0.406676" x2="120.785" y2="71.9255" gradientUnits="userSpaceOnUse">
<stop stop-color="#F6FCFF"/>
<stop offset="1" stop-color="#7C4EFF"/>
</linearGradient>
<clipPath id="clip0_123_11533">
<rect width="106.88" height="26.1514" fill="white" transform="translate(44.5552 24.8588)"/>
</clipPath>
</defs>
</svg>
