<svg width="59" height="50" viewBox="0 0 59 50" fill="none" xmlns="http://www.w3.org/2000/svg">
<path d="M54.0532 49.7937C53.1472 49.7942 52.2588 49.5616 51.4862 49.1215C43.2606 44.4853 36.4596 37.9539 31.7404 30.1585C27.0213 22.3631 24.5435 13.5672 24.5465 4.62073C24.5465 3.39795 25.0687 2.22526 25.9982 1.36063C26.9277 0.495999 28.1884 0.0102539 29.503 0.0102539C30.8175 0.0102539 32.0782 0.495999 33.0077 1.36063C33.9373 2.22526 34.4595 3.39795 34.4595 4.62073C34.4595 19.7091 42.7524 33.4022 56.6331 41.2619C57.5529 41.7861 58.2636 42.5752 58.6575 43.5093C59.0514 44.4434 59.107 45.4715 58.8158 46.4377C58.5245 47.4038 57.9024 48.2552 57.0438 48.8626C56.1852 49.47 55.1371 49.8003 54.0584 49.8034L54.0532 49.7937Z" fill="url(#paint0_linear_123_1017)"/>
<path d="M4.94144 49.7931C3.86275 49.7901 2.81458 49.4598 1.956 48.8523C1.09741 48.2449 0.475295 47.3935 0.184064 46.4274C-0.107168 45.4613 -0.0516187 44.4331 0.342289 43.499C0.736197 42.5649 1.44696 41.7759 2.36669 41.2516C16.2552 33.3992 24.5404 19.7061 24.5404 4.61047C24.5404 3.3877 25.0626 2.21501 25.9921 1.35038C26.9216 0.485745 28.1823 0 29.4968 0C30.8114 0 32.0721 0.485745 33.0016 1.35038C33.9311 2.21501 34.4533 3.3877 34.4533 4.61047C34.4583 13.5576 31.9814 22.3545 27.262 30.1507C22.5427 37.9468 15.7406 44.4783 7.51359 49.1137C6.7403 49.5571 5.84989 49.7924 4.94144 49.7931Z" fill="url(#paint1_linear_123_1017)"/>
<path d="M4.97629 50C3.87731 49.9966 2.81054 49.6502 1.94294 49.0152C1.07534 48.3801 0.455856 47.4922 0.181441 46.4904C-0.0929734 45.4885 -0.00683784 44.4293 0.426371 43.4785C0.859581 42.5277 1.61542 41.7389 2.57559 41.2356C10.855 36.9562 20.1474 34.7126 29.5926 34.7126C39.0378 34.7126 48.3303 36.9562 56.6096 41.2356C57.6984 41.8645 58.4882 42.864 58.8148 44.0266C59.1414 45.1892 58.9798 46.4256 58.3636 47.479C57.7474 48.5324 56.724 49.3219 55.5057 49.6836C54.2874 50.0454 52.968 49.9515 51.8213 49.4215C45.0083 45.9035 37.3632 44.0593 29.5926 44.0593C21.8221 44.0593 14.1769 45.9035 7.36392 49.4215C6.63311 49.802 5.81143 50.0011 4.97629 50Z" fill="url(#paint2_linear_123_1017)"/>
<defs>
<linearGradient id="paint0_linear_123_1017" x1="55.5897" y1="47.452" x2="33.3678" y2="27.918" gradientUnits="userSpaceOnUse">
<stop stop-color="#5F56AA"/>
<stop offset="1" stop-color="#A591F8"/>
</linearGradient>
<linearGradient id="paint1_linear_123_1017" x1="30.4149" y1="1.22537" x2="7.32764" y2="45.6004" gradientUnits="userSpaceOnUse">
<stop stop-color="#5F56AA"/>
<stop offset="1" stop-color="#A591F8"/>
</linearGradient>
<linearGradient id="paint2_linear_123_1017" x1="-5.70653" y1="47.1319" x2="52.4604" y2="43.9384" gradientUnits="userSpaceOnUse">
<stop stop-color="#5F56AA"/>
<stop offset="1" stop-color="#A591F8"/>
</linearGradient>
</defs>
</svg>
