<svg width="227" height="115" viewBox="0 0 227 115" fill="none" xmlns="http://www.w3.org/2000/svg">
<g filter="url(#filter0_bddd_123_11528)">
<rect x="20.0468" y="0.406677" width="187.057" height="74.5784" rx="16" fill="url(#paint0_radial_123_11528)" fill-opacity="0.1" shape-rendering="crispEdges"/>
<rect x="20.0468" y="0.406677" width="187.057" height="74.5784" rx="16" fill="url(#paint1_radial_123_11528)" fill-opacity="0.1" shape-rendering="crispEdges"/>
<rect x="20.0468" y="0.406677" width="187.057" height="74.5784" rx="16" fill="url(#paint2_radial_123_11528)" fill-opacity="0.1" shape-rendering="crispEdges"/>
<g clip-path="url(#clip0_123_11528)">
<path fill-rule="evenodd" clip-rule="evenodd" d="M57.1067 23.352C60.9356 23.3622 64.1226 25.4761 65.5773 28.7788C65.97 29.6704 66.2258 30.6282 66.3367 31.6233C66.42 32.3704 66.4331 32.8635 66.3847 33.5601C66.1508 36.9375 64.3817 39.891 61.5981 41.9913C61.5803 42.0048 61.5823 42.0304 61.6018 42.0413C61.6821 42.0857 61.7621 42.1301 61.8415 42.1751C63.7986 43.2771 65.3836 44.4274 66.6007 45.7372C66.6848 45.8276 66.7669 45.9188 66.8471 46.0103C66.8602 46.0255 66.8843 46.0253 66.8972 46.0103C66.9763 45.9178 67.0574 45.826 67.1406 45.7349C68.3449 44.4144 69.9185 43.2505 71.8646 42.1313C72.5879 41.7154 73.3331 41.322 74.1864 40.8975C74.3165 40.8329 74.4731 40.9211 74.4739 41.0591L74.4949 45.3462C74.4953 45.4228 74.445 45.4917 74.3688 45.5188C71.3683 46.5813 69.2298 49.2789 69.1167 51.2118C69.1111 51.3087 69.0254 51.3843 68.9222 51.3847L64.9023 51.4022C64.784 51.4026 64.685 51.317 64.6771 51.206C64.5428 49.3271 62.802 47.4965 59.5964 45.6913C58.9635 45.335 58.2991 44.991 57.5282 44.6158C57.523 44.6131 57.5175 44.6102 57.5123 44.6076C56.3357 44.0009 54.586 43.3593 52.3674 41.7551C49.7692 39.6983 48.1123 36.8696 47.8568 33.6409C47.8019 32.9446 47.8097 32.4516 47.8856 31.7037C47.9868 30.7076 48.2334 29.7476 48.6171 28.8526C50.0389 25.5372 53.205 23.396 57.0335 23.3525L57.0519 23.352L57.1067 23.352ZM51.1895 43.9849C52.1081 44.6723 53.2584 45.3166 54.6407 45.9181C54.8471 46.0077 54.8654 46.2589 54.674 46.3711C51.9779 47.9505 50.5164 49.5226 50.3949 51.1423C50.3847 51.2794 50.2545 51.3858 50.0979 51.3867L46.2168 51.4022C46.0479 51.4028 45.9109 51.2814 45.9161 51.1336C45.9802 49.2524 46.8526 47.5343 48.3665 45.986C49.0617 45.2752 49.8768 44.6118 50.8128 43.977C50.9244 43.901 51.082 43.9043 51.1895 43.9849ZM57.0905 27.452C55.0643 27.4738 53.4455 28.5686 52.6668 30.3843C52.4412 30.9107 52.2936 31.4858 52.2319 32.0929C52.1788 32.6165 52.1746 32.8784 52.2107 33.3369C52.4291 36.0958 54.2574 38.4428 57.1298 39.8331C57.132 39.8338 57.1343 39.835 57.1364 39.8361C57.146 39.8406 57.1572 39.8408 57.1668 39.836C57.169 39.8348 57.1714 39.8337 57.1735 39.8327C60.032 38.4177 61.837 36.0551 62.0281 33.2945C62.0599 32.8353 62.0532 32.5733 61.9947 32.0504C61.9271 31.4439 61.7738 30.87 61.5428 30.3456C60.746 28.5369 59.1169 27.4559 57.0905 27.452Z" fill="#005FF9"/>
<path d="M86.6682 42.9913C86.6682 43.1442 86.6156 43.2796 86.5127 43.3888C86.4056 43.5023 86.2612 43.5592 86.0916 43.5592H84.6509C84.4931 43.5592 84.3537 43.5027 84.2427 43.3934C84.1317 43.284 84.0743 43.1468 84.0743 42.9913V32.2505C84.0743 32.0877 84.126 31.9467 84.2299 31.8366C84.3369 31.7231 84.4813 31.6662 84.6509 31.6662H86.0078C86.2853 31.6662 86.5087 31.8055 86.664 32.07L89.7437 37.696L92.8259 32.0654C92.9787 31.8055 93.2021 31.6662 93.4795 31.6662H94.8197C94.9875 31.6662 95.1328 31.7218 95.2447 31.832C95.3566 31.9422 95.413 32.0852 95.413 32.2505V42.9913C95.413 43.1584 95.3553 43.3006 95.24 43.406C95.1282 43.5083 94.985 43.5592 94.8197 43.5592H93.379C93.2212 43.5592 93.0818 43.5027 92.9708 43.3934C92.8598 43.284 92.8025 43.1468 92.8025 42.9913V36.5921L90.8044 40.3294C90.6529 40.6277 90.4097 40.7873 90.0955 40.7873H89.3919C89.0916 40.7873 88.847 40.6315 88.6679 40.3326L86.6682 36.5921V42.9913ZM102.263 43.7242C100.704 43.7242 99.4832 43.3311 98.6105 42.5404C97.7333 41.7456 97.2977 40.5501 97.2977 38.9656V32.2505C97.2977 32.0877 97.3494 31.9467 97.4532 31.8366C97.5603 31.7231 97.7046 31.6662 97.8743 31.6662H99.4155C99.5833 31.6662 99.7285 31.7218 99.8404 31.832C99.9523 31.9422 100.009 32.0852 100.009 32.2505V38.9656C100.009 39.7944 100.205 40.407 100.59 40.8115C100.973 41.2143 101.522 41.4171 102.247 41.4171C102.972 41.4171 103.52 41.2143 103.904 40.8115C104.288 40.407 104.485 39.7944 104.485 38.9656V32.2505C104.485 32.0852 104.541 31.9422 104.653 31.832C104.765 31.7218 104.91 31.6662 105.078 31.6662H106.619C106.789 31.6662 106.933 31.7231 107.04 31.8366C107.144 31.9467 107.196 32.0877 107.196 32.2505V38.9656C107.196 40.5499 106.763 41.7451 105.892 42.54C105.025 43.3309 103.812 43.7242 102.263 43.7242ZM116.944 41.2356C117.112 41.2356 117.257 41.2912 117.369 41.4014C117.48 41.5108 117.538 41.648 117.538 41.8035V42.9913C117.538 43.1468 117.48 43.284 117.369 43.3934C117.257 43.5036 117.112 43.5592 116.944 43.5592H109.657C109.499 43.5592 109.36 43.5027 109.249 43.3934C109.138 43.284 109.08 43.1468 109.08 42.9913V32.234C109.08 32.067 109.138 31.9247 109.253 31.8193C109.364 31.7179 109.502 31.6662 109.657 31.6662H111.232C111.399 31.6662 111.541 31.7183 111.648 31.8237C111.755 31.9292 111.808 32.0695 111.808 32.234V41.2356H116.944ZM121.949 42.9913C121.949 43.1442 121.897 43.2796 121.794 43.3888C121.687 43.5023 121.542 43.5592 121.372 43.5592H119.798C119.64 43.5592 119.501 43.5027 119.39 43.3934C119.279 43.284 119.221 43.1468 119.221 42.9913V34.0723H116.296C116.139 34.0723 115.999 34.0158 115.888 33.9064C115.776 33.7962 115.72 33.6533 115.72 33.4879V32.2505C115.72 32.0877 115.772 31.9467 115.875 31.8366C115.982 31.7231 116.127 31.6662 116.296 31.6662H124.857C125.025 31.6662 125.17 31.7218 125.282 31.832C125.394 31.9422 125.45 32.0852 125.45 32.2505V33.4879C125.45 33.6533 125.394 33.7962 125.282 33.9064C125.17 34.0167 125.025 34.0723 124.857 34.0723H121.949V42.9913ZM127.789 43.5592C127.631 43.5592 127.492 43.5027 127.381 43.3934C127.27 43.284 127.212 43.1468 127.212 42.9913V32.234C127.212 32.067 127.27 31.9247 127.385 31.8193C127.496 31.7179 127.634 31.6662 127.789 31.6662H129.397C129.564 31.6662 129.706 31.7183 129.814 31.8237C129.921 31.9292 129.974 32.0695 129.974 32.234V42.9913C129.974 43.1442 129.921 43.2796 129.818 43.3888C129.711 43.5023 129.567 43.5592 129.397 43.5592H127.789ZM139.822 41.2356C139.991 41.2356 140.135 41.2912 140.248 41.4014C140.359 41.5108 140.416 41.648 140.416 41.8035V42.9913C140.416 43.1468 140.359 43.284 140.248 43.3934C140.135 43.5036 139.991 43.5592 139.822 43.5592H132.535C132.377 43.5592 132.238 43.5027 132.127 43.3934C132.016 43.284 131.959 43.1468 131.959 42.9913V32.234C131.959 32.067 132.016 31.9247 132.132 31.8193C132.243 31.7179 132.38 31.6662 132.535 31.6662H134.11C134.277 31.6662 134.419 31.7183 134.526 31.8237C134.634 31.9292 134.687 32.0695 134.687 32.234V41.2356H139.822ZM146.438 43.7242C144.867 43.7242 143.637 43.3314 142.753 42.5411C141.866 41.748 141.401 40.5762 141.355 39.0375C141.344 38.7162 141.339 38.247 141.339 37.6292C141.339 37.0004 141.344 36.5257 141.355 36.2051C141.402 34.6983 141.877 33.532 142.786 32.7174C143.692 31.9055 144.912 31.5012 146.438 31.5012C147.954 31.5012 149.17 31.9055 150.082 32.717C150.997 33.5316 151.476 34.6981 151.521 36.2043C151.544 36.8441 151.554 37.3188 151.554 37.6292C151.554 37.9286 151.544 38.3977 151.521 39.0366C151.476 40.5764 151.008 41.7484 150.115 42.5416C149.226 43.3314 147.998 43.7242 146.438 43.7242ZM146.438 41.4666C147.142 41.4666 147.688 41.2635 148.089 40.8585C148.491 40.453 148.711 39.8167 148.743 38.9434C148.765 38.2853 148.777 37.8411 148.777 37.6127C148.777 37.3622 148.765 36.9183 148.743 36.2826C148.712 35.4202 148.485 34.7872 148.073 34.3759C147.661 33.9644 147.119 33.7588 146.438 33.7588C145.746 33.7588 145.199 33.9646 144.787 34.3759C144.375 34.7867 144.155 35.4188 144.133 36.2822C144.123 36.5989 144.117 37.0425 144.117 37.6127C144.117 38.1719 144.123 38.6156 144.133 38.945C144.155 39.8069 144.373 40.4395 144.779 40.8502C145.186 41.2609 145.735 41.4666 146.438 41.4666ZM158.456 38.791C158.298 38.791 158.158 38.7345 158.048 38.6252C157.936 38.5159 157.879 38.3786 157.879 38.2232V37.3157C157.879 37.1602 157.936 37.023 158.048 36.9137C158.158 36.8044 158.298 36.7479 158.456 36.7479H162.476C162.644 36.7479 162.789 36.8035 162.901 36.9137C163.012 37.023 163.069 37.1602 163.069 37.3157V39.0646C163.069 40.0077 162.855 40.833 162.424 41.5373C161.994 42.2427 161.382 42.7851 160.592 43.1625C159.808 43.5374 158.894 43.7242 157.852 43.7242C156.27 43.7242 155.03 43.3199 154.14 42.5069C153.25 41.6931 152.777 40.5609 152.719 39.12C152.708 38.7986 152.703 38.2855 152.703 37.5797C152.703 36.8739 152.708 36.3608 152.719 36.0397C152.766 34.6312 153.242 33.5171 154.151 32.7087C155.056 31.9025 156.293 31.5012 157.852 31.5012C158.905 31.5012 159.815 31.6793 160.583 32.0375C161.35 32.3955 161.934 32.842 162.332 33.3782C162.731 33.9155 162.945 34.4505 162.969 34.9894C162.969 35.1332 162.917 35.2596 162.817 35.3584C162.716 35.4582 162.582 35.5077 162.426 35.5077H160.667C160.519 35.5077 160.397 35.4758 160.306 35.4041C160.226 35.3407 160.161 35.2472 160.102 35.1162C159.957 34.7408 159.705 34.4207 159.34 34.1538C158.982 33.892 158.488 33.7588 157.852 33.7588C157.113 33.7588 156.544 33.9504 156.138 34.3303C155.735 34.7076 155.518 35.3051 155.497 36.1337C155.487 36.4503 155.48 36.9325 155.48 37.5797C155.48 38.2159 155.487 38.6981 155.497 39.0273C155.519 39.8767 155.737 40.4911 156.147 40.8794C156.559 41.2698 157.13 41.4666 157.869 41.4666C158.622 41.4666 159.217 41.2711 159.663 40.8827C160.103 40.5003 160.325 39.9206 160.325 39.1306V38.791H158.456ZM165.145 43.5592C164.987 43.5592 164.848 43.5027 164.737 43.3934C164.626 43.284 164.569 43.1468 164.569 42.9913V32.234C164.569 32.067 164.627 31.9247 164.742 31.8193C164.852 31.7179 164.99 31.6662 165.145 31.6662H166.754C166.921 31.6662 167.064 31.7183 167.171 31.8237C167.278 31.9292 167.33 32.0695 167.33 32.234V42.9913C167.33 43.1442 167.278 43.2796 167.175 43.3888C167.068 43.5023 166.923 43.5592 166.754 43.5592H165.145ZM171.91 42.9913C171.91 43.1442 171.857 43.2796 171.753 43.3888C171.646 43.5023 171.503 43.5592 171.332 43.5592H169.892C169.734 43.5592 169.595 43.5027 169.483 43.3934C169.373 43.284 169.315 43.1468 169.315 42.9913V32.2505C169.315 32.0877 169.367 31.9467 169.471 31.8366C169.578 31.7231 169.722 31.6662 169.892 31.6662H171.199C171.474 31.6662 171.692 31.7925 171.831 32.0254L176.301 38.8599V32.2505C176.301 32.0877 176.353 31.9467 176.456 31.8366C176.564 31.7231 176.708 31.6662 176.878 31.6662H178.319C178.486 31.6662 178.632 31.7218 178.743 31.832C178.855 31.9422 178.912 32.0852 178.912 32.2505V42.9748C178.912 43.1402 178.855 43.2831 178.743 43.3934C178.633 43.5027 178.493 43.5592 178.335 43.5592H177.012C176.727 43.5592 176.502 43.4337 176.364 43.2012L171.91 36.5211V42.9913Z" fill="#1F1F1F"/>
</g>
<rect x="20.5468" y="0.906677" width="186.057" height="73.5784" rx="15.5" stroke="url(#paint3_linear_123_11528)" stroke-opacity="0.1" shape-rendering="crispEdges"/>
</g>
<defs>
<filter id="filter0_bddd_123_11528" x="-4.40517" y="-24.0452" width="235.961" height="138.153" filterUnits="userSpaceOnUse" color-interpolation-filters="sRGB">
<feFlood flood-opacity="0" result="BackgroundImageFix"/>
<feGaussianBlur in="BackgroundImageFix" stdDeviation="12.226"/>
<feComposite in2="SourceAlpha" operator="in" result="effect1_backgroundBlur_123_11528"/>
<feColorMatrix in="SourceAlpha" type="matrix" values="0 0 0 0 0 0 0 0 0 0 0 0 0 0 0 0 0 0 127 0" result="hardAlpha"/>
<feMorphology radius="4.89039" operator="erode" in="SourceAlpha" result="effect2_dropShadow_123_11528"/>
<feOffset dy="4.89039"/>
<feGaussianBlur stdDeviation="4.89039"/>
<feComposite in2="hardAlpha" operator="out"/>
<feColorMatrix type="matrix" values="0 0 0 0 0.0281666 0 0 0 0 0 0 0 0 0 0.108333 0 0 0 0.08 0"/>
<feBlend mode="normal" in2="effect1_backgroundBlur_123_11528" result="effect2_dropShadow_123_11528"/>
<feColorMatrix in="SourceAlpha" type="matrix" values="0 0 0 0 0 0 0 0 0 0 0 0 0 0 0 0 0 0 127 0" result="hardAlpha"/>
<feMorphology radius="9.78077" operator="erode" in="SourceAlpha" result="effect3_dropShadow_123_11528"/>
<feOffset dy="9.78077"/>
<feGaussianBlur stdDeviation="9.78077"/>
<feComposite in2="hardAlpha" operator="out"/>
<feColorMatrix type="matrix" values="0 0 0 0 0.027451 0 0 0 0 0 0 0 0 0 0.109804 0 0 0 0.08 0"/>
<feBlend mode="normal" in2="effect2_dropShadow_123_11528" result="effect3_dropShadow_123_11528"/>
<feColorMatrix in="SourceAlpha" type="matrix" values="0 0 0 0 0 0 0 0 0 0 0 0 0 0 0 0 0 0 127 0" result="hardAlpha"/>
<feMorphology radius="19.5615" operator="erode" in="SourceAlpha" result="effect4_dropShadow_123_11528"/>
<feOffset dy="19.5615"/>
<feGaussianBlur stdDeviation="19.5615"/>
<feComposite in2="hardAlpha" operator="out"/>
<feColorMatrix type="matrix" values="0 0 0 0 0.027451 0 0 0 0 0 0 0 0 0 0.109804 0 0 0 0.08 0"/>
<feBlend mode="normal" in2="effect3_dropShadow_123_11528" result="effect4_dropShadow_123_11528"/>
<feBlend mode="normal" in="SourceGraphic" in2="effect4_dropShadow_123_11528" result="shape"/>
</filter>
<radialGradient id="paint0_radial_123_11528" cx="0" cy="0" r="1" gradientUnits="userSpaceOnUse" gradientTransform="translate(105.831 74.9851) rotate(-101.029) scale(31.14 78.2568)">
<stop stop-color="#00FF19"/>
<stop offset="1" stop-color="#00FF19" stop-opacity="0"/>
</radialGradient>
<radialGradient id="paint1_radial_123_11528" cx="0" cy="0" r="1" gradientUnits="userSpaceOnUse" gradientTransform="translate(20.0468 27.3038) rotate(38.9547) scale(50.5602 130.877)">
<stop stop-color="#7000FE"/>
<stop offset="1" stop-color="#4200FF" stop-opacity="0"/>
</radialGradient>
<radialGradient id="paint2_radial_123_11528" cx="0" cy="0" r="1" gradientUnits="userSpaceOnUse" gradientTransform="translate(192.807 6.51967) rotate(124.841) scale(62.5645 159.637)">
<stop stop-color="#FBD300"/>
<stop offset="1" stop-color="#FFA800" stop-opacity="0"/>
</radialGradient>
<linearGradient id="paint3_linear_123_11528" x1="114.171" y1="0.406676" x2="133.009" y2="73.8199" gradientUnits="userSpaceOnUse">
<stop stop-color="#F6FCFF"/>
<stop offset="1" stop-color="#7C4EFF"/>
</linearGradient>
<clipPath id="clip0_123_11528">
<rect width="135.952" height="29.8217" fill="white" transform="translate(45.4774 22.4662)"/>
</clipPath>
</defs>
</svg>
