<svg width="198" height="115" viewBox="0 0 198 115" fill="none" xmlns="http://www.w3.org/2000/svg">
<g filter="url(#filter0_bddd_123_11537)">
<rect x="19.5963" y="0.406677" width="187.057" height="74.5784" rx="16" fill="url(#paint0_radial_123_11537)" fill-opacity="0.1" shape-rendering="crispEdges"/>
<rect x="19.5963" y="0.406677" width="187.057" height="74.5784" rx="16" fill="url(#paint1_radial_123_11537)" fill-opacity="0.1" shape-rendering="crispEdges"/>
<rect x="19.5963" y="0.406677" width="187.057" height="74.5784" rx="16" fill="url(#paint2_radial_123_11537)" fill-opacity="0.1" shape-rendering="crispEdges"/>
<g clip-path="url(#clip0_123_11537)">
<path d="M62.9598 27.5556H47.7425C46.0616 27.5556 44.699 28.9182 44.699 30.5991V45.8164C44.699 47.4973 46.0616 48.8599 47.7425 48.8599H62.9598C64.6407 48.8599 66.0033 47.4973 66.0033 45.8164V30.5991C66.0033 28.9182 64.6407 27.5556 62.9598 27.5556Z" fill="#1E4DFF"/>
<path opacity="0.8" d="M55.3104 41.0274L49.6268 36.6631V30.9795L55.3104 35.3438V41.0274Z" fill="white"/>
<path opacity="0.45" d="M61.3784 45.4357L56.7752 41.7561V36.0725L61.3784 39.752V45.4357Z" fill="white"/>
<path opacity="0.65" d="M55.3123 41.0274L60.996 36.6631V30.9795L55.3123 35.3438V41.0274Z" fill="white"/>
<path opacity="0.6" d="M49.6268 45.3855L55.3104 41.0227V35.3391L49.6268 39.7034V45.3855Z" fill="white"/>
<path opacity="0.4" d="M57.0133 39.7186L59.34 37.9321L57.0574 36.1045L57.0133 39.7186Z" fill="white"/>
<path opacity="0.2" d="M55.3123 38.7295L60.996 34.3652V33.7185L55.3123 38.0813V38.7295Z" fill="white"/>
<path d="M55.3122 41.0276L51.6083 38.1835L55.3122 35.3439V41.0276Z" fill="white"/>
<path opacity="0.4" d="M49.6268 43.106L55.3104 38.7417V38.0813L49.6268 42.4456V43.106Z" fill="white"/>
<path d="M75.6643 44.0237L74.4697 46.9774H70.9286L77.5314 31.7723H81.0695L87.5642 46.9774H83.8953L82.7008 44.0237H75.6643ZM79.2038 35.3575L76.7934 41.2648H81.5929L79.2038 35.3575Z" fill="#1F2542"/>
<path d="M100.098 46.9773H96.7746V45.2608C95.9483 46.4554 94.6883 47.1082 93.0813 47.1082C89.7579 47.1082 87.5651 44.6963 87.5651 41.0913C87.5651 37.5289 89.7366 35.1565 92.9946 35.1565C94.6457 35.1565 95.927 35.8078 96.7746 37.0024V30.8607H100.098V46.9773ZM96.0533 41.178C96.0533 39.2667 94.8587 37.9413 93.1422 37.9413C91.4257 37.9413 90.2098 39.288 90.1885 41.178C90.2098 43.0893 91.3831 44.4147 93.1422 44.4147C94.8587 44.4147 96.0533 43.0893 96.0533 41.178Z" fill="#1F2542"/>
<path d="M111.958 36.4425L110.806 38.7251C109.523 38.0069 108.22 37.5991 107.24 37.5991C106.458 37.5991 105.893 37.8593 105.893 38.468C105.893 40.2271 112.061 39.3369 112.04 43.4638C112.04 45.8529 109.934 47.116 107.283 47.116C105.393 47.116 103.547 46.5514 102.221 45.4862L103.308 43.2279C104.525 44.1608 106.088 44.6827 107.37 44.6827C108.217 44.6827 108.847 44.3997 108.847 43.7697C108.847 41.9025 102.786 42.9023 102.786 38.7967C102.786 36.3847 104.85 35.1445 107.391 35.1445C109.004 35.1464 110.585 35.5957 111.958 36.4425Z" fill="#1F2542"/>
<path d="M120.798 31.7723C124.665 31.7723 126.885 33.6836 126.885 37.0512C126.885 40.5922 124.669 42.6329 120.798 42.6329H117.779V46.9774H114.348V31.7723H120.798ZM117.779 39.7659H120.625C122.536 39.7659 123.622 38.897 123.622 37.1592C123.622 35.4655 122.536 34.6179 120.625 34.6179H117.779V39.7659Z" fill="#1F2542"/>
<path d="M140.543 41.1338C140.543 44.6962 138.023 47.1081 134.287 47.1081C130.551 47.1081 128.01 44.6962 128.01 41.1338C128.01 37.5715 130.525 35.1823 134.287 35.1823C138.048 35.1823 140.543 37.5502 140.543 41.1338ZM131.376 41.178C131.376 43.0893 132.549 44.3919 134.287 44.3919C136.025 44.3919 137.198 43.0893 137.198 41.178C137.198 39.2667 136.003 37.9625 134.287 37.9625C132.57 37.9625 131.376 39.2728 131.376 41.178Z" fill="#1F2542"/>
<path d="M153.333 46.9772L150.813 39.2727L148.316 46.9833H144.979L140.692 35.3162L144.102 35.2949L146.709 43.6644L149.228 35.3025H152.508L155.071 43.672L157.634 35.3101H160.936L156.675 46.9955L153.333 46.9772Z" fill="#1F2542"/>
<path d="M172.776 42.1551H164.391C164.782 43.6327 165.913 44.5016 167.41 44.5016C167.961 44.5015 168.505 44.3919 169.012 44.1792C169.52 43.9666 169.98 43.6551 170.366 43.2629L172.125 45.0449C170.951 46.3475 169.233 47.1083 167.129 47.1083C163.393 47.1083 161.025 44.7192 161.025 41.1736C161.025 37.5671 163.48 35.1779 167.042 35.1779C171.155 35.1825 173.059 37.9034 172.776 42.1551ZM169.649 40.186C169.605 38.6445 168.605 37.6447 167.062 37.6447C165.584 37.6447 164.586 38.6445 164.323 40.186H169.649Z" fill="#1F2542"/>
<path d="M178.336 37.3982C179.139 35.9647 180.466 35.1826 182.202 35.1613V38.3112C179.812 38.0936 178.336 39.3764 178.336 41.3547V46.9851H174.988V35.2921H178.336V37.3982Z" fill="#1F2542"/>
</g>
<rect x="20.0963" y="0.906677" width="186.057" height="73.5784" rx="15.5" stroke="url(#paint3_linear_123_11537)" stroke-opacity="0.1" shape-rendering="crispEdges"/>
</g>
<defs>
<filter id="filter0_bddd_123_11537" x="-4.85561" y="-24.0452" width="235.961" height="138.153" filterUnits="userSpaceOnUse" color-interpolation-filters="sRGB">
<feFlood flood-opacity="0" result="BackgroundImageFix"/>
<feGaussianBlur in="BackgroundImageFix" stdDeviation="12.226"/>
<feComposite in2="SourceAlpha" operator="in" result="effect1_backgroundBlur_123_11537"/>
<feColorMatrix in="SourceAlpha" type="matrix" values="0 0 0 0 0 0 0 0 0 0 0 0 0 0 0 0 0 0 127 0" result="hardAlpha"/>
<feMorphology radius="4.89039" operator="erode" in="SourceAlpha" result="effect2_dropShadow_123_11537"/>
<feOffset dy="4.89039"/>
<feGaussianBlur stdDeviation="4.89039"/>
<feComposite in2="hardAlpha" operator="out"/>
<feColorMatrix type="matrix" values="0 0 0 0 0.0281666 0 0 0 0 0 0 0 0 0 0.108333 0 0 0 0.08 0"/>
<feBlend mode="normal" in2="effect1_backgroundBlur_123_11537" result="effect2_dropShadow_123_11537"/>
<feColorMatrix in="SourceAlpha" type="matrix" values="0 0 0 0 0 0 0 0 0 0 0 0 0 0 0 0 0 0 127 0" result="hardAlpha"/>
<feMorphology radius="9.78077" operator="erode" in="SourceAlpha" result="effect3_dropShadow_123_11537"/>
<feOffset dy="9.78077"/>
<feGaussianBlur stdDeviation="9.78077"/>
<feComposite in2="hardAlpha" operator="out"/>
<feColorMatrix type="matrix" values="0 0 0 0 0.027451 0 0 0 0 0 0 0 0 0 0.109804 0 0 0 0.08 0"/>
<feBlend mode="normal" in2="effect2_dropShadow_123_11537" result="effect3_dropShadow_123_11537"/>
<feColorMatrix in="SourceAlpha" type="matrix" values="0 0 0 0 0 0 0 0 0 0 0 0 0 0 0 0 0 0 127 0" result="hardAlpha"/>
<feMorphology radius="19.5615" operator="erode" in="SourceAlpha" result="effect4_dropShadow_123_11537"/>
<feOffset dy="19.5615"/>
<feGaussianBlur stdDeviation="19.5615"/>
<feComposite in2="hardAlpha" operator="out"/>
<feColorMatrix type="matrix" values="0 0 0 0 0.027451 0 0 0 0 0 0 0 0 0 0.109804 0 0 0 0.08 0"/>
<feBlend mode="normal" in2="effect3_dropShadow_123_11537" result="effect4_dropShadow_123_11537"/>
<feBlend mode="normal" in="SourceGraphic" in2="effect4_dropShadow_123_11537" result="shape"/>
</filter>
<radialGradient id="paint0_radial_123_11537" cx="0" cy="0" r="1" gradientUnits="userSpaceOnUse" gradientTransform="translate(105.381 74.9851) rotate(-101.029) scale(31.14 78.2568)">
<stop stop-color="#00FF19"/>
<stop offset="1" stop-color="#00FF19" stop-opacity="0"/>
</radialGradient>
<radialGradient id="paint1_radial_123_11537" cx="0" cy="0" r="1" gradientUnits="userSpaceOnUse" gradientTransform="translate(19.5963 27.3038) rotate(38.9547) scale(50.5602 130.877)">
<stop stop-color="#7000FE"/>
<stop offset="1" stop-color="#4200FF" stop-opacity="0"/>
</radialGradient>
<radialGradient id="paint2_radial_123_11537" cx="0" cy="0" r="1" gradientUnits="userSpaceOnUse" gradientTransform="translate(192.356 6.51967) rotate(124.841) scale(62.5645 159.637)">
<stop stop-color="#FBD300"/>
<stop offset="1" stop-color="#FFA800" stop-opacity="0"/>
</radialGradient>
<linearGradient id="paint3_linear_123_11537" x1="113.721" y1="0.406676" x2="132.559" y2="73.8199" gradientUnits="userSpaceOnUse">
<stop stop-color="#F6FCFF"/>
<stop offset="1" stop-color="#7C4EFF"/>
</linearGradient>
<clipPath id="clip0_123_11537">
<rect width="137.504" height="21.3042" fill="white" transform="translate(44.6979 27.5556)"/>
</clipPath>
</defs>
</svg>
