<svg width="337" height="402" viewBox="0 0 337 402" fill="none" xmlns="http://www.w3.org/2000/svg">
<g filter="url(#filter0_ddd_123_11595)">
<rect x="26" y="10" width="285" height="350" rx="24" fill="#F9FBFD"/>
<rect x="27" y="11" width="283" height="348" rx="23" stroke="url(#paint0_linear_123_11595)" stroke-opacity="0.1" stroke-width="2"/>
</g>
<circle opacity="0.4" cx="171" cy="171" r="80" fill="url(#paint1_linear_123_11595)"/>
<circle opacity="0.4" cx="108" cy="73" r="12" fill="url(#paint2_linear_123_11595)"/>
<g clip-path="url(#clip0_123_11595)">
<g opacity="0.15">
<path d="M112.856 179.595L112.916 185.277C112.916 185.338 112.977 185.459 113.037 185.459L175.113 220.456C175.295 220.577 175.657 220.577 175.899 220.395L185.933 214.472C186.054 214.411 186.114 214.351 186.114 214.23L186.054 208.488L181.218 211.329L123.977 179.051C123.796 178.931 123.433 178.931 123.192 179.112L119.746 181.167L112.856 179.595Z" fill="url(#paint3_linear_123_11595)"/>
<path d="M123.857 173.369L185.933 208.367C186.115 208.488 186.115 208.669 185.873 208.85L175.839 214.774C175.597 214.895 175.235 214.955 175.053 214.834L112.977 179.837C112.796 179.716 112.796 179.535 113.037 179.353L123.071 173.43C123.313 173.249 123.676 173.249 123.857 173.369Z" fill="url(#paint4_linear_123_11595)"/>
</g>
<g opacity="0.2">
<path d="M178.499 139.098C177.895 132.388 172.515 124.591 166.41 121.75C163.328 120.3 160.728 120.36 158.915 121.629L157.041 122.959H157.646C156.679 124.349 156.256 126.284 156.437 128.701C156.981 135.411 162.421 143.208 168.526 146.049C170.641 147.016 172.515 147.318 174.087 146.956V147.5L176.021 146.17L176.081 146.109C177.834 144.84 178.801 142.422 178.499 139.098Z" fill="#9FFFD7"/>
<path d="M174.104 147.522C178.02 144.791 177.371 137.095 172.655 130.331C167.938 123.567 160.94 120.298 157.024 123.028C153.109 125.759 153.758 133.455 158.474 140.219C163.19 146.983 170.188 150.252 174.104 147.522Z" fill="#16E09E"/>
<path d="M170.218 147.137C169.07 147.137 167.74 146.835 166.41 146.17C160.97 143.631 156.134 136.68 155.651 130.696C155.409 127.795 156.195 125.498 157.948 124.289C159.64 123.08 162.058 123.14 164.718 124.349C170.158 126.888 174.993 133.839 175.477 139.823C175.718 142.724 174.933 145.021 173.18 146.23C172.334 146.835 171.366 147.137 170.218 147.137ZM160.849 123.745C159.761 123.745 158.854 124.047 158.069 124.591C156.437 125.739 155.651 127.915 155.893 130.696C156.376 136.559 161.151 143.389 166.531 145.928C169.07 147.137 171.427 147.137 172.998 146.049C174.63 144.9 175.416 142.724 175.174 139.944C174.691 134.081 169.916 127.251 164.536 124.712C163.206 124.047 161.998 123.745 160.849 123.745Z" fill="#18B271"/>
</g>
<path d="M163.752 115.827C170.28 114.195 177.11 107.606 178.923 101.139C179.83 97.8749 179.346 95.2758 177.835 93.7042L176.203 92.0722L176.264 92.6766C174.753 91.9513 172.758 91.8304 170.401 92.4349C163.873 94.0669 157.043 100.655 155.229 107.123C154.564 109.359 154.625 111.294 155.229 112.805L154.685 112.865L156.317 114.558L156.378 114.618C158.01 116.129 160.548 116.673 163.752 115.827Z" fill="#9FFFD7"/>
<path d="M171.526 108.668C177.453 102.935 179.568 95.5068 176.249 92.0755C172.93 88.6442 165.435 90.5094 159.509 96.2417C153.582 101.974 151.467 109.402 154.786 112.834C158.105 116.265 165.6 114.4 171.526 108.668Z" fill="#73F2C8"/>
<path d="M160.004 113.288C158.312 113.288 156.861 112.744 155.834 111.717C154.383 110.205 154.02 107.848 154.806 105.007C156.438 99.265 162.543 93.3415 168.346 91.8908C171.187 91.1655 173.544 91.5886 175.055 93.0997C176.506 94.6108 176.868 96.9681 176.083 99.809C174.451 105.551 168.346 111.475 162.543 112.925C161.636 113.167 160.79 113.288 160.004 113.288ZM170.945 91.8908C170.159 91.8908 169.373 92.0117 168.467 92.193C162.724 93.6437 156.74 99.3859 155.108 105.068C154.323 107.788 154.685 110.085 156.015 111.475C157.405 112.925 159.642 113.288 162.422 112.623C168.164 111.173 174.148 105.43 175.78 99.7486C176.566 97.0286 176.203 94.7317 174.874 93.3415C173.967 92.3744 172.577 91.8908 170.945 91.8908Z" fill="#18B271"/>
<path d="M112.793 174.095L112.854 179.777C112.854 179.838 112.914 179.959 112.975 179.959L175.051 214.956C175.232 215.077 175.595 215.077 175.837 214.895L185.871 208.972C185.992 208.911 186.052 208.851 186.052 208.73L185.992 202.988L181.156 205.829L123.915 173.551C123.734 173.431 123.371 173.431 123.129 173.612L119.684 175.667L112.793 174.095Z" fill="url(#paint5_linear_123_11595)"/>
<path d="M112.793 174.095L112.854 179.777C112.854 179.838 112.914 179.959 112.975 179.959L175.051 214.956C175.232 215.077 175.595 215.077 175.837 214.895L185.871 208.972C185.992 208.911 186.052 208.851 186.052 208.73L185.992 202.988L181.156 205.829L123.915 173.551C123.734 173.431 123.371 173.431 123.129 173.612L119.684 175.667L112.793 174.095Z" fill="url(#paint6_radial_123_11595)"/>
<path d="M123.794 167.809L185.87 202.806C186.051 202.927 186.051 203.109 185.81 203.29L175.776 209.214C175.534 209.334 175.171 209.395 174.99 209.274L112.914 174.277C112.732 174.156 112.732 173.975 112.974 173.793L123.008 167.87C123.25 167.749 123.552 167.688 123.794 167.809Z" fill="url(#paint7_linear_123_11595)"/>
<path d="M185.81 202.806L185.628 202.685L175.716 208.548C175.474 208.669 175.111 208.73 174.93 208.609L113.035 173.732L112.914 173.793C112.672 173.914 112.672 174.156 112.853 174.276L174.93 209.274C175.111 209.395 175.474 209.395 175.716 209.213L185.749 203.29C185.991 203.108 186.052 202.927 185.81 202.806Z" fill="white"/>
<path opacity="0.6" d="M126.091 176.332L174.87 203.29C175.232 201.356 175.776 199.421 176.502 197.487L127.844 170.045C126.998 172.161 126.393 174.276 126.091 176.332Z" fill="#24126A"/>
<path d="M121.678 171.133L180.188 204.136C180.309 204.197 180.309 204.378 180.128 204.438L177.589 205.949C177.408 206.07 177.166 206.07 177.045 205.949L118.535 172.947C118.414 172.886 118.414 172.705 118.595 172.645L121.134 171.133C121.255 171.073 121.496 171.073 121.678 171.133Z" fill="#24126A"/>
<path d="M118.595 172.947L119.804 173.612L121.134 172.826C121.315 172.705 121.557 172.705 121.678 172.826L179.04 205.164L180.188 204.499C180.37 204.378 180.37 204.257 180.249 204.196L121.739 171.194C121.618 171.133 121.376 171.133 121.195 171.194L118.656 172.705C118.475 172.705 118.414 172.886 118.595 172.947Z" fill="#453C9E"/>
<path opacity="0.7" d="M268.136 112.442L219.417 84.9999C219.478 93.7039 213.494 104.282 206.059 108.755L139.57 148.043C130.806 153.242 123.734 165.754 123.855 175.908L172.513 203.35C172.392 193.135 179.464 180.683 188.228 175.485L254.717 136.196C262.212 131.723 268.196 121.085 268.136 112.442Z" fill="url(#paint8_linear_123_11595)"/>
<path d="M268.136 112.442L219.417 84.9999C219.478 93.7039 213.494 104.282 206.059 108.755L139.57 148.043C130.806 153.242 123.734 165.754 123.855 175.908L172.513 203.35C172.392 193.135 179.464 180.683 188.228 175.485L254.717 136.196C262.212 131.723 268.196 121.085 268.136 112.442Z" fill="url(#paint9_radial_123_11595)"/>
<path opacity="0.8" d="M123.795 175.908L172.453 203.35C172.453 202.927 172.453 202.443 172.513 202.02L123.855 174.578C123.795 175.002 123.795 175.485 123.795 175.908Z" fill="#453C9E"/>
<g opacity="0.8">
<path d="M204.006 147.077L213.617 152.517L212.71 153.061L203.099 147.621L204.006 147.077Z" fill="white"/>
<path d="M199.11 144.296L202.555 146.291L201.649 146.774L198.203 144.84L199.11 144.296Z" fill="white"/>
<path d="M195.302 142.18L197.66 143.51L196.693 144.054L194.396 142.724L195.302 142.18Z" fill="white"/>
<path d="M210.473 148.286L215.671 151.248L214.764 151.792L209.566 148.83L210.473 148.286Z" fill="white"/>
<path d="M202.616 143.873L209.023 147.5L208.116 148.044L201.709 144.417L202.616 143.873Z" fill="white"/>
<path d="M198.808 141.697L201.166 143.027L200.198 143.571L197.902 142.241L198.808 141.697Z" fill="white"/>
<path d="M195.181 139.702L197.478 141.032L196.571 141.516L194.274 140.246L195.181 139.702Z" fill="white"/>
<path d="M213.98 147.923L217.788 150.038L216.881 150.582L213.073 148.406L213.98 147.923Z" fill="white"/>
<path d="M211.259 146.351L212.528 147.077L211.622 147.621L210.352 146.895L211.259 146.351Z" fill="white"/>
<path d="M207.451 144.175L209.809 145.505L208.842 146.049L206.545 144.719L207.451 144.175Z" fill="white"/>
<path d="M205.94 140.911L219.902 148.769L218.935 149.313L205.033 141.455L205.94 140.911Z" fill="white"/>
<path d="M200.984 138.131L204.43 140.065L203.523 140.609L200.078 138.675L200.984 138.131Z" fill="white"/>
<path d="M218.21 145.445L221.958 147.56L221.051 148.104L217.243 145.989L218.21 145.445Z" fill="white"/>
<path d="M209.326 140.427L216.7 144.598L215.793 145.142L208.419 140.971L209.326 140.427Z" fill="white"/>
<path d="M205.517 138.252L207.875 139.581L206.908 140.125L204.611 138.796L205.517 138.252Z" fill="white"/>
<path d="M216.337 141.939L224.074 146.291L223.167 146.835L215.43 142.483L216.337 141.939Z" fill="white"/>
<path d="M209.265 137.949L214.886 141.153L213.919 141.697L208.358 138.493L209.265 137.949Z" fill="white"/>
<path d="M204.006 134.988L207.814 137.164L206.907 137.708L203.099 135.532L204.006 134.988Z" fill="white"/>
<path d="M223.529 143.631L226.128 145.082L225.221 145.626L222.622 144.175L223.529 143.631Z" fill="white"/>
<path d="M218.633 140.851L222.078 142.785L221.171 143.329L217.726 141.395L218.633 140.851Z" fill="white"/>
<path d="M211.561 136.862L217.122 140.005L216.216 140.549L210.655 137.406L211.561 136.862Z" fill="white"/>
<path d="M220.205 139.339L228.244 143.873L227.337 144.417L219.298 139.883L220.205 139.339Z" fill="white"/>
<path d="M211.259 134.263L218.754 138.494L217.847 139.038L210.352 134.807L211.259 134.263Z" fill="white"/>
<path d="M207.451 132.147L209.809 133.477L208.902 134.021L206.545 132.691L207.451 132.147Z" fill="white"/>
<path d="M203.824 130.092L206.121 131.361L205.214 131.905L202.857 130.636L203.824 130.092Z" fill="white"/>
<path d="M225.524 139.884L230.299 142.604L229.392 143.148L224.617 140.428L225.524 139.884Z" fill="white"/>
<path d="M184.543 136.136L177.894 132.389L176.987 132.933L183.636 136.68L184.543 136.136Z" fill="white"/>
<path d="M185.208 134.081L180.009 131.119L179.103 131.663L184.301 134.625L185.208 134.081Z" fill="white"/>
<path d="M185.873 132.026L182.065 129.91L181.158 130.454L184.966 132.57L185.873 132.026Z" fill="white"/>
<path d="M189.68 131.784L184.18 128.641L183.273 129.185L188.774 132.328L189.68 131.784Z" fill="white"/>
<path d="M190.043 129.548L186.296 127.432L185.329 127.976L189.136 130.092L190.043 129.548Z" fill="white"/>
<path d="M193.125 128.882L188.35 126.162L187.443 126.706L192.218 129.426L193.125 128.882Z" fill="white"/>
<path d="M193.066 126.405L190.467 124.954L189.56 125.498L192.159 126.949L193.066 126.405Z" fill="white"/>
<path d="M197.599 126.586L192.522 123.745L191.615 124.289L196.693 127.13L197.599 126.586Z" fill="white"/>
<path d="M199.413 125.196L194.638 122.476L193.731 123.02L198.506 125.74L199.413 125.196Z" fill="white"/>
<path d="M222.019 137.949L224.074 139.098L223.167 139.642L221.112 138.493L222.019 137.949Z" fill="white"/>
<path d="M215.975 134.504L220.569 137.103L219.662 137.647L215.068 135.048L215.975 134.504Z" fill="white"/>
<path d="M221.596 125.135L229.332 129.488L228.426 130.031L220.689 125.68L221.596 125.135Z" fill="white"/>
<path d="M216.276 122.113L219.359 123.866L218.452 124.41L215.37 122.657L216.276 122.113Z" fill="white"/>
</g>
<g opacity="0.8">
<path d="M183.878 158.984L193.428 164.424L192.521 164.968L182.91 159.528L183.878 158.984Z" fill="white"/>
<path d="M178.921 156.203L182.366 158.198L181.46 158.742L178.014 156.747L178.921 156.203Z" fill="white"/>
<path d="M175.114 154.088L177.471 155.418L176.564 155.962L174.207 154.632L175.114 154.088Z" fill="white"/>
<path d="M190.285 160.254L195.544 163.155L194.637 163.699L189.378 160.798L190.285 160.254Z" fill="white"/>
<path d="M182.426 155.78L188.833 159.407L187.927 159.951L181.519 156.324L182.426 155.78Z" fill="white"/>
<path d="M178.619 153.665L180.976 154.995L180.069 155.478L177.712 154.209L178.619 153.665Z" fill="white"/>
<path d="M174.993 151.61L177.35 152.94L176.444 153.484L174.086 152.154L174.993 151.61Z" fill="white"/>
<path d="M193.85 159.83L197.598 161.946L196.691 162.49L192.944 160.374L193.85 159.83Z" fill="white"/>
<path d="M191.071 158.259L192.401 158.984L191.494 159.528L190.164 158.803L191.071 158.259Z" fill="white"/>
<path d="M187.262 156.083L189.619 157.413L188.712 157.957L186.355 156.627L187.262 156.083Z" fill="white"/>
<path d="M185.751 152.819L199.714 160.737L198.807 161.221L184.844 153.363L185.751 152.819Z" fill="white"/>
<path d="M180.855 150.038L184.3 152.033L183.394 152.577L179.948 150.582L180.855 150.038Z" fill="white"/>
<path d="M164.415 148.044L157.766 144.296L156.859 144.84L163.508 148.588L164.415 148.044Z" fill="white"/>
<path d="M165.079 145.989L159.821 143.027L158.914 143.571L164.173 146.533L165.079 145.989Z" fill="white"/>
<path d="M165.684 143.933L161.936 141.818L161.03 142.362L164.777 144.477L165.684 143.933Z" fill="white"/>
<path d="M169.491 143.692L163.991 140.549L163.084 141.093L168.585 144.236L169.491 143.692Z" fill="white"/>
</g>
<path d="M240.697 170.407C240.697 163.638 235.983 155.478 230.12 152.093C227.218 150.4 224.559 150.219 222.625 151.367L220.63 152.516L221.234 152.576C220.207 153.846 219.542 155.78 219.542 158.198C219.542 164.967 224.257 173.127 230.12 176.512C232.114 177.661 233.988 178.084 235.62 177.903L235.56 178.447L237.615 177.238L237.675 177.177C239.549 176.089 240.697 173.732 240.697 170.407Z" fill="#9FFFD7"/>
<path d="M235.579 178.437C239.713 176.05 239.722 168.327 235.599 161.186C231.476 154.046 224.783 150.192 220.649 152.579C216.515 154.966 216.506 162.689 220.628 169.83C224.751 176.97 231.445 180.824 235.579 178.437Z" fill="#73F2C8"/>
<path d="M232.356 177.963C231.026 177.963 229.575 177.54 228.004 176.633C222.685 173.551 218.393 166.116 218.393 160.011C218.393 156.989 219.421 154.813 221.234 153.725C223.108 152.637 225.525 152.879 228.125 154.39C233.444 157.473 237.735 164.907 237.735 171.012C237.735 173.974 236.708 176.21 234.894 177.298C234.169 177.721 233.262 177.963 232.356 177.963ZM223.833 153.362C222.926 153.362 222.141 153.544 221.415 153.967C219.662 154.994 218.695 157.11 218.695 160.011C218.695 165.995 222.926 173.369 228.125 176.392C230.603 177.842 232.96 178.084 234.713 177.057C236.466 176.029 237.433 173.913 237.433 171.012C237.433 165.028 233.202 157.654 228.004 154.632C226.553 153.785 225.163 153.362 223.833 153.362Z" fill="#18B271"/>
<path d="M146.162 182.315C146.162 175.546 141.447 167.386 135.584 164.001C132.683 162.308 130.023 162.127 128.089 163.275L126.095 164.424L126.699 164.484C125.671 165.754 125.007 167.688 125.007 170.106C125.007 176.875 129.721 185.035 135.584 188.42C137.579 189.569 139.453 189.992 141.085 189.81L141.024 190.354L143.079 189.146L143.14 189.085C145.014 187.997 146.162 185.64 146.162 182.315Z" fill="#9FFFD7"/>
<path d="M141.034 190.291C145.168 187.904 145.177 180.181 141.054 173.04C136.931 165.899 130.238 162.046 126.104 164.433C121.97 166.819 121.961 174.543 126.083 181.684C130.206 188.824 136.9 192.678 141.034 190.291Z" fill="#73F2C8"/>
<path d="M137.7 189.388C136.43 189.388 134.98 188.964 133.529 188.118C128.452 185.156 124.281 178.024 124.281 172.161C124.281 169.26 125.248 167.144 127.061 166.116C128.814 165.089 131.172 165.331 133.71 166.781C138.788 169.743 142.958 176.876 142.958 182.739C142.958 185.64 141.991 187.756 140.178 188.783C139.392 189.146 138.546 189.388 137.7 189.388ZM129.479 165.693C128.633 165.693 127.847 165.875 127.182 166.298C125.49 167.265 124.583 169.32 124.583 172.1C124.583 177.903 128.633 184.915 133.65 187.816C136.068 189.206 138.304 189.448 139.996 188.481C141.689 187.514 142.596 185.459 142.596 182.678C142.596 176.876 138.546 169.864 133.529 166.963C132.078 166.116 130.748 165.693 129.479 165.693Z" fill="#18B271"/>
</g>
<path d="M81.7127 313V299H87.7727C89.0261 299 90.1061 299.207 91.0127 299.62C91.9194 300.02 92.6194 300.6 93.1127 301.36C93.6061 302.12 93.8527 303.027 93.8527 304.08C93.8527 305.12 93.6061 306.02 93.1127 306.78C92.6194 307.54 91.9194 308.127 91.0127 308.54C90.1061 308.94 89.0261 309.14 87.7727 309.14H83.5127L84.9527 307.68V313H81.7127ZM84.9527 308.04L83.5127 306.5H87.5927C88.5927 306.5 89.3394 306.287 89.8327 305.86C90.3261 305.433 90.5727 304.84 90.5727 304.08C90.5727 303.307 90.3261 302.707 89.8327 302.28C89.3394 301.853 88.5927 301.64 87.5927 301.64H83.5127L84.9527 300.1V308.04ZM95.9459 313V302.24H98.9259V305.28L98.5059 304.4C98.8259 303.64 99.3392 303.067 100.046 302.68C100.753 302.28 101.613 302.08 102.626 302.08V304.96C102.493 304.947 102.373 304.94 102.266 304.94C102.159 304.927 102.046 304.92 101.926 304.92C101.073 304.92 100.379 305.167 99.8459 305.66C99.3259 306.14 99.0659 306.893 99.0659 307.92V313H95.9459ZM104.481 313V302.24H107.601V313H104.481ZM106.041 300.74C105.468 300.74 105.001 300.573 104.641 300.24C104.281 299.907 104.101 299.493 104.101 299C104.101 298.507 104.281 298.093 104.641 297.76C105.001 297.427 105.468 297.26 106.041 297.26C106.614 297.26 107.081 297.42 107.441 297.74C107.801 298.047 107.981 298.447 107.981 298.94C107.981 299.46 107.801 299.893 107.441 300.24C107.094 300.573 106.628 300.74 106.041 300.74ZM115.697 313.16C114.537 313.16 113.503 312.927 112.597 312.46C111.69 311.98 110.977 311.32 110.457 310.48C109.95 309.64 109.697 308.687 109.697 307.62C109.697 306.54 109.95 305.587 110.457 304.76C110.977 303.92 111.69 303.267 112.597 302.8C113.503 302.32 114.537 302.08 115.697 302.08C116.83 302.08 117.817 302.32 118.657 302.8C119.497 303.267 120.117 303.94 120.517 304.82L118.097 306.12C117.817 305.613 117.463 305.24 117.037 305C116.623 304.76 116.17 304.64 115.677 304.64C115.143 304.64 114.663 304.76 114.237 305C113.81 305.24 113.47 305.58 113.217 306.02C112.977 306.46 112.857 306.993 112.857 307.62C112.857 308.247 112.977 308.78 113.217 309.22C113.47 309.66 113.81 310 114.237 310.24C114.663 310.48 115.143 310.6 115.677 310.6C116.17 310.6 116.623 310.487 117.037 310.26C117.463 310.02 117.817 309.64 118.097 309.12L120.517 310.44C120.117 311.307 119.497 311.98 118.657 312.46C117.817 312.927 116.83 313.16 115.697 313.16ZM127.516 313.16C126.29 313.16 125.21 312.92 124.276 312.44C123.356 311.96 122.643 311.307 122.136 310.48C121.63 309.64 121.376 308.687 121.376 307.62C121.376 306.54 121.623 305.587 122.116 304.76C122.623 303.92 123.31 303.267 124.176 302.8C125.043 302.32 126.023 302.08 127.116 302.08C128.17 302.08 129.116 302.307 129.956 302.76C130.81 303.2 131.483 303.84 131.976 304.68C132.47 305.507 132.716 306.5 132.716 307.66C132.716 307.78 132.71 307.92 132.696 308.08C132.683 308.227 132.67 308.367 132.656 308.5H123.916V306.68H131.016L129.816 307.22C129.816 306.66 129.703 306.173 129.476 305.76C129.25 305.347 128.936 305.027 128.536 304.8C128.136 304.56 127.67 304.44 127.136 304.44C126.603 304.44 126.13 304.56 125.716 304.8C125.316 305.027 125.003 305.353 124.776 305.78C124.55 306.193 124.436 306.687 124.436 307.26V307.74C124.436 308.327 124.563 308.847 124.816 309.3C125.083 309.74 125.45 310.08 125.916 310.32C126.396 310.547 126.956 310.66 127.596 310.66C128.17 310.66 128.67 310.573 129.096 310.4C129.536 310.227 129.936 309.967 130.296 309.62L131.956 311.42C131.463 311.98 130.843 312.413 130.096 312.72C129.35 313.013 128.49 313.16 127.516 313.16ZM154.238 302.08C155.091 302.08 155.844 302.253 156.498 302.6C157.164 302.933 157.684 303.453 158.058 304.16C158.444 304.853 158.638 305.747 158.638 306.84V313H155.518V307.32C155.518 306.453 155.338 305.813 154.978 305.4C154.618 304.987 154.111 304.78 153.458 304.78C153.004 304.78 152.598 304.887 152.238 305.1C151.878 305.3 151.598 305.607 151.398 306.02C151.198 306.433 151.098 306.96 151.098 307.6V313H147.978V307.32C147.978 306.453 147.798 305.813 147.438 305.4C147.091 304.987 146.591 304.78 145.938 304.78C145.484 304.78 145.078 304.887 144.718 305.1C144.358 305.3 144.078 305.607 143.878 306.02C143.678 306.433 143.578 306.96 143.578 307.6V313H140.458V302.24H143.438V305.18L142.878 304.32C143.251 303.587 143.778 303.033 144.458 302.66C145.151 302.273 145.938 302.08 146.818 302.08C147.804 302.08 148.664 302.333 149.398 302.84C150.144 303.333 150.638 304.093 150.878 305.12L149.778 304.82C150.138 303.98 150.711 303.313 151.498 302.82C152.298 302.327 153.211 302.08 154.238 302.08ZM166.632 313.16C165.486 313.16 164.466 312.92 163.572 312.44C162.692 311.96 161.992 311.307 161.472 310.48C160.966 309.64 160.712 308.687 160.712 307.62C160.712 306.54 160.966 305.587 161.472 304.76C161.992 303.92 162.692 303.267 163.572 302.8C164.466 302.32 165.486 302.08 166.632 302.08C167.766 302.08 168.779 302.32 169.672 302.8C170.566 303.267 171.266 303.913 171.772 304.74C172.279 305.567 172.532 306.527 172.532 307.62C172.532 308.687 172.279 309.64 171.772 310.48C171.266 311.307 170.566 311.96 169.672 312.44C168.779 312.92 167.766 313.16 166.632 313.16ZM166.632 310.6C167.152 310.6 167.619 310.48 168.032 310.24C168.446 310 168.772 309.66 169.012 309.22C169.252 308.767 169.372 308.233 169.372 307.62C169.372 306.993 169.252 306.46 169.012 306.02C168.772 305.58 168.446 305.24 168.032 305C167.619 304.76 167.152 304.64 166.632 304.64C166.112 304.64 165.646 304.76 165.232 305C164.819 305.24 164.486 305.58 164.232 306.02C163.992 306.46 163.872 306.993 163.872 307.62C163.872 308.233 163.992 308.767 164.232 309.22C164.486 309.66 164.819 310 165.232 310.24C165.646 310.48 166.112 310.6 166.632 310.6ZM181.158 302.08C182.011 302.08 182.771 302.253 183.438 302.6C184.118 302.933 184.651 303.453 185.038 304.16C185.424 304.853 185.618 305.747 185.618 306.84V313H182.498V307.32C182.498 306.453 182.304 305.813 181.918 305.4C181.544 304.987 181.011 304.78 180.318 304.78C179.824 304.78 179.378 304.887 178.978 305.1C178.591 305.3 178.284 305.613 178.058 306.04C177.844 306.467 177.738 307.013 177.738 307.68V313H174.618V302.24H177.598V305.22L177.038 304.32C177.424 303.6 177.978 303.047 178.698 302.66C179.418 302.273 180.238 302.08 181.158 302.08ZM188.446 313V302.24H191.566V313H188.446ZM190.006 300.74C189.433 300.74 188.966 300.573 188.606 300.24C188.246 299.907 188.066 299.493 188.066 299C188.066 298.507 188.246 298.093 188.606 297.76C188.966 297.427 189.433 297.26 190.006 297.26C190.579 297.26 191.046 297.42 191.406 297.74C191.766 298.047 191.946 298.447 191.946 298.94C191.946 299.46 191.766 299.893 191.406 300.24C191.059 300.573 190.593 300.74 190.006 300.74ZM198.861 313.16C197.595 313.16 196.608 312.84 195.901 312.2C195.195 311.547 194.841 310.58 194.841 309.3V299.86H197.961V309.26C197.961 309.713 198.081 310.067 198.321 310.32C198.561 310.56 198.888 310.68 199.301 310.68C199.795 310.68 200.215 310.547 200.561 310.28L201.401 312.48C201.081 312.707 200.695 312.88 200.241 313C199.801 313.107 199.341 313.16 198.861 313.16ZM193.181 304.88V302.48H200.641V304.88H193.181ZM207.941 313.16C206.794 313.16 205.774 312.92 204.881 312.44C204.001 311.96 203.301 311.307 202.781 310.48C202.274 309.64 202.021 308.687 202.021 307.62C202.021 306.54 202.274 305.587 202.781 304.76C203.301 303.92 204.001 303.267 204.881 302.8C205.774 302.32 206.794 302.08 207.941 302.08C209.074 302.08 210.088 302.32 210.981 302.8C211.874 303.267 212.574 303.913 213.081 304.74C213.588 305.567 213.841 306.527 213.841 307.62C213.841 308.687 213.588 309.64 213.081 310.48C212.574 311.307 211.874 311.96 210.981 312.44C210.088 312.92 209.074 313.16 207.941 313.16ZM207.941 310.6C208.461 310.6 208.928 310.48 209.341 310.24C209.754 310 210.081 309.66 210.321 309.22C210.561 308.767 210.681 308.233 210.681 307.62C210.681 306.993 210.561 306.46 210.321 306.02C210.081 305.58 209.754 305.24 209.341 305C208.928 304.76 208.461 304.64 207.941 304.64C207.421 304.64 206.954 304.76 206.541 305C206.128 305.24 205.794 305.58 205.541 306.02C205.301 306.46 205.181 306.993 205.181 307.62C205.181 308.233 205.301 308.767 205.541 309.22C205.794 309.66 206.128 310 206.541 310.24C206.954 310.48 207.421 310.6 207.941 310.6ZM215.926 313V302.24H218.906V305.28L218.486 304.4C218.806 303.64 219.32 303.067 220.026 302.68C220.733 302.28 221.593 302.08 222.606 302.08V304.96C222.473 304.947 222.353 304.94 222.246 304.94C222.14 304.927 222.026 304.92 221.906 304.92C221.053 304.92 220.36 305.167 219.826 305.66C219.306 306.14 219.046 306.893 219.046 307.92V313H215.926ZM224.461 313V302.24H227.581V313H224.461ZM226.021 300.74C225.448 300.74 224.981 300.573 224.621 300.24C224.261 299.907 224.081 299.493 224.081 299C224.081 298.507 224.261 298.093 224.621 297.76C224.981 297.427 225.448 297.26 226.021 297.26C226.595 297.26 227.061 297.42 227.421 297.74C227.781 298.047 227.961 298.447 227.961 298.94C227.961 299.46 227.781 299.893 227.421 300.24C227.075 300.573 226.608 300.74 226.021 300.74ZM237.017 302.08C237.87 302.08 238.63 302.253 239.297 302.6C239.977 302.933 240.51 303.453 240.897 304.16C241.284 304.853 241.477 305.747 241.477 306.84V313H238.357V307.32C238.357 306.453 238.164 305.813 237.777 305.4C237.404 304.987 236.87 304.78 236.177 304.78C235.684 304.78 235.237 304.887 234.837 305.1C234.45 305.3 234.144 305.613 233.917 306.04C233.704 306.467 233.597 307.013 233.597 307.68V313H230.477V302.24H233.457V305.22L232.897 304.32C233.284 303.6 233.837 303.047 234.557 302.66C235.277 302.273 236.097 302.08 237.017 302.08ZM249.443 317.04C248.43 317.04 247.45 316.913 246.503 316.66C245.57 316.42 244.79 316.053 244.163 315.56L245.403 313.32C245.857 313.693 246.43 313.987 247.123 314.2C247.83 314.427 248.523 314.54 249.203 314.54C250.31 314.54 251.11 314.293 251.603 313.8C252.11 313.307 252.363 312.573 252.363 311.6V309.98L252.563 307.28L252.523 304.56V302.24H255.483V311.2C255.483 313.2 254.963 314.673 253.923 315.62C252.883 316.567 251.39 317.04 249.443 317.04ZM248.963 312.48C247.963 312.48 247.057 312.267 246.243 311.84C245.443 311.4 244.797 310.793 244.303 310.02C243.823 309.233 243.583 308.32 243.583 307.28C243.583 306.227 243.823 305.313 244.303 304.54C244.797 303.753 245.443 303.147 246.243 302.72C247.057 302.293 247.963 302.08 248.963 302.08C249.87 302.08 250.67 302.267 251.363 302.64C252.057 303 252.597 303.567 252.983 304.34C253.37 305.1 253.563 306.08 253.563 307.28C253.563 308.467 253.37 309.447 252.983 310.22C252.597 310.98 252.057 311.547 251.363 311.92C250.67 312.293 249.87 312.48 248.963 312.48ZM249.583 309.92C250.13 309.92 250.617 309.813 251.043 309.6C251.47 309.373 251.803 309.06 252.043 308.66C252.283 308.26 252.403 307.8 252.403 307.28C252.403 306.747 252.283 306.287 252.043 305.9C251.803 305.5 251.47 305.193 251.043 304.98C250.617 304.753 250.13 304.64 249.583 304.64C249.037 304.64 248.55 304.753 248.123 304.98C247.697 305.193 247.357 305.5 247.103 305.9C246.863 306.287 246.743 306.747 246.743 307.28C246.743 307.8 246.863 308.26 247.103 308.66C247.357 309.06 247.697 309.373 248.123 309.6C248.55 309.813 249.037 309.92 249.583 309.92Z" fill="#202027"/>
<defs>
<filter id="filter0_ddd_123_11595" x="0" y="0" width="337" height="402" filterUnits="userSpaceOnUse" color-interpolation-filters="sRGB">
<feFlood flood-opacity="0" result="BackgroundImageFix"/>
<feColorMatrix in="SourceAlpha" type="matrix" values="0 0 0 0 0 0 0 0 0 0 0 0 0 0 0 0 0 0 127 0" result="hardAlpha"/>
<feMorphology radius="1" operator="erode" in="SourceAlpha" result="effect1_dropShadow_123_11595"/>
<feOffset dy="4"/>
<feGaussianBlur stdDeviation="4"/>
<feComposite in2="hardAlpha" operator="out"/>
<feColorMatrix type="matrix" values="0 0 0 0 0.027451 0 0 0 0 0 0 0 0 0 0.109804 0 0 0 0.03 0"/>
<feBlend mode="normal" in2="BackgroundImageFix" result="effect1_dropShadow_123_11595"/>
<feColorMatrix in="SourceAlpha" type="matrix" values="0 0 0 0 0 0 0 0 0 0 0 0 0 0 0 0 0 0 127 0" result="hardAlpha"/>
<feMorphology radius="3" operator="erode" in="SourceAlpha" result="effect2_dropShadow_123_11595"/>
<feOffset dy="8"/>
<feGaussianBlur stdDeviation="8"/>
<feComposite in2="hardAlpha" operator="out"/>
<feColorMatrix type="matrix" values="0 0 0 0 0.027451 0 0 0 0 0 0 0 0 0 0.109804 0 0 0 0.03 0"/>
<feBlend mode="normal" in2="effect1_dropShadow_123_11595" result="effect2_dropShadow_123_11595"/>
<feColorMatrix in="SourceAlpha" type="matrix" values="0 0 0 0 0 0 0 0 0 0 0 0 0 0 0 0 0 0 127 0" result="hardAlpha"/>
<feMorphology radius="6" operator="erode" in="SourceAlpha" result="effect3_dropShadow_123_11595"/>
<feOffset dy="16"/>
<feGaussianBlur stdDeviation="16"/>
<feComposite in2="hardAlpha" operator="out"/>
<feColorMatrix type="matrix" values="0 0 0 0 0.027451 0 0 0 0 0 0 0 0 0 0.109804 0 0 0 0.02 0"/>
<feBlend mode="normal" in2="effect2_dropShadow_123_11595" result="effect3_dropShadow_123_11595"/>
<feBlend mode="normal" in="SourceGraphic" in2="effect3_dropShadow_123_11595" result="shape"/>
</filter>
<linearGradient id="paint0_linear_123_11595" x1="154.5" y1="10" x2="222.5" y2="372.5" gradientUnits="userSpaceOnUse">
<stop stop-color="#F6FCFF"/>
<stop offset="0.998764" stop-color="#7C4EFF"/>
</linearGradient>
<linearGradient id="paint1_linear_123_11595" x1="117" y1="67.1797" x2="210" y2="238.18" gradientUnits="userSpaceOnUse">
<stop stop-color="#7C4EFF"/>
<stop offset="0.904355" stop-color="#7C4EFF" stop-opacity="0"/>
</linearGradient>
<linearGradient id="paint2_linear_123_11595" x1="99.9" y1="57.427" x2="113.85" y2="83.077" gradientUnits="userSpaceOnUse">
<stop stop-color="#7C4EFF"/>
<stop offset="0.904355" stop-color="#7C4EFF" stop-opacity="0"/>
</linearGradient>
<linearGradient id="paint3_linear_123_11595" x1="188.643" y1="198.737" x2="121.428" y2="200.541" gradientUnits="userSpaceOnUse">
<stop stop-color="#5761D7"/>
<stop offset="0.0397918" stop-color="#5C66D9"/>
<stop offset="0.086699" stop-color="#6A73DF"/>
<stop offset="0.1372" stop-color="#8289E8"/>
<stop offset="0.1899" stop-color="#A3A7F5"/>
<stop offset="0.2237" stop-color="#BCBEFF"/>
</linearGradient>
<linearGradient id="paint4_linear_123_11595" x1="168.423" y1="164.098" x2="142.904" y2="204.426" gradientUnits="userSpaceOnUse">
<stop stop-color="#C0BFF6"/>
<stop offset="0.2938" stop-color="#C5C4F7"/>
<stop offset="0.6399" stop-color="#D3D2F9"/>
<stop offset="1" stop-color="#E9E9FD"/>
</linearGradient>
<linearGradient id="paint5_linear_123_11595" x1="188.566" y1="193.197" x2="121.351" y2="195.001" gradientUnits="userSpaceOnUse">
<stop stop-color="#5761D7"/>
<stop offset="0.0397918" stop-color="#5C66D9"/>
<stop offset="0.086699" stop-color="#6A73DF"/>
<stop offset="0.1372" stop-color="#8289E8"/>
<stop offset="0.1899" stop-color="#A3A7F5"/>
<stop offset="0.2237" stop-color="#BCBEFF"/>
</linearGradient>
<radialGradient id="paint6_radial_123_11595" cx="0" cy="0" r="1" gradientUnits="userSpaceOnUse" gradientTransform="translate(187.72 217.047) rotate(-120.583) scale(54.2384 54.2384)">
<stop stop-color="#16E09E"/>
<stop offset="0.0167089" stop-color="#43E0DE"/>
<stop offset="0.1117" stop-color="#47D1C0"/>
<stop offset="0.2141" stop-color="#4BB1C7"/>
<stop offset="0.3237" stop-color="#4E7FBE"/>
<stop offset="0.4431" stop-color="#506BB7"/>
<stop offset="0.5775" stop-color="#525CB3"/>
<stop offset="0.7389" stop-color="#5354B0"/>
<stop offset="1" stop-color="#5351AF"/>
</radialGradient>
<linearGradient id="paint7_linear_123_11595" x1="168.345" y1="158.558" x2="142.826" y2="198.886" gradientUnits="userSpaceOnUse">
<stop stop-color="#C0BFF6"/>
<stop offset="0.2938" stop-color="#C5C4F7"/>
<stop offset="0.6399" stop-color="#D3D2F9"/>
<stop offset="1" stop-color="#E9E9FD"/>
</linearGradient>
<linearGradient id="paint8_linear_123_11595" x1="229.298" y1="85.7847" x2="160.075" y2="205.79" gradientUnits="userSpaceOnUse">
<stop stop-color="#C0BFF6"/>
<stop offset="0.1172" stop-color="#D0CFF9"/>
<stop offset="0.2627" stop-color="#E9E9FD"/>
<stop offset="0.5143" stop-color="#C0BFF6"/>
<stop offset="0.6217" stop-color="#D0CFF9"/>
<stop offset="0.755" stop-color="#E9E9FD"/>
<stop offset="1" stop-color="#C0BFF6"/>
</linearGradient>
<radialGradient id="paint9_radial_123_11595" cx="0" cy="0" r="1" gradientUnits="userSpaceOnUse" gradientTransform="translate(268.137 160.722) rotate(-118.381) scale(159.896 159.896)">
<stop stop-color="#16E09E"/>
<stop offset="0.1117" stop-color="#47D1C0"/>
<stop offset="0.2141" stop-color="#4BB1C7"/>
<stop offset="0.3237" stop-color="#4E7FBE"/>
<stop offset="0.4431" stop-color="#4C6CC7"/>
<stop offset="0.5775" stop-color="#4956C9"/>
<stop offset="0.7389" stop-color="#494BC6"/>
<stop offset="1" stop-color="#7C4EFF"/>
</radialGradient>
<clipPath id="clip0_123_11595">
<rect width="155.947" height="136" fill="white" transform="translate(112.191 85)"/>
</clipPath>
</defs>
</svg>
