<svg width="330" height="88" viewBox="0 0 330 88" fill="none" xmlns="http://www.w3.org/2000/svg">
<path d="M303.989 32.5C309.782 32.5 315.288 37 321.081 37V37C326.007 37 330 32.9706 330 28C330 23.0294 326.007 19 321.081 19V19C315.288 19 309.782 23.5 303.989 23.5L293.579 23.5C287.785 23.5 282.28 19 276.486 19V19V19C270.693 19 265.188 23.5 259.394 23.5L248.984 23.5C243.191 23.5 237.685 19 231.892 19V19V19C226.099 19 220.593 23.5 214.8 23.5L204.389 23.5C198.596 23.5 193.09 19 187.297 19V19V19C181.504 19 175.998 23.5 170.205 23.5L159.795 23.5C154.002 23.5 148.496 19 142.703 19V19V19C136.91 19 131.404 23.5 125.611 23.5L115.2 23.5C109.407 23.5 103.901 19 98.1081 19V19V19C92.3149 19 86.8092 23.5 81.016 23.5L70.6057 23.5C64.8125 23.5 59.3067 19 53.5135 19V19V19C47.7203 19 42.2146 23.5 36.4214 23.5L26.0111 23.5C20.2179 23.5 14.7121 19 8.91893 19V19C3.99557 19 0.00392391 23.0255 1.1051e-05 27.9927L1.10507e-05 28C1.08334e-05 32.9705 3.99315 37 8.91893 37V37C14.7121 37 20.2179 32.5 26.0111 32.5L36.4214 32.5C42.2146 32.5 47.7203 37 53.5135 37V37V37C59.3067 37 64.8125 32.5 70.6057 32.5L81.016 32.5C86.8092 32.5 92.3149 37 98.1081 37V37V37C103.901 37 109.407 32.5 115.2 32.5L125.611 32.5C131.404 32.5 136.91 37 142.703 37V37V37C148.496 37 154.002 32.5 159.795 32.5L170.205 32.5C175.998 32.5 181.504 37 187.297 37V37V37C193.09 37 198.596 32.5 204.389 32.5L214.8 32.5C220.593 32.5 226.099 37 231.892 37V37V37C237.685 37 243.191 32.5 248.984 32.5L259.394 32.5C265.188 32.5 270.693 37 276.486 37V37V37C282.28 37 287.785 32.5 293.579 32.5L303.989 32.5Z" fill="#D1C8FB"/>
<path d="M196 27.9994V27.9994C196 24.8582 194.241 21.7695 191.524 20.192C190.219 19.4337 188.705 19 187.09 19V19C181.302 19 175.802 23.5 170.014 23.5L159.621 23.5C153.833 23.5 148.333 19 142.545 19V19V19C136.757 19 131.257 23.5 125.469 23.5L115.076 23.5C109.288 23.5 103.788 19 97.9997 19V19V19C92.2115 19 86.7117 23.5 80.9234 23.5L70.5308 23.5C64.7425 23.5 59.2427 19 53.4544 19V19V19C47.6662 19 42.1663 23.5 36.3781 23.5L25.9854 23.5C20.1971 23.5 14.6973 19 8.90908 19V19C3.99115 19 0.00391781 23.0255 9.27389e-06 27.9927L9.27357e-06 28C9.0563e-06 32.9706 3.98874 37 8.90908 37V37C14.6973 37 20.1972 32.5 25.9854 32.5L36.3781 32.5C42.1664 32.5 47.6662 37 53.4544 37V37V37C59.2427 37 64.7425 32.5 70.5308 32.5L80.9234 32.5C86.7117 32.5 92.2115 37 97.9997 37V37V37C103.788 37 109.288 32.5 115.076 32.5L125.469 32.5C131.257 32.5 136.757 37 142.545 37V37V37C148.333 37 153.833 32.5 159.621 32.5L170.014 32.5C175.802 32.5 181.302 37 187.09 37V37C188.704 37 190.218 36.5666 191.523 35.8086C194.24 34.2311 196 31.1414 196 27.9994V27.9994Z" fill="#7C4EFF"/>
<path d="M196 27.9994V27.9994C196 24.8582 194.241 21.7695 191.524 20.192C190.219 19.4337 188.705 19 187.09 19V19C181.302 19 175.802 23.5 170.014 23.5L159.621 23.5C153.833 23.5 148.333 19 142.545 19V19V19C136.757 19 131.257 23.5 125.469 23.5L115.076 23.5C109.288 23.5 103.788 19 97.9997 19V19V19C92.2115 19 86.7117 23.5 80.9234 23.5L70.5308 23.5C64.7425 23.5 59.2427 19 53.4544 19V19V19C47.6662 19 42.1663 23.5 36.3781 23.5L25.9854 23.5C20.1971 23.5 14.6973 19 8.90908 19V19C3.99115 19 0.00391781 23.0255 9.27389e-06 27.9927L9.27357e-06 28C9.0563e-06 32.9706 3.98874 37 8.90908 37V37C14.6973 37 20.1972 32.5 25.9854 32.5L36.3781 32.5C42.1664 32.5 47.6662 37 53.4544 37V37V37C59.2427 37 64.7425 32.5 70.5308 32.5L80.9234 32.5C86.7117 32.5 92.2115 37 97.9997 37V37V37C103.788 37 109.288 32.5 115.076 32.5L125.469 32.5C131.257 32.5 136.757 37 142.545 37V37V37C148.333 37 153.833 32.5 159.621 32.5L170.014 32.5C175.802 32.5 181.302 37 187.09 37V37C188.704 37 190.218 36.5666 191.523 35.8086C194.24 34.2311 196 31.1414 196 27.9994V27.9994Z" fill="url(#paint0_linear_0_1)"/>
<g filter="url(#filter0_ddd_0_1)">
<circle cx="187" cy="28.0001" r="18" fill="url(#paint1_linear_0_1)"/>
<circle cx="187" cy="28.0001" r="16.5" stroke="url(#paint2_linear_0_1)" stroke-width="3"/>
</g>
<circle cx="187" cy="28" r="7.5" stroke="url(#paint3_linear_0_1)" stroke-width="3"/>
<defs>
<filter id="filter0_ddd_0_1" x="143" y="0.00012207" width="88" height="88" filterUnits="userSpaceOnUse" color-interpolation-filters="sRGB">
<feFlood flood-opacity="0" result="BackgroundImageFix"/>
<feColorMatrix in="SourceAlpha" type="matrix" values="0 0 0 0 0 0 0 0 0 0 0 0 0 0 0 0 0 0 127 0" result="hardAlpha"/>
<feMorphology radius="1" operator="erode" in="SourceAlpha" result="effect1_dropShadow_0_1"/>
<feOffset dy="4"/>
<feGaussianBlur stdDeviation="4"/>
<feComposite in2="hardAlpha" operator="out"/>
<feColorMatrix type="matrix" values="0 0 0 0 0.027451 0 0 0 0 0 0 0 0 0 0.109804 0 0 0 0.03 0"/>
<feBlend mode="normal" in2="BackgroundImageFix" result="effect1_dropShadow_0_1"/>
<feColorMatrix in="SourceAlpha" type="matrix" values="0 0 0 0 0 0 0 0 0 0 0 0 0 0 0 0 0 0 127 0" result="hardAlpha"/>
<feMorphology radius="3" operator="erode" in="SourceAlpha" result="effect2_dropShadow_0_1"/>
<feOffset dy="8"/>
<feGaussianBlur stdDeviation="8"/>
<feComposite in2="hardAlpha" operator="out"/>
<feColorMatrix type="matrix" values="0 0 0 0 0.027451 0 0 0 0 0 0 0 0 0 0.109804 0 0 0 0.03 0"/>
<feBlend mode="normal" in2="effect1_dropShadow_0_1" result="effect2_dropShadow_0_1"/>
<feColorMatrix in="SourceAlpha" type="matrix" values="0 0 0 0 0 0 0 0 0 0 0 0 0 0 0 0 0 0 127 0" result="hardAlpha"/>
<feMorphology radius="6" operator="erode" in="SourceAlpha" result="effect3_dropShadow_0_1"/>
<feOffset dy="16"/>
<feGaussianBlur stdDeviation="16"/>
<feComposite in2="hardAlpha" operator="out"/>
<feColorMatrix type="matrix" values="0 0 0 0 0.027451 0 0 0 0 0 0 0 0 0 0.109804 0 0 0 0.02 0"/>
<feBlend mode="normal" in2="effect2_dropShadow_0_1" result="effect3_dropShadow_0_1"/>
<feBlend mode="normal" in="SourceGraphic" in2="effect3_dropShadow_0_1" result="shape"/>
</filter>
<linearGradient id="paint0_linear_0_1" x1="186.86" y1="18.874" x2="-0.0345017" y2="36.637" gradientUnits="userSpaceOnUse">
<stop offset="0.0432567" stop-color="#672DE3"/>
<stop offset="0.258152" stop-color="#7C4EFF"/>
<stop offset="0.612945" stop-color="#7C4EFF"/>
<stop offset="0.918729" stop-color="#C64EFF"/>
<stop offset="1" stop-color="#FF4EA3"/>
</linearGradient>
<linearGradient id="paint1_linear_0_1" x1="197.688" y1="39.2501" x2="175.81" y2="16.6745" gradientUnits="userSpaceOnUse">
<stop stop-color="#EEF2F7"/>
<stop offset="1" stop-color="#C6CBD3"/>
</linearGradient>
<linearGradient id="paint2_linear_0_1" x1="177.438" y1="13.3751" x2="202.794" y2="37.086" gradientUnits="userSpaceOnUse">
<stop stop-color="#ECF0F8"/>
<stop offset="1" stop-color="#CFD5DE"/>
</linearGradient>
<linearGradient id="paint3_linear_0_1" x1="182" y1="19" x2="196" y2="37" gradientUnits="userSpaceOnUse">
<stop stop-color="#693EE3"/>
<stop offset="1" stop-color="#A889FF"/>
</linearGradient>
</defs>
</svg>

