<svg width="68" height="13" viewBox="0 0 68 13" fill="none" xmlns="http://www.w3.org/2000/svg">
    <path d="M55.7199 4.99305L59.2481 4.42281L61.1478 1.26018L61.7494 2.63032L62.6589 3.51922L63.1137 4.42281V10.6296L61.0936 9.55556L57.7825 11.1109L58.2168 7.53353L55.7199 4.99305ZM1.4953 5.09674L5.02343 4.5265L6.86891 1.15649L8.55156 4.4746L12.351 5.09674L9.69141 7.58543L10.2342 11.2146L6.86891 9.65925L3.50362 11.2146L3.93785 7.63722L1.4953 5.09674ZM15.0107 5.09674L18.5388 4.5265L20.3844 1.15649L22.1213 4.4746L25.8665 5.09674L23.2069 7.58543L23.804 11.2146L20.3844 9.65925L17.0734 11.2146L17.5075 7.63722L15.0107 5.09674ZM28.7975 5.09674L32.3257 4.5265L34.1712 1.15649L35.8538 4.4746L39.6534 5.09674L36.9937 7.58543L37.5908 11.2146L34.1712 9.65925L30.8059 11.2146L31.2402 7.63722L28.7975 5.09674ZM42.1502 5.09674L45.6783 4.5265L47.5238 1.15649L49.2608 4.4746L53.0061 5.09674L50.3464 7.58543L50.9434 11.2146L47.5238 9.65925L44.2128 11.2146L44.6471 7.63722L42.1502 5.09674Z" fill="#FF492C"/>
    <path d="M13.3826 4.77891L8.87744 4.15677L6.86913 0.268311L4.8608 4.15677L0.355652 4.77891L3.61239 7.78606L2.85248 12.0893L6.86913 10.0673L10.8858 12.0893L10.1259 7.78606L13.3826 4.77891ZM6.86913 9.13404L4.04661 10.5857L4.58941 7.57868L2.30969 5.45296L5.51215 4.98629L6.92339 2.23843L8.33464 4.98629L11.5371 5.45296L9.25739 7.57868L9.80019 10.5857L6.86913 9.13404ZM26.9524 4.77891L22.4472 4.15677L20.4388 0.268311L18.4306 4.15677L13.9254 4.77891L17.1821 7.78606L16.4222 12.0893L20.4388 10.0673L24.4555 12.0893L23.6956 7.78606L26.9524 4.77891ZM20.4388 9.13404L17.6163 10.5857L18.1591 7.57868L15.8794 5.45296L19.0819 4.98629L20.4931 2.23843L21.9044 4.98629L25.1068 5.45296L22.8271 7.57868L23.3699 10.5857L20.4388 9.13404ZM40.5221 4.77891L36.0169 4.15677L34.0086 0.268311L32.0003 4.15677L27.4951 4.77891L30.7518 7.78606L29.9919 12.0893L34.0086 10.0673L38.0252 12.0893L37.2653 7.78606L40.5221 4.77891ZM34.0086 9.13404L31.1861 10.5857L31.7289 7.57868L29.4491 5.45296L32.6516 4.98629L34.0628 2.23843L35.4741 4.98629L38.6765 5.45296L36.3968 7.57868L36.9396 10.5857L34.0086 9.13404ZM54.0918 4.77891L49.5866 4.15677L47.5783 0.268311L45.57 4.15677L41.0649 4.77891L44.3215 7.78606L43.5617 12.0893L47.5783 10.0673L51.5949 12.0893L50.835 7.78606L54.0918 4.77891ZM47.5783 9.13404L44.7558 10.5857L45.2986 7.57868L43.0189 5.45296L46.2214 4.98629L47.6326 2.23843L49.0439 4.98629L52.2463 5.45296L49.9665 7.57868L50.5093 10.5857L47.5783 9.13404ZM67.6615 4.77891L63.1564 4.15677L61.148 0.268311L59.1397 4.15677L54.6346 4.77891L57.8914 7.78606L57.1314 12.0893L61.148 10.0673L65.1646 12.0893L64.4048 7.78606L67.6615 4.77891ZM61.148 9.13404L58.3255 10.5857L58.8683 7.57868L56.5886 5.45296L59.7911 4.98629L61.2023 2.23843L62.6136 4.98629L65.8161 5.45296L63.5364 7.57868L64.079 10.5857L61.148 9.13404Z" fill="#FF492C"/>
</svg>
