<svg width="73" height="13" viewBox="0 0 73 13" fill="none" xmlns="http://www.w3.org/2000/svg">
    <path d="M59.7464 5.0793L63.4955 4.47334L65.5142 1.11263L66.1534 2.56859L67.1199 3.51315L67.6031 4.58352L70.9605 5.42474L68.4063 8.13703L69.2094 11.6905L67.6031 11.0688L65.4565 9.92757L61.9382 11.5803L62.3995 7.7789L59.7464 5.0793ZM2.1254 5.18948L5.87452 4.58352L7.83558 1.00244L9.62362 4.52837L13.6611 5.18948L10.8349 7.83405L11.4117 11.6905L7.83558 10.0378L4.25951 11.6905L4.72094 7.88908L2.1254 5.18948ZM16.4874 5.18948L20.2365 4.58352L22.1975 1.00244L24.0433 4.52837L28.0231 5.18948L25.1969 7.83405L25.8313 11.6905L22.1975 10.0378L18.6791 11.6905L19.1406 7.88908L16.4874 5.18948ZM31.1378 5.18948L34.8869 4.58352L36.848 1.00244L38.636 4.52837L42.6734 5.18948L39.8473 7.83405L40.4817 11.6905L36.848 10.0378L33.2719 11.6905L33.7333 7.88908L31.1378 5.18948ZM45.3267 5.18948L49.0758 4.58352L51.0369 1.00244L52.8826 4.52837L56.8624 5.18948L54.0362 7.83405L54.6707 11.6905L51.0369 10.0378L47.5185 11.6905L47.9799 7.88908L45.3267 5.18948Z" fill="#FF9D28"/>
    <path d="M14.7551 4.86123L9.96784 4.20012L7.83373 0.0681152L5.69962 4.20012L0.912292 4.86123L4.37301 8.05673L3.56551 12.6295L7.83373 10.4808L12.102 12.6295L11.2944 8.05673L14.7551 4.86123ZM7.83373 9.48914L4.83445 11.0317L5.41123 7.83636L2.98873 5.5775L6.39177 5.08173L7.89141 2.16176L9.39105 5.08173L12.7941 5.5775L10.3716 7.83636L10.9484 11.0317L7.83373 9.48914ZM29.1748 4.86123L24.3875 4.20012L22.2533 0.0681152L20.1193 4.20012L15.3319 4.86123L18.7927 8.05673L17.9852 12.6295L22.2533 10.4808L26.5217 12.6295L25.7141 8.05673L29.1748 4.86123ZM22.2533 9.48914L19.2541 11.0317L19.8309 7.83636L17.4084 5.5775L20.8114 5.08173L22.3111 2.16176L23.8107 5.08173L27.2138 5.5775L24.7913 7.83636L25.3681 11.0317L22.2533 9.48914ZM43.5945 4.86123L38.8071 4.20012L36.6731 0.0681152L34.5389 4.20012L29.7516 4.86123L33.2123 8.05673L32.4048 12.6295L36.6731 10.4808L40.9413 12.6295L40.1337 8.05673L43.5945 4.86123ZM36.6731 9.48914L33.6738 11.0317L34.2505 7.83636L31.828 5.5775L35.2311 5.08173L36.7307 2.16176L38.2303 5.08173L41.6334 5.5775L39.2109 7.83636L39.7877 11.0317L36.6731 9.48914ZM58.0141 4.86123L53.2268 4.20012L51.0927 0.0681152L48.9586 4.20012L44.1713 4.86123L47.632 8.05673L46.8245 12.6295L51.0927 10.4808L55.3609 12.6295L54.5534 8.05673L58.0141 4.86123ZM51.0927 9.48914L48.0934 11.0317L48.6702 7.83636L46.2478 5.5775L49.6507 5.08173L51.1504 2.16176L52.65 5.08173L56.053 5.5775L53.6305 7.83636L54.2073 11.0317L51.0927 9.48914ZM72.4338 4.86123L67.6465 4.20012L65.5124 0.0681152L63.3782 4.20012L58.5909 4.86123L62.0516 8.05673L61.2442 12.6295L65.5124 10.4808L69.7805 12.6295L68.9731 8.05673L72.4338 4.86123ZM65.5124 9.48914L62.5131 11.0317L63.0899 7.83636L60.6674 5.5775L64.0704 5.08173L65.5701 2.16176L67.0697 5.08173L70.4728 5.5775L68.0502 7.83636L68.627 11.0317L65.5124 9.48914Z" fill="#FF9D28"/>
</svg>
