<svg width="104" height="22" viewBox="0 0 104 22" fill="none" xmlns="http://www.w3.org/2000/svg">
<path d="M-0.00012207 21.9998L6.7283 3.34518C7.06423 2.42099 7.61752 1.72784 8.38818 1.26574C9.15884 0.783555 10.0283 0.542461 10.9966 0.542461C11.9648 0.542461 12.8343 0.773511 13.6049 1.23561C14.3756 1.67761 14.9289 2.37076 15.2648 3.31505L22.0229 21.9998H16.6579L15.3537 17.9314H6.55046L5.18699 21.9998H-0.00012207ZM7.82501 13.7424H14.0792L11.4412 5.33421C11.4016 5.21366 11.3424 5.1333 11.2633 5.09311C11.204 5.03284 11.125 5.00271 11.0262 5.00271C10.9274 5.00271 10.8385 5.03284 10.7594 5.09311C10.7002 5.15339 10.6606 5.23375 10.6409 5.33421L7.82501 13.7424Z" fill="#E8F1F9"/>
<path d="M23.8215 21.9998V17.7807H32.6841C33.0793 17.7807 33.435 17.6802 33.7511 17.4793C34.0673 17.2784 34.3143 17.0172 34.4921 16.6958C34.6897 16.3743 34.7885 16.0227 34.7885 15.641C34.7885 15.2392 34.6897 14.8775 34.4921 14.5561C34.3143 14.2346 34.0673 13.9734 33.7511 13.7725C33.435 13.5716 33.0793 13.4711 32.6841 13.4711H29.4829C28.2775 13.4711 27.1808 13.23 26.1928 12.7479C25.2047 12.2657 24.4143 11.5625 23.8215 10.6383C23.2484 9.694 22.9619 8.56889 22.9619 7.26296C22.9619 5.97713 23.2386 4.86207 23.7919 3.91778C24.3452 2.9735 25.0961 2.24017 26.0446 1.7178C26.9931 1.17533 28.0404 0.904102 29.1865 0.904102H38.3454V5.12325H29.7496C29.3939 5.12325 29.0679 5.21366 28.7715 5.39448C28.4751 5.5753 28.2478 5.8164 28.0898 6.11777C27.9317 6.41913 27.8526 6.75064 27.8526 7.11228C27.8526 7.47392 27.9317 7.80543 28.0898 8.10679C28.2478 8.38807 28.4751 8.61912 28.7715 8.79994C29.0679 8.98076 29.3939 9.07117 29.7496 9.07117H33.099C34.423 9.07117 35.5691 9.33236 36.5373 9.85473C37.5254 10.357 38.2861 11.0702 38.8197 11.9944C39.373 12.8985 39.6496 13.9634 39.6496 15.1889C39.6496 16.6355 39.3631 17.8711 38.79 18.8958C38.2367 19.9003 37.4858 20.6738 36.5373 21.2163C35.5888 21.7387 34.5415 21.9998 33.3954 21.9998H23.8215Z" fill="#E8F1F9"/>
<path d="M49.9747 21.9998C48.4136 21.9998 47.0106 21.6483 45.7657 20.9451C44.5208 20.2419 43.5328 19.2775 42.8017 18.0519C42.0903 16.8264 41.7346 15.4501 41.7346 13.9232C41.7346 12.3762 42.0903 10.9999 42.8017 9.79445C43.5328 8.56889 44.5208 7.60451 45.7657 6.90132C47.0106 6.17804 48.4136 5.8164 49.9747 5.8164C51.5358 5.8164 52.9289 6.17804 54.154 6.90132C55.3989 7.60451 56.3771 8.56889 57.0885 9.79445C57.8196 10.9999 58.1852 12.3762 58.1852 13.9232C58.1852 15.4501 57.8196 16.8264 57.0885 18.0519C56.3771 19.2775 55.3989 20.2419 54.154 20.9451C52.9091 21.6483 51.516 21.9998 49.9747 21.9998ZM49.9747 17.9314C50.7058 17.9314 51.3382 17.7506 51.8717 17.3889C52.4052 17.0273 52.8202 16.5451 53.1166 15.9424C53.413 15.3396 53.5612 14.6565 53.5612 13.8931C53.5612 13.1497 53.413 12.4766 53.1166 11.8739C52.8202 11.2712 52.4052 10.789 51.8717 10.4273C51.3382 10.0657 50.7058 9.88486 49.9747 9.88486C49.2436 9.88486 48.6013 10.0657 48.0481 10.4273C47.5145 10.789 47.0996 11.2712 46.8031 11.8739C46.5067 12.4766 46.3585 13.1497 46.3585 13.8931C46.3585 14.6565 46.5067 15.3396 46.8031 15.9424C47.0996 16.5451 47.5145 17.0273 48.0481 17.3889C48.6013 17.7506 49.2436 17.9314 49.9747 17.9314Z" fill="#E8F1F9"/>
<path d="M68.5671 21.9998C66.9862 21.9998 65.5832 21.6683 64.3581 21.0053C63.133 20.3222 62.1647 19.4081 61.4533 18.2629C60.7419 17.0976 60.3863 15.7716 60.3863 14.2848C60.3863 12.7981 60.7419 11.4821 61.4533 10.3369C62.1647 9.17163 63.133 8.24743 64.3581 7.56433C65.5832 6.88123 66.9862 6.53968 68.5671 6.53968H70.8494V10.4876H68.7449C67.9743 10.4876 67.3123 10.6584 66.759 10.9999C66.2057 11.3214 65.771 11.7734 65.4548 12.3561C65.1584 12.9186 65.0102 13.5616 65.0102 14.2848C65.0102 15.0081 65.1584 15.6611 65.4548 16.2437C65.771 16.8063 66.2057 17.2583 66.759 17.5999C67.3123 17.9213 67.9743 18.0821 68.7449 18.0821H70.8494V21.9998H68.5671Z" fill="#E8F1F9"/>
<path d="M73.4494 21.9999V4.26512e-05H78.0437V12.3863H80.0592L83.5272 6.53972H88.655L84.5646 12.989C85.7502 13.4913 86.6691 14.2648 87.3212 15.3095C87.9931 16.3342 88.329 17.5396 88.329 18.9259V21.9999H83.705V18.9259C83.705 18.3634 83.5667 17.8611 83.2901 17.4191C83.0332 16.957 82.6874 16.5954 82.2527 16.3342C81.8179 16.073 81.3239 15.9424 80.7706 15.9424H78.0437V21.9999H73.4494Z" fill="#E8F1F9"/>
<path d="M91.0758 21.9999V18.2931H98.3971C98.5947 18.2931 98.7725 18.2529 98.9306 18.1725C99.0887 18.0721 99.2171 17.9415 99.3159 17.7807C99.4148 17.62 99.4641 17.4492 99.4641 17.2684C99.4641 17.0675 99.4148 16.8867 99.3159 16.726C99.2171 16.5652 99.0887 16.4447 98.9306 16.3643C98.7725 16.2639 98.5947 16.2136 98.3971 16.2136H95.7294C94.7414 16.2136 93.8423 16.0529 93.0321 15.7314C92.2417 15.3899 91.6094 14.8675 91.1351 14.1643C90.6806 13.441 90.4534 12.5068 90.4534 11.3616C90.4534 10.4776 90.6609 9.67395 91.0758 8.95067C91.5106 8.22738 92.0935 7.64474 92.8246 7.20273C93.5755 6.76073 94.3956 6.53972 95.2848 6.53972H102.606V10.2767H95.9962C95.7195 10.2767 95.4824 10.3671 95.2848 10.5479C95.107 10.7287 95.018 10.9497 95.018 11.2109C95.018 11.4922 95.107 11.7333 95.2848 11.9342C95.4824 12.115 95.7195 12.2054 95.9962 12.2054H98.6046C99.7112 12.2054 100.66 12.3762 101.45 12.7178C102.26 13.0392 102.883 13.5616 103.317 14.2849C103.772 15.0082 103.999 15.9424 103.999 17.0876C103.999 17.9917 103.772 18.8154 103.317 19.5588C102.883 20.3022 102.29 20.8949 101.539 21.3369C100.808 21.7789 99.9779 21.9999 99.0492 21.9999H91.0758Z" fill="#E8F1F9"/>
</svg>
