<svg width="24" height="24" viewBox="0 0 24 24" fill="none" xmlns="http://www.w3.org/2000/svg">
<path opacity="0.4" d="M12 22C17.5228 22 22 17.5228 22 12C22 6.47715 17.5228 2 12 2C6.47715 2 2 6.47715 2 12C2 17.5228 6.47715 22 12 22Z" fill="#D1C8FB"/>
<path d="M16.15 12.8299L14.42 13.4099C14.1707 13.493 12.1059 11.89 11.9998 12C11.8771 12.1272 13.5896 14.0801 13.4998 14.5C13.41 14.9199 12.9998 16 12.9998 16C12.5098 17.49 10.24 17.6099 9.78 16.1199L7.83 9.83988C7.45 8.58988 8.6 7.43989 9.83 7.81989L16.12 9.76987C17.61 10.2399 17.63 12.3399 16.15 12.8299Z" fill="#F9FBFD"/>
</svg>
