<svg width="337" height="402" viewBox="0 0 337 402" fill="none" xmlns="http://www.w3.org/2000/svg">
<g filter="url(#filter0_ddd_123_11995)">
<rect x="26" y="10" width="285" height="350" rx="24" fill="#F9FBFD"/>
<rect x="27" y="11" width="283" height="348" rx="23" stroke="url(#paint0_linear_123_11995)" stroke-opacity="0.1" stroke-width="2"/>
</g>
<circle opacity="0.4" cx="169" cy="170.82" r="80" fill="url(#paint1_linear_123_11995)"/>
<circle opacity="0.4" cx="236" cy="92.8203" r="12" fill="url(#paint2_linear_123_11995)"/>
<path d="M169.349 223.181C166.657 223.181 163.965 222.54 161.915 221.387L122.311 198.573C120.26 197.42 119.107 195.753 119.107 194.087C119.107 192.421 120.26 190.755 122.311 189.601L161.915 166.788C166.016 164.353 172.681 164.353 176.91 166.788L216.514 189.601C218.565 190.755 219.718 192.421 219.718 194.087C219.718 195.753 218.565 197.42 216.514 198.573L176.91 221.387C174.86 222.669 172.168 223.181 169.349 223.181ZM162.299 220.874C166.273 223.181 172.553 223.181 176.526 220.874L216.13 198.06C217.924 197.035 218.949 195.625 218.949 194.087C218.949 192.549 217.924 191.268 216.13 190.114L176.526 167.3C172.553 164.993 166.273 164.993 162.299 167.3L122.696 190.114C120.901 191.139 119.876 192.549 119.876 194.087C119.876 195.625 120.901 196.907 122.696 198.06L162.299 220.874Z" fill="#16E09E"/>
<path opacity="0.4" d="M220.871 185.244V171.658L218.436 170.248C217.795 174.478 212.797 177.297 208.567 177.81L180.242 194.472L167.81 198.958L128.207 178.579L129.104 178.066C125.771 176.528 123.849 172.94 122.055 169.607L119.363 171.145L117.825 171.53V185.372C117.825 187.166 118.979 188.832 121.286 190.242L160.889 213.056C165.503 215.748 173.065 215.748 177.679 213.056L217.283 190.242C219.59 188.961 220.743 187.166 220.743 185.5C220.871 185.372 220.871 185.372 220.871 185.244Z" fill="#16E09E"/>
<path d="M220.871 173.196V164.225L218.436 162.815C217.795 167.044 212.797 169.864 208.567 170.377L180.242 187.038L167.81 191.524L128.207 171.146L129.104 170.633C125.771 169.095 123.849 165.506 122.055 162.174L119.363 163.712L117.825 164.096V173.324C117.825 175.119 118.979 176.785 121.286 178.195L160.889 201.008C165.503 203.7 173.065 203.7 177.679 201.008L217.283 178.195C219.59 176.913 220.743 175.119 220.743 173.453C220.871 173.324 220.871 173.324 220.871 173.196Z" fill="url(#paint3_linear_123_11995)"/>
<path opacity="0.3" d="M208.568 170.504L180.243 187.166L169.477 191.011V203.187C172.553 203.187 175.629 202.546 177.936 201.136L217.54 178.323C219.847 177.041 221 175.247 221 173.58C221 173.452 221 173.452 221 173.324V164.352L218.693 163.071H218.437C217.668 167.172 212.669 169.864 208.568 170.504Z" fill="#7C4EFF"/>
<path d="M161.017 191.909L121.414 169.095C116.8 166.403 116.8 162.046 121.414 159.354L161.017 136.54C165.631 133.849 173.193 133.849 177.807 136.54L217.411 159.354C222.025 162.046 222.025 166.403 217.411 169.095L177.807 191.909C173.193 194.6 165.631 194.6 161.017 191.909Z" fill="url(#paint4_linear_123_11995)"/>
<path d="M161.017 191.909L121.414 169.095C116.8 166.403 116.8 162.046 121.414 159.354L161.017 136.54C165.631 133.849 173.193 133.849 177.807 136.54L217.411 159.354C222.025 162.046 222.025 166.403 217.411 169.095L177.807 191.909C173.193 194.6 165.631 194.6 161.017 191.909Z" fill="#5C30D7"/>
<g opacity="0.51">
<path d="M161.017 191.909L121.414 169.095C116.8 166.403 116.8 162.046 121.414 159.354L161.017 136.54C165.631 133.849 173.193 133.849 177.807 136.54L217.411 159.354C222.025 162.046 222.025 166.403 217.411 169.095L177.807 191.909C173.193 194.6 165.631 194.6 161.017 191.909Z" fill="#453C9E"/>
</g>
<path d="M217.41 169.095L177.806 191.908C173.192 194.6 165.631 194.6 161.016 191.908L121.413 169.095C119.362 167.941 118.209 166.403 117.952 164.737C117.696 166.66 118.849 168.71 121.413 170.12L161.016 192.934C165.631 195.625 173.192 195.625 177.806 192.934L217.41 170.12C219.973 168.582 221.127 166.66 220.871 164.737C220.614 166.403 219.461 167.941 217.41 169.095Z" fill="white"/>
<mask id="mask0_123_11995" style="mask-type:alpha" maskUnits="userSpaceOnUse" x="117" y="134" width="104" height="60">
<path d="M161.018 191.908L121.415 169.095C116.801 166.403 116.801 162.045 121.415 159.354L161.018 136.54C165.632 133.849 173.194 133.849 177.808 136.54L217.412 159.354C222.026 162.045 222.026 166.403 217.412 169.095L177.808 191.908C173.194 194.6 165.632 194.6 161.018 191.908Z" fill="#453C9E"/>
</mask>
<g mask="url(#mask0_123_11995)">
<g opacity="0.2">
<path d="M140.383 165.634V212.928C140.383 213.953 141.024 214.978 142.306 215.619L181.653 238.305C184.473 239.971 189.471 239.715 192.676 237.792C194.47 236.767 195.367 235.357 195.367 234.075V186.782L140.383 165.634Z" fill="url(#paint5_linear_123_11995)"/>
<path opacity="0.3" d="M184.602 239.33C187.293 239.714 190.369 239.202 192.676 237.92C194.471 236.895 195.368 235.485 195.368 234.203V186.909L184.73 182.808H184.474V239.33H184.602Z" fill="#5C30D7"/>
<path d="M181.652 191.011L142.305 168.326C139.486 166.659 139.87 163.84 143.074 161.917C146.407 159.995 151.277 159.867 154.097 161.405L193.444 184.09C196.264 185.756 195.879 188.576 192.675 190.498C189.471 192.421 184.472 192.677 181.652 191.011Z" fill="url(#paint6_linear_123_11995)"/>
</g>
</g>
<path opacity="0.5" d="M181.653 178.835L142.306 156.15C139.486 154.484 139.871 151.664 143.075 149.742C146.407 147.819 151.278 147.691 154.097 149.229L193.445 171.914C196.264 173.581 195.88 176.4 192.676 178.323C189.471 180.245 184.473 180.502 181.653 178.835Z" fill="#5C30D7"/>
<path d="M140.384 93.8606V141.154C140.384 142.18 141.025 143.205 142.307 143.846L181.654 166.531C184.474 168.197 189.472 167.941 192.676 166.019C194.471 164.993 195.368 163.583 195.368 162.302V115.008L140.384 93.8606Z" fill="url(#paint7_linear_123_11995)"/>
<path opacity="0.3" d="M184.603 167.557C187.294 167.941 190.37 167.428 192.677 166.147C194.472 165.121 195.369 163.712 195.369 162.43V115.136L184.731 111.035H184.474V167.557H184.603Z" fill="#5C30D7"/>
<path d="M181.653 119.237L142.306 96.5519C139.486 94.8857 139.871 92.066 143.075 90.1435C146.407 88.221 151.278 88.0929 154.097 89.6309L193.445 112.316C196.264 113.983 195.88 116.802 192.676 118.725C189.471 120.647 184.473 120.904 181.653 119.237Z" fill="url(#paint8_linear_123_11995)"/>
<path d="M185.626 116.161C183.704 116.161 182.166 114.623 182.166 112.701L182.166 80.7872C182.166 73.6098 176.911 64.51 170.759 60.9213L161.787 55.6665C159.352 54.2566 157.301 54.0003 155.891 54.7693C154.482 55.5383 153.712 57.589 153.712 60.2805V81.2999C153.712 83.2224 152.174 84.7604 150.252 84.7604C148.329 84.7604 146.791 83.2224 146.791 81.2999V60.2805C146.791 54.8975 148.714 50.9243 152.303 48.8736C155.891 46.8229 160.377 47.0793 164.991 49.7708L173.963 55.0256C182.294 59.896 188.83 71.1747 188.83 80.7872L188.83 112.701C188.958 114.752 187.42 116.161 185.626 116.161Z" fill="url(#paint9_linear_123_11995)"/>
<path d="M96.1671 313.24C94.1804 313.24 92.6271 312.687 91.5071 311.58C90.3871 310.473 89.8271 308.893 89.8271 306.84V299H93.0671V306.72C93.0671 308.053 93.3404 309.013 93.8871 309.6C94.4338 310.187 95.2004 310.48 96.1871 310.48C97.1738 310.48 97.9404 310.187 98.4871 309.6C99.0338 309.013 99.3071 308.053 99.3071 306.72V299H102.507V306.84C102.507 308.893 101.947 310.473 100.827 311.58C99.7071 312.687 98.1538 313.24 96.1671 313.24ZM112.029 302.08C112.882 302.08 113.642 302.253 114.309 302.6C114.989 302.933 115.522 303.453 115.909 304.16C116.295 304.853 116.489 305.747 116.489 306.84V313H113.369V307.32C113.369 306.453 113.175 305.813 112.789 305.4C112.415 304.987 111.882 304.78 111.189 304.78C110.695 304.78 110.249 304.887 109.849 305.1C109.462 305.3 109.155 305.613 108.929 306.04C108.715 306.467 108.609 307.013 108.609 307.68V313H105.489V302.24H108.469V305.22L107.909 304.32C108.295 303.6 108.849 303.047 109.569 302.66C110.289 302.273 111.109 302.08 112.029 302.08ZM119.317 313V298.16H122.437V313H119.317ZM130.453 313.16C129.306 313.16 128.286 312.92 127.393 312.44C126.513 311.96 125.813 311.307 125.293 310.48C124.786 309.64 124.533 308.687 124.533 307.62C124.533 306.54 124.786 305.587 125.293 304.76C125.813 303.92 126.513 303.267 127.393 302.8C128.286 302.32 129.306 302.08 130.453 302.08C131.586 302.08 132.599 302.32 133.493 302.8C134.386 303.267 135.086 303.913 135.593 304.74C136.099 305.567 136.353 306.527 136.353 307.62C136.353 308.687 136.099 309.64 135.593 310.48C135.086 311.307 134.386 311.96 133.493 312.44C132.599 312.92 131.586 313.16 130.453 313.16ZM130.453 310.6C130.973 310.6 131.439 310.48 131.853 310.24C132.266 310 132.593 309.66 132.833 309.22C133.073 308.767 133.193 308.233 133.193 307.62C133.193 306.993 133.073 306.46 132.833 306.02C132.593 305.58 132.266 305.24 131.853 305C131.439 304.76 130.973 304.64 130.453 304.64C129.933 304.64 129.466 304.76 129.053 305C128.639 305.24 128.306 305.58 128.053 306.02C127.813 306.46 127.693 306.993 127.693 307.62C127.693 308.233 127.813 308.767 128.053 309.22C128.306 309.66 128.639 310 129.053 310.24C129.466 310.48 129.933 310.6 130.453 310.6ZM143.638 313.16C142.478 313.16 141.445 312.927 140.538 312.46C139.631 311.98 138.918 311.32 138.398 310.48C137.891 309.64 137.638 308.687 137.638 307.62C137.638 306.54 137.891 305.587 138.398 304.76C138.918 303.92 139.631 303.267 140.538 302.8C141.445 302.32 142.478 302.08 143.638 302.08C144.771 302.08 145.758 302.32 146.598 302.8C147.438 303.267 148.058 303.94 148.458 304.82L146.038 306.12C145.758 305.613 145.405 305.24 144.978 305C144.565 304.76 144.111 304.64 143.618 304.64C143.085 304.64 142.605 304.76 142.178 305C141.751 305.24 141.411 305.58 141.158 306.02C140.918 306.46 140.798 306.993 140.798 307.62C140.798 308.247 140.918 308.78 141.158 309.22C141.411 309.66 141.751 310 142.178 310.24C142.605 310.48 143.085 310.6 143.618 310.6C144.111 310.6 144.565 310.487 144.978 310.26C145.405 310.02 145.758 309.64 146.038 309.12L148.458 310.44C148.058 311.307 147.438 311.98 146.598 312.46C145.758 312.927 144.771 313.16 143.638 313.16ZM152.756 310.8L152.836 307L157.856 302.24H161.576L156.756 307.14L155.136 308.46L152.756 310.8ZM150.176 313V298.16H153.296V313H150.176ZM158.196 313L154.556 308.48L156.516 306.06L161.976 313H158.196ZM174.244 313.16C173.084 313.16 172.05 312.927 171.144 312.46C170.237 311.98 169.524 311.32 169.004 310.48C168.497 309.64 168.244 308.687 168.244 307.62C168.244 306.54 168.497 305.587 169.004 304.76C169.524 303.92 170.237 303.267 171.144 302.8C172.05 302.32 173.084 302.08 174.244 302.08C175.377 302.08 176.364 302.32 177.204 302.8C178.044 303.267 178.664 303.94 179.064 304.82L176.644 306.12C176.364 305.613 176.01 305.24 175.584 305C175.17 304.76 174.717 304.64 174.224 304.64C173.69 304.64 173.21 304.76 172.784 305C172.357 305.24 172.017 305.58 171.764 306.02C171.524 306.46 171.404 306.993 171.404 307.62C171.404 308.247 171.524 308.78 171.764 309.22C172.017 309.66 172.357 310 172.784 310.24C173.21 310.48 173.69 310.6 174.224 310.6C174.717 310.6 175.17 310.487 175.584 310.26C176.01 310.02 176.364 309.64 176.644 309.12L179.064 310.44C178.664 311.307 178.044 311.98 177.204 312.46C176.364 312.927 175.377 313.16 174.244 313.16ZM185.843 313.16C184.697 313.16 183.677 312.92 182.783 312.44C181.903 311.96 181.203 311.307 180.683 310.48C180.177 309.64 179.923 308.687 179.923 307.62C179.923 306.54 180.177 305.587 180.683 304.76C181.203 303.92 181.903 303.267 182.783 302.8C183.677 302.32 184.697 302.08 185.843 302.08C186.977 302.08 187.99 302.32 188.883 302.8C189.777 303.267 190.477 303.913 190.983 304.74C191.49 305.567 191.743 306.527 191.743 307.62C191.743 308.687 191.49 309.64 190.983 310.48C190.477 311.307 189.777 311.96 188.883 312.44C187.99 312.92 186.977 313.16 185.843 313.16ZM185.843 310.6C186.363 310.6 186.83 310.48 187.243 310.24C187.657 310 187.983 309.66 188.223 309.22C188.463 308.767 188.583 308.233 188.583 307.62C188.583 306.993 188.463 306.46 188.223 306.02C187.983 305.58 187.657 305.24 187.243 305C186.83 304.76 186.363 304.64 185.843 304.64C185.323 304.64 184.857 304.76 184.443 305C184.03 305.24 183.697 305.58 183.443 306.02C183.203 306.46 183.083 306.993 183.083 307.62C183.083 308.233 183.203 308.767 183.443 309.22C183.697 309.66 184.03 310 184.443 310.24C184.857 310.48 185.323 310.6 185.843 310.6ZM200.369 302.08C201.222 302.08 201.982 302.253 202.649 302.6C203.329 302.933 203.862 303.453 204.249 304.16C204.635 304.853 204.829 305.747 204.829 306.84V313H201.709V307.32C201.709 306.453 201.515 305.813 201.129 305.4C200.755 304.987 200.222 304.78 199.529 304.78C199.035 304.78 198.589 304.887 198.189 305.1C197.802 305.3 197.495 305.613 197.269 306.04C197.055 306.467 196.949 307.013 196.949 307.68V313H193.829V302.24H196.809V305.22L196.249 304.32C196.635 303.6 197.189 303.047 197.909 302.66C198.629 302.273 199.449 302.08 200.369 302.08ZM212.057 313.16C210.79 313.16 209.803 312.84 209.097 312.2C208.39 311.547 208.037 310.58 208.037 309.3V299.86H211.157V309.26C211.157 309.713 211.277 310.067 211.517 310.32C211.757 310.56 212.083 310.68 212.497 310.68C212.99 310.68 213.41 310.547 213.757 310.28L214.597 312.48C214.277 312.707 213.89 312.88 213.437 313C212.997 313.107 212.537 313.16 212.057 313.16ZM206.377 304.88V302.48H213.837V304.88H206.377ZM221.356 313.16C220.13 313.16 219.05 312.92 218.116 312.44C217.196 311.96 216.483 311.307 215.976 310.48C215.47 309.64 215.216 308.687 215.216 307.62C215.216 306.54 215.463 305.587 215.956 304.76C216.463 303.92 217.15 303.267 218.016 302.8C218.883 302.32 219.863 302.08 220.956 302.08C222.01 302.08 222.956 302.307 223.796 302.76C224.65 303.2 225.323 303.84 225.816 304.68C226.31 305.507 226.556 306.5 226.556 307.66C226.556 307.78 226.55 307.92 226.536 308.08C226.523 308.227 226.51 308.367 226.496 308.5H217.756V306.68H224.856L223.656 307.22C223.656 306.66 223.543 306.173 223.316 305.76C223.09 305.347 222.776 305.027 222.376 304.8C221.976 304.56 221.51 304.44 220.976 304.44C220.443 304.44 219.97 304.56 219.556 304.8C219.156 305.027 218.843 305.353 218.616 305.78C218.39 306.193 218.276 306.687 218.276 307.26V307.74C218.276 308.327 218.403 308.847 218.656 309.3C218.923 309.74 219.29 310.08 219.756 310.32C220.236 310.547 220.796 310.66 221.436 310.66C222.01 310.66 222.51 310.573 222.936 310.4C223.376 310.227 223.776 309.967 224.136 309.62L225.796 311.42C225.303 311.98 224.683 312.413 223.936 312.72C223.19 313.013 222.33 313.16 221.356 313.16ZM235.173 302.08C236.027 302.08 236.787 302.253 237.453 302.6C238.133 302.933 238.667 303.453 239.053 304.16C239.44 304.853 239.633 305.747 239.633 306.84V313H236.513V307.32C236.513 306.453 236.32 305.813 235.933 305.4C235.56 304.987 235.027 304.78 234.333 304.78C233.84 304.78 233.393 304.887 232.993 305.1C232.607 305.3 232.3 305.613 232.073 306.04C231.86 306.467 231.753 307.013 231.753 307.68V313H228.633V302.24H231.613V305.22L231.053 304.32C231.44 303.6 231.993 303.047 232.713 302.66C233.433 302.273 234.253 302.08 235.173 302.08ZM246.861 313.16C245.595 313.16 244.608 312.84 243.901 312.2C243.195 311.547 242.841 310.58 242.841 309.3V299.86H245.961V309.26C245.961 309.713 246.081 310.067 246.321 310.32C246.561 310.56 246.888 310.68 247.301 310.68C247.795 310.68 248.215 310.547 248.561 310.28L249.401 312.48C249.081 312.707 248.695 312.88 248.241 313C247.801 313.107 247.341 313.16 246.861 313.16ZM241.181 304.88V302.48H248.641V304.88H241.181Z" fill="#202027"/>
<defs>
<filter id="filter0_ddd_123_11995" x="0" y="0" width="337" height="402" filterUnits="userSpaceOnUse" color-interpolation-filters="sRGB">
<feFlood flood-opacity="0" result="BackgroundImageFix"/>
<feColorMatrix in="SourceAlpha" type="matrix" values="0 0 0 0 0 0 0 0 0 0 0 0 0 0 0 0 0 0 127 0" result="hardAlpha"/>
<feMorphology radius="1" operator="erode" in="SourceAlpha" result="effect1_dropShadow_123_11995"/>
<feOffset dy="4"/>
<feGaussianBlur stdDeviation="4"/>
<feComposite in2="hardAlpha" operator="out"/>
<feColorMatrix type="matrix" values="0 0 0 0 0.027451 0 0 0 0 0 0 0 0 0 0.109804 0 0 0 0.03 0"/>
<feBlend mode="normal" in2="BackgroundImageFix" result="effect1_dropShadow_123_11995"/>
<feColorMatrix in="SourceAlpha" type="matrix" values="0 0 0 0 0 0 0 0 0 0 0 0 0 0 0 0 0 0 127 0" result="hardAlpha"/>
<feMorphology radius="3" operator="erode" in="SourceAlpha" result="effect2_dropShadow_123_11995"/>
<feOffset dy="8"/>
<feGaussianBlur stdDeviation="8"/>
<feComposite in2="hardAlpha" operator="out"/>
<feColorMatrix type="matrix" values="0 0 0 0 0.027451 0 0 0 0 0 0 0 0 0 0.109804 0 0 0 0.03 0"/>
<feBlend mode="normal" in2="effect1_dropShadow_123_11995" result="effect2_dropShadow_123_11995"/>
<feColorMatrix in="SourceAlpha" type="matrix" values="0 0 0 0 0 0 0 0 0 0 0 0 0 0 0 0 0 0 127 0" result="hardAlpha"/>
<feMorphology radius="6" operator="erode" in="SourceAlpha" result="effect3_dropShadow_123_11995"/>
<feOffset dy="16"/>
<feGaussianBlur stdDeviation="16"/>
<feComposite in2="hardAlpha" operator="out"/>
<feColorMatrix type="matrix" values="0 0 0 0 0.027451 0 0 0 0 0 0 0 0 0 0.109804 0 0 0 0.02 0"/>
<feBlend mode="normal" in2="effect2_dropShadow_123_11995" result="effect3_dropShadow_123_11995"/>
<feBlend mode="normal" in="SourceGraphic" in2="effect3_dropShadow_123_11995" result="shape"/>
</filter>
<linearGradient id="paint0_linear_123_11995" x1="154.5" y1="10" x2="222.5" y2="372.5" gradientUnits="userSpaceOnUse">
<stop stop-color="#F6FCFF"/>
<stop offset="0.998764" stop-color="#7C4EFF"/>
</linearGradient>
<linearGradient id="paint1_linear_123_11995" x1="115" y1="67" x2="208" y2="238" gradientUnits="userSpaceOnUse">
<stop stop-color="#7C4EFF"/>
<stop offset="0.904355" stop-color="#7C4EFF" stop-opacity="0"/>
</linearGradient>
<linearGradient id="paint2_linear_123_11995" x1="227.9" y1="77.2473" x2="241.85" y2="102.897" gradientUnits="userSpaceOnUse">
<stop stop-color="#7C4EFF"/>
<stop offset="0.904355" stop-color="#7C4EFF" stop-opacity="0"/>
</linearGradient>
<linearGradient id="paint3_linear_123_11995" x1="128.151" y1="146.391" x2="209.88" y2="193.577" gradientUnits="userSpaceOnUse">
<stop stop-color="#BCBEFF"/>
<stop offset="0.2271" stop-color="#AAADF8"/>
<stop offset="0.6802" stop-color="#7C83E5"/>
<stop offset="1" stop-color="#5761D7"/>
</linearGradient>
<linearGradient id="paint4_linear_123_11995" x1="117.903" y1="164.227" x2="220.912" y2="164.227" gradientUnits="userSpaceOnUse">
<stop stop-color="#E9E9FD"/>
<stop offset="0.3601" stop-color="#D3D2F9"/>
<stop offset="0.7062" stop-color="#C5C4F7"/>
<stop offset="1" stop-color="#C0BFF6"/>
</linearGradient>
<linearGradient id="paint5_linear_123_11995" x1="147.299" y1="202.508" x2="202.28" y2="202.508" gradientUnits="userSpaceOnUse">
<stop stop-color="#BCBEFF"/>
<stop offset="0.1443" stop-color="#B4B7FC"/>
<stop offset="0.3696" stop-color="#9EA2F3"/>
<stop offset="0.6461" stop-color="#7A81E5"/>
<stop offset="0.873" stop-color="#5761D7"/>
</linearGradient>
<linearGradient id="paint6_linear_123_11995" x1="89.3538" y1="176.244" x2="225.031" y2="176.244" gradientUnits="userSpaceOnUse">
<stop stop-color="#E9E9FD"/>
<stop offset="0.3601" stop-color="#D3D2F9"/>
<stop offset="0.7062" stop-color="#C5C4F7"/>
<stop offset="1" stop-color="#C0BFF6"/>
</linearGradient>
<linearGradient id="paint7_linear_123_11995" x1="147.3" y1="130.763" x2="202.281" y2="130.763" gradientUnits="userSpaceOnUse">
<stop stop-color="#C9BCFF"/>
<stop offset="0.1443" stop-color="#C7B4FC"/>
<stop offset="0.3696" stop-color="#AF9EF3"/>
<stop offset="0.6461" stop-color="#897AE5"/>
<stop offset="0.873" stop-color="#7157D7"/>
</linearGradient>
<linearGradient id="paint8_linear_123_11995" x1="89.3545" y1="104.499" x2="225.032" y2="104.499" gradientUnits="userSpaceOnUse">
<stop stop-color="#E9E9FD"/>
<stop offset="0.3601" stop-color="#D3D2F9"/>
<stop offset="0.7062" stop-color="#C5C4F7"/>
<stop offset="1" stop-color="#C0BFF6"/>
</linearGradient>
<linearGradient id="paint9_linear_123_11995" x1="126.846" y1="79.6684" x2="225.107" y2="96.5436" gradientUnits="userSpaceOnUse">
<stop stop-color="#BDBCFF"/>
<stop offset="0.1443" stop-color="#C2B4FC"/>
<stop offset="0.3696" stop-color="#AA9EF3"/>
<stop offset="0.6461" stop-color="#8F7AE5"/>
<stop offset="0.873" stop-color="#6957D7"/>
</linearGradient>
</defs>
</svg>
