<svg width="66" height="95" viewBox="0 0 66 95" fill="none" xmlns="http://www.w3.org/2000/svg">
<g opacity="0.5">
<g opacity="0.11">
<path d="M35.3254 58.2221C33.7951 57.3295 31.8822 57.3295 30.3094 58.2221L0.511033 75.3955C0.0434413 75.6506 0.0434413 76.3307 0.511033 76.6283L30.5644 93.9717C31.9247 94.7794 33.625 94.7794 34.9853 93.9717L65.0813 76.6283C65.5488 76.3732 65.5488 75.6931 65.0813 75.3955L35.3254 58.2221Z" fill="url(#paint0_linear_123_10969)"/>
</g>
<g opacity="0.11">
<path d="M35.3254 53.1637C33.7951 52.271 31.8822 52.271 30.3094 53.1637L0.511033 70.337C0.0434413 70.5921 0.0434413 71.2722 0.511033 71.5698L30.5644 88.9132C31.9247 89.7209 33.625 89.7209 34.9853 88.9132L65.0813 71.5698C65.5488 71.3147 65.5488 70.6346 65.0813 70.337L35.3254 53.1637Z" fill="url(#paint1_linear_123_10969)"/>
</g>
<g opacity="0.11">
<path d="M35.3254 48.1477C33.7951 47.255 31.8822 47.255 30.3094 48.1477L0.511033 65.3211C0.0434413 65.5761 0.0434413 66.2563 0.511033 66.5538L30.5644 83.8972C31.9247 84.7049 33.625 84.7049 34.9853 83.8972L65.0813 66.5538C65.5488 66.2988 65.5488 65.6186 65.0813 65.3211L35.3254 48.1477Z" fill="url(#paint2_linear_123_10969)"/>
</g>
<g opacity="0.11">
<path d="M35.3253 43.1318C33.795 42.2391 31.8821 42.2391 30.3093 43.1318L0.510972 60.3051C0.0433803 60.5602 0.0433803 61.2403 0.510972 61.5379L30.5644 78.8813C31.9247 79.689 33.625 79.689 34.9853 78.8813L65.0812 61.5379C65.5488 61.2828 65.5488 60.6027 65.0812 60.3051L35.3253 43.1318Z" fill="url(#paint3_linear_123_10969)"/>
</g>
<path opacity="0.11" d="M65.0815 60.3051L35.3256 43.1317C33.7953 42.2391 31.8825 42.2391 30.3096 43.1317L0.511278 60.3051C0.256228 60.4326 0.171204 60.6877 0.171204 60.9002V75.9482C0.171204 76.2033 0.298737 76.4158 0.511278 76.5433L30.5647 93.8867C31.925 94.6944 33.6253 94.6944 34.9856 93.8867L65.0815 76.5433C65.3365 76.4158 65.4216 76.1608 65.4216 75.9482V60.9002C65.4216 60.6877 65.3365 60.4752 65.0815 60.3051Z" fill="url(#paint4_linear_123_10969)"/>
</g>
<g opacity="0.11">
<path d="M35.3254 37.4356C33.7951 36.5429 31.8822 36.5429 30.3094 37.4356L0.511033 54.609C0.0434413 54.864 0.0434413 55.5442 0.511033 55.8417L30.5644 73.1852C31.9247 73.9928 33.625 73.9928 34.9853 73.1852L65.0813 55.8417C65.5488 55.5867 65.5488 54.9065 65.0813 54.609L35.3254 37.4356Z" fill="url(#paint5_linear_123_10969)"/>
</g>
<g opacity="0.11">
<path d="M35.3254 32.4196C33.7951 31.527 31.8822 31.527 30.3094 32.4196L0.511033 49.593C0.0434413 49.8481 0.0434413 50.5282 0.511033 50.8258L30.5644 68.1692C31.9247 68.9768 33.625 68.9768 34.9853 68.1692L65.0813 50.8258C65.5488 50.5707 65.5488 49.8906 65.0813 49.593L35.3254 32.4196Z" fill="url(#paint6_linear_123_10969)"/>
</g>
<g opacity="0.11">
<path d="M35.3254 27.4036C33.7951 26.5109 31.8822 26.5109 30.3094 27.4036L0.511033 44.5769C0.0434413 44.832 0.0434413 45.5121 0.511033 45.8097L30.5644 63.1531C31.9247 63.9608 33.625 63.9608 34.9853 63.1531L65.0813 45.8097C65.5488 45.5546 65.5488 44.8745 65.0813 44.5769L35.3254 27.4036Z" fill="url(#paint7_linear_123_10969)"/>
</g>
<g opacity="0.11">
<path d="M35.3253 22.3877C33.795 21.495 31.8821 21.495 30.3093 22.3877L0.510972 39.5611C0.0433803 39.8161 0.0433803 40.4963 0.510972 40.7938L30.5644 58.1373C31.9247 58.9449 33.625 58.9449 34.9853 58.1373L65.0812 40.7938C65.5488 40.5388 65.5488 39.8586 65.0812 39.5611L35.3253 22.3877Z" fill="url(#paint8_linear_123_10969)"/>
</g>
<path opacity="0.11" d="M65.0815 39.561L35.3256 22.3876C33.7953 21.4949 31.8825 21.4949 30.3096 22.3876L0.511278 39.561C0.256228 39.6885 0.171204 39.9436 0.171204 40.1561V55.2041C0.171204 55.4591 0.298737 55.6717 0.511278 55.7992L30.5647 73.1426C31.925 73.9503 33.6253 73.9503 34.9856 73.1426L65.0815 55.7992C65.3365 55.6717 65.4216 55.4166 65.4216 55.2041V40.1561C65.4216 39.9436 65.3365 39.6885 65.0815 39.561Z" fill="url(#paint9_linear_123_10969)"/>
<g opacity="0.11">
<path d="M35.3253 16.6491C33.795 15.7565 31.8821 15.7565 30.3093 16.6491L0.510972 33.8225C0.0433803 34.0776 0.0433803 34.7577 0.510972 35.0553L30.5644 52.3987C31.9247 53.2063 33.625 53.2063 34.9853 52.3987L65.0812 35.0553C65.5488 34.8002 65.5488 34.1201 65.0812 33.8225L35.3253 16.6491Z" fill="url(#paint10_linear_123_10969)"/>
</g>
<g opacity="0.11">
<path d="M35.3253 11.633C33.795 10.7404 31.8821 10.7404 30.3093 11.633L0.510972 28.8064C0.0433803 29.0615 0.0433803 29.7416 0.510972 30.0392L30.5644 47.3826C31.9247 48.1902 33.625 48.1902 34.9853 47.3826L65.0812 30.0392C65.5488 29.7841 65.5488 29.104 65.0812 28.8064L35.3253 11.633Z" fill="url(#paint11_linear_123_10969)"/>
</g>
<g opacity="0.11">
<path d="M35.3253 6.61708C33.795 5.7244 31.8821 5.7244 30.3093 6.61708L0.510972 23.7905C0.0433803 24.0455 0.0433803 24.7256 0.510972 25.0232L30.5644 42.3666C31.9247 43.1743 33.625 43.1743 34.9853 42.3666L65.0812 25.0232C65.5488 24.7682 65.5488 24.088 65.0812 23.7905L35.3253 6.61708Z" fill="url(#paint12_linear_123_10969)"/>
</g>
<g opacity="0.11">
<path d="M35.3253 1.60121C33.795 0.708533 31.8821 0.708533 30.3093 1.60121L0.510911 18.7746C0.0433193 19.0296 0.0433193 19.7098 0.510911 20.0073L30.5643 37.3508C31.9246 38.1584 33.6249 38.1584 34.9852 37.3508L65.0811 20.0073C65.5487 19.7523 65.5487 19.0722 65.0811 18.7746L35.3253 1.60121Z" fill="url(#paint13_linear_123_10969)"/>
</g>
<path opacity="0.5" d="M65.0814 18.7745L35.3256 1.60112C33.7953 0.708441 31.8824 0.708441 30.3096 1.60112L0.511217 18.7745C0.256167 18.902 0.171143 19.1571 0.171143 19.3696V34.4176C0.171143 34.6726 0.298675 34.8852 0.511217 35.0127L30.5646 52.3561C31.9249 53.1638 33.6252 53.1638 34.9855 52.3561L65.0814 35.0127C65.3365 34.8852 65.4215 34.6301 65.4215 34.4176V19.3696C65.4215 19.1571 65.3365 18.902 65.0814 18.7745Z" fill="url(#paint14_linear_123_10969)"/>
<g opacity="0.11">
<path d="M35.3253 1.60121C33.795 0.708533 31.8821 0.708533 30.3093 1.60121L0.510911 18.7746C0.0433193 19.0296 0.0433193 19.7098 0.510911 20.0073L30.5643 37.3508C31.9246 38.1584 33.6249 38.1584 34.9852 37.3508L65.0811 20.0073C65.5487 19.7523 65.5487 19.0722 65.0811 18.7746L35.3253 1.60121Z" fill="url(#paint15_linear_123_10969)"/>
</g>
<g opacity="0.5">
<path d="M33.8799 11.463C33.2423 11.0805 32.4346 11.0805 31.7545 11.463L18.4068 19.1571C18.1943 19.2846 18.1943 19.5821 18.4068 19.7097L31.797 27.4462C32.3921 27.7863 33.1573 27.7863 33.7524 27.4462L47.185 19.7097C47.3976 19.5821 47.3976 19.2846 47.185 19.1571L33.8799 11.463Z" fill="#42E8E0"/>
</g>
<path d="M18.4071 19.6247L31.7548 11.9307C32.3924 11.5481 33.2001 11.5481 33.8802 11.9307L47.2278 19.6247C47.2278 19.6247 47.2278 19.6672 47.2703 19.6672C47.4404 19.5397 47.4404 19.2847 47.2278 19.1571L33.8802 11.4631C33.2426 11.0805 32.4349 11.0805 31.7548 11.4631L18.4071 19.1571C18.1946 19.2421 18.1946 19.4972 18.4071 19.6247Z" fill="#42E8E0"/>
<path d="M65.0809 19.3271L34.9849 36.6705C33.6247 37.4782 31.9243 37.4782 30.5641 36.6705L0.510662 19.3271C0.383137 19.2421 0.298118 19.1571 0.255609 19.072C0.0855758 19.3696 0.170595 19.8372 0.510662 20.0072L30.5641 37.3506C31.9243 38.1583 33.6247 38.1583 34.9849 37.3506L65.0809 20.0072C65.421 19.7947 65.506 19.3696 65.3359 19.072C65.2934 19.1571 65.2084 19.2421 65.0809 19.3271Z" fill="url(#paint16_linear_123_10969)"/>
<path d="M3.69916 24.5981L4.42179 25.0232V24.5556L3.69916 24.1305V24.5981Z" fill="#42E8E0"/>
<path d="M3.69916 27.9562L4.42179 28.3812V25.4907L3.69916 25.0656V27.9562Z" fill="#42E8E0"/>
<path d="M3.69916 29.5716L4.42179 29.9967V28.849L3.69916 28.4239V29.5716Z" fill="#42E8E0"/>
<path d="M3.69916 31.2294L4.42179 31.6545V30.5068L3.69916 30.0817V31.2294Z" fill="#42E8E0"/>
<path d="M2.59399 25.5758L3.31663 26.0009V24.8531L2.59399 24.4281V25.5758Z" fill="#42E8E0"/>
<path d="M2.59399 27.7862L3.31663 28.2113V26.511L2.59399 26.0859V27.7862Z" fill="#42E8E0"/>
<path d="M2.59399 29.8266L3.31663 30.2517V28.8064L2.59399 28.3813V29.8266Z" fill="#42E8E0"/>
<path d="M3.69916 32.8872L4.42179 33.3123V32.1646L3.69916 31.7395V32.8872Z" fill="#42E8E0"/>
<path d="M2.59387 23.9605L3.31651 24.3856V23.918L2.59387 23.4929V23.9605Z" fill="#42E8E0"/>
<path d="M3.14661 34.205L4.42186 34.9276V34.46L3.14661 33.7374V34.205Z" fill="#42E8E0"/>
<defs>
<linearGradient id="paint0_linear_123_10969" x1="0.176152" y1="76.0281" x2="65.4364" y2="76.0281" gradientUnits="userSpaceOnUse">
<stop stop-color="#5761D7"/>
<stop offset="0.0725775" stop-color="#5472D8"/>
<stop offset="0.2791" stop-color="#4E9CDB"/>
<stop offset="0.4801" stop-color="#49BDDD"/>
<stop offset="0.6715" stop-color="#45D5DF"/>
<stop offset="0.8493" stop-color="#43E3E0"/>
<stop offset="1" stop-color="#42E8E0"/>
</linearGradient>
<linearGradient id="paint1_linear_123_10969" x1="0.176152" y1="71.0079" x2="65.4364" y2="71.0079" gradientUnits="userSpaceOnUse">
<stop stop-color="#5761D7"/>
<stop offset="0.0725775" stop-color="#5472D8"/>
<stop offset="0.2791" stop-color="#4E9CDB"/>
<stop offset="0.4801" stop-color="#49BDDD"/>
<stop offset="0.6715" stop-color="#45D5DF"/>
<stop offset="0.8493" stop-color="#43E3E0"/>
<stop offset="1" stop-color="#42E8E0"/>
</linearGradient>
<linearGradient id="paint2_linear_123_10969" x1="0.176152" y1="65.9877" x2="65.4364" y2="65.9877" gradientUnits="userSpaceOnUse">
<stop stop-color="#5761D7"/>
<stop offset="0.0725775" stop-color="#5472D8"/>
<stop offset="0.2791" stop-color="#4E9CDB"/>
<stop offset="0.4801" stop-color="#49BDDD"/>
<stop offset="0.6715" stop-color="#45D5DF"/>
<stop offset="0.8493" stop-color="#43E3E0"/>
<stop offset="1" stop-color="#42E8E0"/>
</linearGradient>
<linearGradient id="paint3_linear_123_10969" x1="0.176091" y1="60.9675" x2="65.4363" y2="60.9675" gradientUnits="userSpaceOnUse">
<stop stop-color="#5761D7"/>
<stop offset="0.0725775" stop-color="#5472D8"/>
<stop offset="0.2791" stop-color="#4E9CDB"/>
<stop offset="0.4801" stop-color="#49BDDD"/>
<stop offset="0.6715" stop-color="#45D5DF"/>
<stop offset="0.8493" stop-color="#43E3E0"/>
<stop offset="1" stop-color="#42E8E0"/>
</linearGradient>
<linearGradient id="paint4_linear_123_10969" x1="0.17639" y1="68.4978" x2="65.4366" y2="68.4978" gradientUnits="userSpaceOnUse">
<stop stop-color="#5761D7"/>
<stop offset="0.0725775" stop-color="#5472D8"/>
<stop offset="0.2791" stop-color="#4E9CDB"/>
<stop offset="0.4801" stop-color="#49BDDD"/>
<stop offset="0.6715" stop-color="#45D5DF"/>
<stop offset="0.8493" stop-color="#43E3E0"/>
<stop offset="1" stop-color="#42E8E0"/>
</linearGradient>
<linearGradient id="paint5_linear_123_10969" x1="0.176152" y1="55.2603" x2="65.4364" y2="55.2603" gradientUnits="userSpaceOnUse">
<stop stop-color="#5761D7"/>
<stop offset="0.0725775" stop-color="#5472D8"/>
<stop offset="0.2791" stop-color="#4E9CDB"/>
<stop offset="0.4801" stop-color="#49BDDD"/>
<stop offset="0.6715" stop-color="#45D5DF"/>
<stop offset="0.8493" stop-color="#43E3E0"/>
<stop offset="1" stop-color="#42E8E0"/>
</linearGradient>
<linearGradient id="paint6_linear_123_10969" x1="0.176152" y1="50.24" x2="65.4364" y2="50.24" gradientUnits="userSpaceOnUse">
<stop stop-color="#5761D7"/>
<stop offset="0.0725775" stop-color="#5472D8"/>
<stop offset="0.2791" stop-color="#4E9CDB"/>
<stop offset="0.4801" stop-color="#49BDDD"/>
<stop offset="0.6715" stop-color="#45D5DF"/>
<stop offset="0.8493" stop-color="#43E3E0"/>
<stop offset="1" stop-color="#42E8E0"/>
</linearGradient>
<linearGradient id="paint7_linear_123_10969" x1="0.176152" y1="45.2197" x2="65.4364" y2="45.2197" gradientUnits="userSpaceOnUse">
<stop stop-color="#5761D7"/>
<stop offset="0.0725775" stop-color="#5472D8"/>
<stop offset="0.2791" stop-color="#4E9CDB"/>
<stop offset="0.4801" stop-color="#49BDDD"/>
<stop offset="0.6715" stop-color="#45D5DF"/>
<stop offset="0.8493" stop-color="#43E3E0"/>
<stop offset="1" stop-color="#42E8E0"/>
</linearGradient>
<linearGradient id="paint8_linear_123_10969" x1="0.176091" y1="40.1996" x2="65.4363" y2="40.1996" gradientUnits="userSpaceOnUse">
<stop stop-color="#5761D7"/>
<stop offset="0.0725775" stop-color="#5472D8"/>
<stop offset="0.2791" stop-color="#4E9CDB"/>
<stop offset="0.4801" stop-color="#49BDDD"/>
<stop offset="0.6715" stop-color="#45D5DF"/>
<stop offset="0.8493" stop-color="#43E3E0"/>
<stop offset="1" stop-color="#42E8E0"/>
</linearGradient>
<linearGradient id="paint9_linear_123_10969" x1="0.17639" y1="47.7298" x2="65.4366" y2="47.7298" gradientUnits="userSpaceOnUse">
<stop stop-color="#5761D7"/>
<stop offset="0.0725775" stop-color="#5472D8"/>
<stop offset="0.2791" stop-color="#4E9CDB"/>
<stop offset="0.4801" stop-color="#49BDDD"/>
<stop offset="0.6715" stop-color="#45D5DF"/>
<stop offset="0.8493" stop-color="#43E3E0"/>
<stop offset="1" stop-color="#42E8E0"/>
</linearGradient>
<linearGradient id="paint10_linear_123_10969" x1="0.176091" y1="34.4924" x2="65.4363" y2="34.4924" gradientUnits="userSpaceOnUse">
<stop stop-color="#5761D7"/>
<stop offset="0.0725775" stop-color="#5472D8"/>
<stop offset="0.2791" stop-color="#4E9CDB"/>
<stop offset="0.4801" stop-color="#49BDDD"/>
<stop offset="0.6715" stop-color="#45D5DF"/>
<stop offset="0.8493" stop-color="#43E3E0"/>
<stop offset="1" stop-color="#42E8E0"/>
</linearGradient>
<linearGradient id="paint11_linear_123_10969" x1="0.176091" y1="29.4721" x2="65.4363" y2="29.4721" gradientUnits="userSpaceOnUse">
<stop stop-color="#5761D7"/>
<stop offset="0.0725775" stop-color="#5472D8"/>
<stop offset="0.2791" stop-color="#4E9CDB"/>
<stop offset="0.4801" stop-color="#49BDDD"/>
<stop offset="0.6715" stop-color="#45D5DF"/>
<stop offset="0.8493" stop-color="#43E3E0"/>
<stop offset="1" stop-color="#42E8E0"/>
</linearGradient>
<linearGradient id="paint12_linear_123_10969" x1="0.176091" y1="24.4519" x2="65.4363" y2="24.4519" gradientUnits="userSpaceOnUse">
<stop stop-color="#5761D7"/>
<stop offset="0.0725775" stop-color="#5472D8"/>
<stop offset="0.2791" stop-color="#4E9CDB"/>
<stop offset="0.4801" stop-color="#49BDDD"/>
<stop offset="0.6715" stop-color="#45D5DF"/>
<stop offset="0.8493" stop-color="#43E3E0"/>
<stop offset="1" stop-color="#42E8E0"/>
</linearGradient>
<linearGradient id="paint13_linear_123_10969" x1="0.17603" y1="19.4317" x2="65.4362" y2="19.4317" gradientUnits="userSpaceOnUse">
<stop stop-color="#5761D7"/>
<stop offset="0.0725775" stop-color="#5472D8"/>
<stop offset="0.2791" stop-color="#4E9CDB"/>
<stop offset="0.4801" stop-color="#49BDDD"/>
<stop offset="0.6715" stop-color="#45D5DF"/>
<stop offset="0.8493" stop-color="#43E3E0"/>
<stop offset="1" stop-color="#42E8E0"/>
</linearGradient>
<linearGradient id="paint14_linear_123_10969" x1="0.176329" y1="26.962" x2="65.4365" y2="26.962" gradientUnits="userSpaceOnUse">
<stop stop-color="#5761D7"/>
<stop offset="0.0725775" stop-color="#5472D8"/>
<stop offset="0.2791" stop-color="#4E9CDB"/>
<stop offset="0.4801" stop-color="#49BDDD"/>
<stop offset="0.6715" stop-color="#45D5DF"/>
<stop offset="0.8493" stop-color="#43E3E0"/>
<stop offset="1" stop-color="#42E8E0"/>
</linearGradient>
<linearGradient id="paint15_linear_123_10969" x1="0.17603" y1="19.4317" x2="65.4362" y2="19.4317" gradientUnits="userSpaceOnUse">
<stop stop-color="#5761D7"/>
<stop offset="0.0725775" stop-color="#5472D8"/>
<stop offset="0.2791" stop-color="#4E9CDB"/>
<stop offset="0.4801" stop-color="#49BDDD"/>
<stop offset="0.6715" stop-color="#45D5DF"/>
<stop offset="0.8493" stop-color="#43E3E0"/>
<stop offset="1" stop-color="#42E8E0"/>
</linearGradient>
<linearGradient id="paint16_linear_123_10969" x1="0.176162" y1="28.4798" x2="65.4356" y2="28.4798" gradientUnits="userSpaceOnUse">
<stop stop-color="#5472D8"/>
<stop offset="0.2791" stop-color="#4E9CDB"/>
<stop offset="0.4801" stop-color="#49BDDD"/>
<stop offset="0.6715" stop-color="#45D5DF"/>
<stop offset="0.8493" stop-color="#43E3E0"/>
<stop offset="1" stop-color="#42E8E0"/>
</linearGradient>
</defs>
</svg>
